<?xml version="1.0" encoding="UTF-8"?>
<!--
This file has been modified from the original version by the kanji_colorize.py
script (available at http://github.com/cayennes/kanji-colorize) with these
settings:
    mode: spectrum
    saturation: 0.95
    value: 0.75
    image_size: 327
It remains under a Creative Commons-Attribution-Share Alike 3.0 License.

The original SVG has the following copyright:

Copyright (C) 2009/2010/2011 Ulrich Apel.
This work is distributed under the conditions of the Creative Commons
Attribution-Share Alike 3.0 Licence. This means you are free:
* to Share - to copy, distribute and transmit the work
* to Remix - to adapt the work

Under the following conditions:
* Attribution. You must attribute the work by stating your use of KanjiVG in
  your own copyright header and linking to KanjiVG's website
  (http://kanjivg.tagaini.net)
* Share Alike. If you alter, transform, or build upon this work, you may
  distribute the resulting work only under the same or similar license to this
  one.

See http://creativecommons.org/licenses/by-sa/3.0/ for more details.
-->
<!DOCTYPE svg PUBLIC "-//W3C//DTD SVG 1.0//EN" "http://www.w3.org/TR/2001/REC-SVG-20010904/DTD/svg10.dtd" [
<!ATTLIST g
xmlns:kvg CDATA #FIXED "http://kanjivg.tagaini.net"
kvg:element CDATA #IMPLIED
kvg:variant CDATA #IMPLIED
kvg:partial CDATA #IMPLIED
kvg:original CDATA #IMPLIED
kvg:part CDATA #IMPLIED
kvg:number CDATA #IMPLIED
kvg:tradForm CDATA #IMPLIED
kvg:radicalForm CDATA #IMPLIED
kvg:position CDATA #IMPLIED
kvg:radical CDATA #IMPLIED
kvg:phon CDATA #IMPLIED >
<!ATTLIST path
xmlns:kvg CDATA #FIXED "http://kanjivg.tagaini.net"
kvg:type CDATA #IMPLIED >
]>
<svg xmlns="http://www.w3.org/2000/svg" width="327" height = "327" viewBox="0 0 327 327">
<g id="kvg:StrokePaths_04e98-Kaisho" style="fill:none;stroke:#000000;stroke-width:3;stroke-linecap:round;stroke-linejoin:round;" transform="scale(3.0,3.0)">
<g id="kvg:04e98-Kaisho" kvg:element="亘">
	<g id="kvg:04e98-Kaisho-g1" kvg:element="二" kvg:part="1" kvg:position="top" kvg:radical="tradit">
		<g id="kvg:04e98-Kaisho-g2" kvg:element="一" kvg:radical="nelson">
			<path style="stroke: #bf0909;" id="kvg:04e98-Kaisho-s1" kvg:type="㇐" d="M24.25,21c1.16,0.47,3.27,0.6,4.43,0.47c7.36-0.81,44.57-4.47,53.03-4.28c1.92,0.04,3.08,0.22,4.04,0.46"/>
		</g>
	</g>
	<g id="kvg:04e98-Kaisho-g3" kvg:element="旦" kvg:position="bottom">
		<g id="kvg:04e98-Kaisho-g4" kvg:element="日" kvg:position="top">
			<path style="stroke: #bfbf09;" id="kvg:04e98-Kaisho-s2" kvg:type="㇑" d="M30.27,36.65c0.77,0.87,2.05,2.81,2.05,3.98c0.18,4.12,2.52,33.21,2.73,34.37"/>
			<path style="stroke: #09bf09;" id="kvg:04e98-Kaisho-s3" kvg:type="㇕a" d="M32.6,37.3c4.36-0.15,37.48-2.86,41.45-3.04c3.31-0.15,4.45,1.49,4.18,3.98C78,43,75.5,64,73.9,71.92"/>
			<path style="stroke: #09bfbf;" id="kvg:04e98-Kaisho-s4" kvg:type="㇐a" d="M33.77,53.19c7.1,0,14.24-0.61,21.32-0.98c2.37-0.12,4.74-0.24,7.01-0.36"/>
			<path style="stroke: #0909bf;" id="kvg:04e98-Kaisho-s5" kvg:type="㇐a" d="M36.12,71.9c7.31,0,28.38-2.17,37.84-2.17"/>
		</g>
		<g id="kvg:04e98-Kaisho-g5" kvg:element="二" kvg:part="2" kvg:position="bottom" kvg:radical="tradit">
			<g id="kvg:04e98-Kaisho-g6" kvg:element="一">
				<path style="stroke: #bf09bf;" id="kvg:04e98-Kaisho-s6" kvg:type="㇐" d="M15.5,90.5c1.5,0.5,4.25,0.53,5.75,0.5C34.5,90.75,73,87.75,88.5,87.76c2.5,0,4,0.24,5.25,0.49"/>
			</g>
		</g>
	</g>
</g>
</g>
<g id="kvg:StrokeNumbers_04e98-Kaisho" style="font-size:8;fill:#808080" transform="scale(3.0,3.0)">
	<text style="fill: #bf0909;" transform="matrix(1 0 0 1 17.25 21.25)">1</text>
	<text style="fill: #bfbf09;" transform="matrix(1 0 0 1 25.00 46.30)">2</text>
	<text style="fill: #09bf09;" transform="matrix(1 0 0 1 35.25 33.25)">3</text>
	<text style="fill: #09bfbf;" transform="matrix(1 0 0 1 39.07 50.25)">4</text>
	<text style="fill: #0909bf;" transform="matrix(1 0 0 1 39.25 68.25)">5</text>
	<text style="fill: #bf09bf;" transform="matrix(1 0 0 1 7.25 92.25)">6</text>
</g>
</svg>
