<?xml version="1.0" encoding="UTF-8"?>
<!--
This file has been modified from the original version by the kanji_colorize.py
script (available at http://github.com/cayennes/kanji-colorize) with these
settings:
    mode: spectrum
    saturation: 0.95
    value: 0.75
    image_size: 327
It remains under a Creative Commons-Attribution-Share Alike 3.0 License.

The original SVG has the following copyright:

Copyright (C) 2009/2010/2011 Ulrich Apel.
This work is distributed under the conditions of the Creative Commons
Attribution-Share Alike 3.0 Licence. This means you are free:
* to Share - to copy, distribute and transmit the work
* to Remix - to adapt the work

Under the following conditions:
* Attribution. You must attribute the work by stating your use of KanjiVG in
  your own copyright header and linking to KanjiVG's website
  (http://kanjivg.tagaini.net)
* Share Alike. If you alter, transform, or build upon this work, you may
  distribute the resulting work only under the same or similar license to this
  one.

See http://creativecommons.org/licenses/by-sa/3.0/ for more details.
-->
<!DOCTYPE svg PUBLIC "-//W3C//DTD SVG 1.0//EN" "http://www.w3.org/TR/2001/REC-SVG-20010904/DTD/svg10.dtd" [
<!ATTLIST g
xmlns:kvg CDATA #FIXED "http://kanjivg.tagaini.net"
kvg:element CDATA #IMPLIED
kvg:variant CDATA #IMPLIED
kvg:partial CDATA #IMPLIED
kvg:original CDATA #IMPLIED
kvg:part CDATA #IMPLIED
kvg:number CDATA #IMPLIED
kvg:tradForm CDATA #IMPLIED
kvg:radicalForm CDATA #IMPLIED
kvg:position CDATA #IMPLIED
kvg:radical CDATA #IMPLIED
kvg:phon CDATA #IMPLIED >
<!ATTLIST path
xmlns:kvg CDATA #FIXED "http://kanjivg.tagaini.net"
kvg:type CDATA #IMPLIED >
]>
<svg xmlns="http://www.w3.org/2000/svg" width="327" height = "327" viewBox="0 0 327 327">
<g id="kvg:StrokePaths_04ea1-Kaisho" style="fill:none;stroke:#000000;stroke-width:3;stroke-linecap:round;stroke-linejoin:round;" transform="scale(3.0,3.0)">
<g id="kvg:04ea1-Kaisho" kvg:element="亡">
	<g id="kvg:04ea1-Kaisho-g1" kvg:element="亠" kvg:radical="general">
		<path style="stroke: #bf0909;" id="kvg:04ea1-Kaisho-s1" kvg:type="㇑a" d="M45.87,13.36c5.42,3.79,10.96,10.52,13.34,16.28"/>
		<g id="kvg:04ea1-Kaisho-g2" kvg:element="匸" kvg:part="1" kvg:variant="true" kvg:original="匚">
			<path style="stroke: #09bf09;" id="kvg:04ea1-Kaisho-s2" kvg:type="㇐" d="M12.63,39.92c1.6,0.11,5.25,0.78,6.81,0.62c12.58-1.3,56.25-5.64,72.22-5.97c2.64-0.06,3.99,0.05,5.95,0.79"/>
		</g>
	</g>
	<g id="kvg:04ea1-Kaisho-g3" kvg:element="匸" kvg:part="2" kvg:variant="true" kvg:original="匚">
		<path style="stroke: #0909bf;" id="kvg:04ea1-Kaisho-s3" kvg:type="㇄" d="M29.75,43.5c1,1,1.5,3.86,1.5,5.25c0,12.34,0,24.04,0,28.71c0,5.2,0.63,11,11.85,11.76c12.16,0.82,32.4-0.17,35.15-0.27c4.76-0.18,8.82-0.73,11.25-1.37"/>
	</g>
</g>
</g>
<g id="kvg:StrokeNumbers_04ea1-Kaisho" style="font-size:8;fill:#808080" transform="scale(3.0,3.0)">
	<text style="fill: #bf0909;" transform="matrix(1 0 0 1 40.50 12.63)">1</text>
	<text style="fill: #09bf09;" transform="matrix(1 0 0 1 5.50 39.50)">2</text>
	<text style="fill: #0909bf;" transform="matrix(1 0 0 1 23.00 52.63)">3</text>
</g>
</svg>
