<?xml version="1.0" encoding="UTF-8"?>
<!--
This file has been modified from the original version by the kanji_colorize.py
script (available at http://github.com/cayennes/kanji-colorize) with these
settings:
    mode: spectrum
    saturation: 0.95
    value: 0.75
    image_size: 327
It remains under a Creative Commons-Attribution-Share Alike 3.0 License.

The original SVG has the following copyright:

Copyright (C) 2009/2010/2011 Ulrich Apel.
This work is distributed under the conditions of the Creative Commons
Attribution-Share Alike 3.0 Licence. This means you are free:
* to Share - to copy, distribute and transmit the work
* to Remix - to adapt the work

Under the following conditions:
* Attribution. You must attribute the work by stating your use of KanjiVG in
  your own copyright header and linking to KanjiVG's website
  (http://kanjivg.tagaini.net)
* Share Alike. If you alter, transform, or build upon this work, you may
  distribute the resulting work only under the same or similar license to this
  one.

See http://creativecommons.org/licenses/by-sa/3.0/ for more details.
-->
<!DOCTYPE svg PUBLIC "-//W3C//DTD SVG 1.0//EN" "http://www.w3.org/TR/2001/REC-SVG-20010904/DTD/svg10.dtd" [
<!ATTLIST g
xmlns:kvg CDATA #FIXED "http://kanjivg.tagaini.net"
kvg:element CDATA #IMPLIED
kvg:variant CDATA #IMPLIED
kvg:partial CDATA #IMPLIED
kvg:original CDATA #IMPLIED
kvg:part CDATA #IMPLIED
kvg:number CDATA #IMPLIED
kvg:tradForm CDATA #IMPLIED
kvg:radicalForm CDATA #IMPLIED
kvg:position CDATA #IMPLIED
kvg:radical CDATA #IMPLIED
kvg:phon CDATA #IMPLIED >
<!ATTLIST path
xmlns:kvg CDATA #FIXED "http://kanjivg.tagaini.net"
kvg:type CDATA #IMPLIED >
]>
<svg xmlns="http://www.w3.org/2000/svg" width="327" height = "327" viewBox="0 0 327 327">
<g id="kvg:StrokePaths_04eae-Kaisho" style="fill:none;stroke:#000000;stroke-width:3;stroke-linecap:round;stroke-linejoin:round;" transform="scale(3.0,3.0)">
<g id="kvg:04eae-Kaisho" kvg:element="亮">
	<g id="kvg:04eae-Kaisho-g1" kvg:element="亠" kvg:position="top" kvg:radical="general">
		<path style="stroke: #bf0909;" id="kvg:04eae-Kaisho-s1" kvg:type="㇑a" d="M48.84,9.75c2.83,1.18,6.12,4.31,7.48,8.11"/>
		<path style="stroke: #bf8209;" id="kvg:04eae-Kaisho-s2" kvg:type="㇐" d="M23.78,25.78c1.5,0.29,2.83,0.61,4.56,0.4c10.3-1.21,39.64-3.96,51.65-4.55c1.76-0.09,2.67,0.03,3.98,0.51"/>
	</g>
	<g id="kvg:04eae-Kaisho-g2" kvg:position="bottom">
		<g id="kvg:04eae-Kaisho-g3" kvg:element="口">
			<path style="stroke: #82bf09;" id="kvg:04eae-Kaisho-s3" kvg:type="㇑" d="M35.12,34.73c0.3,0.26,0.61,0.47,0.74,0.8c1.04,2.56,2.28,9.6,3,14.19"/>
			<path style="stroke: #09bf09;" id="kvg:04eae-Kaisho-s4" kvg:type="㇕b" d="M36.99,36.1c7.34-1.07,27.7-3.48,31.48-3.84c1.39-0.13,2.22,1.33,2.02,2.11c-0.82,3.22-1.76,5.99-3.52,10.63"/>
			<path style="stroke: #09bf82;" id="kvg:04eae-Kaisho-s5" kvg:type="㇐b" d="M39.15,48.02c4.45-0.41,23.56-2.21,29.21-2.62"/>
		</g>
		<g id="kvg:04eae-Kaisho-g4" kvg:element="冖">
			<path style="stroke: #0982bf;" id="kvg:04eae-Kaisho-s6" kvg:type="㇔" d="M19.23,55.49c-0.15,3.79-3.71,13.7-4.98,15.96"/>
			<path style="stroke: #0909bf;" id="kvg:04eae-Kaisho-s7" kvg:type="㇖b" d="M21.23,59.44c8.52-0.19,46.9-5.15,64.14-5.15c11.72,0,3.7,5.59-0.67,9.24"/>
		</g>
		<g id="kvg:04eae-Kaisho-g5" kvg:element="儿" kvg:variant="true" kvg:original="八">
			<g id="kvg:04eae-Kaisho-g6" kvg:element="丿" kvg:position="left">
				<path style="stroke: #8209bf;" id="kvg:04eae-Kaisho-s8" kvg:type="㇒" d="M42.74,65.25c0.07,0.82,0.16,2.12-0.15,3.3c-1.79,6.97-11.25,23.58-26.18,31.61"/>
			</g>
			<g id="kvg:04eae-Kaisho-g7" kvg:position="right">
				<path style="stroke: #bf0982;" id="kvg:04eae-Kaisho-s9" kvg:type="㇟" d="M58.24,62.62c0.7,1.13,1.26,2.45,1.3,4.19c0.19,7.75,0,15.28,0,20.55c0,12.31,5.93,10.92,14.23,10.92c8.76,0,13.02-1.59,14.25-2.48c2.61-1.89,1.89-2.84,2.13-6.16"/>
			</g>
		</g>
	</g>
</g>
</g>
<g id="kvg:StrokeNumbers_04eae-Kaisho" style="font-size:8;fill:#808080" transform="scale(3.0,3.0)">
	<text style="fill: #bf0909;" transform="matrix(1 0 0 1 42.25 10.38)">1</text>
	<text style="fill: #bf8209;" transform="matrix(1 0 0 1 17.00 24.30)">2</text>
	<text style="fill: #82bf09;" transform="matrix(1 0 0 1 28.25 41.25)">3</text>
	<text style="fill: #09bf09;" transform="matrix(1 0 0 1 38.25 33.25)">4</text>
	<text style="fill: #09bf82;" transform="matrix(1 0 0 1 42.25 45.25)">5</text>
	<text style="fill: #0982bf;" transform="matrix(1 0 0 1 12.25 58.25)">6</text>
	<text style="fill: #0909bf;" transform="matrix(1 0 0 1 23.25 56.25)">7</text>
	<text style="fill: #8209bf;" transform="matrix(1 0 0 1 34.00 68.25)">8</text>
	<text style="fill: #bf0982;" transform="matrix(1 0 0 1 51.25 69.25)">9</text>
</g>
</svg>
