<?xml version="1.0" encoding="UTF-8"?>
<!--
This file has been modified from the original version by the kanji_colorize.py
script (available at http://github.com/cayennes/kanji-colorize) with these
settings:
    mode: spectrum
    saturation: 0.95
    value: 0.75
    image_size: 327
It remains under a Creative Commons-Attribution-Share Alike 3.0 License.

The original SVG has the following copyright:

Copyright (C) 2009/2010/2011 Ulrich Apel.
This work is distributed under the conditions of the Creative Commons
Attribution-Share Alike 3.0 Licence. This means you are free:
* to Share - to copy, distribute and transmit the work
* to Remix - to adapt the work

Under the following conditions:
* Attribution. You must attribute the work by stating your use of KanjiVG in
  your own copyright header and linking to KanjiVG's website
  (http://kanjivg.tagaini.net)
* Share Alike. If you alter, transform, or build upon this work, you may
  distribute the resulting work only under the same or similar license to this
  one.

See http://creativecommons.org/licenses/by-sa/3.0/ for more details.
-->
<!DOCTYPE svg PUBLIC "-//W3C//DTD SVG 1.0//EN" "http://www.w3.org/TR/2001/REC-SVG-20010904/DTD/svg10.dtd" [
<!ATTLIST g
xmlns:kvg CDATA #FIXED "http://kanjivg.tagaini.net"
kvg:element CDATA #IMPLIED
kvg:variant CDATA #IMPLIED
kvg:partial CDATA #IMPLIED
kvg:original CDATA #IMPLIED
kvg:part CDATA #IMPLIED
kvg:number CDATA #IMPLIED
kvg:tradForm CDATA #IMPLIED
kvg:radicalForm CDATA #IMPLIED
kvg:position CDATA #IMPLIED
kvg:radical CDATA #IMPLIED
kvg:phon CDATA #IMPLIED >
<!ATTLIST path
xmlns:kvg CDATA #FIXED "http://kanjivg.tagaini.net"
kvg:type CDATA #IMPLIED >
]>
<svg xmlns="http://www.w3.org/2000/svg" width="327" height = "327" viewBox="0 0 327 327">
<g id="kvg:StrokePaths_04f2f-Kaisho" style="fill:none;stroke:#000000;stroke-width:3;stroke-linecap:round;stroke-linejoin:round;" transform="scale(3.0,3.0)">
<g id="kvg:04f2f-Kaisho" kvg:element="伯">
	<g id="kvg:04f2f-Kaisho-g1" kvg:element="亻" kvg:variant="true" kvg:original="人" kvg:position="left" kvg:radical="general">
		<path style="stroke: #bf0909;" id="kvg:04f2f-Kaisho-s1" kvg:type="㇒" d="M38.48,15.39c0.15,1.1,0.27,2.48-0.14,3.84c-2.55,8.56-12.4,25.13-24.28,36.73"/>
		<path style="stroke: #bfa509;" id="kvg:04f2f-Kaisho-s2" kvg:type="㇑" d="M29.51,40c0.64,0.66,0.81,2.12,0.81,3.48c0,14.02-0.31,43.23-0.31,52.65"/>
	</g>
	<g id="kvg:04f2f-Kaisho-g2" kvg:position="right">
		<g id="kvg:04f2f-Kaisho-g3" kvg:position="top">
			<path style="stroke: #3dbf09;" id="kvg:04f2f-Kaisho-s3" kvg:type="㇔" d="M71.12,15c0.53,0.92,0.72,2.09,0.48,2.84c-1.73,5.57-7.12,16.03-12.92,22.37"/>
		</g>
		<g id="kvg:04f2f-Kaisho-g4" kvg:element="日" kvg:position="bottom">
			<path style="stroke: #09bf71;" id="kvg:04f2f-Kaisho-s4" kvg:type="㇑" d="M50.44,41.91c0.67,1.28,1.34,3.42,1.34,5.13S52,83.25,52,93.5"/>
			<path style="stroke: #0971bf;" id="kvg:04f2f-Kaisho-s5" kvg:type="㇕a" d="M52.19,44.43c3.78-0.21,33.35-3.46,36.79-3.83c2.19-0.23,3.08,1.4,3.07,4.1c-0.01,4.6-0.6,33.4-1.31,47.51"/>
			<path style="stroke: #3d09bf;" id="kvg:04f2f-Kaisho-s6" kvg:type="㇐a" d="M52.14,66.4c6.87-0.56,13.72-1.33,20.57-1.99c2.04-0.2,4.07-0.39,6-0.57"/>
			<path style="stroke: #bf09a5;" id="kvg:04f2f-Kaisho-s7" kvg:type="㇐a" d="M52.9,90.72c9.49-0.69,27.5-2.33,37.62-2.64"/>
		</g>
	</g>
</g>
</g>
<g id="kvg:StrokeNumbers_04f2f-Kaisho" style="font-size:8;fill:#808080" transform="scale(3.0,3.0)">
	<text style="fill: #bf0909;" transform="matrix(1 0 0 1 30.50 15.50)">1</text>
	<text style="fill: #bfa509;" transform="matrix(1 0 0 1 23.50 55.50)">2</text>
	<text style="fill: #3dbf09;" transform="matrix(1 0 0 1 63.75 15.50)">3</text>
	<text style="fill: #09bf71;" transform="matrix(1 0 0 1 44.25 51.13)">4</text>
	<text style="fill: #0971bf;" transform="matrix(1 0 0 1 53.25 40.50)">5</text>
	<text style="fill: #3d09bf;" transform="matrix(1 0 0 1 56.45 62.50)">6</text>
	<text style="fill: #bf09a5;" transform="matrix(1 0 0 1 56.50 87.50)">7</text>
</g>
</svg>
