<?xml version="1.0" encoding="UTF-8"?>
<!--
This file has been modified from the original version by the kanji_colorize.py
script (available at http://github.com/cayennes/kanji-colorize) with these
settings:
    mode: spectrum
    saturation: 0.95
    value: 0.75
    image_size: 327
It remains under a Creative Commons-Attribution-Share Alike 3.0 License.

The original SVG has the following copyright:

Copyright (C) 2009/2010/2011 Ulrich Apel.
This work is distributed under the conditions of the Creative Commons
Attribution-Share Alike 3.0 Licence. This means you are free:
* to Share - to copy, distribute and transmit the work
* to Remix - to adapt the work

Under the following conditions:
* Attribution. You must attribute the work by stating your use of KanjiVG in
  your own copyright header and linking to KanjiVG's website
  (http://kanjivg.tagaini.net)
* Share Alike. If you alter, transform, or build upon this work, you may
  distribute the resulting work only under the same or similar license to this
  one.

See http://creativecommons.org/licenses/by-sa/3.0/ for more details.
-->
<!DOCTYPE svg PUBLIC "-//W3C//DTD SVG 1.0//EN" "http://www.w3.org/TR/2001/REC-SVG-20010904/DTD/svg10.dtd" [
<!ATTLIST g
xmlns:kvg CDATA #FIXED "http://kanjivg.tagaini.net"
kvg:element CDATA #IMPLIED
kvg:variant CDATA #IMPLIED
kvg:partial CDATA #IMPLIED
kvg:original CDATA #IMPLIED
kvg:part CDATA #IMPLIED
kvg:number CDATA #IMPLIED
kvg:tradForm CDATA #IMPLIED
kvg:radicalForm CDATA #IMPLIED
kvg:position CDATA #IMPLIED
kvg:radical CDATA #IMPLIED
kvg:phon CDATA #IMPLIED >
<!ATTLIST path
xmlns:kvg CDATA #FIXED "http://kanjivg.tagaini.net"
kvg:type CDATA #IMPLIED >
]>
<svg xmlns="http://www.w3.org/2000/svg" width="327" height = "327" viewBox="0 0 327 327">
<g id="kvg:StrokePaths_04f7c-Kaisho" style="fill:none;stroke:#000000;stroke-width:3;stroke-linecap:round;stroke-linejoin:round;" transform="scale(3.0,3.0)">
<g id="kvg:04f7c-Kaisho" kvg:element="佼">
	<g id="kvg:04f7c-Kaisho-g1" kvg:element="亻" kvg:variant="true" kvg:original="人" kvg:position="left" kvg:radical="general">
		<path style="stroke: #bf0909;" id="kvg:04f7c-Kaisho-s1" kvg:type="㇒" d="M32.5,18.39c0.13,1.23,0.22,2.78-0.11,4.29C30.25,32.25,22,50.75,12.06,63.72"/>
		<path style="stroke: #bf9109;" id="kvg:04f7c-Kaisho-s2" kvg:type="㇑" d="M27.53,41.5c0.59,0.61,0.76,1.97,0.76,3.23c0,13.02-0.29,42.65-0.29,51.4"/>
	</g>
	<g id="kvg:04f7c-Kaisho-g2" kvg:element="交" kvg:position="right">
		<g id="kvg:04f7c-Kaisho-g3" kvg:element="亠" kvg:position="top">
			<path style="stroke: #64bf09;" id="kvg:04f7c-Kaisho-s3" kvg:type="㇑a" d="M59.34,12.75c2.96,2,6.94,5.25,8.13,8.25"/>
			<path style="stroke: #09bf36;" id="kvg:04f7c-Kaisho-s4" kvg:type="㇐" d="M42.7,29.46c1.17,0.1,3.83,0.7,4.97,0.54c10.11-1.38,32.68-4.67,40.58-5.05c1.92-0.09,2.91,0.05,4.34,0.69"/>
		</g>
		<g id="kvg:04f7c-Kaisho-g4" kvg:element="父" kvg:position="bottom">
			<path style="stroke: #09bfbf;" id="kvg:04f7c-Kaisho-s5" kvg:type="㇒" d="M54.15,36.01c0.3,0.85-0.02,2.85-0.72,4.24c-2.79,5.52-7.82,11.51-13.51,16.33"/>
			<path style="stroke: #0936bf;" id="kvg:04f7c-Kaisho-s6" kvg:type="㇔" d="M76.25,33.03c6.41,4.51,11.7,9.71,14.9,15.18"/>
			<path style="stroke: #6409bf;" id="kvg:04f7c-Kaisho-s7" kvg:type="㇒" d="M77.55,43.69c0.52,1.14,0.57,3.09-0.16,5.18C70.72,67.96,56.8,85.8,38.17,95.96"/>
			<path style="stroke: #bf0991;" id="kvg:04f7c-Kaisho-s8" kvg:type="㇏" d="M53.3,52.47C59.5,62.75,73,81,88.34,91.92c2.46,1.75,4.83,3.04,6.73,3.23"/>
		</g>
	</g>
</g>
</g>
<g id="kvg:StrokeNumbers_04f7c-Kaisho" style="font-size:8;fill:#808080" transform="scale(3.0,3.0)">
	<text style="fill: #bf0909;" transform="matrix(1 0 0 1 24.50 18.50)">1</text>
	<text style="fill: #bf9109;" transform="matrix(1 0 0 1 21.50 59.50)">2</text>
	<text style="fill: #64bf09;" transform="matrix(1 0 0 1 52.50 12.50)">3</text>
	<text style="fill: #09bf36;" transform="matrix(1 0 0 1 40.50 26.50)">4</text>
	<text style="fill: #09bfbf;" transform="matrix(1 0 0 1 46.50 40.50)">5</text>
	<text style="fill: #0936bf;" transform="matrix(1 0 0 1 69.58 37.85)">6</text>
	<text style="fill: #6409bf;" transform="matrix(1 0 0 1 70.25 48.50)">7</text>
	<text style="fill: #bf0991;" transform="matrix(1 0 0 1 47.50 59.50)">8</text>
</g>
</svg>
