<?xml version="1.0" encoding="UTF-8"?>
<!--
This file has been modified from the original version by the kanji_colorize.py
script (available at http://github.com/cayennes/kanji-colorize) with these
settings:
    mode: spectrum
    saturation: 0.95
    value: 0.75
    image_size: 327
It remains under a Creative Commons-Attribution-Share Alike 3.0 License.

The original SVG has the following copyright:

Copyright (C) 2009/2010/2011 Ulrich Apel.
This work is distributed under the conditions of the Creative Commons
Attribution-Share Alike 3.0 Licence. This means you are free:
* to Share - to copy, distribute and transmit the work
* to Remix - to adapt the work

Under the following conditions:
* Attribution. You must attribute the work by stating your use of KanjiVG in
  your own copyright header and linking to KanjiVG's website
  (http://kanjivg.tagaini.net)
* Share Alike. If you alter, transform, or build upon this work, you may
  distribute the resulting work only under the same or similar license to this
  one.

See http://creativecommons.org/licenses/by-sa/3.0/ for more details.
-->
<!DOCTYPE svg PUBLIC "-//W3C//DTD SVG 1.0//EN" "http://www.w3.org/TR/2001/REC-SVG-20010904/DTD/svg10.dtd" [
<!ATTLIST g
xmlns:kvg CDATA #FIXED "http://kanjivg.tagaini.net"
kvg:element CDATA #IMPLIED
kvg:variant CDATA #IMPLIED
kvg:partial CDATA #IMPLIED
kvg:original CDATA #IMPLIED
kvg:part CDATA #IMPLIED
kvg:number CDATA #IMPLIED
kvg:tradForm CDATA #IMPLIED
kvg:radicalForm CDATA #IMPLIED
kvg:position CDATA #IMPLIED
kvg:radical CDATA #IMPLIED
kvg:phon CDATA #IMPLIED >
<!ATTLIST path
xmlns:kvg CDATA #FIXED "http://kanjivg.tagaini.net"
kvg:type CDATA #IMPLIED >
]>
<svg xmlns="http://www.w3.org/2000/svg" width="327" height = "327" viewBox="0 0 327 327">
<g id="kvg:StrokePaths_05075-KaishoHzFst" style="fill:none;stroke:#000000;stroke-width:3;stroke-linecap:round;stroke-linejoin:round;" transform="scale(3.0,3.0)">
<g id="kvg:05075-KaishoHzFst" kvg:element="偵">
	<g id="kvg:05075-KaishoHzFst-g1" kvg:element="亻" kvg:variant="true" kvg:original="人" kvg:position="left" kvg:radical="general">
		<path style="stroke: #bf0909;" id="kvg:05075-KaishoHzFst-s1" kvg:type="㇒" d="M33.25,17.39c0.13,1.18,0.23,2.65-0.12,4.1c-2.19,9.15-10.64,26.83-20.82,39.22"/>
		<path style="stroke: #bf6c09;" id="kvg:05075-KaishoHzFst-s2" kvg:type="㇑" d="M27.53,43c0.59,0.61,0.76,1.97,0.76,3.23c0,13.02-0.29,40.15-0.29,48.9"/>
	</g>
	<g id="kvg:05075-KaishoHzFst-g2" kvg:element="貞" kvg:position="right">
		<g id="kvg:05075-KaishoHzFst-g3" kvg:element="卜" kvg:variant="true" kvg:original="ト" kvg:position="top">
			<path style="stroke: #aebf09;" id="kvg:05075-KaishoHzFst-s3" kvg:type="㇐" d="M68.29,25.33c3.04-0.48,15.22-3.14,16.84-3.14s2.43,0,3.65,0"/>
			<path style="stroke: #4bbf09;" id="kvg:05075-KaishoHzFst-s4" kvg:type="㇑" d="M64.5,12.88c0.62,0.47,1.92,3.52,2.04,4.46c0.12,0.94-0.08,15.83-0.2,21.7"/>
		</g>
		<g id="kvg:05075-KaishoHzFst-g4" kvg:element="貝" kvg:position="bottom">
			<g id="kvg:05075-KaishoHzFst-g5" kvg:element="目" kvg:position="top">
				<path style="stroke: #09bf2a;" id="kvg:05075-KaishoHzFst-s5" kvg:type="㇑" d="M50.17,39.89c0.56,0.94,1.39,1.63,1.39,2.91c0,1.29,0.26,33.81-0.41,39.22"/>
				<path style="stroke: #09bf8d;" id="kvg:05075-KaishoHzFst-s6" kvg:type="㇕a" d="M52.49,41.42c3.19-0.28,27.54-3.28,30.45-3.59c2.43-0.25,3.72,0.74,3.72,1.94c0,2.94-0.72,39.44-0.72,40.41"/>
				<path style="stroke: #098dbf;" id="kvg:05075-KaishoHzFst-s7" kvg:type="㇐a" d="M52.11,53.54c5.74-0.57,11.47-1.25,17.2-1.87c1.76-0.19,3.52-0.38,5.2-0.55"/>
				<path style="stroke: #092abf;" id="kvg:05075-KaishoHzFst-s8" kvg:type="㇐a" d="M51.88,66.7c5.61-0.66,12.21-1.37,17.81-2.01c1.55-0.18,3.1-0.35,4.63-0.51"/>
				<path style="stroke: #4b09bf;" id="kvg:05075-KaishoHzFst-s9" kvg:type="㇐a" d="M51.46,79.99c9.01-0.88,26.23-2.94,34.45-3.26"/>
			</g>
			<g id="kvg:05075-KaishoHzFst-g6" kvg:position="bottom">
				<path style="stroke: #ae09bf;" id="kvg:05075-KaishoHzFst-s10" kvg:type="㇒" d="M60.06,83.54c0.44,1.09,0.06,2.34-0.81,3.18c-2.64,2.55-9.97,7.93-15.25,11.04"/>
				<path style="stroke: #bf096c;" id="kvg:05075-KaishoHzFst-s11" kvg:type="㇔" d="M75.79,85.37c6.71,3.44,14.63,9.82,16.46,12.98"/>
			</g>
		</g>
	</g>
</g>
</g>
<g id="kvg:StrokeNumbers_05075-KaishoHzFst" style="font-size:8;fill:#808080" transform="scale(3.0,3.0)">
	<text style="fill: #bf0909;" transform="matrix(1 0 0 1 26.25 18.13)">1</text>
	<text style="fill: #bf6c09;" transform="matrix(1 0 0 1 20.50 59.50)">2</text>
	<text style="fill: #aebf09;" transform="matrix(1 0 0 1 71.50 20.50)">3</text>
	<text style="fill: #4bbf09;" transform="matrix(1 0 0 1 54.75 13.50)">4</text>
	<text style="fill: #09bf2a;" transform="matrix(1 0 0 1 44.25 48.50)">5</text>
	<text style="fill: #09bf8d;" transform="matrix(1 0 0 1 54.75 37.63)">6</text>
	<text style="fill: #098dbf;" transform="matrix(1 0 0 1 57.75 50.50)">7</text>
	<text style="fill: #092abf;" transform="matrix(1 0 0 1 57.75 62.50)">8</text>
	<text style="fill: #4b09bf;" transform="matrix(1 0 0 1 57.75 76.40)">9</text>
	<text style="fill: #ae09bf;" transform="matrix(1 0 0 1 44.50 89.83)">10</text>
	<text style="fill: #bf096c;" transform="matrix(1 0 0 1 67.50 91.50)">11</text>
</g>
</svg>
