<?xml version="1.0" encoding="UTF-8"?>
<!--
This file has been modified from the original version by the kanji_colorize.py
script (available at http://github.com/cayennes/kanji-colorize) with these
settings:
    mode: spectrum
    saturation: 0.95
    value: 0.75
    image_size: 327
It remains under a Creative Commons-Attribution-Share Alike 3.0 License.

The original SVG has the following copyright:

Copyright (C) 2009/2010/2011 Ulrich Apel.
This work is distributed under the conditions of the Creative Commons
Attribution-Share Alike 3.0 Licence. This means you are free:
* to Share - to copy, distribute and transmit the work
* to Remix - to adapt the work

Under the following conditions:
* Attribution. You must attribute the work by stating your use of KanjiVG in
  your own copyright header and linking to KanjiVG's website
  (http://kanjivg.tagaini.net)
* Share Alike. If you alter, transform, or build upon this work, you may
  distribute the resulting work only under the same or similar license to this
  one.

See http://creativecommons.org/licenses/by-sa/3.0/ for more details.
-->
<!DOCTYPE svg PUBLIC "-//W3C//DTD SVG 1.0//EN" "http://www.w3.org/TR/2001/REC-SVG-20010904/DTD/svg10.dtd" [
<!ATTLIST g
xmlns:kvg CDATA #FIXED "http://kanjivg.tagaini.net"
kvg:element CDATA #IMPLIED
kvg:variant CDATA #IMPLIED
kvg:partial CDATA #IMPLIED
kvg:original CDATA #IMPLIED
kvg:part CDATA #IMPLIED
kvg:number CDATA #IMPLIED
kvg:tradForm CDATA #IMPLIED
kvg:radicalForm CDATA #IMPLIED
kvg:position CDATA #IMPLIED
kvg:radical CDATA #IMPLIED
kvg:phon CDATA #IMPLIED >
<!ATTLIST path
xmlns:kvg CDATA #FIXED "http://kanjivg.tagaini.net"
kvg:type CDATA #IMPLIED >
]>
<svg xmlns="http://www.w3.org/2000/svg" width="327" height = "327" viewBox="0 0 327 327">
<g id="kvg:StrokePaths_05099-Kaisho" style="fill:none;stroke:#000000;stroke-width:3;stroke-linecap:round;stroke-linejoin:round;" transform="scale(3.0,3.0)">
<g id="kvg:05099-Kaisho" kvg:element="備">
	<g id="kvg:05099-Kaisho-g1" kvg:element="亻" kvg:variant="true" kvg:original="人" kvg:position="left" kvg:radical="general">
		<path style="stroke: #bf0909;" id="kvg:05099-Kaisho-s1" kvg:type="㇒" d="M35.25,15c0.25,2-0.07,4.62-0.87,6.33C29.25,32.25,22.75,42.5,11,55.79"/>
		<path style="stroke: #bf6409;" id="kvg:05099-Kaisho-s2" kvg:type="㇑" d="M27.03,39.5c0.59,0.61,0.7,1.97,0.76,3.23c0.56,11.77-0.52,44.29-0.04,51.52"/>
	</g>
	<g id="kvg:05099-Kaisho-g2" kvg:position="right">
		<g id="kvg:05099-Kaisho-g3" kvg:element="艹" kvg:variant="true" kvg:original="艸">
			<path style="stroke: #bfbf09;" id="kvg:05099-Kaisho-s3" kvg:type="㇐" d="M42.75,24.77c0.98,0.53,2.12,0.63,3.11,0.53c9.02-0.96,30.06-3.46,40.46-3.53c1.64-0.01,2.62,0.25,3.44,0.51"/>
			<path style="stroke: #64bf09;" id="kvg:05099-Kaisho-s4" kvg:type="㇑a" d="M53.42,12c1.33,1.43,1.81,1.86,1.9,2.75c0.94,9.75,1.44,14.75,2.34,22.75"/>
			<path style="stroke: #09bf09;" id="kvg:05099-Kaisho-s5" kvg:type="㇑a" d="M75.1,10.75c0.4,0.75,0.99,2.01,0.9,2.75c-1,7.75-2,13.75-3.32,22"/>
		</g>
		<g id="kvg:05099-Kaisho-g4" kvg:element="厂">
			<path style="stroke: #09bf64;" id="kvg:05099-Kaisho-s6" kvg:type="㇐" d="M40.39,39.55c1.17,0.42,3.3,0.48,4.47,0.42c12.13-0.7,30.39-2.71,44.61-3.75c1.94-0.14,3.11,0.2,4.08,0.41"/>
			<path style="stroke: #09bfbf;" id="kvg:05099-Kaisho-s7" kvg:type="㇒" d="m 42.717457,41.626002 c 0,0.88 -0.26,1.925143 -0.340286,3.569141 -0.489153,15.29827 -1.123448,36.91252 -9.374021,49.693368"/>
		</g>
		<g id="kvg:05099-Kaisho-g5" kvg:element="用">
			<path style="stroke: #0964bf;" id="kvg:05099-Kaisho-s8" kvg:type="㇑/㇒" d="M50.28,52.15c0.17,0.59,0.17,42.77,0.17,44.11"/>
			<path style="stroke: #0909bf;" id="kvg:05099-Kaisho-s9" kvg:type="㇆a" d="M50.8,52.04c5.74-0.25,33.9-3.68,35.42-3.84c2.73-0.3,3.75,1.93,3.41,2.82c-0.33,0.86-0.51,27.68-0.51,39.71c0,9.27-5.33,1.28-6.41,0.76"/>
			<path style="stroke: #6409bf;" id="kvg:05099-Kaisho-s10" kvg:type="㇐a" d="M50.8,64.62c8.47-0.58,16.92-1.4,25.38-2.12c0.93-0.08,1.84-0.16,2.73-0.24"/>
			<path style="stroke: #bf09bf;" id="kvg:05099-Kaisho-s11" kvg:type="㇐a" d="M50.96,78.2c8.21-0.66,16.4-1.44,24.61-2.14c0.97-0.08,1.92-0.16,2.84-0.24"/>
			<path style="stroke: #bf0964;" id="kvg:05099-Kaisho-s12" kvg:type="㇑" d="M68.07,52.65c0.68,0.29,1.08,1.29,1.21,1.86c0.13,0.57,0,35.07-0.14,38.65"/>
		</g>
	</g>
</g>
</g>
<g id="kvg:StrokeNumbers_05099-Kaisho" style="font-size:8;fill:#808080" transform="scale(3.0,3.0)">
	<text style="fill: #bf0909;" transform="matrix(1 0 0 1 27.50 15.50)">1</text>
	<text style="fill: #bf6409;" transform="matrix(1 0 0 1 20.50 55.50)">2</text>
	<text style="fill: #bfbf09;" transform="matrix(1 0 0 1 42.50 21.50)">3</text>
	<text style="fill: #64bf09;" transform="matrix(1 0 0 1 45.50 10.50)">4</text>
	<text style="fill: #09bf09;" transform="matrix(1 0 0 1 65.50 9.50)">5</text>
	<text style="fill: #09bf64;" transform="matrix(1 0 0 1 38.25 36.50)">6</text>
	<text style="fill: #09bfbf;" transform="matrix(1 0 0 1 33.51 51.95)">7</text>
	<text style="fill: #0964bf;" transform="matrix(1 0 0 1 42.50 64.76)">8</text>
	<text style="fill: #0909bf;" transform="matrix(1 0 0 1 48.51 50.00)">9</text>
	<text style="fill: #6409bf;" transform="matrix(1 0 0 1 52.50 61.50)">10</text>
	<text style="fill: #bf09bf;" transform="matrix(1 0 0 1 53.35 74.50)">11</text>
	<text style="fill: #bf0964;" transform="matrix(1 0 0 1 67.37 59.87)">12</text>
</g>
</svg>
