<?xml version="1.0" encoding="UTF-8"?>
<!--
This file has been modified from the original version by the kanji_colorize.py
script (available at http://github.com/cayennes/kanji-colorize) with these
settings:
    mode: spectrum
    saturation: 0.95
    value: 0.75
    image_size: 327
It remains under a Creative Commons-Attribution-Share Alike 3.0 License.

The original SVG has the following copyright:

Copyright (C) 2009/2010/2011 Ulrich Apel.
This work is distributed under the conditions of the Creative Commons
Attribution-Share Alike 3.0 Licence. This means you are free:
* to Share - to copy, distribute and transmit the work
* to Remix - to adapt the work

Under the following conditions:
* Attribution. You must attribute the work by stating your use of KanjiVG in
  your own copyright header and linking to KanjiVG's website
  (http://kanjivg.tagaini.net)
* Share Alike. If you alter, transform, or build upon this work, you may
  distribute the resulting work only under the same or similar license to this
  one.

See http://creativecommons.org/licenses/by-sa/3.0/ for more details.
-->
<!DOCTYPE svg PUBLIC "-//W3C//DTD SVG 1.0//EN" "http://www.w3.org/TR/2001/REC-SVG-20010904/DTD/svg10.dtd" [
<!ATTLIST g
xmlns:kvg CDATA #FIXED "http://kanjivg.tagaini.net"
kvg:element CDATA #IMPLIED
kvg:variant CDATA #IMPLIED
kvg:partial CDATA #IMPLIED
kvg:original CDATA #IMPLIED
kvg:part CDATA #IMPLIED
kvg:number CDATA #IMPLIED
kvg:tradForm CDATA #IMPLIED
kvg:radicalForm CDATA #IMPLIED
kvg:position CDATA #IMPLIED
kvg:radical CDATA #IMPLIED
kvg:phon CDATA #IMPLIED >
<!ATTLIST path
xmlns:kvg CDATA #FIXED "http://kanjivg.tagaini.net"
kvg:type CDATA #IMPLIED >
]>
<svg xmlns="http://www.w3.org/2000/svg" width="327" height = "327" viewBox="0 0 327 327">
<g id="kvg:StrokePaths_05176-Kaisho" style="fill:none;stroke:#000000;stroke-width:3;stroke-linecap:round;stroke-linejoin:round;" transform="scale(3.0,3.0)">
<g id="kvg:05176-Kaisho" kvg:element="其">
	<g id="kvg:05176-Kaisho-g1" kvg:position="top">
		<g id="kvg:05176-Kaisho-g2" kvg:element="甘">
			<g id="kvg:05176-Kaisho-g3" kvg:element="廿" kvg:part="1">
				<g id="kvg:05176-Kaisho-g4" kvg:element="十">
					<path style="stroke: #bf0909;" id="kvg:05176-Kaisho-s1" kvg:type="㇐" d="M23,30.42c3.53,0.5,7.03,0.45,10.5-0.14c13.16-1.71,29.2-3.59,44.37-5.07c3.19-0.38,6.4-0.41,9.63-0.1"/>
					<path style="stroke: #bf9109;" id="kvg:05176-Kaisho-s2" kvg:type="㇑" d="M39.87,17c1,1,1.21,2.48,1.21,3.5c0,4,0.03,43.38,0.03,51"/>
				</g>
				<path style="stroke: #64bf09;" id="kvg:05176-Kaisho-s3" kvg:type="㇑" d="M66.87,12.25c1.07,1.06,1.46,2.73,1.46,3.75c0,3.38,0.03,45.12,0.03,52.75"/>
			</g>
			<path style="stroke: #09bf36;" id="kvg:05176-Kaisho-s4" kvg:type="㇐" d="M42,43.25c3.15-0.36,9.41-1.1,15.13-1.73c1.94-0.21,3.82-0.42,5.5-0.58"/>
			<g id="kvg:05176-Kaisho-g5" kvg:element="廿" kvg:part="2">
				<path style="stroke: #09bfbf;" id="kvg:05176-Kaisho-s5" kvg:type="㇐" d="M42.5,56.75c2.8-0.16,9.16-0.89,15.14-1.48c1.82-0.18,3.6-0.35,5.23-0.48"/>
			</g>
		</g>
		<path style="stroke: #0936bf;" id="kvg:05176-Kaisho-s6" kvg:type="㇐" d="M16.75,73.7c3.51,0.72,6.96,0.38,10.51,0.02c19.49-1.97,36.49-3.72,55.75-4.86c3.34-0.2,7.24,0.01,10.99,0.93"/>
	</g>
	<g id="kvg:05176-Kaisho-g6" kvg:element="八" kvg:position="bottom" kvg:radical="general">
		<path style="stroke: #6409bf;" id="kvg:05176-Kaisho-s7" kvg:type="㇒" d="M43.08,79.39c-0.11,1.33-0.55,2.52-1.4,3.51c-4.06,4.72-8.68,8.47-19.79,14.81"/>
		<path style="stroke: #bf0991;" id="kvg:05176-Kaisho-s8" kvg:type="㇏" d="M66.02,79.08c7.25,3.24,18.73,13.34,20.54,18.38"/>
	</g>
</g>
</g>
<g id="kvg:StrokeNumbers_05176-Kaisho" style="font-size:8;fill:#808080" transform="scale(3.0,3.0)">
	<text style="fill: #bf0909;" transform="matrix(1 0 0 1 16.50 32.50)">1</text>
	<text style="fill: #bf9109;" transform="matrix(1 0 0 1 29.92 15.89)">2</text>
	<text style="fill: #64bf09;" transform="matrix(1 0 0 1 57.50 12.81)">3</text>
	<text style="fill: #09bf36;" transform="matrix(1 0 0 1 45.32 39.74)">4</text>
	<text style="fill: #09bfbf;" transform="matrix(1 0 0 1 45.50 53.50)">5</text>
	<text style="fill: #0936bf;" transform="matrix(1 0 0 1 8.50 74.50)">6</text>
	<text style="fill: #6409bf;" transform="matrix(1 0 0 1 34.50 82.50)">7</text>
	<text style="fill: #bf0991;" transform="matrix(1 0 0 1 57.50 80.77)">8</text>
</g>
</svg>
