<?xml version="1.0" encoding="UTF-8"?>
<!--
This file has been modified from the original version by the kanji_colorize.py
script (available at http://github.com/cayennes/kanji-colorize) with these
settings:
    mode: spectrum
    saturation: 0.95
    value: 0.75
    image_size: 327
It remains under a Creative Commons-Attribution-Share Alike 3.0 License.

The original SVG has the following copyright:

Copyright (C) 2009/2010/2011 Ulrich Apel.
This work is distributed under the conditions of the Creative Commons
Attribution-Share Alike 3.0 Licence. This means you are free:
* to Share - to copy, distribute and transmit the work
* to Remix - to adapt the work

Under the following conditions:
* Attribution. You must attribute the work by stating your use of KanjiVG in
  your own copyright header and linking to KanjiVG's website
  (http://kanjivg.tagaini.net)
* Share Alike. If you alter, transform, or build upon this work, you may
  distribute the resulting work only under the same or similar license to this
  one.

See http://creativecommons.org/licenses/by-sa/3.0/ for more details.
-->
<!DOCTYPE svg PUBLIC "-//W3C//DTD SVG 1.0//EN" "http://www.w3.org/TR/2001/REC-SVG-20010904/DTD/svg10.dtd" [
<!ATTLIST g
xmlns:kvg CDATA #FIXED "http://kanjivg.tagaini.net"
kvg:element CDATA #IMPLIED
kvg:variant CDATA #IMPLIED
kvg:partial CDATA #IMPLIED
kvg:original CDATA #IMPLIED
kvg:part CDATA #IMPLIED
kvg:number CDATA #IMPLIED
kvg:tradForm CDATA #IMPLIED
kvg:radicalForm CDATA #IMPLIED
kvg:position CDATA #IMPLIED
kvg:radical CDATA #IMPLIED
kvg:phon CDATA #IMPLIED >
<!ATTLIST path
xmlns:kvg CDATA #FIXED "http://kanjivg.tagaini.net"
kvg:type CDATA #IMPLIED >
]>
<svg xmlns="http://www.w3.org/2000/svg" width="327" height = "327" viewBox="0 0 327 327">
<g id="kvg:StrokePaths_05230-VtFst" style="fill:none;stroke:#000000;stroke-width:3;stroke-linecap:round;stroke-linejoin:round;" transform="scale(3.0,3.0)">
<g id="kvg:05230-VtFst" kvg:element="到">
	<g id="kvg:05230-VtFst-g1" kvg:element="至" kvg:position="left" kvg:radical="nelson">
		<path style="stroke: #bf0909;" id="kvg:05230-VtFst-s1" kvg:type="㇐" d="M14.98,21.96c0.69,0.33,1.95,0.4,2.63,0.33c9.44-0.9,23.44-3.1,34.95-3.51c1.14-0.04,1.83,0.16,2.41,0.33"/>
		<g id="kvg:05230-VtFst-g2" kvg:element="厶">
			<path style="stroke: #bf9109;" id="kvg:05230-VtFst-s2" kvg:type="㇜" d="M33.03,23.15c0.47,1.1,0.05,2.43-0.26,2.97c-3.54,6.29-7.91,10.34-12.8,16.4c-1.58,1.95-1.69,3.27,0.84,2.7c5.9-1.35,19.73-4.94,29.03-7.17"/>
			<path style="stroke: #64bf09;" id="kvg:05230-VtFst-s3" kvg:type="㇔" d="M44.59,30.39c3.39,2.58,8.76,10.6,9.61,14.6"/>
		</g>
		<g id="kvg:05230-VtFst-g3" kvg:element="土" kvg:variant="true">
			<path style="stroke: #09bf36;" id="kvg:05230-VtFst-s4" kvg:type="㇑a" d="M34.67,46.2c0.11,0.28,1.58,1.44,1.58,3.2c0,5.85,0,26.31,0,29.19"/>
			<path style="stroke: #09bfbf;" id="kvg:05230-VtFst-s5" kvg:type="㇐" d="M18.23,62.5c0.67,0.37,1.9,0.35,2.58,0.37C28.75,63,42.5,60,49.08,58.78c1.1-0.2,1.79,0.17,2.35,0.36"/>
			<path style="stroke: #0936bf;" id="kvg:05230-VtFst-s6" kvg:type="㇐" d="M14.44,85.08c1.06,0.92,3.28,1.41,4.15,1.08C33.5,80.5,40,78,54.48,73.28"/>
		</g>
	</g>
	<g id="kvg:05230-VtFst-g4" kvg:element="刂" kvg:variant="true" kvg:original="刀" kvg:position="right" kvg:radical="tradit">
		<path style="stroke: #6409bf;" id="kvg:05230-VtFst-s7" kvg:type="㇑" d="M65.27,28.33c0.98,0.92,1.76,1.99,1.76,5.02c0,14.9-0.02,26.19-0.02,31.15"/>
		<path style="stroke: #bf0991;" id="kvg:05230-VtFst-s8" kvg:type="㇚" d="M85.27,15.83c0.98,0.92,1.67,1.99,1.76,5.02c0.4,14.55-0.26,62.16-0.26,67.12c0,13.14-7.21,1.5-8.71,0.25"/>
	</g>
</g>
</g>
<g id="kvg:StrokeNumbers_05230-VtFst" style="font-size:8;fill:#808080" transform="scale(3.0,3.0)">
	<text style="fill: #bf0909;" transform="matrix(1 0 0 1 8.50 20.50)">1</text>
	<text style="fill: #bf9109;" transform="matrix(1 0 0 1 22.50 30.50)">2</text>
	<text style="fill: #64bf09;" transform="matrix(1 0 0 1 38.25 31.50)">3</text>
	<text style="fill: #09bf36;" transform="matrix(1 0 0 1 27.50 53.50)">4</text>
	<text style="fill: #09bfbf;" transform="matrix(1 0 0 1 11.50 62.50)">5</text>
	<text style="fill: #0936bf;" transform="matrix(1 0 0 1 6.75 88.50)">6</text>
	<text style="fill: #6409bf;" transform="matrix(1 0 0 1 57.50 28.50)">7</text>
	<text style="fill: #bf0991;" transform="matrix(1 0 0 1 76.50 15.50)">8</text>
</g>
</svg>
