<?xml version="1.0" encoding="UTF-8"?>
<!--
This file has been modified from the original version by the kanji_colorize.py
script (available at http://github.com/cayennes/kanji-colorize) with these
settings:
    mode: spectrum
    saturation: 0.95
    value: 0.75
    image_size: 327
It remains under a Creative Commons-Attribution-Share Alike 3.0 License.

The original SVG has the following copyright:

Copyright (C) 2009/2010/2011 Ulrich Apel.
This work is distributed under the conditions of the Creative Commons
Attribution-Share Alike 3.0 Licence. This means you are free:
* to Share - to copy, distribute and transmit the work
* to Remix - to adapt the work

Under the following conditions:
* Attribution. You must attribute the work by stating your use of KanjiVG in
  your own copyright header and linking to KanjiVG's website
  (http://kanjivg.tagaini.net)
* Share Alike. If you alter, transform, or build upon this work, you may
  distribute the resulting work only under the same or similar license to this
  one.

See http://creativecommons.org/licenses/by-sa/3.0/ for more details.
-->
<!DOCTYPE svg PUBLIC "-//W3C//DTD SVG 1.0//EN" "http://www.w3.org/TR/2001/REC-SVG-20010904/DTD/svg10.dtd" [
<!ATTLIST g
xmlns:kvg CDATA #FIXED "http://kanjivg.tagaini.net"
kvg:element CDATA #IMPLIED
kvg:variant CDATA #IMPLIED
kvg:partial CDATA #IMPLIED
kvg:original CDATA #IMPLIED
kvg:part CDATA #IMPLIED
kvg:number CDATA #IMPLIED
kvg:tradForm CDATA #IMPLIED
kvg:radicalForm CDATA #IMPLIED
kvg:position CDATA #IMPLIED
kvg:radical CDATA #IMPLIED
kvg:phon CDATA #IMPLIED >
<!ATTLIST path
xmlns:kvg CDATA #FIXED "http://kanjivg.tagaini.net"
kvg:type CDATA #IMPLIED >
]>
<svg xmlns="http://www.w3.org/2000/svg" width="327" height = "327" viewBox="0 0 327 327">
<g id="kvg:StrokePaths_05352-Kaisho" style="fill:none;stroke:#000000;stroke-width:3;stroke-linecap:round;stroke-linejoin:round;" transform="scale(3.0,3.0)">
<g id="kvg:05352-Kaisho" kvg:element="卒">
	<g id="kvg:05352-Kaisho-g1" kvg:position="top">
		<g id="kvg:05352-Kaisho-g2" kvg:element="亠" kvg:radical="nelson">
			<path style="stroke: #bf0909;" id="kvg:05352-Kaisho-s1" kvg:type="㇑a" d="M50.18,11.25c2.48,1.22,6.1,5.99,6.56,8.38"/>
			<path style="stroke: #bf9109;" id="kvg:05352-Kaisho-s2" kvg:type="㇐" d="M24.45,26.81c1.13,0.08,3.7,0.55,4.8,0.44c8.86-0.92,40.35-4.68,51.6-4.91c1.86-0.04,2.81,0.04,4.2,0.55"/>
		</g>
		<g id="kvg:05352-Kaisho-g3" kvg:element="从">
			<g id="kvg:05352-Kaisho-g4" kvg:element="人" kvg:position="left">
				<path style="stroke: #64bf09;" id="kvg:05352-Kaisho-s3" kvg:type="㇒" d="M38.75,31.99c0,0.51,0.04,0.92-0.13,1.53c-0.92,3.2-9.66,13.87-17.15,18.6"/>
				<path style="stroke: #09bf36;" id="kvg:05352-Kaisho-s4" kvg:type="㇔/㇏" d="M36.89,38.46C41,40.25,46.25,45,48.25,49.5"/>
			</g>
			<g id="kvg:05352-Kaisho-g5" kvg:element="人" kvg:position="right">
				<path style="stroke: #09bfbf;" id="kvg:05352-Kaisho-s5" kvg:type="㇒" d="M70.75,30.49c0,0.49,0.04,0.87-0.11,1.46c-0.76,3.04-7.99,13.18-14.17,17.68"/>
				<path style="stroke: #0936bf;" id="kvg:05352-Kaisho-s6" kvg:type="㇔/㇏" d="M69.89,38.46c7,2.15,15.95,7.87,19.36,13.29"/>
			</g>
		</g>
	</g>
	<g id="kvg:05352-Kaisho-g6" kvg:element="十" kvg:position="bottom" kvg:radical="tradit">
		<path style="stroke: #6409bf;" id="kvg:05352-Kaisho-s7" kvg:type="㇐" d="M14.88,67.84c1.52,0.54,4.31,0.68,5.82,0.54c19.3-1.77,55.8-4.52,69.11-4.73c2.53-0.04,4.05,0.26,5.31,0.53"/>
		<path style="stroke: #bf0991;" id="kvg:05352-Kaisho-s8" kvg:type="㇑" d="M52.84,54.75c0.52,0.6,1.62,4.52,1.73,5.73c0.1,1.21-0.07,30.48-0.17,38.02"/>
	</g>
</g>
</g>
<g id="kvg:StrokeNumbers_05352-Kaisho" style="font-size:8;fill:#808080" transform="scale(3.0,3.0)">
	<text style="fill: #bf0909;" transform="matrix(1 0 0 1 44.50 12.50)">1</text>
	<text style="fill: #bf9109;" transform="matrix(1 0 0 1 21.75 23.50)">2</text>
	<text style="fill: #64bf09;" transform="matrix(1 0 0 1 30.50 36.50)">3</text>
	<text style="fill: #09bf36;" transform="matrix(1 0 0 1 43.50 41.50)">4</text>
	<text style="fill: #09bfbf;" transform="matrix(1 0 0 1 61.50 34.50)">5</text>
	<text style="fill: #0936bf;" transform="matrix(1 0 0 1 76.50 39.13)">6</text>
	<text style="fill: #6409bf;" transform="matrix(1 0 0 1 8.25 68.50)">7</text>
	<text style="fill: #bf0991;" transform="matrix(1 0 0 1 44.50 59.60)">8</text>
</g>
</svg>
