<?xml version="1.0" encoding="UTF-8"?>
<!--
This file has been modified from the original version by the kanji_colorize.py
script (available at http://github.com/cayennes/kanji-colorize) with these
settings:
    mode: spectrum
    saturation: 0.95
    value: 0.75
    image_size: 327
It remains under a Creative Commons-Attribution-Share Alike 3.0 License.

The original SVG has the following copyright:

Copyright (C) 2009/2010/2011 Ulrich Apel.
This work is distributed under the conditions of the Creative Commons
Attribution-Share Alike 3.0 Licence. This means you are free:
* to Share - to copy, distribute and transmit the work
* to Remix - to adapt the work

Under the following conditions:
* Attribution. You must attribute the work by stating your use of KanjiVG in
  your own copyright header and linking to KanjiVG's website
  (http://kanjivg.tagaini.net)
* Share Alike. If you alter, transform, or build upon this work, you may
  distribute the resulting work only under the same or similar license to this
  one.

See http://creativecommons.org/licenses/by-sa/3.0/ for more details.
-->
<!DOCTYPE svg PUBLIC "-//W3C//DTD SVG 1.0//EN" "http://www.w3.org/TR/2001/REC-SVG-20010904/DTD/svg10.dtd" [
<!ATTLIST g
xmlns:kvg CDATA #FIXED "http://kanjivg.tagaini.net"
kvg:element CDATA #IMPLIED
kvg:variant CDATA #IMPLIED
kvg:partial CDATA #IMPLIED
kvg:original CDATA #IMPLIED
kvg:part CDATA #IMPLIED
kvg:number CDATA #IMPLIED
kvg:tradForm CDATA #IMPLIED
kvg:radicalForm CDATA #IMPLIED
kvg:position CDATA #IMPLIED
kvg:radical CDATA #IMPLIED
kvg:phon CDATA #IMPLIED >
<!ATTLIST path
xmlns:kvg CDATA #FIXED "http://kanjivg.tagaini.net"
kvg:type CDATA #IMPLIED >
]>
<svg xmlns="http://www.w3.org/2000/svg" width="327" height = "327" viewBox="0 0 327 327">
<g id="kvg:StrokePaths_05373-Kaisho" style="fill:none;stroke:#000000;stroke-width:3;stroke-linecap:round;stroke-linejoin:round;" transform="scale(3.0,3.0)">
<g id="kvg:05373-Kaisho" kvg:element="即">
	<g id="kvg:05373-Kaisho-g1" kvg:element="艮" kvg:partial="true" kvg:position="left" kvg:radical="nelson">
		<path style="stroke: #bf0909;" id="kvg:05373-Kaisho-s1" kvg:type="㇕" d="M17.66,18.73c2.16-0.12,23.79-2.96,25.76-3.1c1.64-0.12,2.59,1.33,2.57,2.07c-0.11,5.18-1.49,20.06-2.31,27.97"/>
		<path style="stroke: #bfa509;" id="kvg:05373-Kaisho-s2" kvg:type="㇐a" d="M17.45,32.23c4.52-0.48,9.03-1.13,13.54-1.72c1.35-0.18,2.7-0.35,4-0.52"/>
		<path style="stroke: #3dbf09;" id="kvg:05373-Kaisho-s3" kvg:type="㇐a" d="M17.91,46.59c7.45-0.93,17.36-2.27,25.46-3.16"/>
		<path style="stroke: #09bf71;" id="kvg:05373-Kaisho-s4" kvg:type="㇙" d="M15.51,16.51c1.23,0.58,1.47,2.62,1.71,3.79c0.25,1.17,0.25,51.78,0.25,54.69c0,4.02-0.08,5.18,2.87,3.14C23.29,76.08,39,66.75,44.75,64"/>
		<path style="stroke: #0971bf;" id="kvg:05373-Kaisho-s5" kvg:type="㇔" d="M38.81,55.27c3.13,2.48,8.31,10.54,9.74,16.99"/>
	</g>
	<g id="kvg:05373-Kaisho-g2" kvg:element="卩" kvg:position="right" kvg:radical="tradit">
		<g id="kvg:05373-Kaisho-g3" kvg:element="厶" kvg:variant="true" kvg:original="厶">
			<path style="stroke: #3d09bf;" id="kvg:05373-Kaisho-s6" kvg:type="㇆" d="M63.25,24.26c4.5-0.51,20.97-3.13,23.13-3.29c2.16-0.16,5.4-0.33,5.62,3.1c0.1,1.64-2.79,24.78-4.97,32.28c-3.03,10.41-8.21,0.82-8.86,0.49"/>
			<path style="stroke: #bf09a5;" id="kvg:05373-Kaisho-s7" kvg:type="㇑" d="M61.37,22.25c1.09,0.5,1.74,2.25,1.96,3.25c0.22,1,0,63.25-0.22,69.5"/>
		</g>
	</g>
</g>
</g>
<g id="kvg:StrokeNumbers_05373-Kaisho" style="font-size:8;fill:#808080" transform="scale(3.0,3.0)">
	<text style="fill: #bf0909;" transform="matrix(1 0 0 1 19.50 15.13)">1</text>
	<text style="fill: #bfa509;" transform="matrix(1 0 0 1 22.45 28.50)">2</text>
	<text style="fill: #3dbf09;" transform="matrix(1 0 0 1 22.50 42.50)">3</text>
	<text style="fill: #09bf71;" transform="matrix(1 0 0 1 9.75 25.63)">4</text>
	<text style="fill: #0971bf;" transform="matrix(1 0 0 1 32.25 58.63)">5</text>
	<text style="fill: #3d09bf;" transform="matrix(1 0 0 1 64.50 20.50)">6</text>
	<text style="fill: #bf09a5;" transform="matrix(1 0 0 1 55.50 31.63)">7</text>
</g>
</svg>
