<?xml version="1.0" encoding="UTF-8"?>
<!--
This file has been modified from the original version by the kanji_colorize.py
script (available at http://github.com/cayennes/kanji-colorize) with these
settings:
    mode: spectrum
    saturation: 0.95
    value: 0.75
    image_size: 327
It remains under a Creative Commons-Attribution-Share Alike 3.0 License.

The original SVG has the following copyright:

Copyright (C) 2009/2010/2011 Ulrich Apel.
This work is distributed under the conditions of the Creative Commons
Attribution-Share Alike 3.0 Licence. This means you are free:
* to Share - to copy, distribute and transmit the work
* to Remix - to adapt the work

Under the following conditions:
* Attribution. You must attribute the work by stating your use of KanjiVG in
  your own copyright header and linking to KanjiVG's website
  (http://kanjivg.tagaini.net)
* Share Alike. If you alter, transform, or build upon this work, you may
  distribute the resulting work only under the same or similar license to this
  one.

See http://creativecommons.org/licenses/by-sa/3.0/ for more details.
-->
<!DOCTYPE svg PUBLIC "-//W3C//DTD SVG 1.0//EN" "http://www.w3.org/TR/2001/REC-SVG-20010904/DTD/svg10.dtd" [
<!ATTLIST g
xmlns:kvg CDATA #FIXED "http://kanjivg.tagaini.net"
kvg:element CDATA #IMPLIED
kvg:variant CDATA #IMPLIED
kvg:partial CDATA #IMPLIED
kvg:original CDATA #IMPLIED
kvg:part CDATA #IMPLIED
kvg:number CDATA #IMPLIED
kvg:tradForm CDATA #IMPLIED
kvg:radicalForm CDATA #IMPLIED
kvg:position CDATA #IMPLIED
kvg:radical CDATA #IMPLIED
kvg:phon CDATA #IMPLIED >
<!ATTLIST path
xmlns:kvg CDATA #FIXED "http://kanjivg.tagaini.net"
kvg:type CDATA #IMPLIED >
]>
<svg xmlns="http://www.w3.org/2000/svg" width="327" height = "327" viewBox="0 0 327 327">
<g id="kvg:StrokePaths_053d6-KaishoVt3" style="fill:none;stroke:#000000;stroke-width:3;stroke-linecap:round;stroke-linejoin:round;" transform="scale(3.0,3.0)">
<g id="kvg:053d6-KaishoVt3" kvg:element="取">
	<g id="kvg:053d6-KaishoVt3-g1" kvg:element="耳" kvg:variant="true" kvg:position="left" kvg:radical="nelson">
		<path style="stroke: #bf0909;" id="kvg:053d6-KaishoVt3-s1" kvg:type="㇐" d="M10.69,20.47c0.98,0.43,2.78,0.53,3.77,0.43C23,20,36,17.5,49.31,17.01c1.64-0.06,2.62,0.2,3.44,0.42"/>
		<path style="stroke: #bf9109;" id="kvg:053d6-KaishoVt3-s2" kvg:type="㇑" d="M20.18,22.82c0.32,1.18,1.28,2.33,1.28,3.72s-0.16,42.8-0.16,47.79"/>
		<path style="stroke: #64bf09;" id="kvg:053d6-KaishoVt3-s3" kvg:type="㇑" d="M41.75,20.25c1,1.25,1.1,1.46,1.1,2.85s0.16,61.53,0.16,72.9"/>
		<path style="stroke: #09bf36;" id="kvg:053d6-KaishoVt3-s4" kvg:type="㇐" d="M22.55,37.73c3.43-0.65,6.36-1.27,9.81-1.75c0.7-0.1,1.39-0.19,2.09-0.27"/>
		<path style="stroke: #09bfbf;" id="kvg:053d6-KaishoVt3-s5" kvg:type="㇐" d="M22.24,54.2c3.07-0.49,6.14-0.99,9.22-1.41c0.71-0.1,1.43-0.19,2.19-0.28"/>
		<path style="stroke: #0936bf;" id="kvg:053d6-KaishoVt3-s6" kvg:type="㇀" d="M10,76.6c0.31,0.83,1.72,2.01,2.81,1.66c4.37-1.39,27.85-9.2,34.57-11.42"/>
	</g>
	<g id="kvg:053d6-KaishoVt3-g2" kvg:element="又" kvg:position="right" kvg:radical="tradit">
		<path style="stroke: #6409bf;" id="kvg:053d6-KaishoVt3-s7" kvg:type="㇇" d="M55.73,36.33c1.31,0.36,1.48,0.91,4.1,0.36c2.62-0.55,20.97-5.28,22.77-5.83c1.8-0.55,3.05,1.98,2.46,4.01C78,59,65,79.25,49.5,86.5"/>
		<path style="stroke: #bf0991;" id="kvg:053d6-KaishoVt3-s8" kvg:type="㇏" d="M52.69,44.55c4.31,1.7,23.81,28.7,39.7,38.3c2.44,1.47,3.97,2.81,6.11,3.38"/>
	</g>
</g>
</g>
<g id="kvg:StrokeNumbers_053d6-KaishoVt3" style="font-size:8;fill:#808080" transform="scale(3.0,3.0)">
	<text style="fill: #bf0909;" transform="matrix(1 0 0 1 3.75 21.13)">1</text>
	<text style="fill: #bf9109;" transform="matrix(1 0 0 1 13.50 31.94)">2</text>
	<text style="fill: #64bf09;" transform="matrix(1 0 0 1 35.50 28.50)">3</text>
	<text style="fill: #09bf36;" transform="matrix(1 0 0 1 24.50 33.13)">4</text>
	<text style="fill: #09bfbf;" transform="matrix(1 0 0 1 25.50 50.50)">5</text>
	<text style="fill: #0936bf;" transform="matrix(1 0 0 1 2.50 80.50)">6</text>
	<text style="fill: #6409bf;" transform="matrix(1 0 0 1 49.50 35.50)">7</text>
	<text style="fill: #bf0991;" transform="matrix(1 0 0 1 58.50 47.50)">8</text>
</g>
</svg>
