<?xml version="1.0" encoding="UTF-8"?>
<!--
This file has been modified from the original version by the kanji_colorize.py
script (available at http://github.com/cayennes/kanji-colorize) with these
settings:
    mode: spectrum
    saturation: 0.95
    value: 0.75
    image_size: 327
It remains under a Creative Commons-Attribution-Share Alike 3.0 License.

The original SVG has the following copyright:

Copyright (C) 2009/2010/2011 Ulrich Apel.
This work is distributed under the conditions of the Creative Commons
Attribution-Share Alike 3.0 Licence. This means you are free:
* to Share - to copy, distribute and transmit the work
* to Remix - to adapt the work

Under the following conditions:
* Attribution. You must attribute the work by stating your use of KanjiVG in
  your own copyright header and linking to KanjiVG's website
  (http://kanjivg.tagaini.net)
* Share Alike. If you alter, transform, or build upon this work, you may
  distribute the resulting work only under the same or similar license to this
  one.

See http://creativecommons.org/licenses/by-sa/3.0/ for more details.
-->
<!DOCTYPE svg PUBLIC "-//W3C//DTD SVG 1.0//EN" "http://www.w3.org/TR/2001/REC-SVG-20010904/DTD/svg10.dtd" [
<!ATTLIST g
xmlns:kvg CDATA #FIXED "http://kanjivg.tagaini.net"
kvg:element CDATA #IMPLIED
kvg:variant CDATA #IMPLIED
kvg:partial CDATA #IMPLIED
kvg:original CDATA #IMPLIED
kvg:part CDATA #IMPLIED
kvg:number CDATA #IMPLIED
kvg:tradForm CDATA #IMPLIED
kvg:radicalForm CDATA #IMPLIED
kvg:position CDATA #IMPLIED
kvg:radical CDATA #IMPLIED
kvg:phon CDATA #IMPLIED >
<!ATTLIST path
xmlns:kvg CDATA #FIXED "http://kanjivg.tagaini.net"
kvg:type CDATA #IMPLIED >
]>
<svg xmlns="http://www.w3.org/2000/svg" width="327" height = "327" viewBox="0 0 327 327">
<g id="kvg:StrokePaths_05642-Hyougai" style="fill:none;stroke:#000000;stroke-width:3;stroke-linecap:round;stroke-linejoin:round;" transform="scale(3.0,3.0)">
<g id="kvg:05642-Hyougai" kvg:element="噂">
	<g id="kvg:05642-Hyougai-g1" kvg:element="口" kvg:position="left" kvg:radical="general">
		<path style="stroke: #bf0909;" id="kvg:05642-Hyougai-s1" kvg:type="㇑" d="M11.5,34.79c0.72,0.86,1.12,1.84,1.21,2.94c0.79,8.07,1.53,15.81,2.15,22.28c0.19,1.96,0.37,3.79,0.53,5.49"/>
		<path style="stroke: #bf5209;" id="kvg:05642-Hyougai-s2" kvg:type="㇕b" d="M13.83,36.72c8.67-1.85,11.66-2.25,15.33-3.03c2.09-0.45,3.97,0.18,3.67,2.67C32.1,42.31,31,50,29.86,59.11"/>
		<path style="stroke: #bf9a09;" id="kvg:05642-Hyougai-s3" kvg:type="㇐b" d="M15.57,61.55c4.28-0.63,7.1-0.94,12.68-1.41c1.11-0.09,2.34-0.19,3.71-0.3"/>
	</g>
	<g id="kvg:05642-Hyougai-g2" kvg:element="尊" kvg:position="right">
		<g id="kvg:05642-Hyougai-g3" kvg:element="酋" kvg:position="top">
			<g id="kvg:05642-Hyougai-g4" kvg:element="八" kvg:variant="true" kvg:position="top">
				<g id="kvg:05642-Hyougai-g5" kvg:position="left">
					<path style="stroke: #9abf09;" id="kvg:05642-Hyougai-s4" kvg:type="㇔" d="M48.23,12.37c2.51,1.82,6.49,6.75,7.11,9.59"/>
				</g>
				<g id="kvg:05642-Hyougai-g6" kvg:position="right">
					<path style="stroke: #52bf09;" id="kvg:05642-Hyougai-s5" kvg:type="㇒" d="M78.15,9.9c0.09,0.85-0.05,1.67-0.42,2.44c-2.1,3.17-2.9,4.55-8.1,9.92"/>
				</g>
			</g>
			<g id="kvg:05642-Hyougai-g7" kvg:element="酉" kvg:position="bottom">
				<g id="kvg:05642-Hyougai-g8" kvg:element="西" kvg:part="1" kvg:original="襾">
					<path style="stroke: #09bf09;" id="kvg:05642-Hyougai-s6" kvg:type="㇐" d="M40.43,27.72c2.23,0.59,4.46,0.61,6.7,0.06c8.8-1.03,25.05-3.01,34.75-3.61c2.56-0.38,5.08-0.29,7.59,0.27"/>
					<path style="stroke: #09bf52;" id="kvg:05642-Hyougai-s7" kvg:type="㇑" d="M46.59,37.51c0.82,0.82,0.91,2.11,0.91,3.23c0,1.39,0.02,10.93,0.02,18.14c0,2.5,0,4.71,0,6.21"/>
					<path style="stroke: #09bf9a;" id="kvg:05642-Hyougai-s8" kvg:type="㇕a" d="M48.54,38.92c2.69-0.11,28.79-3.67,31.08-3.75c1.9-0.07,2.9,1.12,2.9,2.62c0,0.61-0.01,10.57-0.01,18.21c0,2.9,0,5.46,0,7.06"/>
					<path style="stroke: #099abf;" id="kvg:05642-Hyougai-s9" kvg:type="㇒" d="M57.72,27.52c0.69,0.69,0.83,1.7,0.84,2.54C58.64,38.29,57,44,52.8,47.73"/>
					<path style="stroke: #0952bf;" id="kvg:05642-Hyougai-s10" kvg:type="㇟a" d="M66.83,27.63c0.46,0.66,0.83,1.45,0.86,2.47c0.09,3.25,0.05,7.13,0,11.15c-0.04,3.49,1.3,3.92,5.71,3.92c2.8,0,5.58-0.43,5.89-0.83"/>
				</g>
				<g id="kvg:05642-Hyougai-g9" kvg:element="一">
					<path style="stroke: #0909bf;" id="kvg:05642-Hyougai-s11" kvg:type="㇐a" d="M48.71,54.26c3.4,0,29.18-2.12,33.02-2.12"/>
				</g>
				<g id="kvg:05642-Hyougai-g10" kvg:element="西" kvg:part="2" kvg:original="襾">
					<path style="stroke: #5209bf;" id="kvg:05642-Hyougai-s12" kvg:type="㇐a" d="M48.76,62.64c6.92-0.28,24-1.49,32.62-1.73"/>
				</g>
			</g>
		</g>
		<g id="kvg:05642-Hyougai-g11" kvg:element="寸" kvg:position="bottom">
			<path style="stroke: #9a09bf;" id="kvg:05642-Hyougai-s13" kvg:type="㇐" d="M36.13,75.37c2.48,0.82,4.95,0.8,7.51,0.52c14.23-1.52,30.36-2.77,44.84-3.97c2.86-0.24,5.64-0.17,8.4,0.65"/>
			<path style="stroke: #bf099a;" id="kvg:05642-Hyougai-s14" kvg:type="㇚" d="M74.13,65.24c0.69,0.69,0.99,2.14,0.99,3.6c0,8.32-0.03,21.95-0.03,25.85c0,9.48-5.43,1.41-6.73,0.2"/>
			<path style="stroke: #bf0952;" id="kvg:05642-Hyougai-s15" kvg:type="㇔" d="M50.11,80.23c2.24,1.64,5.53,6.75,6.09,9.31"/>
		</g>
	</g>
</g>
</g>
<g id="kvg:StrokeNumbers_05642-Hyougai" style="font-size:8;fill:#808080" transform="scale(3.0,3.0)">
	<text style="fill: #bf0909;" transform="matrix(1 0 0 1 6.85 43.85)">1</text>
	<text style="fill: #bf5209;" transform="matrix(1 0 0 1 15.66 32.85)">2</text>
	<text style="fill: #bf9a09;" transform="matrix(1 0 0 1 17.50 57.50)">3</text>
	<text style="fill: #9abf09;" transform="matrix(1 0 0 1 40.50 11.50)">4</text>
	<text style="fill: #52bf09;" transform="matrix(1 0 0 1 68.50 9.50)">5</text>
	<text style="fill: #09bf09;" transform="matrix(1 0 0 1 37.50 24.50)">6</text>
	<text style="fill: #09bf52;" transform="matrix(1 0 0 1 39.50 44.50)">7</text>
	<text style="fill: #09bf9a;" transform="matrix(1 0 0 1 46.25 35.50)">8</text>
	<text style="fill: #099abf;" transform="matrix(1 0 0 1 52.50 34.50)">9</text>
	<text style="fill: #0952bf;" transform="matrix(1 0 0 1 69.50 32.95)">10</text>
	<text style="fill: #0909bf;" transform="matrix(1 0 0 1 56.50 51.50)">11</text>
	<text style="fill: #5209bf;" transform="matrix(1 0 0 1 52.25 60.50)">12</text>
	<text style="fill: #9a09bf;" transform="matrix(1 0 0 1 34.50 73.50)">13</text>
	<text style="fill: #bf099a;" transform="matrix(1 0 0 1 63.25 69.65)">14</text>
	<text style="fill: #bf0952;" transform="matrix(1 0 0 1 40.50 85.50)">15</text>
</g>
</svg>
