<?xml version="1.0" encoding="UTF-8"?>
<!--
This file has been modified from the original version by the kanji_colorize.py
script (available at http://github.com/cayennes/kanji-colorize) with these
settings:
    mode: spectrum
    saturation: 0.95
    value: 0.75
    image_size: 327
It remains under a Creative Commons-Attribution-Share Alike 3.0 License.

The original SVG has the following copyright:

Copyright (C) 2009/2010/2011 Ulrich Apel.
This work is distributed under the conditions of the Creative Commons
Attribution-Share Alike 3.0 Licence. This means you are free:
* to Share - to copy, distribute and transmit the work
* to Remix - to adapt the work

Under the following conditions:
* Attribution. You must attribute the work by stating your use of KanjiVG in
  your own copyright header and linking to KanjiVG's website
  (http://kanjivg.tagaini.net)
* Share Alike. If you alter, transform, or build upon this work, you may
  distribute the resulting work only under the same or similar license to this
  one.

See http://creativecommons.org/licenses/by-sa/3.0/ for more details.
-->
<!DOCTYPE svg PUBLIC "-//W3C//DTD SVG 1.0//EN" "http://www.w3.org/TR/2001/REC-SVG-20010904/DTD/svg10.dtd" [
<!ATTLIST g
xmlns:kvg CDATA #FIXED "http://kanjivg.tagaini.net"
kvg:element CDATA #IMPLIED
kvg:variant CDATA #IMPLIED
kvg:partial CDATA #IMPLIED
kvg:original CDATA #IMPLIED
kvg:part CDATA #IMPLIED
kvg:number CDATA #IMPLIED
kvg:tradForm CDATA #IMPLIED
kvg:radicalForm CDATA #IMPLIED
kvg:position CDATA #IMPLIED
kvg:radical CDATA #IMPLIED
kvg:phon CDATA #IMPLIED >
<!ATTLIST path
xmlns:kvg CDATA #FIXED "http://kanjivg.tagaini.net"
kvg:type CDATA #IMPLIED >
]>
<svg xmlns="http://www.w3.org/2000/svg" width="327" height = "327" viewBox="0 0 327 327">
<g id="kvg:StrokePaths_056f0-Kaisho" style="fill:none;stroke:#000000;stroke-width:3;stroke-linecap:round;stroke-linejoin:round;" transform="scale(3.0,3.0)">
<g id="kvg:056f0-Kaisho" kvg:element="困">
	<g id="kvg:056f0-Kaisho-g1" kvg:element="囗" kvg:part="1" kvg:radical="general">
		<path style="stroke: #bf0909;" id="kvg:056f0-Kaisho-s1" kvg:type="㇑" d="M18.75,16.32c0.75,1.43,1.84,2.51,1.86,4.41C20.75,35,20.75,68.75,20.3,96"/>
		<path style="stroke: #bfa509;" id="kvg:056f0-Kaisho-s2" kvg:type="㇕a" d="M22.23,18.65C40.25,17,74.18,13.5,86.25,13.5c2.75,0,3.55,2.49,3.5,5.5c-0.25,15.75-1,52.25-0.5,74.5"/>
	</g>
	<g id="kvg:056f0-Kaisho-g2" kvg:element="木" kvg:variant="true">
		<path style="stroke: #3dbf09;" id="kvg:056f0-Kaisho-s3" kvg:type="㇐" d="M30.73,41.17c1.31,0.43,2.8,0.49,4.32,0.43c8.21-0.35,28.71-2.85,39.54-3.96c1.5-0.15,2.06-0.11,3.19,0"/>
		<path style="stroke: #09bf71;" id="kvg:056f0-Kaisho-s4" kvg:type="㇚/㇑" d="M52.87,22c0.94,0.38,1.5,1.69,1.69,2.44c0.19,0.75-0.19,56.17-0.19,55.81c0,10-4.75,1.88-5.87,0.75"/>
		<path style="stroke: #0971bf;" id="kvg:056f0-Kaisho-s5" kvg:type="㇒" d="M53.25,41.52c-4.04,10.67-14.87,26.99-23.28,33.03"/>
		<path style="stroke: #3d09bf;" id="kvg:056f0-Kaisho-s6" kvg:type="㇔/㇏" d="M58.81,49.83c6.69,4.81,15.68,16.58,18.8,21.86"/>
	</g>
	<g id="kvg:056f0-Kaisho-g3" kvg:element="囗" kvg:part="2" kvg:radical="general">
		<path style="stroke: #bf09a5;" id="kvg:056f0-Kaisho-s7" kvg:type="㇐a" d="M21.25,93.01c13.07,0,49.96-2.1,68-2.51"/>
	</g>
</g>
</g>
<g id="kvg:StrokeNumbers_056f0-Kaisho" style="font-size:8;fill:#808080" transform="scale(3.0,3.0)">
	<text style="fill: #bf0909;" transform="matrix(1 0 0 1 12.75 25.63)">1</text>
	<text style="fill: #bfa509;" transform="matrix(1 0 0 1 23.25 15.13)">2</text>
	<text style="fill: #3dbf09;" transform="matrix(1 0 0 1 26.25 37.50)">3</text>
	<text style="fill: #09bf71;" transform="matrix(1 0 0 1 45.50 25.50)">4</text>
	<text style="fill: #0971bf;" transform="matrix(1 0 0 1 41.50 51.50)">5</text>
	<text style="fill: #3d09bf;" transform="matrix(1 0 0 1 65.25 51.13)">6</text>
	<text style="fill: #bf09a5;" transform="matrix(1 0 0 1 26.50 89.50)">7</text>
</g>
</svg>
