<?xml version="1.0" encoding="UTF-8"?>
<!--
This file has been modified from the original version by the kanji_colorize.py
script (available at http://github.com/cayennes/kanji-colorize) with these
settings:
    mode: spectrum
    saturation: 0.95
    value: 0.75
    image_size: 327
It remains under a Creative Commons-Attribution-Share Alike 3.0 License.

The original SVG has the following copyright:

Copyright (C) 2009/2010/2011 Ulrich Apel.
This work is distributed under the conditions of the Creative Commons
Attribution-Share Alike 3.0 Licence. This means you are free:
* to Share - to copy, distribute and transmit the work
* to Remix - to adapt the work

Under the following conditions:
* Attribution. You must attribute the work by stating your use of KanjiVG in
  your own copyright header and linking to KanjiVG's website
  (http://kanjivg.tagaini.net)
* Share Alike. If you alter, transform, or build upon this work, you may
  distribute the resulting work only under the same or similar license to this
  one.

See http://creativecommons.org/licenses/by-sa/3.0/ for more details.
-->
<!DOCTYPE svg PUBLIC "-//W3C//DTD SVG 1.0//EN" "http://www.w3.org/TR/2001/REC-SVG-20010904/DTD/svg10.dtd" [
<!ATTLIST g
xmlns:kvg CDATA #FIXED "http://kanjivg.tagaini.net"
kvg:element CDATA #IMPLIED
kvg:variant CDATA #IMPLIED
kvg:partial CDATA #IMPLIED
kvg:original CDATA #IMPLIED
kvg:part CDATA #IMPLIED
kvg:number CDATA #IMPLIED
kvg:tradForm CDATA #IMPLIED
kvg:radicalForm CDATA #IMPLIED
kvg:position CDATA #IMPLIED
kvg:radical CDATA #IMPLIED
kvg:phon CDATA #IMPLIED >
<!ATTLIST path
xmlns:kvg CDATA #FIXED "http://kanjivg.tagaini.net"
kvg:type CDATA #IMPLIED >
]>
<svg xmlns="http://www.w3.org/2000/svg" width="327" height = "327" viewBox="0 0 327 327">
<g id="kvg:StrokePaths_057cb-KaishoVtLst" style="fill:none;stroke:#000000;stroke-width:3;stroke-linecap:round;stroke-linejoin:round;" transform="scale(3.0,3.0)">
<g id="kvg:057cb-KaishoVtLst" kvg:element="埋">
	<g id="kvg:057cb-KaishoVtLst-g1" kvg:element="土" kvg:variant="true" kvg:position="left" kvg:radical="general">
		<path style="stroke: #bf0909;" id="kvg:057cb-KaishoVtLst-s1" kvg:type="㇐" d="M12.5,43.14c0.76,0.38,2.24,0.46,3,0.36C20.32,42.84,31,40.25,37,39c1.24-0.26,2.62-0.18,3.25,0.01"/>
		<path style="stroke: #bf7609;" id="kvg:057cb-KaishoVtLst-s2" kvg:type="㇑a" d="M25.87,19.5c1.09,0.5,1.96,2.23,1.96,3.25c0,7.25,0.03,33.75,0.03,44.5"/>
		<path style="stroke: #9abf09;" id="kvg:057cb-KaishoVtLst-s3" kvg:type="㇀/㇐" d="M11.5,75.29c0.75,0.96,2.25,1.46,4.5,0.21c6.25-3.5,18.5-10.75,24.75-14.25"/>
	</g>
	<g id="kvg:057cb-KaishoVtLst-g2" kvg:element="里" kvg:variant="true" kvg:position="right">
		<path style="stroke: #2dbf09;" id="kvg:057cb-KaishoVtLst-s4" kvg:type="㇑" d="M47.04,20.5c0.31,0.57,0.32,0.96,0.49,1.67c1.42,5.88,3.25,20.23,4.13,31.19"/>
		<path style="stroke: #09bf52;" id="kvg:057cb-KaishoVtLst-s5" kvg:type="㇕" d="M48.51,21.29c10.98-1.48,31.29-3.99,39.49-5.23c3.01-0.46,4.55,1.16,4.4,2.77c-0.57,5.93-2.97,22.07-4.34,31.97"/>
		<path style="stroke: #09bfbf;" id="kvg:057cb-KaishoVtLst-s6" kvg:type="㇐" d="M50.55,35.49c8.55-1.38,17.31-1.94,25.92-2.82c1.04-0.11,2.05-0.21,3.01-0.31"/>
		<path style="stroke: #0952bf;" id="kvg:057cb-KaishoVtLst-s7" kvg:type="㇐" d="M52.22,51.27c7.9-0.63,24.91-2.27,35.82-3.3"/>
		<path style="stroke: #2d09bf;" id="kvg:057cb-KaishoVtLst-s8" kvg:type="㇐" d="M49.22,70.17c0.8,0.38,2.27,0.42,3.08,0.38c8.36-0.44,27.26-3.8,37.61-3.88c1.34-0.01,2.14,0.18,2.81,0.37"/>
		<path style="stroke: #9a09bf;" id="kvg:057cb-KaishoVtLst-s9" kvg:type="㇐" d="M37.88,91.23c1.3,0.54,3.68,0.63,4.98,0.54c13.52-0.91,35.62-3.77,51.72-3.73c2.17,0,3.46,0.26,4.55,0.53"/>
		<path style="stroke: #bf0976;" id="kvg:057cb-KaishoVtLst-s10" kvg:type="㇑" d="M68.33,20.13c1.17,1.12,1.57,3.35,1.6,4.36c0.39,12.89,0.16,60.35,0.16,65.01"/>
	</g>
</g>
</g>
<g id="kvg:StrokeNumbers_057cb-KaishoVtLst" style="font-size:8;fill:#808080" transform="scale(3.0,3.0)">
	<text style="fill: #bf0909;" transform="matrix(1 0 0 1 5.50 44.50)">1</text>
	<text style="fill: #bf7609;" transform="matrix(1 0 0 1 15.75 19.63)">2</text>
	<text style="fill: #9abf09;" transform="matrix(1 0 0 1 2.50 78.50)">3</text>
	<text style="fill: #2dbf09;" transform="matrix(1 0 0 1 40.50 28.63)">4</text>
	<text style="fill: #09bf52;" transform="matrix(1 0 0 1 51.50 17.50)">5</text>
	<text style="fill: #09bfbf;" transform="matrix(1 0 0 1 53.50 31.50)">6</text>
	<text style="fill: #0952bf;" transform="matrix(1 0 0 1 54.50 47.50)">7</text>
	<text style="fill: #2d09bf;" transform="matrix(1 0 0 1 48.50 67.50)">8</text>
	<text style="fill: #9a09bf;" transform="matrix(1 0 0 1 35.50 87.50)">9</text>
	<text style="fill: #bf0976;" transform="matrix(1 0 0 1 59.50 28.50)">10</text>
</g>
</svg>
