<?xml version="1.0" encoding="UTF-8"?>
<!--
This file has been modified from the original version by the kanji_colorize.py
script (available at http://github.com/cayennes/kanji-colorize) with these
settings:
    mode: spectrum
    saturation: 0.95
    value: 0.75
    image_size: 327
It remains under a Creative Commons-Attribution-Share Alike 3.0 License.

The original SVG has the following copyright:

Copyright (C) 2009/2010/2011 Ulrich Apel.
This work is distributed under the conditions of the Creative Commons
Attribution-Share Alike 3.0 Licence. This means you are free:
* to Share - to copy, distribute and transmit the work
* to Remix - to adapt the work

Under the following conditions:
* Attribution. You must attribute the work by stating your use of KanjiVG in
  your own copyright header and linking to KanjiVG's website
  (http://kanjivg.tagaini.net)
* Share Alike. If you alter, transform, or build upon this work, you may
  distribute the resulting work only under the same or similar license to this
  one.

See http://creativecommons.org/licenses/by-sa/3.0/ for more details.
-->
<!DOCTYPE svg PUBLIC "-//W3C//DTD SVG 1.0//EN" "http://www.w3.org/TR/2001/REC-SVG-20010904/DTD/svg10.dtd" [
<!ATTLIST g
xmlns:kvg CDATA #FIXED "http://kanjivg.tagaini.net"
kvg:element CDATA #IMPLIED
kvg:variant CDATA #IMPLIED
kvg:partial CDATA #IMPLIED
kvg:original CDATA #IMPLIED
kvg:part CDATA #IMPLIED
kvg:number CDATA #IMPLIED
kvg:tradForm CDATA #IMPLIED
kvg:radicalForm CDATA #IMPLIED
kvg:position CDATA #IMPLIED
kvg:radical CDATA #IMPLIED
kvg:phon CDATA #IMPLIED >
<!ATTLIST path
xmlns:kvg CDATA #FIXED "http://kanjivg.tagaini.net"
kvg:type CDATA #IMPLIED >
]>
<svg xmlns="http://www.w3.org/2000/svg" width="327" height = "327" viewBox="0 0 327 327">
<g id="kvg:StrokePaths_05951-VtLst" style="fill:none;stroke:#000000;stroke-width:3;stroke-linecap:round;stroke-linejoin:round;" transform="scale(3.0,3.0)">
<g id="kvg:05951-VtLst" kvg:element="契">
	<g id="kvg:05951-VtLst-g1" kvg:position="top">
		<g id="kvg:05951-VtLst-g2" kvg:position="left">
			<path style="stroke: #bf0909;" id="kvg:05951-VtLst-s1" kvg:type="㇐" d="M15.5,25.25c1.5,0,1.56,0.12,3.05,0c9.7-0.75,23.95-3.75,29.15-4.5c1.48-0.21,1.87-0.25,2.8,0"/>
			<path style="stroke: #bf8209;" id="kvg:05951-VtLst-s2" kvg:type="㇑" d="M19.5,39.25c1.5,0,1.56,0.12,3.05,0c9.7-0.75,19.45-3.75,24.65-4.5c1.48-0.21,1.87-0.25,2.8,0"/>
			<path style="stroke: #82bf09;" id="kvg:05951-VtLst-s3" kvg:type="㇐" d="M13.75,57.25c1.5,1.5,2.4,2.19,5.25,1c7.75-3.25,17.5-7,28.75-11.25"/>
			<path style="stroke: #09bf09;" id="kvg:05951-VtLst-s4" kvg:type="㇐" d="M33.87,9.25c1.09,0.5,1.74,2.25,1.96,3.25c0.22,1-0.33,27.75-0.33,38.25"/>
		</g>
		<g id="kvg:05951-VtLst-g3" kvg:element="刀" kvg:position="right">
			<path style="stroke: #09bf82;" id="kvg:05951-VtLst-s5" kvg:type="㇆" d="M58.99,21.53c1.2,0.42,2.71,0.37,3.76,0.22c8.57-1.16,22.96-4.62,27.71-5.04c3.09-0.28,4.46,0.83,4.29,2.77c-0.45,5.12-3.51,19.01-8.08,27.66c-1.06,2-2.37,3.28-5.15,1.38c-1.93-1.32-2.23-1.45-3.09-1.8"/>
			<path style="stroke: #0982bf;" id="kvg:05951-VtLst-s6" kvg:type="㇒" d="M73.75,21.99c0.04,0.64,0.14,1.67-0.09,2.58C71.25,34,68,41.5,58.77,50.83"/>
		</g>
	</g>
	<g id="kvg:05951-VtLst-g4" kvg:element="大" kvg:position="bottom" kvg:radical="general">
		<path style="stroke: #0909bf;" id="kvg:05951-VtLst-s7" kvg:type="㇐" d="M18.15,73.11c1.52,0.39,3.23,0.27,4.22,0.11C36.25,71,68.5,67,84.25,66.08c1.25-0.07,3.5-0.08,4.9-0.08"/>
		<path style="stroke: #8209bf;" id="kvg:05951-VtLst-s8" kvg:type="㇒" d="M51.19,52.25c0.47,0.66,0.71,1.43,0.69,2.87C51.66,79.99,40.45,93.11,22,100.75"/>
		<path style="stroke: #bf0982;" id="kvg:05951-VtLst-s9" kvg:type="㇏" d="M53.58,68.93c8.56,6.8,27.12,22.84,35.67,27.39c2.91,1.55,3.92,1.78,5.25,1.93"/>
	</g>
</g>
</g>
<g id="kvg:StrokeNumbers_05951-VtLst" style="font-size:8;fill:#808080" transform="scale(3.0,3.0)">
	<text style="fill: #bf0909;" transform="matrix(1 0 0 1 8.25 25.63)">1</text>
	<text style="fill: #bf8209;" transform="matrix(1 0 0 1 12.50 40.63)">2</text>
	<text style="fill: #82bf09;" transform="matrix(1 0 0 1 6.50 59.50)">3</text>
	<text style="fill: #09bf09;" transform="matrix(1 0 0 1 24.50 10.63)">4</text>
	<text style="fill: #09bf82;" transform="matrix(1 0 0 1 56.50 18.13)">5</text>
	<text style="fill: #0982bf;" transform="matrix(1 0 0 1 63.75 31.55)">6</text>
	<text style="fill: #0909bf;" transform="matrix(1 0 0 1 9.50 74.50)">7</text>
	<text style="fill: #8209bf;" transform="matrix(1 0 0 1 44.25 60.50)">8</text>
	<text style="fill: #bf0982;" transform="matrix(1 0 0 1 67.50 77.50)">9</text>
</g>
</svg>
