<?xml version="1.0" encoding="UTF-8"?>
<!--
This file has been modified from the original version by the kanji_colorize.py
script (available at http://github.com/cayennes/kanji-colorize) with these
settings:
    mode: spectrum
    saturation: 0.95
    value: 0.75
    image_size: 327
It remains under a Creative Commons-Attribution-Share Alike 3.0 License.

The original SVG has the following copyright:

Copyright (C) 2009/2010/2011 Ulrich Apel.
This work is distributed under the conditions of the Creative Commons
Attribution-Share Alike 3.0 Licence. This means you are free:
* to Share - to copy, distribute and transmit the work
* to Remix - to adapt the work

Under the following conditions:
* Attribution. You must attribute the work by stating your use of KanjiVG in
  your own copyright header and linking to KanjiVG's website
  (http://kanjivg.tagaini.net)
* Share Alike. If you alter, transform, or build upon this work, you may
  distribute the resulting work only under the same or similar license to this
  one.

See http://creativecommons.org/licenses/by-sa/3.0/ for more details.
-->
<!DOCTYPE svg PUBLIC "-//W3C//DTD SVG 1.0//EN" "http://www.w3.org/TR/2001/REC-SVG-20010904/DTD/svg10.dtd" [
<!ATTLIST g
xmlns:kvg CDATA #FIXED "http://kanjivg.tagaini.net"
kvg:element CDATA #IMPLIED
kvg:variant CDATA #IMPLIED
kvg:partial CDATA #IMPLIED
kvg:original CDATA #IMPLIED
kvg:part CDATA #IMPLIED
kvg:number CDATA #IMPLIED
kvg:tradForm CDATA #IMPLIED
kvg:radicalForm CDATA #IMPLIED
kvg:position CDATA #IMPLIED
kvg:radical CDATA #IMPLIED
kvg:phon CDATA #IMPLIED >
<!ATTLIST path
xmlns:kvg CDATA #FIXED "http://kanjivg.tagaini.net"
kvg:type CDATA #IMPLIED >
]>
<svg xmlns="http://www.w3.org/2000/svg" width="327" height = "327" viewBox="0 0 327 327">
<g id="kvg:StrokePaths_059b9-Kaisho" style="fill:none;stroke:#000000;stroke-width:3;stroke-linecap:round;stroke-linejoin:round;" transform="scale(3.0,3.0)">
<g id="kvg:059b9-Kaisho" kvg:element="妹">
	<g id="kvg:059b9-Kaisho-g1" kvg:element="女" kvg:variant="true" kvg:position="left" kvg:radical="general">
		<path style="stroke: #bf0909;" id="kvg:059b9-Kaisho-s1" kvg:type="㇛" d="M26.05,19.37c0.33,1.11,0.83,2.93,0.76,4.54c-0.55,11.59-3.05,27.84-5.62,37.68c-0.52,1.98,0.34,2.68,0.76,2.81c6.56,2.1,13.31,6.85,17.56,12.85"/>
		<path style="stroke: #bf9109;" id="kvg:059b9-Kaisho-s2" kvg:type="㇒" d="M39.75,35.25c0.08,1.32,0.13,3.52-0.16,5.43c-2.3,15.44-8.92,37.33-25.35,48.82"/>
		<path style="stroke: #64bf09;" id="kvg:059b9-Kaisho-s3" kvg:type="㇀/㇐" d="M10.5,48.46c0.75,1.04,2.25,1.29,4.25,1.04c2.15-0.27,23.84-4.88,32.75-7.53"/>
	</g>
	<g id="kvg:059b9-Kaisho-g2" kvg:element="未" kvg:position="right">
		<path style="stroke: #09bf36;" id="kvg:059b9-Kaisho-s4" kvg:type="㇐" d="M52.59,34.38c0.78,0.26,2.2,0.29,2.98,0.26c8.1-0.29,14.54-3.44,23.95-3.37c1.3,0.01,2.07,0.12,2.72,0.25"/>
		<g id="kvg:059b9-Kaisho-g3" kvg:element="木">
			<path style="stroke: #09bfbf;" id="kvg:059b9-Kaisho-s5" kvg:type="㇐" d="M44.75,51.5c1.75,0.5,2.22,0.44,4.5,0.5c5.78,0.15,23.39-3,37.83-4.14c2.09-0.17,2.63-0.23,3.94,0"/>
			<path style="stroke: #0936bf;" id="kvg:059b9-Kaisho-s6" kvg:type="㇑" d="M64.64,13.25c1.31,0.46,2.1,2.06,2.36,2.97S66.74,91.24,66.74,92c0,10-4.11,2.88-6.24,0.75"/>
			<path style="stroke: #6409bf;" id="kvg:059b9-Kaisho-s7" kvg:type="㇒" d="M65,51.5c-5.23,12.08-16.5,29.5-29,36"/>
			<path style="stroke: #bf0991;" id="kvg:059b9-Kaisho-s8" kvg:type="㇏" d="M69.5,52.5c4.5,10.25,16,23,23.34,29.95c1.45,1.37,2.54,2.12,3.91,2.55"/>
		</g>
	</g>
</g>
</g>
<g id="kvg:StrokeNumbers_059b9-Kaisho" style="font-size:8;fill:#808080" transform="scale(3.0,3.0)">
	<text style="fill: #bf0909;" transform="matrix(1 0 0 1 18.50 19.50)">1</text>
	<text style="fill: #bf9109;" transform="matrix(1 0 0 1 37.50 31.50)">2</text>
	<text style="fill: #64bf09;" transform="matrix(1 0 0 1 2.50 49.63)">3</text>
	<text style="fill: #09bf36;" transform="matrix(1 0 0 1 50.50 32.50)">4</text>
	<text style="fill: #09bfbf;" transform="matrix(1 0 0 1 48.50 48.50)">5</text>
	<text style="fill: #0936bf;" transform="matrix(1 0 0 1 56.50 14.50)">6</text>
	<text style="fill: #6409bf;" transform="matrix(1 0 0 1 54.50 61.50)">7</text>
	<text style="fill: #bf0991;" transform="matrix(1 0 0 1 76.50 60.13)">8</text>
</g>
</svg>
