<?xml version="1.0" encoding="UTF-8"?>
<!--
This file has been modified from the original version by the kanji_colorize.py
script (available at http://github.com/cayennes/kanji-colorize) with these
settings:
    mode: spectrum
    saturation: 0.95
    value: 0.75
    image_size: 327
It remains under a Creative Commons-Attribution-Share Alike 3.0 License.

The original SVG has the following copyright:

Copyright (C) 2009/2010/2011 Ulrich Apel.
This work is distributed under the conditions of the Creative Commons
Attribution-Share Alike 3.0 Licence. This means you are free:
* to Share - to copy, distribute and transmit the work
* to Remix - to adapt the work

Under the following conditions:
* Attribution. You must attribute the work by stating your use of KanjiVG in
  your own copyright header and linking to KanjiVG's website
  (http://kanjivg.tagaini.net)
* Share Alike. If you alter, transform, or build upon this work, you may
  distribute the resulting work only under the same or similar license to this
  one.

See http://creativecommons.org/licenses/by-sa/3.0/ for more details.
-->
<!DOCTYPE svg PUBLIC "-//W3C//DTD SVG 1.0//EN" "http://www.w3.org/TR/2001/REC-SVG-20010904/DTD/svg10.dtd" [
<!ATTLIST g
xmlns:kvg CDATA #FIXED "http://kanjivg.tagaini.net"
kvg:element CDATA #IMPLIED
kvg:variant CDATA #IMPLIED
kvg:partial CDATA #IMPLIED
kvg:original CDATA #IMPLIED
kvg:part CDATA #IMPLIED
kvg:number CDATA #IMPLIED
kvg:tradForm CDATA #IMPLIED
kvg:radicalForm CDATA #IMPLIED
kvg:position CDATA #IMPLIED
kvg:radical CDATA #IMPLIED
kvg:phon CDATA #IMPLIED >
<!ATTLIST path
xmlns:kvg CDATA #FIXED "http://kanjivg.tagaini.net"
kvg:type CDATA #IMPLIED >
]>
<svg xmlns="http://www.w3.org/2000/svg" width="327" height = "327" viewBox="0 0 327 327">
<g id="kvg:StrokePaths_059d4-Kaisho" style="fill:none;stroke:#000000;stroke-width:3;stroke-linecap:round;stroke-linejoin:round;" transform="scale(3.0,3.0)">
<g id="kvg:059d4-Kaisho" kvg:element="委">
	<g id="kvg:059d4-Kaisho-g1" kvg:element="禾" kvg:position="top" kvg:radical="nelson">
		<g id="kvg:059d4-Kaisho-g2" kvg:element="丿" kvg:position="top">
			<path style="stroke: #bf0909;" id="kvg:059d4-Kaisho-s1" kvg:type="㇒" d="M68.25,12c0.1,0.24,0.21,0.61-0.2,0.95c-2.45,2-16.53,6.37-35.8,9.05"/>
		</g>
		<g id="kvg:059d4-Kaisho-g3" kvg:element="木" kvg:position="bottom">
			<path style="stroke: #bf9109;" id="kvg:059d4-Kaisho-s2" kvg:type="㇐" d="M22.75,33.77c0.75,0.15,2.75,0.51,4.75,0.46c8-0.22,40-4.72,55.5-5.06c2-0.04,2.5-0.15,3.75,0"/>
			<path style="stroke: #64bf09;" id="kvg:059d4-Kaisho-s3" kvg:type="㇑" d="M53.22,19.71c0.89,0.31,1.42,1.38,1.6,1.99c0.18,0.61,0,26.23-0.18,30.05"/>
			<path style="stroke: #09bf36;" id="kvg:059d4-Kaisho-s4" kvg:type="㇒" d="M52.25,33.22c-7.44,9.04-21.11,19.52-35.5,24.03"/>
			<path style="stroke: #09bfbf;" id="kvg:059d4-Kaisho-s5" kvg:type="㇔/㇏" d="M61.75,36.5c5.59,2.56,16.17,9.74,20.84,14.8"/>
		</g>
	</g>
	<g id="kvg:059d4-Kaisho-g4" kvg:element="女" kvg:position="bottom" kvg:radical="tradit">
		<path style="stroke: #0936bf;" id="kvg:059d4-Kaisho-s6" kvg:type="㇛" d="M49.21,54.87c0.5,1.14,0.28,2.62-0.25,3.99C46,66.5,43,70.87,36.75,78.85c-1.36,1.74-1.26,3.02,1.25,2.9C53,81,71.75,90.5,81.75,98.85"/>
		<path style="stroke: #6409bf;" id="kvg:059d4-Kaisho-s7" kvg:type="㇒" d="M70.75,60.75c0.13,0.93,0.25,3.2-0.27,4.54C66,76.75,53.75,93,25.25,99.75"/>
		<path style="stroke: #bf0991;" id="kvg:059d4-Kaisho-s8" kvg:type="㇐" d="M14.38,69.3c1.02,0.28,4.89,0.34,5.91,0.28C38.5,68.5,72.5,65.25,92,65.17c1.7-0.01,4.62,0.27,6,0.76"/>
	</g>
</g>
</g>
<g id="kvg:StrokeNumbers_059d4-Kaisho" style="font-size:8;fill:#808080" transform="scale(3.0,3.0)">
	<text style="fill: #bf0909;" transform="matrix(1 0 0 1 59.50 10.50)">1</text>
	<text style="fill: #bf9109;" transform="matrix(1 0 0 1 15.50 34.50)">2</text>
	<text style="fill: #64bf09;" transform="matrix(1 0 0 1 47.25 28.50)">3</text>
	<text style="fill: #09bf36;" transform="matrix(1 0 0 1 35.50 42.50)">4</text>
	<text style="fill: #09bfbf;" transform="matrix(1 0 0 1 71.50 39.50)">5</text>
	<text style="fill: #0936bf;" transform="matrix(1 0 0 1 42.50 56.50)">6</text>
	<text style="fill: #6409bf;" transform="matrix(1 0 0 1 63.50 58.13)">7</text>
	<text style="fill: #bf0991;" transform="matrix(1 0 0 1 6.75 70.63)">8</text>
</g>
</svg>
