<?xml version="1.0" encoding="UTF-8"?>
<!--
This file has been modified from the original version by the kanji_colorize.py
script (available at http://github.com/cayennes/kanji-colorize) with these
settings:
    mode: spectrum
    saturation: 0.95
    value: 0.75
    image_size: 327
It remains under a Creative Commons-Attribution-Share Alike 3.0 License.

The original SVG has the following copyright:

Copyright (C) 2009/2010/2011 Ulrich Apel.
This work is distributed under the conditions of the Creative Commons
Attribution-Share Alike 3.0 Licence. This means you are free:
* to Share - to copy, distribute and transmit the work
* to Remix - to adapt the work

Under the following conditions:
* Attribution. You must attribute the work by stating your use of KanjiVG in
  your own copyright header and linking to KanjiVG's website
  (http://kanjivg.tagaini.net)
* Share Alike. If you alter, transform, or build upon this work, you may
  distribute the resulting work only under the same or similar license to this
  one.

See http://creativecommons.org/licenses/by-sa/3.0/ for more details.
-->
<!DOCTYPE svg PUBLIC "-//W3C//DTD SVG 1.0//EN" "http://www.w3.org/TR/2001/REC-SVG-20010904/DTD/svg10.dtd" [
<!ATTLIST g
xmlns:kvg CDATA #FIXED "http://kanjivg.tagaini.net"
kvg:element CDATA #IMPLIED
kvg:variant CDATA #IMPLIED
kvg:partial CDATA #IMPLIED
kvg:original CDATA #IMPLIED
kvg:part CDATA #IMPLIED
kvg:number CDATA #IMPLIED
kvg:tradForm CDATA #IMPLIED
kvg:radicalForm CDATA #IMPLIED
kvg:position CDATA #IMPLIED
kvg:radical CDATA #IMPLIED
kvg:phon CDATA #IMPLIED >
<!ATTLIST path
xmlns:kvg CDATA #FIXED "http://kanjivg.tagaini.net"
kvg:type CDATA #IMPLIED >
]>
<svg xmlns="http://www.w3.org/2000/svg" width="327" height = "327" viewBox="0 0 327 327">
<g id="kvg:StrokePaths_05b8d-Kaisho" style="fill:none;stroke:#000000;stroke-width:3;stroke-linecap:round;stroke-linejoin:round;" transform="scale(3.0,3.0)">
<g id="kvg:05b8d-Kaisho" kvg:element="宍">
	<g id="kvg:05b8d-Kaisho-g1" kvg:element="宀" kvg:position="top" kvg:radical="general">
		<path style="stroke: #bf0909;" id="kvg:05b8d-Kaisho-s1" kvg:type="㇑a" d="M48.28,11.75c3.58,1.22,8.03,7.26,8.6,10.7"/>
		<g id="kvg:05b8d-Kaisho-g2" kvg:element="冖">
			<path style="stroke: #bfa509;" id="kvg:05b8d-Kaisho-s2" kvg:type="㇔" d="M21.83,27.38c0,3.76-3.15,14.11-4.58,16.62"/>
			<path style="stroke: #3dbf09;" id="kvg:05b8d-Kaisho-s3" kvg:type="㇖b" d="M22.03,31.5c9.16-0.78,56.55-5.07,63.98-5.37c11.62-0.46,0.74,8.65-2.16,10.32"/>
		</g>
	</g>
	<g id="kvg:05b8d-Kaisho-g3" kvg:element="六" kvg:position="bottom">
		<g id="kvg:05b8d-Kaisho-g4" kvg:element="亠" kvg:position="top">
			<path style="stroke: #09bf71;" id="kvg:05b8d-Kaisho-s4" kvg:type="㇑a" d="M48.73,39c3.29,1.86,8,9.05,8.67,12.69"/>
			<path style="stroke: #0971bf;" id="kvg:05b8d-Kaisho-s5" kvg:type="㇐" d="M15.25,60.13c1.35,0.12,4.44,0.76,5.76,0.64c14.23-1.27,50.73-5.02,67.35-4.22c2.24,0.11,3.38,0.06,5.04,0.82"/>
		</g>
		<g id="kvg:05b8d-Kaisho-g5" kvg:element="八" kvg:position="bottom">
			<path style="stroke: #3d09bf;" id="kvg:05b8d-Kaisho-s6" kvg:type="㇒" d="M41.51,71.35c0.59,1.15,0.31,3.5-0.7,4.88C35.29,83.72,26.83,90.49,15.41,97"/>
			<path style="stroke: #bf09a5;" id="kvg:05b8d-Kaisho-s7" kvg:type="㇏" d="M66.41,72.67c9.42,7.2,17.2,15.5,21.91,24.24"/>
		</g>
	</g>
</g>
</g>
<g id="kvg:StrokeNumbers_05b8d-Kaisho" style="font-size:8;fill:#808080" transform="scale(3.0,3.0)">
	<text style="fill: #bf0909;" transform="matrix(1 0 0 1 43.00 13.00)">1</text>
	<text style="fill: #bfa509;" transform="matrix(1 0 0 1 15.50 26.50)">2</text>
	<text style="fill: #3dbf09;" transform="matrix(1 0 0 1 25.50 27.50)">3</text>
	<text style="fill: #09bf71;" transform="matrix(1 0 0 1 42.50 39.40)">4</text>
	<text style="fill: #0971bf;" transform="matrix(1 0 0 1 8.50 60.33)">5</text>
	<text style="fill: #3d09bf;" transform="matrix(1 0 0 1 32.50 73.50)">6</text>
	<text style="fill: #bf09a5;" transform="matrix(1 0 0 1 57.50 73.50)">7</text>
</g>
</svg>
