<?xml version="1.0" encoding="UTF-8"?>
<!--
This file has been modified from the original version by the kanji_colorize.py
script (available at http://github.com/cayennes/kanji-colorize) with these
settings:
    mode: spectrum
    saturation: 0.95
    value: 0.75
    image_size: 327
It remains under a Creative Commons-Attribution-Share Alike 3.0 License.

The original SVG has the following copyright:

Copyright (C) 2009/2010/2011 Ulrich Apel.
This work is distributed under the conditions of the Creative Commons
Attribution-Share Alike 3.0 Licence. This means you are free:
* to Share - to copy, distribute and transmit the work
* to Remix - to adapt the work

Under the following conditions:
* Attribution. You must attribute the work by stating your use of KanjiVG in
  your own copyright header and linking to KanjiVG's website
  (http://kanjivg.tagaini.net)
* Share Alike. If you alter, transform, or build upon this work, you may
  distribute the resulting work only under the same or similar license to this
  one.

See http://creativecommons.org/licenses/by-sa/3.0/ for more details.
-->
<!DOCTYPE svg PUBLIC "-//W3C//DTD SVG 1.0//EN" "http://www.w3.org/TR/2001/REC-SVG-20010904/DTD/svg10.dtd" [
<!ATTLIST g
xmlns:kvg CDATA #FIXED "http://kanjivg.tagaini.net"
kvg:element CDATA #IMPLIED
kvg:variant CDATA #IMPLIED
kvg:partial CDATA #IMPLIED
kvg:original CDATA #IMPLIED
kvg:part CDATA #IMPLIED
kvg:number CDATA #IMPLIED
kvg:tradForm CDATA #IMPLIED
kvg:radicalForm CDATA #IMPLIED
kvg:position CDATA #IMPLIED
kvg:radical CDATA #IMPLIED
kvg:phon CDATA #IMPLIED >
<!ATTLIST path
xmlns:kvg CDATA #FIXED "http://kanjivg.tagaini.net"
kvg:type CDATA #IMPLIED >
]>
<svg xmlns="http://www.w3.org/2000/svg" width="327" height = "327" viewBox="0 0 327 327">
<g id="kvg:StrokePaths_05b85-Kaisho" style="fill:none;stroke:#000000;stroke-width:3;stroke-linecap:round;stroke-linejoin:round;" transform="scale(3.0,3.0)">
<g id="kvg:05b85-Kaisho" kvg:element="宅">
	<g id="kvg:05b85-Kaisho-g1" kvg:element="宀" kvg:position="top" kvg:radical="general">
		<path style="stroke: #bf0909;" id="kvg:05b85-Kaisho-s1" kvg:type="㇑a" d="M48.27,11.75c2.98,1.5,5.68,4.12,7.32,7.89"/>
		<g id="kvg:05b85-Kaisho-g2" kvg:element="冖">
			<path style="stroke: #bfbf09;" id="kvg:05b85-Kaisho-s2" kvg:type="㇔" d="M23.15,25.22c0,4.19-3.82,15.73-5.56,18.53"/>
			<path style="stroke: #09bf09;" id="kvg:05b85-Kaisho-s3" kvg:type="㇖b" d="M24.29,28.45c8.46-0.2,52.52-5.82,59.32-5.82c12.39,0,2.75,7.31,0.1,9.17"/>
		</g>
	</g>
	<g id="kvg:05b85-Kaisho-g3" kvg:position="bottom">
		<g id="kvg:05b85-Kaisho-g4" kvg:element="丿">
			<path style="stroke: #09bfbf;" id="kvg:05b85-Kaisho-s4" kvg:type="㇒" d="M66.77,33.5c0.08,0.39-0.17,2.12-0.67,2.57c-6.17,5.5-14.78,9.54-30.85,13.98"/>
		</g>
		<g id="kvg:05b85-Kaisho-g5" kvg:element="七">
			<g id="kvg:05b85-Kaisho-g6" kvg:element="一">
				<path style="stroke: #0909bf;" id="kvg:05b85-Kaisho-s5" kvg:type="㇐" d="M18,68.75c1.37,0.5,3.89,0.73,5.25,0.5C36.71,67,67.5,61,80.46,59.51c2.27-0.26,3.65-0.26,4.79-0.01"/>
			</g>
			<path style="stroke: #bf09bf;" id="kvg:05b85-Kaisho-s6" kvg:type="㇟" d="M48.75,47.95c0.81,1,1.9,3.15,1.9,4.51c0,4.24-0.4,26.57-0.4,30.74c0,11.05,3,12.55,23.25,12.55c22.25,0,18.75-4.75,18.75-11.86"/>
		</g>
	</g>
</g>
</g>
<g id="kvg:StrokeNumbers_05b85-Kaisho" style="font-size:8;fill:#808080" transform="scale(3.0,3.0)">
	<text style="fill: #bf0909;" transform="matrix(1 0 0 1 42.50 13.50)">1</text>
	<text style="fill: #bfbf09;" transform="matrix(1 0 0 1 15.50 28.50)">2</text>
	<text style="fill: #09bf09;" transform="matrix(1 0 0 1 27.75 25.50)">3</text>
	<text style="fill: #09bfbf;" transform="matrix(1 0 0 1 57.50 34.63)">4</text>
	<text style="fill: #0909bf;" transform="matrix(1 0 0 1 11.50 70.50)">5</text>
	<text style="fill: #bf09bf;" transform="matrix(1 0 0 1 43.00 56.50)">6</text>
</g>
</svg>
