<?xml version="1.0" encoding="UTF-8"?>
<!--
This file has been modified from the original version by the kanji_colorize.py
script (available at http://github.com/cayennes/kanji-colorize) with these
settings:
    mode: spectrum
    saturation: 0.95
    value: 0.75
    image_size: 327
It remains under a Creative Commons-Attribution-Share Alike 3.0 License.

The original SVG has the following copyright:

Copyright (C) 2009/2010/2011 Ulrich Apel.
This work is distributed under the conditions of the Creative Commons
Attribution-Share Alike 3.0 Licence. This means you are free:
* to Share - to copy, distribute and transmit the work
* to Remix - to adapt the work

Under the following conditions:
* Attribution. You must attribute the work by stating your use of KanjiVG in
  your own copyright header and linking to KanjiVG's website
  (http://kanjivg.tagaini.net)
* Share Alike. If you alter, transform, or build upon this work, you may
  distribute the resulting work only under the same or similar license to this
  one.

See http://creativecommons.org/licenses/by-sa/3.0/ for more details.
-->
<!DOCTYPE svg PUBLIC "-//W3C//DTD SVG 1.0//EN" "http://www.w3.org/TR/2001/REC-SVG-20010904/DTD/svg10.dtd" [
<!ATTLIST g
xmlns:kvg CDATA #FIXED "http://kanjivg.tagaini.net"
kvg:element CDATA #IMPLIED
kvg:variant CDATA #IMPLIED
kvg:partial CDATA #IMPLIED
kvg:original CDATA #IMPLIED
kvg:part CDATA #IMPLIED
kvg:number CDATA #IMPLIED
kvg:tradForm CDATA #IMPLIED
kvg:radicalForm CDATA #IMPLIED
kvg:position CDATA #IMPLIED
kvg:radical CDATA #IMPLIED
kvg:phon CDATA #IMPLIED >
<!ATTLIST path
xmlns:kvg CDATA #FIXED "http://kanjivg.tagaini.net"
kvg:type CDATA #IMPLIED >
]>
<svg xmlns="http://www.w3.org/2000/svg" width="327" height = "327" viewBox="0 0 327 327">
<g id="kvg:StrokePaths_05b97-Kaisho" style="fill:none;stroke:#000000;stroke-width:3;stroke-linecap:round;stroke-linejoin:round;" transform="scale(3.0,3.0)">
<g id="kvg:05b97-Kaisho" kvg:element="宗">
	<g id="kvg:05b97-Kaisho-g1" kvg:element="宀" kvg:position="top" kvg:radical="general">
		<path style="stroke: #bf0909;" id="kvg:05b97-Kaisho-s1" kvg:type="㇑a" d="M49.45,9c3,1.5,8.57,6.15,9.42,9.04"/>
		<g id="kvg:05b97-Kaisho-g2" kvg:element="冖">
			<path style="stroke: #bf9109;" id="kvg:05b97-Kaisho-s2" kvg:type="㇔" d="M21.58,23.13c0,3.48-2.81,14.05-4.08,16.37"/>
			<path style="stroke: #64bf09;" id="kvg:05b97-Kaisho-s3" kvg:type="㇖b" d="M23.27,25.24c8.8-0.99,55.73-4.53,62.87-4.9c11.15-0.59,2.36,7.16-0.42,9.28"/>
		</g>
	</g>
	<g id="kvg:05b97-Kaisho-g3" kvg:element="示" kvg:position="bottom">
		<g id="kvg:05b97-Kaisho-g4" kvg:position="top">
			<path style="stroke: #09bf36;" id="kvg:05b97-Kaisho-s4" kvg:type="㇐" d="M34.37,40.69c0.74,0.3,2.11,0.38,2.85,0.3c4.74-0.52,28.28-2.99,33.3-3.08c1.24-0.02,1.98,0.14,2.6,0.3"/>
			<path style="stroke: #09bfbf;" id="kvg:05b97-Kaisho-s5" kvg:type="㇐" d="M21.81,58.45c1.2,0.43,3.41,0.51,4.61,0.43c9.08-0.63,42.33-4.63,56.98-4.64c2,0,3.21,0.21,4.21,0.42"/>
		</g>
		<g id="kvg:05b97-Kaisho-g5" kvg:position="bottom">
			<path style="stroke: #0936bf;" id="kvg:05b97-Kaisho-s6" kvg:type="㇑" d="M53.33,59.2c0.07,0.41,1.51,2.14,1.58,4.76c0.35,12.55,0.28,24.02,0.28,28.29c0,9.08-3.89,3.26-7.51,0.22"/>
			<path style="stroke: #6409bf;" id="kvg:05b97-Kaisho-s7" kvg:type="㇒" d="M32.86,71.54c0.04,0.55,0.08,1.41-0.08,2.19c-0.98,4.62-8.12,13.64-15.87,19.84"/>
			<path style="stroke: #bf0991;" id="kvg:05b97-Kaisho-s8" kvg:type="㇔" d="M73.99,71c6.28,3.63,16.53,14.52,18.09,20.17"/>
		</g>
	</g>
</g>
</g>
<g id="kvg:StrokeNumbers_05b97-Kaisho" style="font-size:8;fill:#808080" transform="scale(3.0,3.0)">
	<text style="fill: #bf0909;" transform="matrix(1 0 0 1 44.50 10.50)">1</text>
	<text style="fill: #bf9109;" transform="matrix(1 0 0 1 14.50 25.50)">2</text>
	<text style="fill: #64bf09;" transform="matrix(1 0 0 1 25.50 22.50)">3</text>
	<text style="fill: #09bf36;" transform="matrix(1 0 0 1 27.50 40.50)">4</text>
	<text style="fill: #09bfbf;" transform="matrix(1 0 0 1 13.50 59.50)">5</text>
	<text style="fill: #0936bf;" transform="matrix(1 0 0 1 47.25 67.50)">6</text>
	<text style="fill: #6409bf;" transform="matrix(1 0 0 1 24.75 73.63)">7</text>
	<text style="fill: #bf0991;" transform="matrix(1 0 0 1 65.25 72.13)">8</text>
</g>
</svg>
