<?xml version="1.0" encoding="UTF-8"?>
<!--
This file has been modified from the original version by the kanji_colorize.py
script (available at http://github.com/cayennes/kanji-colorize) with these
settings:
    mode: spectrum
    saturation: 0.95
    value: 0.75
    image_size: 327
It remains under a Creative Commons-Attribution-Share Alike 3.0 License.

The original SVG has the following copyright:

Copyright (C) 2009/2010/2011 Ulrich Apel.
This work is distributed under the conditions of the Creative Commons
Attribution-Share Alike 3.0 Licence. This means you are free:
* to Share - to copy, distribute and transmit the work
* to Remix - to adapt the work

Under the following conditions:
* Attribution. You must attribute the work by stating your use of KanjiVG in
  your own copyright header and linking to KanjiVG's website
  (http://kanjivg.tagaini.net)
* Share Alike. If you alter, transform, or build upon this work, you may
  distribute the resulting work only under the same or similar license to this
  one.

See http://creativecommons.org/licenses/by-sa/3.0/ for more details.
-->
<!DOCTYPE svg PUBLIC "-//W3C//DTD SVG 1.0//EN" "http://www.w3.org/TR/2001/REC-SVG-20010904/DTD/svg10.dtd" [
<!ATTLIST g
xmlns:kvg CDATA #FIXED "http://kanjivg.tagaini.net"
kvg:element CDATA #IMPLIED
kvg:variant CDATA #IMPLIED
kvg:partial CDATA #IMPLIED
kvg:original CDATA #IMPLIED
kvg:part CDATA #IMPLIED
kvg:number CDATA #IMPLIED
kvg:tradForm CDATA #IMPLIED
kvg:radicalForm CDATA #IMPLIED
kvg:position CDATA #IMPLIED
kvg:radical CDATA #IMPLIED
kvg:phon CDATA #IMPLIED >
<!ATTLIST path
xmlns:kvg CDATA #FIXED "http://kanjivg.tagaini.net"
kvg:type CDATA #IMPLIED >
]>
<svg xmlns="http://www.w3.org/2000/svg" width="327" height = "327" viewBox="0 0 327 327">
<g id="kvg:StrokePaths_05b9b-Kaisho" style="fill:none;stroke:#000000;stroke-width:3;stroke-linecap:round;stroke-linejoin:round;" transform="scale(3.0,3.0)">
<g id="kvg:05b9b-Kaisho" kvg:element="宛">
	<g id="kvg:05b9b-Kaisho-g1" kvg:element="宀" kvg:position="top" kvg:radical="general">
		<path style="stroke: #bf0909;" id="kvg:05b9b-Kaisho-s1" kvg:type="㇑a" d="M49.41,13.77c3.4,0.9,8.26,5.33,8.18,7.94"/>
		<g id="kvg:05b9b-Kaisho-g2" kvg:element="冖">
			<path style="stroke: #bf9109;" id="kvg:05b9b-Kaisho-s2" kvg:type="㇔" d="M26.91,28.38c0,3.2-2.86,11.99-4.16,14.12"/>
			<path style="stroke: #64bf09;" id="kvg:05b9b-Kaisho-s3" kvg:type="㇖b" d="M27.89,29.5c7.5-0.78,47.51-5.57,53.6-5.87c9.51-0.46,1.01,7.15-1.35,8.82"/>
		</g>
	</g>
	<g id="kvg:05b9b-Kaisho-g3" kvg:position="bottom">
		<g id="kvg:05b9b-Kaisho-g4" kvg:element="夕" kvg:position="left">
			<path style="stroke: #09bf36;" id="kvg:05b9b-Kaisho-s4" kvg:type="㇒" d="M36.5,37.89c0.17,0.55,0.64,2.23,0.34,3.3c-2.08,7.31-8.33,19.06-16.74,29.25"/>
			<path style="stroke: #09bfbf;" id="kvg:05b9b-Kaisho-s5" kvg:type="㇇" d="M37.55,47.76c0.27,0.04,1.4,0,2.16-0.12c2.49-0.39,6.29-1.38,9.44-1.58c2.61-0.16,3.14,0.95,2.51,3.22C48.24,61.7,31,92.1,15.75,98.5"/>
			<path style="stroke: #0936bf;" id="kvg:05b9b-Kaisho-s6" kvg:type="㇔" d="M28.36,62.79c2.98,1.68,7.69,6.91,8.43,9.52"/>
		</g>
		<g id="kvg:05b9b-Kaisho-g5" kvg:element="卩" kvg:position="right">
			<path style="stroke: #6409bf;" id="kvg:05b9b-Kaisho-s7" kvg:type="㇆" d="M61,46.26c0.62,0.12,1.89,0.21,3.1-0.18c3.4-1.09,13.57-2.22,15.23-2.65c2.51-0.64,4.13,1.13,4.03,3.72c-0.17,4.39-3.61,15.61-6.9,22.59c-2.4,5.09-4.54,0.62-5,0.37"/>
			<path style="stroke: #bf0991;" id="kvg:05b9b-Kaisho-s8" kvg:type="㇟/㇑" d="M59.99,44.2c0.66,1.53,1.23,3.34,1.23,5.7c0,14.09-0.3,22.29-0.3,29.46c0,14.41,1.84,14.85,15.82,14.85c18.52,0,16.91-1.21,16.91-11.75"/>
		</g>
	</g>
</g>
</g>
<g id="kvg:StrokeNumbers_05b9b-Kaisho" style="font-size:8;fill:#808080" transform="scale(3.0,3.0)">
	<text style="fill: #bf0909;" transform="matrix(1 0 0 1 43.00 13.50)">1</text>
	<text style="fill: #bf9109;" transform="matrix(1 0 0 1 20.50 27.50)">2</text>
	<text style="fill: #64bf09;" transform="matrix(1 0 0 1 30.50 25.50)">3</text>
	<text style="fill: #09bf36;" transform="matrix(1 0 0 1 29.50 39.50)">4</text>
	<text style="fill: #09bfbf;" transform="matrix(1 0 0 1 41.50 43.50)">5</text>
	<text style="fill: #0936bf;" transform="matrix(1 0 0 1 32.50 64.50)">6</text>
	<text style="fill: #6409bf;" transform="matrix(1 0 0 1 63.25 42.50)">7</text>
	<text style="fill: #bf0991;" transform="matrix(1 0 0 1 53.25 58.50)">8</text>
</g>
</svg>
