<?xml version="1.0" encoding="UTF-8"?>
<!--
This file has been modified from the original version by the kanji_colorize.py
script (available at http://github.com/cayennes/kanji-colorize) with these
settings:
    mode: spectrum
    saturation: 0.95
    value: 0.75
    image_size: 327
It remains under a Creative Commons-Attribution-Share Alike 3.0 License.

The original SVG has the following copyright:

Copyright (C) 2009/2010/2011 Ulrich Apel.
This work is distributed under the conditions of the Creative Commons
Attribution-Share Alike 3.0 Licence. This means you are free:
* to Share - to copy, distribute and transmit the work
* to Remix - to adapt the work

Under the following conditions:
* Attribution. You must attribute the work by stating your use of KanjiVG in
  your own copyright header and linking to KanjiVG's website
  (http://kanjivg.tagaini.net)
* Share Alike. If you alter, transform, or build upon this work, you may
  distribute the resulting work only under the same or similar license to this
  one.

See http://creativecommons.org/licenses/by-sa/3.0/ for more details.
-->
<!DOCTYPE svg PUBLIC "-//W3C//DTD SVG 1.0//EN" "http://www.w3.org/TR/2001/REC-SVG-20010904/DTD/svg10.dtd" [
<!ATTLIST g
xmlns:kvg CDATA #FIXED "http://kanjivg.tagaini.net"
kvg:element CDATA #IMPLIED
kvg:variant CDATA #IMPLIED
kvg:partial CDATA #IMPLIED
kvg:original CDATA #IMPLIED
kvg:part CDATA #IMPLIED
kvg:number CDATA #IMPLIED
kvg:tradForm CDATA #IMPLIED
kvg:radicalForm CDATA #IMPLIED
kvg:position CDATA #IMPLIED
kvg:radical CDATA #IMPLIED
kvg:phon CDATA #IMPLIED >
<!ATTLIST path
xmlns:kvg CDATA #FIXED "http://kanjivg.tagaini.net"
kvg:type CDATA #IMPLIED >
]>
<svg xmlns="http://www.w3.org/2000/svg" width="327" height = "327" viewBox="0 0 327 327">
<g id="kvg:StrokePaths_05bae-Kaisho" style="fill:none;stroke:#000000;stroke-width:3;stroke-linecap:round;stroke-linejoin:round;" transform="scale(3.0,3.0)">
<g id="kvg:05bae-Kaisho" kvg:element="宮">
	<g id="kvg:05bae-Kaisho-g1" kvg:element="宀" kvg:position="top" kvg:radical="general">
		<path style="stroke: #bf0909;" id="kvg:05bae-Kaisho-s1" kvg:type="㇑a" d="M48.97,10.75c3.18,1.24,7.01,4.46,7.64,8"/>
		<g id="kvg:05bae-Kaisho-g2" kvg:element="冖">
			<path style="stroke: #bf7609;" id="kvg:05bae-Kaisho-s2" kvg:type="㇔" d="M26.48,24.78c0,2.82-2.36,10.59-3.43,12.47"/>
			<path style="stroke: #9abf09;" id="kvg:05bae-Kaisho-s3" kvg:type="㇖b" d="M28.68,25.68c1.18,0.07,3.83,0,5.36-0.18c13.15-1.56,40.67-3.8,46.68-3.8s4.5,2.35,4.29,3.76c-0.21,1.41-3.14,3.06-4.64,3.76"/>
		</g>
	</g>
	<g id="kvg:05bae-Kaisho-g3" kvg:element="呂" kvg:position="bottom">
		<g id="kvg:05bae-Kaisho-g4" kvg:element="口" kvg:position="top">
			<path style="stroke: #2dbf09;" id="kvg:05bae-Kaisho-s4" kvg:type="㇑" d="M33.89,40.14c0.38,0.35,0.77,0.63,0.94,1.06c1.33,3.42,2.91,12.86,3.82,19"/>
			<path style="stroke: #09bf52;" id="kvg:05bae-Kaisho-s5" kvg:type="㇕b" d="M36.27,41.32c9.36-1.44,28.03-3.32,32.86-3.8c1.77-0.18,2.83,1.78,2.58,2.82c-1.05,4.31-2.24,8.02-4.48,14.23"/>
			<path style="stroke: #09bfbf;" id="kvg:05bae-Kaisho-s6" kvg:type="㇐b" d="M39.03,57.95c5.67-0.55,22.76-2.3,29.96-2.85"/>
		</g>
		<g id="kvg:05bae-Kaisho-g5" kvg:position="bottom">
			<g id="kvg:05bae-Kaisho-g6" kvg:element="丿">
				<path style="stroke: #0952bf;" id="kvg:05bae-Kaisho-s7" kvg:type="㇒" d="M51.5,58.5c1.25,1.25,1.25,3,0.5,4.5c-0.56,1.12-4.25,6.5-5.25,8"/>
			</g>
			<g id="kvg:05bae-Kaisho-g7" kvg:element="口">
				<path style="stroke: #2d09bf;" id="kvg:05bae-Kaisho-s8" kvg:type="㇑" d="M32.05,73.23c0.46,0.42,0.94,0.77,1.14,1.3c1.61,4.17,3.54,14.69,4.64,22.19"/>
				<path style="stroke: #9a09bf;" id="kvg:05bae-Kaisho-s9" kvg:type="㇕b" d="M34.95,74.66c11.38-1.75,32.85-4.05,38.71-4.64c2.15-0.22,3.44,2.17,3.13,3.45c-1.27,5.26-2.72,9.79-5.45,17.36"/>
				<path style="stroke: #bf0976;" id="kvg:05bae-Kaisho-s10" kvg:type="㇐b" d="M38.3,94.95c6.89-0.67,26.44-2.8,35.18-3.47"/>
			</g>
		</g>
	</g>
</g>
</g>
<g id="kvg:StrokeNumbers_05bae-Kaisho" style="font-size:8;fill:#808080" transform="scale(3.0,3.0)">
	<text style="fill: #bf0909;" transform="matrix(1 0 0 1 43.50 11.50)">1</text>
	<text style="fill: #bf7609;" transform="matrix(1 0 0 1 20.50 24.44)">2</text>
	<text style="fill: #9abf09;" transform="matrix(1 0 0 1 30.50 22.50)">3</text>
	<text style="fill: #2dbf09;" transform="matrix(1 0 0 1 29.50 48.50)">4</text>
	<text style="fill: #09bf52;" transform="matrix(1 0 0 1 37.50 38.50)">5</text>
	<text style="fill: #09bfbf;" transform="matrix(1 0 0 1 43.50 54.13)">6</text>
	<text style="fill: #0952bf;" transform="matrix(1 0 0 1 44.50 65.50)">7</text>
	<text style="fill: #2d09bf;" transform="matrix(1 0 0 1 26.50 81.50)">8</text>
	<text style="fill: #9a09bf;" transform="matrix(1 0 0 1 35.50 71.50)">9</text>
	<text style="fill: #bf0976;" transform="matrix(1 0 0 1 39.50 91.50)">10</text>
</g>
</svg>
