<?xml version="1.0" encoding="UTF-8"?>
<!--
This file has been modified from the original version by the kanji_colorize.py
script (available at http://github.com/cayennes/kanji-colorize) with these
settings:
    mode: spectrum
    saturation: 0.95
    value: 0.75
    image_size: 327
It remains under a Creative Commons-Attribution-Share Alike 3.0 License.

The original SVG has the following copyright:

Copyright (C) 2009/2010/2011 Ulrich Apel.
This work is distributed under the conditions of the Creative Commons
Attribution-Share Alike 3.0 Licence. This means you are free:
* to Share - to copy, distribute and transmit the work
* to Remix - to adapt the work

Under the following conditions:
* Attribution. You must attribute the work by stating your use of KanjiVG in
  your own copyright header and linking to KanjiVG's website
  (http://kanjivg.tagaini.net)
* Share Alike. If you alter, transform, or build upon this work, you may
  distribute the resulting work only under the same or similar license to this
  one.

See http://creativecommons.org/licenses/by-sa/3.0/ for more details.
-->
<!DOCTYPE svg PUBLIC "-//W3C//DTD SVG 1.0//EN" "http://www.w3.org/TR/2001/REC-SVG-20010904/DTD/svg10.dtd" [
<!ATTLIST g
xmlns:kvg CDATA #FIXED "http://kanjivg.tagaini.net"
kvg:element CDATA #IMPLIED
kvg:variant CDATA #IMPLIED
kvg:partial CDATA #IMPLIED
kvg:original CDATA #IMPLIED
kvg:part CDATA #IMPLIED
kvg:number CDATA #IMPLIED
kvg:tradForm CDATA #IMPLIED
kvg:radicalForm CDATA #IMPLIED
kvg:position CDATA #IMPLIED
kvg:radical CDATA #IMPLIED
kvg:phon CDATA #IMPLIED >
<!ATTLIST path
xmlns:kvg CDATA #FIXED "http://kanjivg.tagaini.net"
kvg:type CDATA #IMPLIED >
]>
<svg xmlns="http://www.w3.org/2000/svg" width="327" height = "327" viewBox="0 0 327 327">
<g id="kvg:StrokePaths_05ba2-Kaisho" style="fill:none;stroke:#000000;stroke-width:3;stroke-linecap:round;stroke-linejoin:round;" transform="scale(3.0,3.0)">
<g id="kvg:05ba2-Kaisho" kvg:element="客">
	<g id="kvg:05ba2-Kaisho-g1" kvg:element="宀" kvg:position="top" kvg:radical="general">
		<path style="stroke: #bf0909;" id="kvg:05ba2-Kaisho-s1" kvg:type="㇑a" d="M48.83,10.2c3.25,1.19,7.45,4.27,7.8,7.69"/>
		<g id="kvg:05ba2-Kaisho-g2" kvg:element="冖">
			<path style="stroke: #bf8209;" id="kvg:05ba2-Kaisho-s2" kvg:type="㇔" d="M27.27,22.18c0,3.2-3.07,11.99-4.46,14.13"/>
			<path style="stroke: #82bf09;" id="kvg:05ba2-Kaisho-s3" kvg:type="㇖b" d="M28.73,25.01C43.5,23.25,68.25,20,80.39,19.8c10.89-0.18,1.12,6.36-0.34,7.02"/>
		</g>
	</g>
	<g id="kvg:05ba2-Kaisho-g3" kvg:element="各" kvg:position="bottom">
		<g id="kvg:05ba2-Kaisho-g4" kvg:element="夂">
			<path style="stroke: #09bf09;" id="kvg:05ba2-Kaisho-s4" kvg:type="㇒" d="M45.43,29.73c0.05,0.63,0.11,1.63-0.11,2.53c-1.28,5.34-8.6,17.05-18.62,24.22"/>
			<path style="stroke: #09bf82;" id="kvg:05ba2-Kaisho-s5" kvg:type="㇇" d="M42.39,39.65c0.39,0.03,2.04,0,3.15-0.1c3.65-0.31,10.32-2.3,15.52-3.26c3.57-0.66,4.59,0.76,3.68,2.56c-5,9.88-23.34,32.45-45.8,38.97"/>
			<path style="stroke: #0982bf;" id="kvg:05ba2-Kaisho-s6" kvg:type="㇏" d="M39.06,44.14C47,51,74.5,67.75,86.44,72.58c2.93,1.18,5.11,2.09,7.87,2.51"/>
		</g>
		<g id="kvg:05ba2-Kaisho-g5" kvg:element="口">
			<path style="stroke: #0909bf;" id="kvg:05ba2-Kaisho-s7" kvg:type="㇑" d="M34.32,76.77c0.41,0.37,0.83,0.68,1,1.15c1.41,3.7,3.11,13.9,4.07,20.55"/>
			<path style="stroke: #8209bf;" id="kvg:05ba2-Kaisho-s8" kvg:type="㇕b" d="M36.86,78.44c9.25-1.66,26.04-3.23,30.82-3.71c1.75-0.18,2.8,1.05,2.54,2.1c-1.03,4.32-2.24,10.38-3.78,16.36"/>
			<path style="stroke: #bf0982;" id="kvg:05ba2-Kaisho-s9" kvg:type="㇐b" d="M39.6,96.06c5.61-0.55,20.9-1.5,28.6-2.34"/>
		</g>
	</g>
</g>
</g>
<g id="kvg:StrokeNumbers_05ba2-Kaisho" style="font-size:8;fill:#808080" transform="scale(3.0,3.0)">
	<text style="fill: #bf0909;" transform="matrix(1 0 0 1 43.50 11.50)">1</text>
	<text style="fill: #bf8209;" transform="matrix(1 0 0 1 20.50 24.50)">2</text>
	<text style="fill: #82bf09;" transform="matrix(1 0 0 1 30.50 21.50)">3</text>
	<text style="fill: #09bf09;" transform="matrix(1 0 0 1 37.50 33.50)">4</text>
	<text style="fill: #09bf82;" transform="matrix(1 0 0 1 50.50 34.50)">5</text>
	<text style="fill: #0982bf;" transform="matrix(1 0 0 1 46.75 47.75)">6</text>
	<text style="fill: #0909bf;" transform="matrix(1 0 0 1 28.50 84.50)">7</text>
	<text style="fill: #8209bf;" transform="matrix(1 0 0 1 41.50 74.50)">8</text>
	<text style="fill: #bf0982;" transform="matrix(1 0 0 1 43.50 92.50)">9</text>
</g>
</svg>
