<?xml version="1.0" encoding="UTF-8"?>
<!--
This file has been modified from the original version by the kanji_colorize.py
script (available at http://github.com/cayennes/kanji-colorize) with these
settings:
    mode: spectrum
    saturation: 0.95
    value: 0.75
    image_size: 327
It remains under a Creative Commons-Attribution-Share Alike 3.0 License.

The original SVG has the following copyright:

Copyright (C) 2009/2010/2011 Ulrich Apel.
This work is distributed under the conditions of the Creative Commons
Attribution-Share Alike 3.0 Licence. This means you are free:
* to Share - to copy, distribute and transmit the work
* to Remix - to adapt the work

Under the following conditions:
* Attribution. You must attribute the work by stating your use of KanjiVG in
  your own copyright header and linking to KanjiVG's website
  (http://kanjivg.tagaini.net)
* Share Alike. If you alter, transform, or build upon this work, you may
  distribute the resulting work only under the same or similar license to this
  one.

See http://creativecommons.org/licenses/by-sa/3.0/ for more details.
-->
<!DOCTYPE svg PUBLIC "-//W3C//DTD SVG 1.0//EN" "http://www.w3.org/TR/2001/REC-SVG-20010904/DTD/svg10.dtd" [
<!ATTLIST g
xmlns:kvg CDATA #FIXED "http://kanjivg.tagaini.net"
kvg:element CDATA #IMPLIED
kvg:variant CDATA #IMPLIED
kvg:partial CDATA #IMPLIED
kvg:original CDATA #IMPLIED
kvg:part CDATA #IMPLIED
kvg:number CDATA #IMPLIED
kvg:tradForm CDATA #IMPLIED
kvg:radicalForm CDATA #IMPLIED
kvg:position CDATA #IMPLIED
kvg:radical CDATA #IMPLIED
kvg:phon CDATA #IMPLIED >
<!ATTLIST path
xmlns:kvg CDATA #FIXED "http://kanjivg.tagaini.net"
kvg:type CDATA #IMPLIED >
]>
<svg xmlns="http://www.w3.org/2000/svg" width="327" height = "327" viewBox="0 0 327 327">
<g id="kvg:StrokePaths_05bb5-Kaisho" style="fill:none;stroke:#000000;stroke-width:3;stroke-linecap:round;stroke-linejoin:round;" transform="scale(3.0,3.0)">
<g id="kvg:05bb5-Kaisho" kvg:element="宵">
	<g id="kvg:05bb5-Kaisho-g1" kvg:element="宀" kvg:position="top" kvg:radical="general">
		<path style="stroke: #bf0909;" id="kvg:05bb5-Kaisho-s1" kvg:type="㇑a" d="M49,7.5c3.96,1.7,6.91,4.81,8.3,8.54"/>
		<g id="kvg:05bb5-Kaisho-g2" kvg:element="冖">
			<path style="stroke: #bf7609;" id="kvg:05bb5-Kaisho-s2" kvg:type="㇔" d="M19.91,22.13c0,3.48-2.03,14.05-3.41,16.37"/>
			<path style="stroke: #9abf09;" id="kvg:05bb5-Kaisho-s3" kvg:type="㇖b" d="M22.24,24.24c9.51-0.99,57.24-4.53,64.95-4.9c12.05-0.59,2.55,7.16-0.45,9.28"/>
		</g>
	</g>
	<g id="kvg:05bb5-Kaisho-g3" kvg:element="肖" kvg:position="bottom">
		<g id="kvg:05bb5-Kaisho-g4" kvg:element="⺌" kvg:variant="true" kvg:original="小" kvg:position="top">
			<path style="stroke: #2dbf09;" id="kvg:05bb5-Kaisho-s4" kvg:type="㇑a" d="M53.44,27.37c0.08,0.24,1.22,1.26,1.22,2.81c0,9.83,0.25,15.4,0.25,17.93"/>
			<path style="stroke: #09bf52;" id="kvg:05bb5-Kaisho-s5" kvg:type="㇔" d="M30.81,31.39c3.24,2.27,8.38,8.88,9.19,12.41"/>
			<path style="stroke: #09bfbf;" id="kvg:05bb5-Kaisho-s6" kvg:type="㇒" d="M74.21,28.85c0.03,0.36,0.06,0.93-0.06,1.45c-0.67,3.07-3.75,7.93-9.29,13.07"/>
		</g>
		<g id="kvg:05bb5-Kaisho-g5" kvg:element="月" kvg:position="bottom">
			<path style="stroke: #0952bf;" id="kvg:05bb5-Kaisho-s7" kvg:type="㇑/㇒" d="M32.75,49.43c0.79,0.99,1.31,1.98,1.57,2.97c0.26,0.99,0.37,45.09,0.26,47.31"/>
			<path style="stroke: #2d09bf;" id="kvg:05bb5-Kaisho-s8" kvg:type="㇆a" d="M35.9,51.42c3.15-0.25,31.51-2.94,33.85-3.21c4.2-0.5,5.25,3.14,5.25,4.71c0,10.69-0.29,22.53-0.29,42.6c0,9.23-6.46,1.23-7.95-0.48"/>
			<path style="stroke: #9a09bf;" id="kvg:05bb5-Kaisho-s9" kvg:type="㇐a" d="M35.9,64.56c6.68-0.56,13.38-0.96,20.08-1.35c1.67-0.1,3.32-0.19,4.93-0.29"/>
			<path style="stroke: #bf0976;" id="kvg:05bb5-Kaisho-s10" kvg:type="㇐a" d="M35.11,78.18c6.08-0.54,14.18-0.93,20.27-1.33c1.78-0.12,3.57-0.23,5.33-0.34"/>
		</g>
	</g>
</g>
</g>
<g id="kvg:StrokeNumbers_05bb5-Kaisho" style="font-size:8;fill:#808080" transform="scale(3.0,3.0)">
	<text style="fill: #bf0909;" transform="matrix(1 0 0 1 44.50 9.50)">1</text>
	<text style="fill: #bf7609;" transform="matrix(1 0 0 1 12.75 24.13)">2</text>
	<text style="fill: #9abf09;" transform="matrix(1 0 0 1 23.50 20.50)">3</text>
	<text style="fill: #2dbf09;" transform="matrix(1 0 0 1 43.50 31.50)">4</text>
	<text style="fill: #09bf52;" transform="matrix(1 0 0 1 23.50 34.50)">5</text>
	<text style="fill: #09bfbf;" transform="matrix(1 0 0 1 65.25 30.50)">6</text>
	<text style="fill: #0952bf;" transform="matrix(1 0 0 1 26.25 58.63)">7</text>
	<text style="fill: #2d09bf;" transform="matrix(1 0 0 1 42.50 48.50)">8</text>
	<text style="fill: #9a09bf;" transform="matrix(1 0 0 1 39.50 61.08)">9</text>
	<text style="fill: #bf0976;" transform="matrix(1 0 0 1 38.50 74.50)">10</text>
</g>
</svg>
