<?xml version="1.0" encoding="UTF-8"?>
<!--
This file has been modified from the original version by the kanji_colorize.py
script (available at http://github.com/cayennes/kanji-colorize) with these
settings:
    mode: spectrum
    saturation: 0.95
    value: 0.75
    image_size: 327
It remains under a Creative Commons-Attribution-Share Alike 3.0 License.

The original SVG has the following copyright:

Copyright (C) 2009/2010/2011 Ulrich Apel.
This work is distributed under the conditions of the Creative Commons
Attribution-Share Alike 3.0 Licence. This means you are free:
* to Share - to copy, distribute and transmit the work
* to Remix - to adapt the work

Under the following conditions:
* Attribution. You must attribute the work by stating your use of KanjiVG in
  your own copyright header and linking to KanjiVG's website
  (http://kanjivg.tagaini.net)
* Share Alike. If you alter, transform, or build upon this work, you may
  distribute the resulting work only under the same or similar license to this
  one.

See http://creativecommons.org/licenses/by-sa/3.0/ for more details.
-->
<!DOCTYPE svg PUBLIC "-//W3C//DTD SVG 1.0//EN" "http://www.w3.org/TR/2001/REC-SVG-20010904/DTD/svg10.dtd" [
<!ATTLIST g
xmlns:kvg CDATA #FIXED "http://kanjivg.tagaini.net"
kvg:element CDATA #IMPLIED
kvg:variant CDATA #IMPLIED
kvg:partial CDATA #IMPLIED
kvg:original CDATA #IMPLIED
kvg:part CDATA #IMPLIED
kvg:number CDATA #IMPLIED
kvg:tradForm CDATA #IMPLIED
kvg:radicalForm CDATA #IMPLIED
kvg:position CDATA #IMPLIED
kvg:radical CDATA #IMPLIED
kvg:phon CDATA #IMPLIED >
<!ATTLIST path
xmlns:kvg CDATA #FIXED "http://kanjivg.tagaini.net"
kvg:type CDATA #IMPLIED >
]>
<svg xmlns="http://www.w3.org/2000/svg" width="327" height = "327" viewBox="0 0 327 327">
<g id="kvg:StrokePaths_05e02-Kaisho" style="fill:none;stroke:#000000;stroke-width:3;stroke-linecap:round;stroke-linejoin:round;" transform="scale(3.0,3.0)">
<g id="kvg:05e02-Kaisho" kvg:element="市">
	<g id="kvg:05e02-Kaisho-g1" kvg:element="亠" kvg:position="top" kvg:radical="nelson">
		<path style="stroke: #bf0909;" id="kvg:05e02-Kaisho-s1" kvg:type="㇑a" d="M48.75,11.75c3.2,1.47,8.14,7.18,8.47,10.08"/>
		<path style="stroke: #9abf09;" id="kvg:05e02-Kaisho-s2" kvg:type="㇐" d="M15.75,29.61c1.42,0.1,4.68,0.69,6.06,0.55C33,29,72.75,24.25,87.95,23.95c2.35-0.05,3.55,0.05,5.3,0.7"/>
	</g>
	<g id="kvg:05e02-Kaisho-g2" kvg:element="巾" kvg:position="bottom" kvg:radical="tradit">
		<path style="stroke: #09bf52;" id="kvg:05e02-Kaisho-s3" kvg:type="㇑" d="M26.31,45.5c0.71,0.38,2.35,3.34,2.35,4.11c0,4.15-0.09,29.36-0.23,34.11"/>
		<path style="stroke: #0952bf;" id="kvg:05e02-Kaisho-s4" kvg:type="㇆a" d="M29.3,48.96c4.45-0.27,46.03-4.92,49.35-5.09c3.9-0.19,4.51,3.35,4.6,5.09c0.5,9.29,0.16,22.12-1.15,29.97C80.75,87,75.86,79,74.38,77.66"/>
		<path style="stroke: #9a09bf;" id="kvg:05e02-Kaisho-s5" kvg:type="㇑" d="M53.53,33.38c0.71,0.38,2.21,2.85,2.35,3.61c0.14,0.76-1.09,55.38-1.23,60.14"/>
	</g>
</g>
</g>
<g id="kvg:StrokeNumbers_05e02-Kaisho" style="font-size:8;fill:#808080" transform="scale(3.0,3.0)">
	<text style="fill: #bf0909;" transform="matrix(1 0 0 1 44.25 9.13)">1</text>
	<text style="fill: #9abf09;" transform="matrix(1 0 0 1 8.25 28.63)">2</text>
	<text style="fill: #09bf52;" transform="matrix(1 0 0 1 18.75 49.63)">3</text>
	<text style="fill: #0952bf;" transform="matrix(1 0 0 1 30 45)">4</text>
	<text style="fill: #9a09bf;" transform="matrix(1 0 0 1 57 36)">5</text>
</g>
</svg>
