<?xml version="1.0" encoding="UTF-8"?>
<!--
This file has been modified from the original version by the kanji_colorize.py
script (available at http://github.com/cayennes/kanji-colorize) with these
settings:
    mode: spectrum
    saturation: 0.95
    value: 0.75
    image_size: 327
It remains under a Creative Commons-Attribution-Share Alike 3.0 License.

The original SVG has the following copyright:

Copyright (C) 2009/2010/2011 Ulrich Apel.
This work is distributed under the conditions of the Creative Commons
Attribution-Share Alike 3.0 Licence. This means you are free:
* to Share - to copy, distribute and transmit the work
* to Remix - to adapt the work

Under the following conditions:
* Attribution. You must attribute the work by stating your use of KanjiVG in
  your own copyright header and linking to KanjiVG's website
  (http://kanjivg.tagaini.net)
* Share Alike. If you alter, transform, or build upon this work, you may
  distribute the resulting work only under the same or similar license to this
  one.

See http://creativecommons.org/licenses/by-sa/3.0/ for more details.
-->
<!DOCTYPE svg PUBLIC "-//W3C//DTD SVG 1.0//EN" "http://www.w3.org/TR/2001/REC-SVG-20010904/DTD/svg10.dtd" [
<!ATTLIST g
xmlns:kvg CDATA #FIXED "http://kanjivg.tagaini.net"
kvg:element CDATA #IMPLIED
kvg:variant CDATA #IMPLIED
kvg:partial CDATA #IMPLIED
kvg:original CDATA #IMPLIED
kvg:part CDATA #IMPLIED
kvg:number CDATA #IMPLIED
kvg:tradForm CDATA #IMPLIED
kvg:radicalForm CDATA #IMPLIED
kvg:position CDATA #IMPLIED
kvg:radical CDATA #IMPLIED
kvg:phon CDATA #IMPLIED >
<!ATTLIST path
xmlns:kvg CDATA #FIXED "http://kanjivg.tagaini.net"
kvg:type CDATA #IMPLIED >
]>
<svg xmlns="http://www.w3.org/2000/svg" width="327" height = "327" viewBox="0 0 327 327">
<g id="kvg:StrokePaths_05e1d-Kaisho" style="fill:none;stroke:#000000;stroke-width:3;stroke-linecap:round;stroke-linejoin:round;" transform="scale(3.0,3.0)">
<g id="kvg:05e1d-Kaisho" kvg:element="帝">
	<g id="kvg:05e1d-Kaisho-g1" kvg:position="top">
		<g id="kvg:05e1d-Kaisho-g2" kvg:element="亠" kvg:radical="nelson">
			<path style="stroke: #bf0909;" id="kvg:05e1d-Kaisho-s1" kvg:type="㇑a" d="M49.94,8.84c3.07,1.6,5.89,3.57,7.11,7.93"/>
			<path style="stroke: #bf8209;" id="kvg:05e1d-Kaisho-s2" kvg:type="㇐" d="M27,24.63c1.02,0.29,2.21,0.33,3.23,0.29c5.75-0.25,40.77-3.97,49.46-4.18c1.7-0.04,2.72,0.14,3.57,0.28"/>
		</g>
		<path style="stroke: #82bf09;" id="kvg:05e1d-Kaisho-s3" kvg:type="㇔" d="M39.5,26.83c3.51,4.31,5.75,9.49,6.07,12.33"/>
		<path style="stroke: #09bf09;" id="kvg:05e1d-Kaisho-s4" kvg:type="㇒" d="M67.84,23.82c0.61,0.52,0.27,1.81,0.11,2.22C66,31,63.48,37.4,62.27,39.66"/>
		<g id="kvg:05e1d-Kaisho-g3" kvg:element="冖">
			<path style="stroke: #09bf82;" id="kvg:05e1d-Kaisho-s5" kvg:type="㇔" d="M20.41,41.19c-0.1,4.53-2.36,16.37-3.16,19.06"/>
			<path style="stroke: #0982bf;" id="kvg:05e1d-Kaisho-s6" kvg:type="㇖b" d="M21.22,45c3.53,0,48.25-7.25,65.97-7.25c12.06,0,3.81,5.75-0.69,9.5"/>
		</g>
	</g>
	<g id="kvg:05e1d-Kaisho-g4" kvg:element="巾" kvg:position="bottom" kvg:radical="tradit">
		<path style="stroke: #0909bf;" id="kvg:05e1d-Kaisho-s7" kvg:type="㇑" d="M32.56,59.63c0.57,0.34,1.9,2.52,1.9,3.2c0,4.42-0.07,22.5-0.19,26.72"/>
		<path style="stroke: #8209bf;" id="kvg:05e1d-Kaisho-s8" kvg:type="㇆a" d="M34.96,61.2c3.58-0.24,37.66-4.87,40.34-5.01c3.14-0.17,3.82,2.97,3.7,4.51c-0.57,7.75-0.31,16-2.15,23.6c-1.32,5.47-4.71,0.75-6.22-1.13"/>
		<path style="stroke: #bf0982;" id="kvg:05e1d-Kaisho-s9" kvg:type="㇑" d="M53.67,47.17c0.57,0.34,1.78,2.53,1.89,3.2c0.12,0.68-0.07,46.91-0.19,51.13"/>
	</g>
</g>
</g>
<g id="kvg:StrokeNumbers_05e1d-Kaisho" style="font-size:8;fill:#808080" transform="scale(3.0,3.0)">
	<text style="fill: #bf0909;" transform="matrix(1 0 0 1 43.50 9.50)">1</text>
	<text style="fill: #bf8209;" transform="matrix(1 0 0 1 19.50 25.50)">2</text>
	<text style="fill: #82bf09;" transform="matrix(1 0 0 1 34.50 33.50)">3</text>
	<text style="fill: #09bf09;" transform="matrix(1 0 0 1 59.50 30.50)">4</text>
	<text style="fill: #09bf82;" transform="matrix(1 0 0 1 13.50 45.50)">5</text>
	<text style="fill: #0982bf;" transform="matrix(1 0 0 1 24.50 41.50)">6</text>
	<text style="fill: #0909bf;" transform="matrix(1 0 0 1 25.50 66.50)">7</text>
	<text style="fill: #8209bf;" transform="matrix(1 0 0 1 35.50 57.13)">8</text>
	<text style="fill: #bf0982;" transform="matrix(1 0 0 1 44.25 50.50)">9</text>
</g>
</svg>
