<?xml version="1.0" encoding="UTF-8"?>
<!--
This file has been modified from the original version by the kanji_colorize.py
script (available at http://github.com/cayennes/kanji-colorize) with these
settings:
    mode: spectrum
    saturation: 0.95
    value: 0.75
    image_size: 327
It remains under a Creative Commons-Attribution-Share Alike 3.0 License.

The original SVG has the following copyright:

Copyright (C) 2009/2010/2011 Ulrich Apel.
This work is distributed under the conditions of the Creative Commons
Attribution-Share Alike 3.0 Licence. This means you are free:
* to Share - to copy, distribute and transmit the work
* to Remix - to adapt the work

Under the following conditions:
* Attribution. You must attribute the work by stating your use of KanjiVG in
  your own copyright header and linking to KanjiVG's website
  (http://kanjivg.tagaini.net)
* Share Alike. If you alter, transform, or build upon this work, you may
  distribute the resulting work only under the same or similar license to this
  one.

See http://creativecommons.org/licenses/by-sa/3.0/ for more details.
-->
<!DOCTYPE svg PUBLIC "-//W3C//DTD SVG 1.0//EN" "http://www.w3.org/TR/2001/REC-SVG-20010904/DTD/svg10.dtd" [
<!ATTLIST g
xmlns:kvg CDATA #FIXED "http://kanjivg.tagaini.net"
kvg:element CDATA #IMPLIED
kvg:variant CDATA #IMPLIED
kvg:partial CDATA #IMPLIED
kvg:original CDATA #IMPLIED
kvg:part CDATA #IMPLIED
kvg:number CDATA #IMPLIED
kvg:tradForm CDATA #IMPLIED
kvg:radicalForm CDATA #IMPLIED
kvg:position CDATA #IMPLIED
kvg:radical CDATA #IMPLIED
kvg:phon CDATA #IMPLIED >
<!ATTLIST path
xmlns:kvg CDATA #FIXED "http://kanjivg.tagaini.net"
kvg:type CDATA #IMPLIED >
]>
<svg xmlns="http://www.w3.org/2000/svg" width="327" height = "327" viewBox="0 0 327 327">
<g id="kvg:StrokePaths_05ea7-Kaisho" style="fill:none;stroke:#000000;stroke-width:3;stroke-linecap:round;stroke-linejoin:round;" transform="scale(3.0,3.0)">
<g id="kvg:05ea7-Kaisho" kvg:element="座">
	<g id="kvg:05ea7-Kaisho-g1" kvg:element="广" kvg:position="tare" kvg:radical="general">
		<path style="stroke: #bf0909;" id="kvg:05ea7-Kaisho-s1" kvg:type="㇑a" d="M50.27,13.13c2.73,0.93,8.53,6.95,9.07,8.8"/>
		<g id="kvg:05ea7-Kaisho-g2" kvg:element="厂">
			<path style="stroke: #bf7609;" id="kvg:05ea7-Kaisho-s2" kvg:type="㇐" d="M21.13,28.73c1.52,0.54,4.3,0.63,5.82,0.54c15.8-0.91,38.05-2.77,56.11-3.73c2.53-0.13,4.05,0.26,5.31,0.53"/>
			<path style="stroke: #9abf09;" id="kvg:05ea7-Kaisho-s3" kvg:type="㇒" d="M25,31.5c0.04,1.46,0.09,3.76-0.09,5.86C23.87,49.71,22.75,80,10.31,92.97"/>
		</g>
	</g>
	<g id="kvg:05ea7-Kaisho-g3" kvg:element="坐">
		<g id="kvg:05ea7-Kaisho-g4" kvg:element="从">
			<g id="kvg:05ea7-Kaisho-g5" kvg:element="人" kvg:position="left">
				<path style="stroke: #2dbf09;" id="kvg:05ea7-Kaisho-s4" kvg:type="㇒" d="M43.6,40.3c0,0.58,0.07,1.07-0.12,1.75c-1.76,6.33-7.03,14.21-14.77,21.21"/>
				<path style="stroke: #09bf52;" id="kvg:05ea7-Kaisho-s5" kvg:type="㇏" d="M40.7,50.13c4.03,1.94,9.17,7.09,11.13,11.98"/>
			</g>
			<g id="kvg:05ea7-Kaisho-g6" kvg:element="人" kvg:position="right">
				<path style="stroke: #09bfbf;" id="kvg:05ea7-Kaisho-s6" kvg:type="㇒" d="M79.02,39.42c0,0.5,0.1,0.93-0.1,1.5c-1.71,4.89-6.57,13.59-12.36,18.52"/>
				<path style="stroke: #0952bf;" id="kvg:05ea7-Kaisho-s7" kvg:type="㇏" d="M77.96,48.52c4.55,3.14,8.04,7.08,10.76,11.85"/>
			</g>
		</g>
		<g id="kvg:05ea7-Kaisho-g7" kvg:element="土">
			<path style="stroke: #2d09bf;" id="kvg:05ea7-Kaisho-s8" kvg:type="㇑a" d="M57.28,34.87c0.1,0.24,1.47,1.26,1.47,2.81c0,9.95,0.12,41.45,0.12,54.61"/>
			<path style="stroke: #9a09bf;" id="kvg:05ea7-Kaisho-s9" kvg:type="㇐" d="M37.06,75.12c0.81,0.32,2.31,0.4,3.12,0.32c10.46-1.08,26.19-2.94,36.72-3.22c1.36-0.04,2.17,0.15,2.85,0.31"/>
			<path style="stroke: #bf0976;" id="kvg:05ea7-Kaisho-s10" kvg:type="㇐" d="M25.73,93.83c1.26,0.45,3.57,0.55,4.83,0.45c15.59-1.26,43.37-2.92,57.32-3.51c2.1-0.09,3.36,0.22,4.41,0.44"/>
		</g>
	</g>
</g>
</g>
<g id="kvg:StrokeNumbers_05ea7-Kaisho" style="font-size:8;fill:#808080" transform="scale(3.0,3.0)">
	<text style="fill: #bf0909;" transform="matrix(1 0 0 1 44.50 13.50)">1</text>
	<text style="fill: #bf7609;" transform="matrix(1 0 0 1 24.75 26.50)">2</text>
	<text style="fill: #9abf09;" transform="matrix(1 0 0 1 17.25 37.50)">3</text>
	<text style="fill: #2dbf09;" transform="matrix(1 0 0 1 35.25 42.13)">4</text>
	<text style="fill: #09bf52;" transform="matrix(1 0 0 1 47.50 51.50)">5</text>
	<text style="fill: #09bfbf;" transform="matrix(1 0 0 1 70.50 40.50)">6</text>
	<text style="fill: #0952bf;" transform="matrix(1 0 0 1 83.50 50.50)">7</text>
	<text style="fill: #2d09bf;" transform="matrix(1 0 0 1 47.50 36.50)">8</text>
	<text style="fill: #9a09bf;" transform="matrix(1 0 0 1 30.75 76.63)">9</text>
	<text style="fill: #bf0976;" transform="matrix(1 0 0 1 23.25 90.13)">10</text>
</g>
</svg>
