<?xml version="1.0" encoding="UTF-8"?>
<!--
This file has been modified from the original version by the kanji_colorize.py
script (available at http://github.com/cayennes/kanji-colorize) with these
settings:
    mode: spectrum
    saturation: 0.95
    value: 0.75
    image_size: 327
It remains under a Creative Commons-Attribution-Share Alike 3.0 License.

The original SVG has the following copyright:

Copyright (C) 2009/2010/2011 Ulrich Apel.
This work is distributed under the conditions of the Creative Commons
Attribution-Share Alike 3.0 Licence. This means you are free:
* to Share - to copy, distribute and transmit the work
* to Remix - to adapt the work

Under the following conditions:
* Attribution. You must attribute the work by stating your use of KanjiVG in
  your own copyright header and linking to KanjiVG's website
  (http://kanjivg.tagaini.net)
* Share Alike. If you alter, transform, or build upon this work, you may
  distribute the resulting work only under the same or similar license to this
  one.

See http://creativecommons.org/licenses/by-sa/3.0/ for more details.
-->
<!DOCTYPE svg PUBLIC "-//W3C//DTD SVG 1.0//EN" "http://www.w3.org/TR/2001/REC-SVG-20010904/DTD/svg10.dtd" [
<!ATTLIST g
xmlns:kvg CDATA #FIXED "http://kanjivg.tagaini.net"
kvg:element CDATA #IMPLIED
kvg:variant CDATA #IMPLIED
kvg:partial CDATA #IMPLIED
kvg:original CDATA #IMPLIED
kvg:part CDATA #IMPLIED
kvg:number CDATA #IMPLIED
kvg:tradForm CDATA #IMPLIED
kvg:radicalForm CDATA #IMPLIED
kvg:position CDATA #IMPLIED
kvg:radical CDATA #IMPLIED
kvg:phon CDATA #IMPLIED >
<!ATTLIST path
xmlns:kvg CDATA #FIXED "http://kanjivg.tagaini.net"
kvg:type CDATA #IMPLIED >
]>
<svg xmlns="http://www.w3.org/2000/svg" width="327" height = "327" viewBox="0 0 327 327">
<g id="kvg:StrokePaths_05eb6-Kaisho" style="fill:none;stroke:#000000;stroke-width:3;stroke-linecap:round;stroke-linejoin:round;" transform="scale(3.0,3.0)">
<g id="kvg:05eb6-Kaisho" kvg:element="庶">
	<g id="kvg:05eb6-Kaisho-g1" kvg:element="广" kvg:position="tare" kvg:radical="general">
		<path style="stroke: #bf0909;" id="kvg:05eb6-Kaisho-s1" kvg:type="㇑a" d="M52.38,12.13c2.37,0.93,7.4,6.95,7.87,8.8"/>
		<g id="kvg:05eb6-Kaisho-g2" kvg:element="厂">
			<path style="stroke: #bf6c09;" id="kvg:05eb6-Kaisho-s2" kvg:type="㇐" d="M23.13,28.23c1.52,0.54,4.3,0.63,5.82,0.54c15.8-0.91,36.3-3.52,56.61-4.23c2.53-0.09,4.05,0.26,5.31,0.53"/>
			<path style="stroke: #aebf09;" id="kvg:05eb6-Kaisho-s3" kvg:type="㇒" d="M26.99,30c0.05,1.4,0.1,3.61-0.09,5.62c-1.15,11.85-3.73,40.59-16.09,53.35"/>
		</g>
	</g>
	<g id="kvg:05eb6-Kaisho-g3" kvg:element="廿">
		<g id="kvg:05eb6-Kaisho-g4" kvg:element="十">
			<path style="stroke: #4bbf09;" id="kvg:05eb6-Kaisho-s4" kvg:type="㇐" d="M33.25,49.66c1.59,0.7,4.5,0.86,6.08,0.7C50.75,49.25,75,46,84.95,45.38c2.64-0.16,4.23,0.34,5.55,0.69"/>
			<path style="stroke: #09bf2a;" id="kvg:05eb6-Kaisho-s5" kvg:type="㇑" d="M46.75,35.75C48,36.25,48.75,38,49,39s0.5,25.75,0.25,32"/>
		</g>
		<path style="stroke: #09bf8d;" id="kvg:05eb6-Kaisho-s6" kvg:type="㇑a" d="M69.25,33.75c1.25,0.5,2,2.25,2.25,3.25s-1,18.25-1.75,27.5"/>
		<path style="stroke: #098dbf;" id="kvg:05eb6-Kaisho-s7" kvg:type="㇐b" d="M49.75,68.75c4.75,0,17.98-1.78,22.25-2"/>
	</g>
	<g id="kvg:05eb6-Kaisho-g5" kvg:element="灬" kvg:variant="true" kvg:original="火">
		<path style="stroke: #092abf;" id="kvg:05eb6-Kaisho-s8" kvg:type="㇔" d="M33.94,79.25c0,6.06-5.1,15.02-6.44,16.75"/>
		<path style="stroke: #4b09bf;" id="kvg:05eb6-Kaisho-s9" kvg:type="㇔" d="M47.68,78.33c2,3.18,3.9,11.93,4.4,16.88"/>
		<path style="stroke: #ae09bf;" id="kvg:05eb6-Kaisho-s10" kvg:type="㇔" d="M64.5,77.58c2.2,2.8,5.69,11.52,6.24,15.88"/>
		<path style="stroke: #bf096c;" id="kvg:05eb6-Kaisho-s11" kvg:type="㇔" d="M82.68,76.33c3.84,2.93,9.92,12.07,10.88,16.63"/>
	</g>
</g>
</g>
<g id="kvg:StrokeNumbers_05eb6-Kaisho" style="font-size:8;fill:#808080" transform="scale(3.0,3.0)">
	<text style="fill: #bf0909;" transform="matrix(1 0 0 1 47.25 12.13)">1</text>
	<text style="fill: #bf6c09;" transform="matrix(1 0 0 1 26.25 25.55)">2</text>
	<text style="fill: #aebf09;" transform="matrix(1 0 0 1 18.75 37.50)">3</text>
	<text style="fill: #4bbf09;" transform="matrix(1 0 0 1 32.25 46.63)">4</text>
	<text style="fill: #09bf2a;" transform="matrix(1 0 0 1 38.25 37.63)">5</text>
	<text style="fill: #09bf8d;" transform="matrix(1 0 0 1 60.75 35.50)">6</text>
	<text style="fill: #098dbf;" transform="matrix(1 0 0 1 52.00 65.50)">7</text>
	<text style="fill: #092abf;" transform="matrix(1 0 0 1 29.25 78.13)">8</text>
	<text style="fill: #4b09bf;" transform="matrix(1 0 0 1 40.50 80.50)">9</text>
	<text style="fill: #ae09bf;" transform="matrix(1 0 0 1 54.75 80.50)">10</text>
	<text style="fill: #bf096c;" transform="matrix(1 0 0 1 72.50 79.50)">11</text>
</g>
</svg>
