<?xml version="1.0" encoding="UTF-8"?>
<!--
This file has been modified from the original version by the kanji_colorize.py
script (available at http://github.com/cayennes/kanji-colorize) with these
settings:
    mode: spectrum
    saturation: 0.95
    value: 0.75
    image_size: 327
It remains under a Creative Commons-Attribution-Share Alike 3.0 License.

The original SVG has the following copyright:

Copyright (C) 2009/2010/2011 Ulrich Apel.
This work is distributed under the conditions of the Creative Commons
Attribution-Share Alike 3.0 Licence. This means you are free:
* to Share - to copy, distribute and transmit the work
* to Remix - to adapt the work

Under the following conditions:
* Attribution. You must attribute the work by stating your use of KanjiVG in
  your own copyright header and linking to KanjiVG's website
  (http://kanjivg.tagaini.net)
* Share Alike. If you alter, transform, or build upon this work, you may
  distribute the resulting work only under the same or similar license to this
  one.

See http://creativecommons.org/licenses/by-sa/3.0/ for more details.
-->
<!DOCTYPE svg PUBLIC "-//W3C//DTD SVG 1.0//EN" "http://www.w3.org/TR/2001/REC-SVG-20010904/DTD/svg10.dtd" [
<!ATTLIST g
xmlns:kvg CDATA #FIXED "http://kanjivg.tagaini.net"
kvg:element CDATA #IMPLIED
kvg:variant CDATA #IMPLIED
kvg:partial CDATA #IMPLIED
kvg:original CDATA #IMPLIED
kvg:part CDATA #IMPLIED
kvg:number CDATA #IMPLIED
kvg:tradForm CDATA #IMPLIED
kvg:radicalForm CDATA #IMPLIED
kvg:position CDATA #IMPLIED
kvg:radical CDATA #IMPLIED
kvg:phon CDATA #IMPLIED >
<!ATTLIST path
xmlns:kvg CDATA #FIXED "http://kanjivg.tagaini.net"
kvg:type CDATA #IMPLIED >
]>
<svg xmlns="http://www.w3.org/2000/svg" width="327" height = "327" viewBox="0 0 327 327">
<g id="kvg:StrokePaths_05ee0-Kaisho" style="fill:none;stroke:#000000;stroke-width:3;stroke-linecap:round;stroke-linejoin:round;" transform="scale(3.0,3.0)">
<g id="kvg:05ee0-Kaisho" kvg:element="廠">
	<g id="kvg:05ee0-Kaisho-g1" kvg:element="广" kvg:position="tare" kvg:radical="general">
		<path style="stroke: #bf0909;" id="kvg:05ee0-Kaisho-s1" kvg:type="㇑a" d="M49.3,10.13c2.04,0.72,6.37,5.37,6.78,6.8"/>
		<g id="kvg:05ee0-Kaisho-g2" kvg:element="厂">
			<path style="stroke: #bf5209;" id="kvg:05ee0-Kaisho-s2" kvg:type="㇐" d="M19.13,25.15c1.65,0.61,4.67,0.71,6.32,0.61c17.16-1.02,40.52-5.67,57.15-6.47c2.75-0.13,4.4,0.29,5.77,0.6"/>
			<path style="stroke: #bf9a09;" id="kvg:05ee0-Kaisho-s3" kvg:type="㇒" d="M24.49,26c0.05,1.55-0.01,1.49-0.1,3.71c-0.64,15.04-0.14,41.04-13.83,61"/>
		</g>
	</g>
	<g id="kvg:05ee0-Kaisho-g3" kvg:element="敞">
		<g id="kvg:05ee0-Kaisho-g4" kvg:element="尚" kvg:variant="true" kvg:position="left">
			<g id="kvg:05ee0-Kaisho-g5" kvg:element="⺌" kvg:variant="true" kvg:original="小" kvg:position="top">
				<path style="stroke: #9abf09;" id="kvg:05ee0-Kaisho-s4" kvg:type="㇑" d="M44.85,29.87c0.06,0.27,0.83,1.39,0.89,3.08c0.29,8.11,0.17,16.52,0.17,19.28"/>
				<path style="stroke: #52bf09;" id="kvg:05ee0-Kaisho-s5" kvg:type="㇔" d="M31.14,37.08c2.41,1.98,6.23,8.12,6.83,11.19"/>
				<path style="stroke: #09bf09;" id="kvg:05ee0-Kaisho-s6" kvg:type="㇒" d="M59.75,32.47c0.02,0.35,0.04,0.91-0.04,1.42c-0.5,2.99-3.37,9.56-7.3,13.57"/>
			</g>
			<g id="kvg:05ee0-Kaisho-g6" kvg:position="bottom">
				<g id="kvg:05ee0-Kaisho-g7" kvg:element="冂">
					<path style="stroke: #09bf52;" id="kvg:05ee0-Kaisho-s7" kvg:type="㇑" d="M32.02,52.79c0.48,0.67,0.85,2.25,0.88,3.49c0.17,5.45-0.04,32.17,0.05,40.22"/>
					<path style="stroke: #09bf9a;" id="kvg:05ee0-Kaisho-s8" kvg:type="㇆a" d="M33.41,54.03c7.84-0.53,17.57-1.64,23.93-2.64c1.37-0.22,2.09,1.03,2.1,2.52c0.06,9.84-0.38,25.84-0.38,37.18c0,6.31-2.06,4.92-4.57,1.17"/>
				</g>
				<g id="kvg:05ee0-Kaisho-g8" kvg:element="口">
					<path style="stroke: #099abf;" id="kvg:05ee0-Kaisho-s9" kvg:type="㇑" d="M39.98,62.77c0.11,0.19,0.23,0.34,0.26,0.59c0.3,2.19,1.26,14.85,1.56,18.08"/>
					<path style="stroke: #0952bf;" id="kvg:05ee0-Kaisho-s10" kvg:type="㇕b" d="M40.64,64.06c1.94-0.46,6.67-1.36,8.48-1.59c1.64-0.21,1.89,1.04,1.79,3.2c-0.1,2.23-0.58,3.8-1.3,11.91"/>
					<path style="stroke: #0909bf;" id="kvg:05ee0-Kaisho-s11" kvg:type="㇐b" d="M42.02,80.45c2.51-0.64,6.93-1.11,8.92-1.54"/>
				</g>
			</g>
		</g>
		<g id="kvg:05ee0-Kaisho-g9" kvg:element="攵" kvg:variant="true" kvg:original="攴" kvg:position="right">
			<g id="kvg:05ee0-Kaisho-g10" kvg:position="top">
				<path style="stroke: #5209bf;" id="kvg:05ee0-Kaisho-s12" kvg:type="㇒" d="M75.59,28.64c0.03,0.66,0.18,1.74-0.06,2.64c-1.48,5.8-5.5,18.96-10.63,26.99"/>
				<path style="stroke: #9a09bf;" id="kvg:05ee0-Kaisho-s13" kvg:type="㇐" d="M73.75,45.86c0.02-0.19,1.07,0.54,1.45,0.48c3.94-0.55,10.69-2.53,16.71-3.42c0.68-0.1,1.09-0.02,1.27,0.09"/>
			</g>
			<g id="kvg:05ee0-Kaisho-g11" kvg:element="乂" kvg:position="bottom">
				<g id="kvg:05ee0-Kaisho-g12" kvg:element="丿">
					<path style="stroke: #bf099a;" id="kvg:05ee0-Kaisho-s14" kvg:type="㇒" d="M84.98,48.88c0.35,1.16,0.55,1.99,0.18,4.12c-3.36,19.31-11,36.56-22.04,43.26"/>
				</g>
				<path style="stroke: #bf0952;" id="kvg:05ee0-Kaisho-s15" kvg:type="㇏" d="M68.15,60.39c2.35,1.36,16.97,25.15,24.53,31.22c1.45,1.17,2.38,1.36,3.57,1.48"/>
			</g>
		</g>
	</g>
</g>
</g>
<g id="kvg:StrokeNumbers_05ee0-Kaisho" style="font-size:8;fill:#808080" transform="scale(3.0,3.0)">
	<text style="fill: #bf0909;" transform="matrix(1 0 0 1 44.50 11.50)">1</text>
	<text style="fill: #bf5209;" transform="matrix(1 0 0 1 20.50 22.50)">2</text>
	<text style="fill: #bf9a09;" transform="matrix(1 0 0 1 16.50 35.50)">3</text>
	<text style="fill: #9abf09;" transform="matrix(1 0 0 1 36.50 32.50)">4</text>
	<text style="fill: #52bf09;" transform="matrix(1 0 0 1 29.50 34.50)">5</text>
	<text style="fill: #09bf09;" transform="matrix(1 0 0 1 52.25 31.50)">6</text>
	<text style="fill: #09bf52;" transform="matrix(1 0 0 1 26.50 61.18)">7</text>
	<text style="fill: #09bf9a;" transform="matrix(1 0 0 1 30.50 50.10)">8</text>
	<text style="fill: #099abf;" transform="matrix(1 0 0 1 35.25 71.50)">9</text>
	<text style="fill: #0952bf;" transform="matrix(1 0 0 1 39.50 61.50)">10</text>
	<text style="fill: #0909bf;" transform="matrix(1 0 0 1 42.50 76.50)">11</text>
	<text style="fill: #5209bf;" transform="matrix(1 0 0 1 64.50 29.50)">12</text>
	<text style="fill: #9a09bf;" transform="matrix(1 0 0 1 76.50 42.50)">13</text>
	<text style="fill: #bf099a;" transform="matrix(1 0 0 1 74.50 53.65)">14</text>
	<text style="fill: #bf0952;" transform="matrix(1 0 0 1 71.50 62.58)">15</text>
</g>
</svg>
