<?xml version="1.0" encoding="UTF-8"?>
<!--
This file has been modified from the original version by the kanji_colorize.py
script (available at http://github.com/cayennes/kanji-colorize) with these
settings:
    mode: spectrum
    saturation: 0.95
    value: 0.75
    image_size: 327
It remains under a Creative Commons-Attribution-Share Alike 3.0 License.

The original SVG has the following copyright:

Copyright (C) 2009/2010/2011 Ulrich Apel.
This work is distributed under the conditions of the Creative Commons
Attribution-Share Alike 3.0 Licence. This means you are free:
* to Share - to copy, distribute and transmit the work
* to Remix - to adapt the work

Under the following conditions:
* Attribution. You must attribute the work by stating your use of KanjiVG in
  your own copyright header and linking to KanjiVG's website
  (http://kanjivg.tagaini.net)
* Share Alike. If you alter, transform, or build upon this work, you may
  distribute the resulting work only under the same or similar license to this
  one.

See http://creativecommons.org/licenses/by-sa/3.0/ for more details.
-->
<!DOCTYPE svg PUBLIC "-//W3C//DTD SVG 1.0//EN" "http://www.w3.org/TR/2001/REC-SVG-20010904/DTD/svg10.dtd" [
<!ATTLIST g
xmlns:kvg CDATA #FIXED "http://kanjivg.tagaini.net"
kvg:element CDATA #IMPLIED
kvg:variant CDATA #IMPLIED
kvg:partial CDATA #IMPLIED
kvg:original CDATA #IMPLIED
kvg:part CDATA #IMPLIED
kvg:number CDATA #IMPLIED
kvg:tradForm CDATA #IMPLIED
kvg:radicalForm CDATA #IMPLIED
kvg:position CDATA #IMPLIED
kvg:radical CDATA #IMPLIED
kvg:phon CDATA #IMPLIED >
<!ATTLIST path
xmlns:kvg CDATA #FIXED "http://kanjivg.tagaini.net"
kvg:type CDATA #IMPLIED >
]>
<svg xmlns="http://www.w3.org/2000/svg" width="327" height = "327" viewBox="0 0 327 327">
<g id="kvg:StrokePaths_05f2d-Kaisho" style="fill:none;stroke:#000000;stroke-width:3;stroke-linecap:round;stroke-linejoin:round;" transform="scale(3.0,3.0)">
<g id="kvg:05f2d-Kaisho" kvg:element="弭">
	<g id="kvg:05f2d-Kaisho-g1" kvg:element="弓" kvg:position="left" kvg:radical="general">
		<path style="stroke: #bf0909;" id="kvg:05f2d-Kaisho-s1" kvg:type="㇕c" d="M16.5,17.88c0.72,1.38,2.51,1.8,3.69,1.54c0.96-0.2,15.17-2.96,17.77-3.79c2.4-0.76,3.7,1.34,2.74,3.39c-0.95,2.04-3.31,11.03-3.96,14.01"/>
		<path style="stroke: #bf8209;" id="kvg:05f2d-Kaisho-s2" kvg:type="㇐" d="M20.75,35.25c4-0.5,12.18-2,14.04-2c1.86,0,3.72-0.5,5.21-0.5"/>
		<path style="stroke: #82bf09;" id="kvg:05f2d-Kaisho-s3" kvg:type="㇉" d="M19.13,33.97c0.55,0.96,0.96,2.06,0.61,3.58c-0.41,1.74-2.88,12.77-3.24,13.68c-1,2.56-0.25,4.56,2.75,3.06c1.21-0.6,13.83-3.24,17.96-4.19c3.06-0.7,3.76,0.08,3.29,3.94c-1.09,8.88-4.75,27.46-10.75,34.5c-4.73,5.55-7-0.29-8.69-2.67"/>
	</g>
	<g id="kvg:05f2d-Kaisho-g2" kvg:element="耳" kvg:position="right">
		<path style="stroke: #09bf09;" id="kvg:05f2d-Kaisho-s4" kvg:type="㇐" d="M47.82,16.75c0.99,0.5,2.79,0.57,3.79,0.5C62.5,16.5,71.4,14,91.29,12.51c1.65-0.12,2.64,0.24,3.46,0.49"/>
		<path style="stroke: #09bf82;" id="kvg:05f2d-Kaisho-s5" kvg:type="㇑a" d="M55.94,20c0.86,0.57,1.32,2.04,1.32,3.57c0,1.52-0.26,42.71-0.26,48.18"/>
		<path style="stroke: #0982bf;" id="kvg:05f2d-Kaisho-s6" kvg:type="㇐a" d="M57.61,34.5c3.71-0.52,7.39-1.23,11.08-1.84c1.09-0.18,2.2-0.36,3.31-0.53"/>
		<path style="stroke: #0909bf;" id="kvg:05f2d-Kaisho-s7" kvg:type="㇐a" d="M57.21,49.75c3.81-0.58,7.61-1.25,11.42-1.81c1.05-0.16,2.12-0.31,3.19-0.45"/>
		<path style="stroke: #8209bf;" id="kvg:05f2d-Kaisho-s8" kvg:type="㇀" d="M47.5,75.81c1.25,0.69,3.16,0.69,4.3,0.14c4.59-2.2,29.51-14.43,36.57-17.96"/>
		<path style="stroke: #bf0982;" id="kvg:05f2d-Kaisho-s9" kvg:type="㇑" d="M80.77,16.5c0.4,0.92,1.01,2.07,1.01,3.23c0,1.15,0.2,68.32,0.2,77.77"/>
	</g>
</g>
</g>
<g id="kvg:StrokeNumbers_05f2d-Kaisho" style="font-size:8;fill:#808080" transform="scale(3.0,3.0)">
	<text style="fill: #bf0909;" transform="matrix(1 0 0 1 9.50 17.50)">1</text>
	<text style="fill: #bf8209;" transform="matrix(1 0 0 1 21.66 31.50)">2</text>
	<text style="fill: #82bf09;" transform="matrix(1 0 0 1 11.50 38.50)">3</text>
	<text style="fill: #09bf09;" transform="matrix(1 0 0 1 47.50 13.50)">4</text>
	<text style="fill: #09bf82;" transform="matrix(1 0 0 1 49.50 28.50)">5</text>
	<text style="fill: #0982bf;" transform="matrix(1 0 0 1 61.50 30.50)">6</text>
	<text style="fill: #0909bf;" transform="matrix(1 0 0 1 61.50 45.50)">7</text>
	<text style="fill: #8209bf;" transform="matrix(1 0 0 1 45.50 70.60)">8</text>
	<text style="fill: #bf0982;" transform="matrix(1 0 0 1 73.50 24.78)">9</text>
</g>
</svg>
