<?xml version="1.0" encoding="UTF-8"?>
<!--
This file has been modified from the original version by the kanji_colorize.py
script (available at http://github.com/cayennes/kanji-colorize) with these
settings:
    mode: spectrum
    saturation: 0.95
    value: 0.75
    image_size: 327
It remains under a Creative Commons-Attribution-Share Alike 3.0 License.

The original SVG has the following copyright:

Copyright (C) 2009/2010/2011 Ulrich Apel.
This work is distributed under the conditions of the Creative Commons
Attribution-Share Alike 3.0 Licence. This means you are free:
* to Share - to copy, distribute and transmit the work
* to Remix - to adapt the work

Under the following conditions:
* Attribution. You must attribute the work by stating your use of KanjiVG in
  your own copyright header and linking to KanjiVG's website
  (http://kanjivg.tagaini.net)
* Share Alike. If you alter, transform, or build upon this work, you may
  distribute the resulting work only under the same or similar license to this
  one.

See http://creativecommons.org/licenses/by-sa/3.0/ for more details.
-->
<!DOCTYPE svg PUBLIC "-//W3C//DTD SVG 1.0//EN" "http://www.w3.org/TR/2001/REC-SVG-20010904/DTD/svg10.dtd" [
<!ATTLIST g
xmlns:kvg CDATA #FIXED "http://kanjivg.tagaini.net"
kvg:element CDATA #IMPLIED
kvg:variant CDATA #IMPLIED
kvg:partial CDATA #IMPLIED
kvg:original CDATA #IMPLIED
kvg:part CDATA #IMPLIED
kvg:number CDATA #IMPLIED
kvg:tradForm CDATA #IMPLIED
kvg:radicalForm CDATA #IMPLIED
kvg:position CDATA #IMPLIED
kvg:radical CDATA #IMPLIED
kvg:phon CDATA #IMPLIED >
<!ATTLIST path
xmlns:kvg CDATA #FIXED "http://kanjivg.tagaini.net"
kvg:type CDATA #IMPLIED >
]>
<svg xmlns="http://www.w3.org/2000/svg" width="327" height = "327" viewBox="0 0 327 327">
<g id="kvg:StrokePaths_05fc5-Ten3" style="fill:none;stroke:#000000;stroke-width:3;stroke-linecap:round;stroke-linejoin:round;" transform="scale(3.0,3.0)">
<g id="kvg:05fc5-Ten3" kvg:element="必">
	<g id="kvg:05fc5-Ten3-g1" kvg:element="心" kvg:part="1" kvg:variant="true" kvg:radical="tradit">
		<g id="kvg:05fc5-Ten3-g2" kvg:element="丶" kvg:radical="nelson">
			<path style="stroke: #bf0909;" id="kvg:05fc5-Ten3-s1" kvg:type="㇔" d="M68.68,24.89c0.13,1.54,0.28,3.97-0.26,6.18C65.2,44.11,49.75,76.25,22.56,91.22"/>
		</g>
		<g id="kvg:05fc5-Ten3-g3" kvg:element="丿">
			<path style="stroke: #9abf09;" id="kvg:05fc5-Ten3-s2" kvg:type="㇒" d="M31,44.5C40,66,51.71,87.55,77.5,87.69c10.25,0.06,7.75-3.89,3.5-9.35"/>
		</g>
		<g id="kvg:05fc5-Ten3-g4" kvg:element="心" kvg:part="2" kvg:variant="true" kvg:radical="tradit">
			<path style="stroke: #09bf52;" id="kvg:05fc5-Ten3-s3" kvg:type="㇟" d="M40.5,24.5c1.76,4.45,6.4,14.4,7.5,8.11"/>
			<path style="stroke: #0952bf;" id="kvg:05fc5-Ten3-s4" kvg:type="㇔" d="M17.5,51.31c0.21,3.06-2.08,16.59-3.75,21.69"/>
			<path style="stroke: #9a09bf;" id="kvg:05fc5-Ten3-s5" kvg:type="㇔" d="M85.5,46.6c4,3.16,8.75,9.65,10.25,15.82"/>
		</g>
	</g>
</g>
</g>
<g id="kvg:StrokeNumbers_05fc5-Ten3" style="font-size:8;fill:#808080" transform="scale(3.0,3.0)">
	<text style="fill: #bf0909;" transform="matrix(1 0 0 1 60.50 24.06)">1</text>
	<text style="fill: #9abf09;" transform="matrix(1 0 0 1 24.50 43.50)">2</text>
	<text style="fill: #09bf52;" transform="matrix(1 0 0 1 34.25 24.00)">3</text>
	<text style="fill: #0952bf;" transform="matrix(1 0 0 1 11.25 49.63)">4</text>
	<text style="fill: #9a09bf;" transform="matrix(1 0 0 1 77.50 46.50)">5</text>
</g>
</svg>
