<?xml version="1.0" encoding="UTF-8"?>
<!--
This file has been modified from the original version by the kanji_colorize.py
script (available at http://github.com/cayennes/kanji-colorize) with these
settings:
    mode: spectrum
    saturation: 0.95
    value: 0.75
    image_size: 327
It remains under a Creative Commons-Attribution-Share Alike 3.0 License.

The original SVG has the following copyright:

Copyright (C) 2009/2010/2011 Ulrich Apel.
This work is distributed under the conditions of the Creative Commons
Attribution-Share Alike 3.0 Licence. This means you are free:
* to Share - to copy, distribute and transmit the work
* to Remix - to adapt the work

Under the following conditions:
* Attribution. You must attribute the work by stating your use of KanjiVG in
  your own copyright header and linking to KanjiVG's website
  (http://kanjivg.tagaini.net)
* Share Alike. If you alter, transform, or build upon this work, you may
  distribute the resulting work only under the same or similar license to this
  one.

See http://creativecommons.org/licenses/by-sa/3.0/ for more details.
-->
<!DOCTYPE svg PUBLIC "-//W3C//DTD SVG 1.0//EN" "http://www.w3.org/TR/2001/REC-SVG-20010904/DTD/svg10.dtd" [
<!ATTLIST g
xmlns:kvg CDATA #FIXED "http://kanjivg.tagaini.net"
kvg:element CDATA #IMPLIED
kvg:variant CDATA #IMPLIED
kvg:partial CDATA #IMPLIED
kvg:original CDATA #IMPLIED
kvg:part CDATA #IMPLIED
kvg:number CDATA #IMPLIED
kvg:tradForm CDATA #IMPLIED
kvg:radicalForm CDATA #IMPLIED
kvg:position CDATA #IMPLIED
kvg:radical CDATA #IMPLIED
kvg:phon CDATA #IMPLIED >
<!ATTLIST path
xmlns:kvg CDATA #FIXED "http://kanjivg.tagaini.net"
kvg:type CDATA #IMPLIED >
]>
<svg xmlns="http://www.w3.org/2000/svg" width="327" height = "327" viewBox="0 0 327 327">
<g id="kvg:StrokePaths_0606f-Kaisho" style="fill:none;stroke:#000000;stroke-width:3;stroke-linecap:round;stroke-linejoin:round;" transform="scale(3.0,3.0)">
<g id="kvg:0606f-Kaisho" kvg:element="息">
	<g id="kvg:0606f-Kaisho-g1" kvg:element="自" kvg:position="top" kvg:radical="nelson">
		<path style="stroke: #bf0909;" id="kvg:0606f-Kaisho-s1" kvg:type="㇒" d="M53.81,10.02c0.53,0.14,0.51,2.36,0.19,2.85c-2.16,3.23-4.37,7.59-9.47,11.93"/>
		<g id="kvg:0606f-Kaisho-g2" kvg:element="目">
			<path style="stroke: #bf7609;" id="kvg:0606f-Kaisho-s2" kvg:type="㇑" d="M36.15,26.39c0.6,0.86,1.4,2.03,1.4,3.25c0,1.22-0.19,37.13,0,38.35"/>
			<path style="stroke: #9abf09;" id="kvg:0606f-Kaisho-s3" kvg:type="㇕a" d="M37.99,27.65c3.22-0.32,28.26-4.05,31.2-4.38c2.45-0.28,4.17,0.99,4.17,3.27c0,1.47-0.95,37.34-1.14,38.26"/>
			<path style="stroke: #2dbf09;" id="kvg:0606f-Kaisho-s4" kvg:type="㇐a" d="M38.44,40.48c5.24-0.44,10.46-1.47,15.65-2.34c1.6-0.27,3.22-0.54,4.81-0.81"/>
			<path style="stroke: #09bf52;" id="kvg:0606f-Kaisho-s5" kvg:type="㇐a" d="M38.2,52.79c5.12-0.57,10.22-1.38,15.32-2.14c1.46-0.22,2.95-0.43,4.45-0.65"/>
			<path style="stroke: #09bfbf;" id="kvg:0606f-Kaisho-s6" kvg:type="㇐a" d="M39.01,64.54c6.4-0.33,23.24-2.58,31.52-3"/>
		</g>
	</g>
	<g id="kvg:0606f-Kaisho-g3" kvg:element="心" kvg:position="bottom" kvg:radical="tradit">
		<path style="stroke: #0952bf;" id="kvg:0606f-Kaisho-s7" kvg:type="㇔" d="M23.74,80.65c0.44,2.07-4.44,11.2-7.99,14.64"/>
		<path style="stroke: #2d09bf;" id="kvg:0606f-Kaisho-s8" kvg:type="㇟b" d="M32.25,78.2C41,92.5,57,100,84,98.63c7.77-0.39,7.75-2.78,3.5-5.88"/>
		<path style="stroke: #9a09bf;" id="kvg:0606f-Kaisho-s9" kvg:type="㇔a" d="M53.5,73.5c2,2.78,6.25,8.99,7.5,5.07"/>
		<path style="stroke: #bf0976;" id="kvg:0606f-Kaisho-s10" kvg:type="㇔" d="M84,71.62c4,1.8,8,6.13,9.25,9.99"/>
	</g>
</g>
</g>
<g id="kvg:StrokeNumbers_0606f-Kaisho" style="font-size:8;fill:#808080" transform="scale(3.0,3.0)">
	<text style="fill: #bf0909;" transform="matrix(1 0 0 1 45.50 9.50)">1</text>
	<text style="fill: #bf7609;" transform="matrix(1 0 0 1 30.50 36.50)">2</text>
	<text style="fill: #9abf09;" transform="matrix(1 0 0 1 37.50 24.13)">3</text>
	<text style="fill: #2dbf09;" transform="matrix(1 0 0 1 41.25 37.63)">4</text>
	<text style="fill: #09bf52;" transform="matrix(1 0 0 1 41.43 49.50)">5</text>
	<text style="fill: #09bfbf;" transform="matrix(1 0 0 1 41.29 61.63)">6</text>
	<text style="fill: #0952bf;" transform="matrix(1 0 0 1 19.50 76.63)">7</text>
	<text style="fill: #2d09bf;" transform="matrix(1 0 0 1 29.25 75.77)">8</text>
	<text style="fill: #9a09bf;" transform="matrix(1 0 0 1 45.75 75.50)">9</text>
	<text style="fill: #bf0976;" transform="matrix(1 0 0 1 73.50 74.50)">10</text>
</g>
</svg>
