<?xml version="1.0" encoding="UTF-8"?>
<!--
This file has been modified from the original version by the kanji_colorize.py
script (available at http://github.com/cayennes/kanji-colorize) with these
settings:
    mode: spectrum
    saturation: 0.95
    value: 0.75
    image_size: 327
It remains under a Creative Commons-Attribution-Share Alike 3.0 License.

The original SVG has the following copyright:

Copyright (C) 2009/2010/2011 Ulrich Apel.
This work is distributed under the conditions of the Creative Commons
Attribution-Share Alike 3.0 Licence. This means you are free:
* to Share - to copy, distribute and transmit the work
* to Remix - to adapt the work

Under the following conditions:
* Attribution. You must attribute the work by stating your use of KanjiVG in
  your own copyright header and linking to KanjiVG's website
  (http://kanjivg.tagaini.net)
* Share Alike. If you alter, transform, or build upon this work, you may
  distribute the resulting work only under the same or similar license to this
  one.

See http://creativecommons.org/licenses/by-sa/3.0/ for more details.
-->
<!DOCTYPE svg PUBLIC "-//W3C//DTD SVG 1.0//EN" "http://www.w3.org/TR/2001/REC-SVG-20010904/DTD/svg10.dtd" [
<!ATTLIST g
xmlns:kvg CDATA #FIXED "http://kanjivg.tagaini.net"
kvg:element CDATA #IMPLIED
kvg:variant CDATA #IMPLIED
kvg:partial CDATA #IMPLIED
kvg:original CDATA #IMPLIED
kvg:part CDATA #IMPLIED
kvg:number CDATA #IMPLIED
kvg:tradForm CDATA #IMPLIED
kvg:radicalForm CDATA #IMPLIED
kvg:position CDATA #IMPLIED
kvg:radical CDATA #IMPLIED
kvg:phon CDATA #IMPLIED >
<!ATTLIST path
xmlns:kvg CDATA #FIXED "http://kanjivg.tagaini.net"
kvg:type CDATA #IMPLIED >
]>
<svg xmlns="http://www.w3.org/2000/svg" width="327" height = "327" viewBox="0 0 327 327">
<g id="kvg:StrokePaths_063a5-Kaisho" style="fill:none;stroke:#000000;stroke-width:3;stroke-linecap:round;stroke-linejoin:round;" transform="scale(3.0,3.0)">
<g id="kvg:063a5-Kaisho" kvg:element="接">
	<g id="kvg:063a5-Kaisho-g1" kvg:element="扌" kvg:variant="true" kvg:original="手" kvg:position="left" kvg:radical="general">
		<path style="stroke: #bf0909;" id="kvg:063a5-Kaisho-s1" kvg:type="㇐" d="M15.5,38.42c2.08,0.25,1.27,0.55,3.5,0.25c5.5-0.75,15.5-2.5,24.67-3.67"/>
		<path style="stroke: #bf6c09;" id="kvg:063a5-Kaisho-s2" kvg:type="㇚" d="M31.27,14.5c0.48,0.92,1.76,2.49,1.76,5.52c0,15.23,0.24,52.46,0.24,63.9c0,14.25-6.32,3.53-7.77,2"/>
		<path style="stroke: #aebf09;" id="kvg:063a5-Kaisho-s3" kvg:type="㇀" d="M12,65.18c1.25,1.78,3.83,1.61,6.5-0.18c5-3.36,11.25-7.67,22.5-15.75"/>
	</g>
	<g id="kvg:063a5-Kaisho-g2" kvg:element="妾" kvg:position="right">
		<g id="kvg:063a5-Kaisho-g3" kvg:element="立" kvg:position="top">
			<g id="kvg:063a5-Kaisho-g4" kvg:element="亠" kvg:position="top">
				<path style="stroke: #4bbf09;" id="kvg:063a5-Kaisho-s4" kvg:type="㇑a" d="M62.52,12.75c2.28,1.69,5.24,4.78,6.89,8.24"/>
				<path style="stroke: #09bf2a;" id="kvg:063a5-Kaisho-s5" kvg:type="㇐" d="M47.75,27.3c0.76,0.21,1.65,0.25,2.41,0.21c4.29-0.18,27.97-2.94,34.46-3.09c1.27-0.03,2.03,0.1,2.66,0.21"/>
			</g>
			<g id="kvg:063a5-Kaisho-g5" kvg:position="bottom">
				<path style="stroke: #09bf8d;" id="kvg:063a5-Kaisho-s6" kvg:type="㇔" d="M55.06,32.53c3.31,3.7,4.82,7.48,5.12,9.92"/>
				<path style="stroke: #098dbf;" id="kvg:063a5-Kaisho-s7" kvg:type="㇒" d="M77.13,27.82c0.64,0.57,0.71,0.86,0.64,1.33c-0.51,3.24-5.21,13.54-6.48,16.02"/>
				<path style="stroke: #092abf;" id="kvg:063a5-Kaisho-s8" kvg:type="㇐" d="M43.19,46.97c0.95,0.25,2.07,0.35,3.02,0.25c10.39-1.1,32.34-3.03,44.37-3.55c1.59-0.07,2.54,0.12,3.34,0.25"/>
			</g>
		</g>
		<g id="kvg:063a5-Kaisho-g6" kvg:element="女" kvg:position="bottom">
			<path style="stroke: #4b09bf;" id="kvg:063a5-Kaisho-s9" kvg:type="㇛" d="M64.07,49.24c0.37,1.07,0.25,2.48-0.18,3.76C61.72,59.43,57,68.66,52.02,75.77c-0.73,1.04-0.19,1.86,0.56,1.87c12.92,0.11,26.17,5.61,36.77,16.07"/>
			<path style="stroke: #ae09bf;" id="kvg:063a5-Kaisho-s10" kvg:type="㇒" d="M79.75,57.88c0.09,0.89,0.16,3.05-0.19,4.34c-2.88,10.43-11.17,24.77-31.73,32.53"/>
			<path style="stroke: #bf096c;" id="kvg:063a5-Kaisho-s11" kvg:type="㇐" d="M41.29,65.53c0.76,0.28,2.15,0.35,2.91,0.28c12.05-1.06,31.55-3.31,47.41-3.56c1.26-0.02,3.44,0.27,4.47,0.77"/>
		</g>
	</g>
</g>
</g>
<g id="kvg:StrokeNumbers_063a5-Kaisho" style="font-size:8;fill:#808080" transform="scale(3.0,3.0)">
	<text style="fill: #bf0909;" transform="matrix(1 0 0 1 8.50 39.50)">1</text>
	<text style="fill: #bf6c09;" transform="matrix(1 0 0 1 22.50 15.50)">2</text>
	<text style="fill: #aebf09;" transform="matrix(1 0 0 1 5.25 68.50)">3</text>
	<text style="fill: #4bbf09;" transform="matrix(1 0 0 1 56.50 12.50)">4</text>
	<text style="fill: #09bf2a;" transform="matrix(1 0 0 1 47.25 24.05)">5</text>
	<text style="fill: #09bf8d;" transform="matrix(1 0 0 1 48.75 37.50)">6</text>
	<text style="fill: #098dbf;" transform="matrix(1 0 0 1 69.50 34.50)">7</text>
	<text style="fill: #092abf;" transform="matrix(1 0 0 1 43.50 44.50)">8</text>
	<text style="fill: #4b09bf;" transform="matrix(1 0 0 1 55.50 55.50)">9</text>
	<text style="fill: #ae09bf;" transform="matrix(1 0 0 1 75.50 54.50)">10</text>
	<text style="fill: #bf096c;" transform="matrix(1 0 0 1 39.50 62.50)">11</text>
</g>
</svg>
