<?xml version="1.0" encoding="UTF-8"?>
<!--
This file has been modified from the original version by the kanji_colorize.py
script (available at http://github.com/cayennes/kanji-colorize) with these
settings:
    mode: spectrum
    saturation: 0.95
    value: 0.75
    image_size: 327
It remains under a Creative Commons-Attribution-Share Alike 3.0 License.

The original SVG has the following copyright:

Copyright (C) 2009/2010/2011 Ulrich Apel.
This work is distributed under the conditions of the Creative Commons
Attribution-Share Alike 3.0 Licence. This means you are free:
* to Share - to copy, distribute and transmit the work
* to Remix - to adapt the work

Under the following conditions:
* Attribution. You must attribute the work by stating your use of KanjiVG in
  your own copyright header and linking to KanjiVG's website
  (http://kanjivg.tagaini.net)
* Share Alike. If you alter, transform, or build upon this work, you may
  distribute the resulting work only under the same or similar license to this
  one.

See http://creativecommons.org/licenses/by-sa/3.0/ for more details.
-->
<!DOCTYPE svg PUBLIC "-//W3C//DTD SVG 1.0//EN" "http://www.w3.org/TR/2001/REC-SVG-20010904/DTD/svg10.dtd" [
<!ATTLIST g
xmlns:kvg CDATA #FIXED "http://kanjivg.tagaini.net"
kvg:element CDATA #IMPLIED
kvg:variant CDATA #IMPLIED
kvg:partial CDATA #IMPLIED
kvg:original CDATA #IMPLIED
kvg:part CDATA #IMPLIED
kvg:number CDATA #IMPLIED
kvg:tradForm CDATA #IMPLIED
kvg:radicalForm CDATA #IMPLIED
kvg:position CDATA #IMPLIED
kvg:radical CDATA #IMPLIED
kvg:phon CDATA #IMPLIED >
<!ATTLIST path
xmlns:kvg CDATA #FIXED "http://kanjivg.tagaini.net"
kvg:type CDATA #IMPLIED >
]>
<svg xmlns="http://www.w3.org/2000/svg" width="327" height = "327" viewBox="0 0 327 327">
<g id="kvg:StrokePaths_06557-Kaisho" style="fill:none;stroke:#000000;stroke-width:3;stroke-linecap:round;stroke-linejoin:round;" transform="scale(3.0,3.0)">
<g id="kvg:06557-Kaisho" kvg:element="敗">
	<g id="kvg:06557-Kaisho-g1" kvg:element="貝" kvg:position="left" kvg:radical="nelson">
		<g id="kvg:06557-Kaisho-g2" kvg:element="目" kvg:position="top">
			<path style="stroke: #bf0909;" id="kvg:06557-Kaisho-s1" kvg:type="㇑" d="M19.19,23.54c0.36,1.1,0.88,1.92,0.88,3.39s-0.24,40.4-0.24,41.13c0,0.73,0.12,1.73,0.24,3.2"/>
			<path style="stroke: #bf6c09;" id="kvg:06557-Kaisho-s2" kvg:type="㇕a" d="M20.67,25c2.03-0.18,17.51-3.53,19.36-3.75c1.54-0.18,2.76,1.03,2.63,2.39c-0.17,1.73-0.6,26.26-0.6,42.42c0,1.66-0.12,1.39-0.12,2.49"/>
			<path style="stroke: #aebf09;" id="kvg:06557-Kaisho-s3" kvg:type="㇐a" d="M20.63,39.51c3.34,0,6.83-0.93,10.1-1.49c1.09-0.19,2.18-0.37,3.22-0.55"/>
			<path style="stroke: #4bbf09;" id="kvg:06557-Kaisho-s4" kvg:type="㇐a" d="M20.8,53.03c3.2,0,6.94-0.65,10.09-1.1c0.96-0.14,1.94-0.28,2.9-0.4"/>
			<path style="stroke: #09bf2a;" id="kvg:06557-Kaisho-s5" kvg:type="㇐a" d="M21.32,68.62c4.04,0,14.84-2.2,20.06-2.2"/>
		</g>
		<g id="kvg:06557-Kaisho-g3" kvg:position="bottom">
			<path style="stroke: #09bf8d;" id="kvg:06557-Kaisho-s6" kvg:type="㇒" d="M26.3,76.99c0.26,1.03,0.52,1.3,0,2.05c-1.57,2.26-7.42,7.79-10.57,10.46"/>
			<path style="stroke: #098dbf;" id="kvg:06557-Kaisho-s7" kvg:type="㇔" d="M38.19,75.94c2.88,3.08,6.29,8.66,7.08,11.35"/>
		</g>
	</g>
	<g id="kvg:06557-Kaisho-g4" kvg:element="攴" kvg:variant="true" kvg:original="攵" kvg:position="right" kvg:radical="tradit">
		<g id="kvg:06557-Kaisho-g5" kvg:position="top">
			<path style="stroke: #092abf;" id="kvg:06557-Kaisho-s8" kvg:type="㇒" d="M64.47,18.64c0.04,0.78,0.28,2.05-0.09,3.12c-2.35,6.85-7.63,20.37-15.76,29.85"/>
			<path style="stroke: #4b09bf;" id="kvg:06557-Kaisho-s9" kvg:type="㇐" d="M58.48,39.21c0.54,0.37,1.53,0.41,2.08,0.37c5.64-0.42,15.75-3.56,24.37-4.24c0.97-0.08,1.56-0.02,1.81,0.07"/>
		</g>
		<g id="kvg:06557-Kaisho-g6" kvg:element="乂" kvg:position="bottom">
			<g id="kvg:06557-Kaisho-g7" kvg:element="丿">
				<path style="stroke: #ae09bf;" id="kvg:06557-Kaisho-s10" kvg:type="㇒" d="M77.89,40.64c0.49,1.22,0.84,2.12,0.25,4.34C72.75,65.25,66.25,79.25,49.38,90.5"/>
			</g>
			<path style="stroke: #bf096c;" id="kvg:06557-Kaisho-s11" kvg:type="㇏" d="M55.16,50.69C58.5,51.5,79.51,81.1,89.78,89.25c1.98,1.57,3.24,1.83,4.85,2"/>
		</g>
	</g>
</g>
</g>
<g id="kvg:StrokeNumbers_06557-Kaisho" style="font-size:8;fill:#808080" transform="scale(3.0,3.0)">
	<text style="fill: #bf0909;" transform="matrix(1 0 0 1 13.50 31.63)">1</text>
	<text style="fill: #bf6c09;" transform="matrix(1 0 0 1 23.25 21.35)">2</text>
	<text style="fill: #aebf09;" transform="matrix(1 0 0 1 24.75 34.78)">3</text>
	<text style="fill: #4bbf09;" transform="matrix(1 0 0 1 24.75 49.50)">4</text>
	<text style="fill: #09bf2a;" transform="matrix(1 0 0 1 24.75 65.50)">5</text>
	<text style="fill: #09bf8d;" transform="matrix(1 0 0 1 16.50 81.13)">6</text>
	<text style="fill: #098dbf;" transform="matrix(1 0 0 1 31.50 76.50)">7</text>
	<text style="fill: #092abf;" transform="matrix(1 0 0 1 55.50 18.50)">8</text>
	<text style="fill: #4b09bf;" transform="matrix(1 0 0 1 65.25 36.50)">9</text>
	<text style="fill: #ae09bf;" transform="matrix(1 0 0 1 67.50 48.50)">10</text>
	<text style="fill: #bf096c;" transform="matrix(1 0 0 1 48.94 59.46)">11</text>
</g>
</svg>
