<?xml version="1.0" encoding="UTF-8"?>
<!--
This file has been modified from the original version by the kanji_colorize.py
script (available at http://github.com/cayennes/kanji-colorize) with these
settings:
    mode: spectrum
    saturation: 0.95
    value: 0.75
    image_size: 327
It remains under a Creative Commons-Attribution-Share Alike 3.0 License.

The original SVG has the following copyright:

Copyright (C) 2009/2010/2011 Ulrich Apel.
This work is distributed under the conditions of the Creative Commons
Attribution-Share Alike 3.0 Licence. This means you are free:
* to Share - to copy, distribute and transmit the work
* to Remix - to adapt the work

Under the following conditions:
* Attribution. You must attribute the work by stating your use of KanjiVG in
  your own copyright header and linking to KanjiVG's website
  (http://kanjivg.tagaini.net)
* Share Alike. If you alter, transform, or build upon this work, you may
  distribute the resulting work only under the same or similar license to this
  one.

See http://creativecommons.org/licenses/by-sa/3.0/ for more details.
-->
<!DOCTYPE svg PUBLIC "-//W3C//DTD SVG 1.0//EN" "http://www.w3.org/TR/2001/REC-SVG-20010904/DTD/svg10.dtd" [
<!ATTLIST g
xmlns:kvg CDATA #FIXED "http://kanjivg.tagaini.net"
kvg:element CDATA #IMPLIED
kvg:variant CDATA #IMPLIED
kvg:partial CDATA #IMPLIED
kvg:original CDATA #IMPLIED
kvg:part CDATA #IMPLIED
kvg:number CDATA #IMPLIED
kvg:tradForm CDATA #IMPLIED
kvg:radicalForm CDATA #IMPLIED
kvg:position CDATA #IMPLIED
kvg:radical CDATA #IMPLIED
kvg:phon CDATA #IMPLIED >
<!ATTLIST path
xmlns:kvg CDATA #FIXED "http://kanjivg.tagaini.net"
kvg:type CDATA #IMPLIED >
]>
<svg xmlns="http://www.w3.org/2000/svg" width="327" height = "327" viewBox="0 0 327 327">
<g id="kvg:StrokePaths_06575-Kaisho" style="fill:none;stroke:#000000;stroke-width:3;stroke-linecap:round;stroke-linejoin:round;" transform="scale(3.0,3.0)">
<g id="kvg:06575-Kaisho" kvg:element="敵">
	<g id="kvg:06575-Kaisho-g1" kvg:position="left">
		<g id="kvg:06575-Kaisho-g2" kvg:element="亠">
			<path style="stroke: #bf0909;" id="kvg:06575-Kaisho-s1" kvg:type="㇑a" d="M27.25,13.75c2.17,1.5,5.15,4,6.5,7.5"/>
			<path style="stroke: #bf5209;" id="kvg:06575-Kaisho-s2" kvg:type="㇐" d="M11,28.7c1.16,0.33,2.53,0.38,3.68,0.33c6.57-0.28,24.07-4.03,33.99-4.27c1.94-0.05,3.1,0.16,4.07,0.32"/>
		</g>
		<path style="stroke: #bf9a09;" id="kvg:06575-Kaisho-s3" kvg:type="㇔" d="M20,30.5c2.59,3.92,3.76,7.92,4,10.5"/>
		<path style="stroke: #9abf09;" id="kvg:06575-Kaisho-s4" kvg:type="㇒" d="M41.23,28.5c0.54,0.4,0.6,0.61,0.54,0.94c-0.43,2.29-4.44,9.56-5.53,11.31"/>
		<g id="kvg:06575-Kaisho-g3" kvg:element="冂">
			<path style="stroke: #52bf09;" id="kvg:06575-Kaisho-s5" kvg:type="㇑" d="M12.75,43.73c0.4,0.77,0.67,2,0.54,3.38c-0.13,1.38,0.13,42.08,0.13,44.39"/>
			<path style="stroke: #09bf09;" id="kvg:06575-Kaisho-s6" kvg:type="㇆a" d="M13.29,45.27c5.09-0.61,33-3.36,34-3.57c2.14-0.46,3.72,1.62,3.48,2.34c-0.4,1.23-0.4,41.09-0.4,44.62c0,5.68-2.28,2.92-3.88,0.92"/>
		</g>
		<g id="kvg:06575-Kaisho-g4" kvg:element="古">
			<g id="kvg:06575-Kaisho-g5" kvg:element="十" kvg:position="top">
				<path style="stroke: #09bf52;" id="kvg:06575-Kaisho-s7" kvg:type="㇐" d="M19,55.81c0.31,0.11,1.15,0.4,1.97,0.32c3.4-0.32,16.84-2.56,21.72-2.56c0.83,0,1.04-0.11,1.56,0"/>
				<path style="stroke: #09bf9a;" id="kvg:06575-Kaisho-s8" kvg:type="㇑a" d="M30.2,46.5c1.05,1,1.75,3.79,1.75,3.88c0.05,6.12,0,12.64-0.08,15.3"/>
			</g>
			<g id="kvg:06575-Kaisho-g6" kvg:element="口" kvg:position="bottom">
				<path style="stroke: #099abf;" id="kvg:06575-Kaisho-s9" kvg:type="㇑" d="M22.69,66.54c0.15,0.39,0.33,0.65,0.38,0.95c0.38,2.15,1.72,9.44,2.25,13.5"/>
				<path style="stroke: #0952bf;" id="kvg:06575-Kaisho-s10" kvg:type="㇕b" d="M23.46,67.17c4.23-0.43,13.24-1.53,16.12-1.6c1.19-0.03,1.84,0.61,1.73,1.26c-0.39,2.47-1.16,6.2-1.81,9.48"/>
				<path style="stroke: #0909bf;" id="kvg:06575-Kaisho-s11" kvg:type="㇐b" d="M25.04,78.4c3.5-0.18,10.79-1.53,14.99-1.76"/>
			</g>
		</g>
	</g>
	<g id="kvg:06575-Kaisho-g7" kvg:element="攴" kvg:variant="true" kvg:original="攵" kvg:position="right" kvg:radical="general">
		<g id="kvg:06575-Kaisho-g8" kvg:position="top">
			<path style="stroke: #5209bf;" id="kvg:06575-Kaisho-s12" kvg:type="㇒" d="M68.56,14.64c0.03,0.84,0.2,2.21-0.06,3.37c-1.68,7.4-5.45,22-11.25,32.24"/>
			<path style="stroke: #9a09bf;" id="kvg:06575-Kaisho-s13" kvg:type="㇐" d="M65.5,39.76c0.48,0.37,1.36,0.41,1.84,0.37c4.99-0.42,13.93-3.55,21.56-4.23c0.86-0.08,1.38-0.02,1.6,0.07"/>
		</g>
		<g id="kvg:06575-Kaisho-g9" kvg:element="乂" kvg:position="bottom">
			<g id="kvg:06575-Kaisho-g10" kvg:element="丿">
				<path style="stroke: #bf099a;" id="kvg:06575-Kaisho-s14" kvg:type="㇒" d="M77.76,41.93c0.35,1.22,0.54,2.09,0.17,4.31c-3.3,20.2-10.77,36.77-21.68,45.26"/>
			</g>
			<path style="stroke: #bf0952;" id="kvg:06575-Kaisho-s15" kvg:type="㇏" d="M57.54,54.76c2.49,0.62,25.37,26.54,36.3,33.53c2.1,1.35,3.44,1.57,5.16,1.71"/>
		</g>
	</g>
</g>
</g>
<g id="kvg:StrokeNumbers_06575-Kaisho" style="font-size:8;fill:#808080" transform="scale(3.0,3.0)">
	<text style="fill: #bf0909;" transform="matrix(1 0 0 1 21.75 14.50)">1</text>
	<text style="fill: #bf5209;" transform="matrix(1 0 0 1 3.50 28.50)">2</text>
	<text style="fill: #bf9a09;" transform="matrix(1 0 0 1 15.50 36.50)">3</text>
	<text style="fill: #9abf09;" transform="matrix(1 0 0 1 33.50 34.40)">4</text>
	<text style="fill: #52bf09;" transform="matrix(1 0 0 1 6.50 53.50)">5</text>
	<text style="fill: #09bf09;" transform="matrix(1 0 0 1 15.75 42.13)">6</text>
	<text style="fill: #09bf52;" transform="matrix(1 0 0 1 18.50 53.50)">7</text>
	<text style="fill: #09bf9a;" transform="matrix(1 0 0 1 24.50 52.50)">8</text>
	<text style="fill: #099abf;" transform="matrix(1 0 0 1 17.50 77.50)">9</text>
	<text style="fill: #0952bf;" transform="matrix(1 0 0 1 20.70 64.55)">10</text>
	<text style="fill: #0909bf;" transform="matrix(1 0 0 1 27.50 75.50)">11</text>
	<text style="fill: #5209bf;" transform="matrix(1 0 0 1 57.50 14.50)">12</text>
	<text style="fill: #9a09bf;" transform="matrix(1 0 0 1 68.50 35.50)">13</text>
	<text style="fill: #bf099a;" transform="matrix(1 0 0 1 68.50 47.50)">14</text>
	<text style="fill: #bf0952;" transform="matrix(1 0 0 1 60.50 55.40)">15</text>
</g>
</svg>
