<?xml version="1.0" encoding="UTF-8"?>
<!--
This file has been modified from the original version by the kanji_colorize.py
script (available at http://github.com/cayennes/kanji-colorize) with these
settings:
    mode: spectrum
    saturation: 0.95
    value: 0.75
    image_size: 327
It remains under a Creative Commons-Attribution-Share Alike 3.0 License.

The original SVG has the following copyright:

Copyright (C) 2009/2010/2011 Ulrich Apel.
This work is distributed under the conditions of the Creative Commons
Attribution-Share Alike 3.0 Licence. This means you are free:
* to Share - to copy, distribute and transmit the work
* to Remix - to adapt the work

Under the following conditions:
* Attribution. You must attribute the work by stating your use of KanjiVG in
  your own copyright header and linking to KanjiVG's website
  (http://kanjivg.tagaini.net)
* Share Alike. If you alter, transform, or build upon this work, you may
  distribute the resulting work only under the same or similar license to this
  one.

See http://creativecommons.org/licenses/by-sa/3.0/ for more details.
-->
<!DOCTYPE svg PUBLIC "-//W3C//DTD SVG 1.0//EN" "http://www.w3.org/TR/2001/REC-SVG-20010904/DTD/svg10.dtd" [
<!ATTLIST g
xmlns:kvg CDATA #FIXED "http://kanjivg.tagaini.net"
kvg:element CDATA #IMPLIED
kvg:variant CDATA #IMPLIED
kvg:partial CDATA #IMPLIED
kvg:original CDATA #IMPLIED
kvg:part CDATA #IMPLIED
kvg:number CDATA #IMPLIED
kvg:tradForm CDATA #IMPLIED
kvg:radicalForm CDATA #IMPLIED
kvg:position CDATA #IMPLIED
kvg:radical CDATA #IMPLIED
kvg:phon CDATA #IMPLIED >
<!ATTLIST path
xmlns:kvg CDATA #FIXED "http://kanjivg.tagaini.net"
kvg:type CDATA #IMPLIED >
]>
<svg xmlns="http://www.w3.org/2000/svg" width="327" height = "327" viewBox="0 0 327 327">
<g id="kvg:StrokePaths_06577-KaishoVtLst" style="fill:none;stroke:#000000;stroke-width:3;stroke-linecap:round;stroke-linejoin:round;" transform="scale(3.0,3.0)">
<g id="kvg:06577-KaishoVtLst" kvg:element="敷">
	<g id="kvg:06577-KaishoVtLst-g1" kvg:position="left">
		<g id="kvg:06577-KaishoVtLst-g2" kvg:element="甫" kvg:variant="true" kvg:position="top">
			<path style="stroke: #bf0909;" id="kvg:06577-KaishoVtLst-s1" kvg:type="㇐" d="M14.17,25.77c0.87,0.38,2.48,0.4,3.35,0.38c5.67-0.12,22.3-2.65,27.65-3.42c1.45-0.21,2.33,0.18,3.06,0.37"/>
			<g id="kvg:06577-KaishoVtLst-g3" kvg:element="用" kvg:variant="true">
				<path style="stroke: #bf5209;" id="kvg:06577-KaishoVtLst-s2" kvg:type="㇑" d="M15.4,34.63c0.44,0.47,0.81,1.95,0.88,2.45c0.41,2.8,2.34,14.76,2.35,18.98"/>
				<path style="stroke: #bf9a09;" id="kvg:06577-KaishoVtLst-s3" kvg:type="㇕" d="M17.58,36.39c6.45-1.19,27.54-3.42,28.81-3.42c1.27,0,2.94,0.75,2.52,2.75c-0.42,2-0.83,7.24-3.3,17.36"/>
				<path style="stroke: #9abf09;" id="kvg:06577-KaishoVtLst-s4" kvg:type="㇐" d="M17.58,44.94c6.44-0.4,12.86-1.35,19.26-2.12c0.69-0.08,1.37-0.16,2.03-0.24"/>
				<path style="stroke: #52bf09;" id="kvg:06577-KaishoVtLst-s5" kvg:type="㇐" d="M19.81,54.23c4.7-0.35,19.69-1.98,25.13-2.21"/>
			</g>
		</g>
		<g id="kvg:06577-KaishoVtLst-g4" kvg:element="方" kvg:position="bottom">
			<g id="kvg:06577-KaishoVtLst-g5" kvg:element="亠" kvg:position="top">
				<path style="stroke: #09bf09;" id="kvg:06577-KaishoVtLst-s6" kvg:type="㇑a" d="M30.18,57.02c1.66,0.84,3.82,3.48,4.4,5.77"/>
				<path style="stroke: #09bf52;" id="kvg:06577-KaishoVtLst-s7" kvg:type="㇐" d="M10.73,68.97c0.73,0.05,2.4,0.35,3.11,0.28c5.74-0.59,27.92-3.52,35.72-3.93c1.2-0.06,1.82,0.03,2.72,0.36"/>
			</g>
			<g id="kvg:06577-KaishoVtLst-g6" kvg:position="bottom">
				<path style="stroke: #09bf9a;" id="kvg:06577-KaishoVtLst-s8" kvg:type="㇆a" d="M31.86,74.11C35,74.75,37,75.5,40.59,76.43c1.71,0.44,2.24,0.88,2.14,2.24c-0.26,3.59-5.8,13.3-7.99,16.23c-2.37,3.17-3.96-0.12-4.67-0.55"/>
				<path style="stroke: #099abf;" id="kvg:06577-KaishoVtLst-s9" kvg:type="㇒" d="M31.23,68.04c0.05,0.6,0.21,1.59-0.1,2.43c-2.14,5.8-8.08,17.77-17.72,23.25"/>
			</g>
		</g>
		<path style="stroke: #0952bf;" id="kvg:06577-KaishoVtLst-s10" kvg:type="㇑" d="M30.16,12.61c0.92,0.41,1.65,1.84,1.65,2.69c0,7.41,0.29,23.25,0.29,36.79"/>
		<g id="kvg:06577-KaishoVtLst-g7" kvg:element="丶">
			<path style="stroke: #0909bf;" id="kvg:06577-KaishoVtLst-s11" kvg:type="㇔" d="M45.76,12.5c2.86,1.34,7.4,5.53,8.11,7.62"/>
		</g>
	</g>
	<g id="kvg:06577-KaishoVtLst-g8" kvg:element="攴" kvg:variant="true" kvg:original="攵" kvg:position="right" kvg:radical="general">
		<g id="kvg:06577-KaishoVtLst-g9" kvg:position="top">
			<path style="stroke: #5209bf;" id="kvg:06577-KaishoVtLst-s12" kvg:type="㇒" d="M67.18,14.39c0.04,0.84,0.19,2.21-0.07,3.39c-1.92,8.55-6.22,23.02-12.85,33.33"/>
			<path style="stroke: #9a09bf;" id="kvg:06577-KaishoVtLst-s13" kvg:type="㇐" d="M64.08,38.13c1.09,0.32,3.11,0,3.7-0.04c6.09-0.51,13.06-3.82,22.36-4.64c1.05-0.09,1.69-0.02,1.96,0.08"/>
		</g>
		<g id="kvg:06577-KaishoVtLst-g10" kvg:element="乂" kvg:position="bottom">
			<g id="kvg:06577-KaishoVtLst-g11" kvg:element="丿">
				<path style="stroke: #bf099a;" id="kvg:06577-KaishoVtLst-s14" kvg:type="㇒" d="M80.53,39.62c0.54,1.33,0.94,2.31,0.27,4.72C74.75,66,64,82.75,47.09,94.75"/>
			</g>
			<path style="stroke: #bf0952;" id="kvg:06577-KaishoVtLst-s15" kvg:type="㇏" d="M58.9,52.23c1.3,0,2.06,0.96,3.08,2.26c6.96,8.85,19.76,25.96,29.05,34.34c1.71,1.55,3.53,2.57,4.96,2.73"/>
		</g>
	</g>
</g>
</g>
<g id="kvg:StrokeNumbers_06577-KaishoVtLst" style="font-size:8;fill:#808080" transform="scale(3.0,3.0)">
	<text style="fill: #bf0909;" transform="matrix(1 0 0 1 8.00 26.63)">1</text>
	<text style="fill: #bf5209;" transform="matrix(1 0 0 1 9.00 41.00)">2</text>
	<text style="fill: #bf9a09;" transform="matrix(1 0 0 1 19.75 34.13)">3</text>
	<text style="fill: #9abf09;" transform="matrix(1 0 0 1 22.75 43.05)">4</text>
	<text style="fill: #52bf09;" transform="matrix(1 0 0 1 22.75 51.98)">5</text>
	<text style="fill: #09bf09;" transform="matrix(1 0 0 1 23.00 62.00)">6</text>
	<text style="fill: #09bf52;" transform="matrix(1 0 0 1 3.25 70.13)">7</text>
	<text style="fill: #09bf9a;" transform="matrix(1 0 0 1 41.00 75.00)">8</text>
	<text style="fill: #099abf;" transform="matrix(1 0 0 1 19.00 78.00)">9</text>
	<text style="fill: #0952bf;" transform="matrix(1 0 0 1 18.75 13.13)">10</text>
	<text style="fill: #0909bf;" transform="matrix(1 0 0 1 36.75 11.13)">11</text>
	<text style="fill: #5209bf;" transform="matrix(1 0 0 1 55.00 13.00)">12</text>
	<text style="fill: #9a09bf;" transform="matrix(1 0 0 1 67.00 34.05)">13</text>
	<text style="fill: #bf099a;" transform="matrix(1 0 0 1 70.00 46.00)">14</text>
	<text style="fill: #bf0952;" transform="matrix(1 0 0 1 65.00 56.00)">15</text>
</g>
</svg>
