<?xml version="1.0" encoding="UTF-8"?>
<!--
This file has been modified from the original version by the kanji_colorize.py
script (available at http://github.com/cayennes/kanji-colorize) with these
settings:
    mode: spectrum
    saturation: 0.95
    value: 0.75
    image_size: 327
It remains under a Creative Commons-Attribution-Share Alike 3.0 License.

The original SVG has the following copyright:

Copyright (C) 2009/2010/2011 Ulrich Apel.
This work is distributed under the conditions of the Creative Commons
Attribution-Share Alike 3.0 Licence. This means you are free:
* to Share - to copy, distribute and transmit the work
* to Remix - to adapt the work

Under the following conditions:
* Attribution. You must attribute the work by stating your use of KanjiVG in
  your own copyright header and linking to KanjiVG's website
  (http://kanjivg.tagaini.net)
* Share Alike. If you alter, transform, or build upon this work, you may
  distribute the resulting work only under the same or similar license to this
  one.

See http://creativecommons.org/licenses/by-sa/3.0/ for more details.
-->
<!DOCTYPE svg PUBLIC "-//W3C//DTD SVG 1.0//EN" "http://www.w3.org/TR/2001/REC-SVG-20010904/DTD/svg10.dtd" [
<!ATTLIST g
xmlns:kvg CDATA #FIXED "http://kanjivg.tagaini.net"
kvg:element CDATA #IMPLIED
kvg:variant CDATA #IMPLIED
kvg:partial CDATA #IMPLIED
kvg:original CDATA #IMPLIED
kvg:part CDATA #IMPLIED
kvg:number CDATA #IMPLIED
kvg:tradForm CDATA #IMPLIED
kvg:radicalForm CDATA #IMPLIED
kvg:position CDATA #IMPLIED
kvg:radical CDATA #IMPLIED
kvg:phon CDATA #IMPLIED >
<!ATTLIST path
xmlns:kvg CDATA #FIXED "http://kanjivg.tagaini.net"
kvg:type CDATA #IMPLIED >
]>
<svg xmlns="http://www.w3.org/2000/svg" width="327" height = "327" viewBox="0 0 327 327">
<g id="kvg:StrokePaths_06599-Kaisho" style="fill:none;stroke:#000000;stroke-width:3;stroke-linecap:round;stroke-linejoin:round;" transform="scale(3.0,3.0)">
<g id="kvg:06599-Kaisho" kvg:element="料">
	<g id="kvg:06599-Kaisho-g1" kvg:element="米" kvg:variant="true" kvg:position="left" kvg:radical="nelson">
		<path style="stroke: #bf0909;" id="kvg:06599-Kaisho-s1" kvg:type="㇔" d="M14.69,24.64c3.01,2.68,7.56,10.25,8.31,14.41"/>
		<path style="stroke: #bf7609;" id="kvg:06599-Kaisho-s2" kvg:type="㇒" d="M48.26,19.22c0.03,0.41,0.05,1.05-0.05,1.64c-0.61,3.46-4.1,11.04-8.89,15.68"/>
		<path style="stroke: #9abf09;" id="kvg:06599-Kaisho-s3" kvg:type="㇐" d="M12.1,47.83c0.63,0.25,2.32,0.9,3.99,0.76c6.02-0.5,22.8-4.13,29.61-4.95c1.67-0.2,2.1-0.25,3.15,0"/>
		<path style="stroke: #2dbf09;" id="kvg:06599-Kaisho-s4" kvg:type="㇑" d="M30.48,12.71c0.93,0.48,1.49,2.14,1.67,3.1c0.19,0.95-0.19,68.02-0.19,73.98c0,12.71-6.72,2.71-7.97,1.46"/>
		<path style="stroke: #09bf52;" id="kvg:06599-Kaisho-s5" kvg:type="㇒" d="M32.02,47.46C28.5,58.37,19.93,73.68,12,79.98"/>
		<path style="stroke: #09bfbf;" id="kvg:06599-Kaisho-s6" kvg:type="㇔/㇏" d="M35.62,53.57c4.58,2.77,7.95,5.97,9.65,10.65"/>
	</g>
	<g id="kvg:06599-Kaisho-g2" kvg:element="斗" kvg:position="right" kvg:radical="tradit">
		<g id="kvg:06599-Kaisho-g3" kvg:element="丶">
			<path style="stroke: #0952bf;" id="kvg:06599-Kaisho-s7" kvg:type="㇔" d="M59.75,24c3.26,1.23,8.43,5.08,9.25,7"/>
		</g>
		<g id="kvg:06599-Kaisho-g4" kvg:element="丶">
			<path style="stroke: #2d09bf;" id="kvg:06599-Kaisho-s8" kvg:type="㇔" d="M57.5,42.75c3.18,1.06,8.21,4.35,9,6"/>
		</g>
		<path style="stroke: #9a09bf;" id="kvg:06599-Kaisho-s9" kvg:type="㇐" d="M54.75,64.21c0.54,0.34,3,0.77,4.45,0.52c5.93-1.02,25.55-7.24,34.58-8.2c1.45-0.15,2.82-0.34,3.72,0"/>
		<path style="stroke: #bf0976;" id="kvg:06599-Kaisho-s10" kvg:type="㇑" d="M79.37,11.75c1.09,0.5,1.74,2.25,1.96,3.25c0.22,1,0,75.75-0.22,82"/>
	</g>
</g>
</g>
<g id="kvg:StrokeNumbers_06599-Kaisho" style="font-size:8;fill:#808080" transform="scale(3.0,3.0)">
	<text style="fill: #bf0909;" transform="matrix(1 0 0 1 7.99 23.50)">1</text>
	<text style="fill: #bf7609;" transform="matrix(1 0 0 1 40.50 19.50)">2</text>
	<text style="fill: #9abf09;" transform="matrix(1 0 0 1 4.50 49.50)">3</text>
	<text style="fill: #2dbf09;" transform="matrix(1 0 0 1 21.75 13.50)">4</text>
	<text style="fill: #09bf52;" transform="matrix(1 0 0 1 20.50 57.50)">5</text>
	<text style="fill: #09bfbf;" transform="matrix(1 0 0 1 40.50 54.50)">6</text>
	<text style="fill: #0952bf;" transform="matrix(1 0 0 1 54.75 23.50)">7</text>
	<text style="fill: #2d09bf;" transform="matrix(1 0 0 1 54.50 39.50)">8</text>
	<text style="fill: #9a09bf;" transform="matrix(1 0 0 1 52.50 60.50)">9</text>
	<text style="fill: #bf0976;" transform="matrix(1 0 0 1 66.50 12.50)">10</text>
</g>
</svg>
