<?xml version="1.0" encoding="UTF-8"?>
<!--
This file has been modified from the original version by the kanji_colorize.py
script (available at http://github.com/cayennes/kanji-colorize) with these
settings:
    mode: spectrum
    saturation: 0.95
    value: 0.75
    image_size: 327
It remains under a Creative Commons-Attribution-Share Alike 3.0 License.

The original SVG has the following copyright:

Copyright (C) 2009/2010/2011 Ulrich Apel.
This work is distributed under the conditions of the Creative Commons
Attribution-Share Alike 3.0 Licence. This means you are free:
* to Share - to copy, distribute and transmit the work
* to Remix - to adapt the work

Under the following conditions:
* Attribution. You must attribute the work by stating your use of KanjiVG in
  your own copyright header and linking to KanjiVG's website
  (http://kanjivg.tagaini.net)
* Share Alike. If you alter, transform, or build upon this work, you may
  distribute the resulting work only under the same or similar license to this
  one.

See http://creativecommons.org/licenses/by-sa/3.0/ for more details.
-->
<!DOCTYPE svg PUBLIC "-//W3C//DTD SVG 1.0//EN" "http://www.w3.org/TR/2001/REC-SVG-20010904/DTD/svg10.dtd" [
<!ATTLIST g
xmlns:kvg CDATA #FIXED "http://kanjivg.tagaini.net"
kvg:element CDATA #IMPLIED
kvg:variant CDATA #IMPLIED
kvg:partial CDATA #IMPLIED
kvg:original CDATA #IMPLIED
kvg:part CDATA #IMPLIED
kvg:number CDATA #IMPLIED
kvg:tradForm CDATA #IMPLIED
kvg:radicalForm CDATA #IMPLIED
kvg:position CDATA #IMPLIED
kvg:radical CDATA #IMPLIED
kvg:phon CDATA #IMPLIED >
<!ATTLIST path
xmlns:kvg CDATA #FIXED "http://kanjivg.tagaini.net"
kvg:type CDATA #IMPLIED >
]>
<svg xmlns="http://www.w3.org/2000/svg" width="327" height = "327" viewBox="0 0 327 327">
<g id="kvg:StrokePaths_065bc-Kaisho" style="fill:none;stroke:#000000;stroke-width:3;stroke-linecap:round;stroke-linejoin:round;" transform="scale(3.0,3.0)">
<g id="kvg:065bc-Kaisho" kvg:element="於">
	<g id="kvg:065bc-Kaisho-g1" kvg:element="方" kvg:position="left" kvg:radical="general">
		<g id="kvg:065bc-Kaisho-g2" kvg:element="亠" kvg:position="top">
			<path style="stroke: #bf0909;" id="kvg:065bc-Kaisho-s1" kvg:type="㇑a" d="M29.19,17.5c3.85,1.41,8.39,5.54,10.19,9.69"/>
			<path style="stroke: #bf9109;" id="kvg:065bc-Kaisho-s2" kvg:type="㇐" d="M17.47,34.85c0.82,0.34,2.55,0.55,3.31,0.47c7.47-0.82,18.22-2.57,28.36-4.39c1.26-0.23,2.44-0.46,3.39,0.1"/>
		</g>
		<g id="kvg:065bc-Kaisho-g3" kvg:position="bottom">
			<path style="stroke: #64bf09;" id="kvg:065bc-Kaisho-s3" kvg:type="㇆a" d="M32.77,44.98c2.23,0.77,5.42,1.72,8.8,2.5c1.18,0.27,2.07,2.04,1.86,3.51C41.75,62.5,36.75,77.75,30.61,85.8c-3.77,4.94-6.21-0.19-7.32-0.86"/>
			<path style="stroke: #09bf36;" id="kvg:065bc-Kaisho-s4" kvg:type="㇒" d="M33.96,37.26c0.29,1.13,0.23,2.39-0.11,3.66c-2.39,8.73-9.32,26.38-20.08,34.64"/>
		</g>
	</g>
	<g id="kvg:065bc-Kaisho-g4" kvg:position="right">
		<path style="stroke: #09bfbf;" id="kvg:065bc-Kaisho-s5" kvg:type="㇒" d="M68.31,15.75c0.05,0.76,0.21,1.99-0.09,3.05C66.25,25.75,60.25,38.75,52,48"/>
		<path style="stroke: #0936bf;" id="kvg:065bc-Kaisho-s6" kvg:type="㇏" d="M68.25,20.25c3.76,5.35,19.98,22.81,24.13,26.72c1.41,1.33,3.21,1.9,4.62,2.28"/>
		<g id="kvg:065bc-Kaisho-g5" kvg:element="冫" kvg:variant="true">
			<g id="kvg:065bc-Kaisho-g6" kvg:element="丶" kvg:position="top">
				<path style="stroke: #6409bf;" id="kvg:065bc-Kaisho-s7" kvg:type="㇔" d="M62.27,52.58c5.93,2.36,15.31,9.71,16.79,13.38"/>
			</g>
			<g id="kvg:065bc-Kaisho-g7" kvg:element="丶" kvg:position="bottom">
				<path style="stroke: #bf0991;" id="kvg:065bc-Kaisho-s8" kvg:type="㇔" d="M57.27,76.08c9.1,3.24,23.52,13.34,25.79,18.38"/>
			</g>
		</g>
	</g>
</g>
</g>
<g id="kvg:StrokeNumbers_065bc-Kaisho" style="font-size:8;fill:#808080" transform="scale(3.0,3.0)">
	<text style="fill: #bf0909;" transform="matrix(1 0 0 1 26.25 15.25)">1</text>
	<text style="fill: #bf9109;" transform="matrix(1 0 0 1 10.25 35.25)">2</text>
	<text style="fill: #64bf09;" transform="matrix(1 0 0 1 39.25 44.25)">3</text>
	<text style="fill: #09bf36;" transform="matrix(1 0 0 1 26.25 43.25)">4</text>
	<text style="fill: #09bfbf;" transform="matrix(1 0 0 1 60.25 16.08)">5</text>
	<text style="fill: #0936bf;" transform="matrix(1 0 0 1 75.25 25.25)">6</text>
	<text style="fill: #6409bf;" transform="matrix(1 0 0 1 56.25 54.25)">7</text>
	<text style="fill: #bf0991;" transform="matrix(1 0 0 1 50.25 77.25)">8</text>
</g>
</svg>
