<?xml version="1.0" encoding="UTF-8"?>
<!--
This file has been modified from the original version by the kanji_colorize.py
script (available at http://github.com/cayennes/kanji-colorize) with these
settings:
    mode: spectrum
    saturation: 0.95
    value: 0.75
    image_size: 327
It remains under a Creative Commons-Attribution-Share Alike 3.0 License.

The original SVG has the following copyright:

Copyright (C) 2009/2010/2011 Ulrich Apel.
This work is distributed under the conditions of the Creative Commons
Attribution-Share Alike 3.0 Licence. This means you are free:
* to Share - to copy, distribute and transmit the work
* to Remix - to adapt the work

Under the following conditions:
* Attribution. You must attribute the work by stating your use of KanjiVG in
  your own copyright header and linking to KanjiVG's website
  (http://kanjivg.tagaini.net)
* Share Alike. If you alter, transform, or build upon this work, you may
  distribute the resulting work only under the same or similar license to this
  one.

See http://creativecommons.org/licenses/by-sa/3.0/ for more details.
-->
<!DOCTYPE svg PUBLIC "-//W3C//DTD SVG 1.0//EN" "http://www.w3.org/TR/2001/REC-SVG-20010904/DTD/svg10.dtd" [
<!ATTLIST g
xmlns:kvg CDATA #FIXED "http://kanjivg.tagaini.net"
kvg:element CDATA #IMPLIED
kvg:variant CDATA #IMPLIED
kvg:partial CDATA #IMPLIED
kvg:original CDATA #IMPLIED
kvg:part CDATA #IMPLIED
kvg:number CDATA #IMPLIED
kvg:tradForm CDATA #IMPLIED
kvg:radicalForm CDATA #IMPLIED
kvg:position CDATA #IMPLIED
kvg:radical CDATA #IMPLIED
kvg:phon CDATA #IMPLIED >
<!ATTLIST path
xmlns:kvg CDATA #FIXED "http://kanjivg.tagaini.net"
kvg:type CDATA #IMPLIED >
]>
<svg xmlns="http://www.w3.org/2000/svg" width="327" height = "327" viewBox="0 0 327 327">
<g id="kvg:StrokePaths_065ed-Kaisho" style="fill:none;stroke:#000000;stroke-width:3;stroke-linecap:round;stroke-linejoin:round;" transform="scale(3.0,3.0)">
<g id="kvg:065ed-Kaisho" kvg:element="旭">
	<g id="kvg:065ed-Kaisho-g1" kvg:element="九" kvg:position="nyo">
		<path style="stroke: #bf0909;" id="kvg:065ed-Kaisho-s1" kvg:type="㇒" d="M34.26,16.12c0.32,1.64,0.93,2.51,0.87,3.65C32.75,59.25,25,74.25,11.38,91"/>
		<g id="kvg:065ed-Kaisho-g2" kvg:element="乙">
			<path style="stroke: #bfbf09;" id="kvg:065ed-Kaisho-s2" kvg:type="㇈" d="M13.25,40.5c1,0.75,4.75,0.25,6,0s24.88-5.44,26-5.5c2.5-0.12,3.62,0.88,3.25,3.75c-0.75,5.75-3.99,23.23-4.5,33.5c-1,20,11.75,20.37,26.21,20.37C90,92.62,94.22,91.05,94.48,82"/>
		</g>
	</g>
	<g id="kvg:065ed-Kaisho-g3" kvg:element="日" kvg:radical="general">
		<path style="stroke: #09bf09;" id="kvg:065ed-Kaisho-s3" kvg:type="㇑" d="M60,28.06c0.5,1.01,1.01,1.52,1.01,2.87s1.33,38.68,1.5,40.03"/>
		<path style="stroke: #09bfbf;" id="kvg:065ed-Kaisho-s4" kvg:type="㇕a" d="M61.84,29.4c2.84-0.17,20.95-3.66,23.54-3.86c2.16-0.17,3.54,1.87,3.38,2.87c-0.34,2.03-2.26,36.09-3.33,42.05"/>
		<path style="stroke: #0909bf;" id="kvg:065ed-Kaisho-s5" kvg:type="㇐a" d="M62.83,47.33c4.14-0.22,8.27-0.88,12.37-1.47c1.16-0.17,2.31-0.33,3.43-0.49"/>
		<path style="stroke: #bf09bf;" id="kvg:065ed-Kaisho-s6" kvg:type="㇐a" d="M63.01,67.94c5.92-0.34,17.61-2.19,22.27-2.19"/>
	</g>
</g>
</g>
<g id="kvg:StrokeNumbers_065ed-Kaisho" style="font-size:8;fill:#808080" transform="scale(3.0,3.0)">
	<text style="fill: #bf0909;" transform="matrix(1 0 0 1 25.25 16.25)">1</text>
	<text style="fill: #bfbf09;" transform="matrix(1 0 0 1 6.25 41.25)">2</text>
	<text style="fill: #09bf09;" transform="matrix(1 0 0 1 53.25 36.25)">3</text>
	<text style="fill: #09bfbf;" transform="matrix(1 0 0 1 62.25 26.25)">4</text>
	<text style="fill: #0909bf;" transform="matrix(1 0 0 1 67.25 43.25)">5</text>
	<text style="fill: #bf09bf;" transform="matrix(1 0 0 1 67.11 64.25)">6</text>
</g>
</svg>
