<?xml version="1.0" encoding="UTF-8"?>
<!--
This file has been modified from the original version by the kanji_colorize.py
script (available at http://github.com/cayennes/kanji-colorize) with these
settings:
    mode: spectrum
    saturation: 0.95
    value: 0.75
    image_size: 327
It remains under a Creative Commons-Attribution-Share Alike 3.0 License.

The original SVG has the following copyright:

Copyright (C) 2009/2010/2011 Ulrich Apel.
This work is distributed under the conditions of the Creative Commons
Attribution-Share Alike 3.0 Licence. This means you are free:
* to Share - to copy, distribute and transmit the work
* to Remix - to adapt the work

Under the following conditions:
* Attribution. You must attribute the work by stating your use of KanjiVG in
  your own copyright header and linking to KanjiVG's website
  (http://kanjivg.tagaini.net)
* Share Alike. If you alter, transform, or build upon this work, you may
  distribute the resulting work only under the same or similar license to this
  one.

See http://creativecommons.org/licenses/by-sa/3.0/ for more details.
-->
<!DOCTYPE svg PUBLIC "-//W3C//DTD SVG 1.0//EN" "http://www.w3.org/TR/2001/REC-SVG-20010904/DTD/svg10.dtd" [
<!ATTLIST g
xmlns:kvg CDATA #FIXED "http://kanjivg.tagaini.net"
kvg:element CDATA #IMPLIED
kvg:variant CDATA #IMPLIED
kvg:partial CDATA #IMPLIED
kvg:original CDATA #IMPLIED
kvg:part CDATA #IMPLIED
kvg:number CDATA #IMPLIED
kvg:tradForm CDATA #IMPLIED
kvg:radicalForm CDATA #IMPLIED
kvg:position CDATA #IMPLIED
kvg:radical CDATA #IMPLIED
kvg:phon CDATA #IMPLIED >
<!ATTLIST path
xmlns:kvg CDATA #FIXED "http://kanjivg.tagaini.net"
kvg:type CDATA #IMPLIED >
]>
<svg xmlns="http://www.w3.org/2000/svg" width="327" height = "327" viewBox="0 0 327 327">
<g id="kvg:StrokePaths_065e2-Kaisho" style="fill:none;stroke:#000000;stroke-width:3;stroke-linecap:round;stroke-linejoin:round;" transform="scale(3.0,3.0)">
<g id="kvg:065e2-Kaisho" kvg:element="既">
	<g id="kvg:065e2-Kaisho-g1" kvg:element="艮" kvg:variant="true" kvg:position="left" kvg:radical="nelson">
		<path style="stroke: #bf0909;" id="kvg:065e2-Kaisho-s1" kvg:type="㇕" d="M17.7,22.26c1.49-0.1,17.91-3.26,19.26-3.45c2.29-0.32,2.82,1.16,2.77,2.63c-0.23,7.8-0.98,27.05-1.53,31.08"/>
		<path style="stroke: #bf7609;" id="kvg:065e2-Kaisho-s2" kvg:type="㇐" d="M17.96,37.53c3.44-0.48,6.86-1.08,10.28-1.64c0.95-0.15,1.92-0.31,2.87-0.45"/>
		<path style="stroke: #9abf09;" id="kvg:065e2-Kaisho-s3" kvg:type="㇐" d="M17.87,52.6c4.11-0.43,14.38-2.35,20.21-2.97"/>
		<path style="stroke: #2dbf09;" id="kvg:065e2-Kaisho-s4" kvg:type="㇙" d="M15.87,21.01c0.85,0.46,1.36,2.07,1.53,2.99c0.17,0.92,0.36,56.44,0.17,58.72c-0.17,2.07,0.51,0.92-0.51,3.22c-1.02,2.3-1.02,2.76,1.02,1.15C19.8,85.72,36.42,72.45,41,69.75"/>
		<path style="stroke: #09bf52;" id="kvg:065e2-Kaisho-s5" kvg:type="㇔" d="M34.75,62.25c3.5,2.5,8.75,9.25,10.25,15"/>
	</g>
	<g id="kvg:065e2-Kaisho-g2" kvg:element="旡" kvg:variant="true" kvg:original="无" kvg:tradForm="true" kvg:position="right">
		<path style="stroke: #09bfbf;" id="kvg:065e2-Kaisho-s6" kvg:type="㇐" d="M50.25,21c1,0.36,2.85,0.48,3.84,0.36c5.23-0.65,20.02-2.63,27.4-2.95c1.67-0.07,2.67,0.17,3.51,0.35"/>
		<path style="stroke: #0952bf;" id="kvg:065e2-Kaisho-s7" kvg:type="㇑" d="M54.81,23.38c0.76,0.45,1.16,2.35,1.01,3.25c-1.07,6.62-1.32,10.12-3,19"/>
		<path style="stroke: #2d09bf;" id="kvg:065e2-Kaisho-s8" kvg:type="㇐" d="M45.32,47.25c1.18,0.14,2.52,0.21,3.95,0.07C58,46.5,75.5,44.63,86.5,44.56c2-0.01,2.75-0.06,4.83,0.23"/>
		<g id="kvg:065e2-Kaisho-g3" kvg:element="儿">
			<g id="kvg:065e2-Kaisho-g4" kvg:element="八" kvg:variant="true">
				<g id="kvg:065e2-Kaisho-g5" kvg:element="丿" kvg:position="left">
					<path style="stroke: #9a09bf;" id="kvg:065e2-Kaisho-s9" kvg:type="㇒" d="M71.91,23.75c0.49,0.95,0.9,2.78,0.61,5.09C70.25,47.25,62,75.75,39.75,91.5"/>
				</g>
				<g id="kvg:065e2-Kaisho-g6" kvg:position="right">
					<path style="stroke: #bf0976;" id="kvg:065e2-Kaisho-s10" kvg:type="㇟" d="M69.99,56.37c0.74,1.19,1.33,2.59,1.38,4.43c0.2,8.19-0.61,12.7-0.8,18.7C70.22,90,73.23,91.03,83.49,91.03c9.26,0,11.76-1.78,11.76-9.12"/>
				</g>
			</g>
		</g>
	</g>
</g>
</g>
<g id="kvg:StrokeNumbers_065e2-Kaisho" style="font-size:8;fill:#808080" transform="scale(3.0,3.0)">
	<text style="fill: #bf0909;" transform="matrix(1 0 0 1 18.75 18.13)">1</text>
	<text style="fill: #bf7609;" transform="matrix(1 0 0 1 23.25 33.05)">2</text>
	<text style="fill: #9abf09;" transform="matrix(1 0 0 1 23.25 48.50)">3</text>
	<text style="fill: #2dbf09;" transform="matrix(1 0 0 1 9.75 30.13)">4</text>
	<text style="fill: #09bf52;" transform="matrix(1 0 0 1 27.75 62.50)">5</text>
	<text style="fill: #09bfbf;" transform="matrix(1 0 0 1 50.50 18.50)">6</text>
	<text style="fill: #0952bf;" transform="matrix(1 0 0 1 47.50 30.05)">7</text>
	<text style="fill: #2d09bf;" transform="matrix(1 0 0 1 44.50 43.50)">8</text>
	<text style="fill: #9a09bf;" transform="matrix(1 0 0 1 65.25 30.13)">9</text>
	<text style="fill: #bf0976;" transform="matrix(1 0 0 1 74.50 60.13)">10</text>
</g>
</svg>
