<?xml version="1.0" encoding="UTF-8"?>
<!--
This file has been modified from the original version by the kanji_colorize.py
script (available at http://github.com/cayennes/kanji-colorize) with these
settings:
    mode: spectrum
    saturation: 0.95
    value: 0.75
    image_size: 327
It remains under a Creative Commons-Attribution-Share Alike 3.0 License.

The original SVG has the following copyright:

Copyright (C) 2009/2010/2011 Ulrich Apel.
This work is distributed under the conditions of the Creative Commons
Attribution-Share Alike 3.0 Licence. This means you are free:
* to Share - to copy, distribute and transmit the work
* to Remix - to adapt the work

Under the following conditions:
* Attribution. You must attribute the work by stating your use of KanjiVG in
  your own copyright header and linking to KanjiVG's website
  (http://kanjivg.tagaini.net)
* Share Alike. If you alter, transform, or build upon this work, you may
  distribute the resulting work only under the same or similar license to this
  one.

See http://creativecommons.org/licenses/by-sa/3.0/ for more details.
-->
<!DOCTYPE svg PUBLIC "-//W3C//DTD SVG 1.0//EN" "http://www.w3.org/TR/2001/REC-SVG-20010904/DTD/svg10.dtd" [
<!ATTLIST g
xmlns:kvg CDATA #FIXED "http://kanjivg.tagaini.net"
kvg:element CDATA #IMPLIED
kvg:variant CDATA #IMPLIED
kvg:partial CDATA #IMPLIED
kvg:original CDATA #IMPLIED
kvg:part CDATA #IMPLIED
kvg:number CDATA #IMPLIED
kvg:tradForm CDATA #IMPLIED
kvg:radicalForm CDATA #IMPLIED
kvg:position CDATA #IMPLIED
kvg:radical CDATA #IMPLIED
kvg:phon CDATA #IMPLIED >
<!ATTLIST path
xmlns:kvg CDATA #FIXED "http://kanjivg.tagaini.net"
kvg:type CDATA #IMPLIED >
]>
<svg xmlns="http://www.w3.org/2000/svg" width="327" height = "327" viewBox="0 0 327 327">
<g id="kvg:StrokePaths_06614-Kaisho" style="fill:none;stroke:#000000;stroke-width:3;stroke-linecap:round;stroke-linejoin:round;" transform="scale(3.0,3.0)">
<g id="kvg:06614-Kaisho" kvg:element="昔">
	<g id="kvg:06614-Kaisho-g1" kvg:position="top">
		<g id="kvg:06614-Kaisho-g2" kvg:element="廾" kvg:variant="true">
			<g id="kvg:06614-Kaisho-g3" kvg:element="十" kvg:part="1">
				<path style="stroke: #bf0909;" id="kvg:06614-Kaisho-s1" kvg:type="㇐" d="M29.75,31.39c0.94,0.38,2.66,0.49,3.6,0.38C39.33,31.11,69,28,76.46,27.89c1.56-0.02,2.5,0.18,3.29,0.37"/>
			</g>
			<g id="kvg:06614-Kaisho-g4" kvg:element="丿" kvg:variant="true">
				<path style="stroke: #bf9109;" id="kvg:06614-Kaisho-s2" kvg:type="㇑" d="M40.37,18.75c1.09,0.5,1.74,2.25,1.96,3.25c0.22,1,0.42,16.25,1.17,25.75"/>
			</g>
			<g id="kvg:06614-Kaisho-g5" kvg:element="十" kvg:part="2">
				<path style="stroke: #64bf09;" id="kvg:06614-Kaisho-s3" kvg:type="㇑" d="M66.37,13.25c1.09,0.5,1.74,2.25,1.96,3.25c0.22,1-2.83,19-4.33,29.25"/>
			</g>
		</g>
		<path style="stroke: #09bf36;" id="kvg:06614-Kaisho-s4" kvg:type="㇐" d="M14.25,50.2c1.52,0.54,4.31,0.72,5.82,0.54C34.5,49,71.75,45.25,90.19,45.01c2.53-0.03,4.05,0.26,5.31,0.53"/>
	</g>
	<g id="kvg:06614-Kaisho-g6" kvg:element="日" kvg:position="bottom" kvg:radical="general">
		<path style="stroke: #09bfbf;" id="kvg:06614-Kaisho-s5" kvg:type="㇑" d="M37.02,60.64c0.45,0.83,1.4,2.25,1.4,3.36c0,1.11-0.3,30.53-0.3,31.08c0,0.55,0.15,0.55,0.3,1.67"/>
		<path style="stroke: #0936bf;" id="kvg:06614-Kaisho-s6" kvg:type="㇕a" d="M39.17,61.78c2.54-0.14,28.22-2.37,30.54-2.54c1.93-0.14,3.17,1.54,3.02,2.36c-0.3,1.67-0.45,19.15-0.45,31.36c0,1.26-0.15,1.8-0.15,2.64"/>
		<path style="stroke: #6409bf;" id="kvg:06614-Kaisho-s7" kvg:type="㇐a" d="M39.61,76.81c5.18,0,10.41-0.62,15.57-0.99c1.74-0.12,3.48-0.25,5.14-0.36"/>
		<path style="stroke: #bf0991;" id="kvg:06614-Kaisho-s8" kvg:type="㇐a" d="M39.46,93.63c7-0.6,22.89-1.19,31.61-1.7"/>
	</g>
</g>
</g>
<g id="kvg:StrokeNumbers_06614-Kaisho" style="font-size:8;fill:#808080" transform="scale(3.0,3.0)">
	<text style="fill: #bf0909;" transform="matrix(1 0 0 1 22.50 32.50)">1</text>
	<text style="fill: #bf9109;" transform="matrix(1 0 0 1 31.50 19.50)">2</text>
	<text style="fill: #64bf09;" transform="matrix(1 0 0 1 56.50 14.50)">3</text>
	<text style="fill: #09bf36;" transform="matrix(1 0 0 1 6.50 51.50)">4</text>
	<text style="fill: #09bfbf;" transform="matrix(1 0 0 1 30.50 69.50)">5</text>
	<text style="fill: #0936bf;" transform="matrix(1 0 0 1 39.50 58.63)">6</text>
	<text style="fill: #6409bf;" transform="matrix(1 0 0 1 42.50 73.63)">7</text>
	<text style="fill: #bf0991;" transform="matrix(1 0 0 1 42.50 90.13)">8</text>
</g>
</svg>
