<?xml version="1.0" encoding="UTF-8"?>
<!--
This file has been modified from the original version by the kanji_colorize.py
script (available at http://github.com/cayennes/kanji-colorize) with these
settings:
    mode: spectrum
    saturation: 0.95
    value: 0.75
    image_size: 327
It remains under a Creative Commons-Attribution-Share Alike 3.0 License.

The original SVG has the following copyright:

Copyright (C) 2009/2010/2011 Ulrich Apel.
This work is distributed under the conditions of the Creative Commons
Attribution-Share Alike 3.0 Licence. This means you are free:
* to Share - to copy, distribute and transmit the work
* to Remix - to adapt the work

Under the following conditions:
* Attribution. You must attribute the work by stating your use of KanjiVG in
  your own copyright header and linking to KanjiVG's website
  (http://kanjivg.tagaini.net)
* Share Alike. If you alter, transform, or build upon this work, you may
  distribute the resulting work only under the same or similar license to this
  one.

See http://creativecommons.org/licenses/by-sa/3.0/ for more details.
-->
<!DOCTYPE svg PUBLIC "-//W3C//DTD SVG 1.0//EN" "http://www.w3.org/TR/2001/REC-SVG-20010904/DTD/svg10.dtd" [
<!ATTLIST g
xmlns:kvg CDATA #FIXED "http://kanjivg.tagaini.net"
kvg:element CDATA #IMPLIED
kvg:variant CDATA #IMPLIED
kvg:partial CDATA #IMPLIED
kvg:original CDATA #IMPLIED
kvg:part CDATA #IMPLIED
kvg:number CDATA #IMPLIED
kvg:tradForm CDATA #IMPLIED
kvg:radicalForm CDATA #IMPLIED
kvg:position CDATA #IMPLIED
kvg:radical CDATA #IMPLIED
kvg:phon CDATA #IMPLIED >
<!ATTLIST path
xmlns:kvg CDATA #FIXED "http://kanjivg.tagaini.net"
kvg:type CDATA #IMPLIED >
]>
<svg xmlns="http://www.w3.org/2000/svg" width="327" height = "327" viewBox="0 0 327 327">
<g id="kvg:StrokePaths_06708-Kaisho" style="fill:none;stroke:#000000;stroke-width:3;stroke-linecap:round;stroke-linejoin:round;" transform="scale(3.0,3.0)">
<g id="kvg:06708-Kaisho" kvg:element="月" kvg:radical="general">
	<path style="stroke: #bf0909;" id="kvg:06708-Kaisho-s1" kvg:type="㇒" d="M34.25,16.75c0.75,1,1.25,2,1.5,3S36.1,58.25,36,60.5c-0.5,10.75-4.5,25.75-11.25,33"/>
	<path style="stroke: #64bf09;" id="kvg:06708-Kaisho-s2" kvg:type="㇆a" d="M37.25,18.75c3-0.25,30.52-4.47,32.75-4.75c4-0.5,5.5,3.25,5,4.75c-0.48,1.44-0.75,49.25-0.75,69.5c0,13-6,4.5-8.5,2.25"/>
	<path style="stroke: #09bfbf;" id="kvg:06708-Kaisho-s3" kvg:type="㇐a" d="M37.25,38c6.15-0.9,12.31-1.74,18.47-2.53c1.65-0.21,3.29-0.42,4.89-0.61"/>
	<path style="stroke: #6409bf;" id="kvg:06708-Kaisho-s4" kvg:type="㇐a" d="M38,57.75c5.64-0.53,11.27-1.22,16.91-1.84c1.63-0.18,3.28-0.36,4.89-0.53"/>
</g>
</g>
<g id="kvg:StrokeNumbers_06708-Kaisho" style="font-size:8;fill:#808080" transform="scale(3.0,3.0)">
	<text style="fill: #bf0909;" transform="matrix(1 0 0 1 28.00 25.93)">1</text>
	<text style="fill: #64bf09;" transform="matrix(1 0 0 1 37.50 15.50)">2</text>
	<text style="fill: #09bfbf;" transform="matrix(1 0 0 1 40.00 33.50)">3</text>
	<text style="fill: #6409bf;" transform="matrix(1 0 0 1 40.00 54.50)">4</text>
</g>
</svg>
