<?xml version="1.0" encoding="UTF-8"?>
<!--
This file has been modified from the original version by the kanji_colorize.py
script (available at http://github.com/cayennes/kanji-colorize) with these
settings:
    mode: spectrum
    saturation: 0.95
    value: 0.75
    image_size: 327
It remains under a Creative Commons-Attribution-Share Alike 3.0 License.

The original SVG has the following copyright:

Copyright (C) 2009/2010/2011 Ulrich Apel.
This work is distributed under the conditions of the Creative Commons
Attribution-Share Alike 3.0 Licence. This means you are free:
* to Share - to copy, distribute and transmit the work
* to Remix - to adapt the work

Under the following conditions:
* Attribution. You must attribute the work by stating your use of KanjiVG in
  your own copyright header and linking to KanjiVG's website
  (http://kanjivg.tagaini.net)
* Share Alike. If you alter, transform, or build upon this work, you may
  distribute the resulting work only under the same or similar license to this
  one.

See http://creativecommons.org/licenses/by-sa/3.0/ for more details.
-->
<!DOCTYPE svg PUBLIC "-//W3C//DTD SVG 1.0//EN" "http://www.w3.org/TR/2001/REC-SVG-20010904/DTD/svg10.dtd" [
<!ATTLIST g
xmlns:kvg CDATA #FIXED "http://kanjivg.tagaini.net"
kvg:element CDATA #IMPLIED
kvg:variant CDATA #IMPLIED
kvg:partial CDATA #IMPLIED
kvg:original CDATA #IMPLIED
kvg:part CDATA #IMPLIED
kvg:number CDATA #IMPLIED
kvg:tradForm CDATA #IMPLIED
kvg:radicalForm CDATA #IMPLIED
kvg:position CDATA #IMPLIED
kvg:radical CDATA #IMPLIED
kvg:phon CDATA #IMPLIED >
<!ATTLIST path
xmlns:kvg CDATA #FIXED "http://kanjivg.tagaini.net"
kvg:type CDATA #IMPLIED >
]>
<svg xmlns="http://www.w3.org/2000/svg" width="327" height = "327" viewBox="0 0 327 327">
<g id="kvg:StrokePaths_06761-Kaisho" style="fill:none;stroke:#000000;stroke-width:3;stroke-linecap:round;stroke-linejoin:round;" transform="scale(3.0,3.0)">
<g id="kvg:06761-Kaisho" kvg:element="条">
	<g id="kvg:06761-Kaisho-g1" kvg:element="夂" kvg:position="top" kvg:radical="nelson">
		<path style="stroke: #bf0909;" id="kvg:06761-Kaisho-s1" kvg:type="㇒" d="M45.94,11.5c0.06,0.57,0.13,1.47-0.12,2.29c-1.45,4.82-9.76,15.4-21.14,21.88"/>
		<path style="stroke: #bfa509;" id="kvg:06761-Kaisho-s2" kvg:type="㇇" d="M48.09,19.04c0.32,0.03,1.68,0,2.6-0.08c3.01-0.25,11.87-2.17,16.16-2.94c2.94-0.52,3.79,1.6,3.03,3.03C63.25,31.5,37.38,53.73,19,57.75"/>
		<path style="stroke: #3dbf09;" id="kvg:06761-Kaisho-s3" kvg:type="㇏" d="M40.25,27c6.25,3.25,32.25,21.25,41.92,24.53c2.66,0.9,4.55,1.85,7,2.23"/>
	</g>
	<g id="kvg:06761-Kaisho-g2" kvg:element="木" kvg:position="bottom" kvg:radical="tradit">
		<path style="stroke: #09bf71;" id="kvg:06761-Kaisho-s4" kvg:type="㇐" d="M17.75,67c0.75,0.25,2.76,0.41,4.75,0.25c9.5-0.75,47.75-2.75,61.5-4c1.99-0.18,2.5-0.25,3.75,0"/>
		<path style="stroke: #0971bf;" id="kvg:06761-Kaisho-s5" kvg:type="㇑" d="M52.25,50.25c1.25,0.5,2,2.25,2.25,3.25s-0.25,38.73-0.25,40c0,12.75-5.62,1.88-6.5,1"/>
		<path style="stroke: #3d09bf;" id="kvg:06761-Kaisho-s6" kvg:type="㇒" d="M43.75,74.45c-3.04,6.81-10.93,16.45-17.25,20.3"/>
		<path style="stroke: #bf09a5;" id="kvg:06761-Kaisho-s7" kvg:type="㇏" d="M62.25,73c4.94,3.19,13.97,14.88,16.82,19.85"/>
	</g>
</g>
</g>
<g id="kvg:StrokeNumbers_06761-Kaisho" style="font-size:8;fill:#808080" transform="scale(3.0,3.0)">
	<text style="fill: #bf0909;" transform="matrix(1 0 0 1 36.75 16.63)">1</text>
	<text style="fill: #bfa509;" transform="matrix(1 0 0 1 53.25 15.05)">2</text>
	<text style="fill: #3dbf09;" transform="matrix(1 0 0 1 50.25 29.98)">3</text>
	<text style="fill: #09bf71;" transform="matrix(1 0 0 1 9.75 67.40)">4</text>
	<text style="fill: #0971bf;" transform="matrix(1 0 0 1 44.25 56.83)">5</text>
	<text style="fill: #3d09bf;" transform="matrix(1 0 0 1 32.25 77.75)">6</text>
	<text style="fill: #bf09a5;" transform="matrix(1 0 0 1 68 74.68)">7</text>
</g>
</svg>
