<?xml version="1.0" encoding="UTF-8"?>
<!--
This file has been modified from the original version by the kanji_colorize.py
script (available at http://github.com/cayennes/kanji-colorize) with these
settings:
    mode: spectrum
    saturation: 0.95
    value: 0.75
    image_size: 327
It remains under a Creative Commons-Attribution-Share Alike 3.0 License.

The original SVG has the following copyright:

Copyright (C) 2009/2010/2011 Ulrich Apel.
This work is distributed under the conditions of the Creative Commons
Attribution-Share Alike 3.0 Licence. This means you are free:
* to Share - to copy, distribute and transmit the work
* to Remix - to adapt the work

Under the following conditions:
* Attribution. You must attribute the work by stating your use of KanjiVG in
  your own copyright header and linking to KanjiVG's website
  (http://kanjivg.tagaini.net)
* Share Alike. If you alter, transform, or build upon this work, you may
  distribute the resulting work only under the same or similar license to this
  one.

See http://creativecommons.org/licenses/by-sa/3.0/ for more details.
-->
<!DOCTYPE svg PUBLIC "-//W3C//DTD SVG 1.0//EN" "http://www.w3.org/TR/2001/REC-SVG-20010904/DTD/svg10.dtd" [
<!ATTLIST g
xmlns:kvg CDATA #FIXED "http://kanjivg.tagaini.net"
kvg:element CDATA #IMPLIED
kvg:variant CDATA #IMPLIED
kvg:partial CDATA #IMPLIED
kvg:original CDATA #IMPLIED
kvg:part CDATA #IMPLIED
kvg:number CDATA #IMPLIED
kvg:tradForm CDATA #IMPLIED
kvg:radicalForm CDATA #IMPLIED
kvg:position CDATA #IMPLIED
kvg:radical CDATA #IMPLIED
kvg:phon CDATA #IMPLIED >
<!ATTLIST path
xmlns:kvg CDATA #FIXED "http://kanjivg.tagaini.net"
kvg:type CDATA #IMPLIED >
]>
<svg xmlns="http://www.w3.org/2000/svg" width="327" height = "327" viewBox="0 0 327 327">
<g id="kvg:StrokePaths_067a2-Kaisho" style="fill:none;stroke:#000000;stroke-width:3;stroke-linecap:round;stroke-linejoin:round;" transform="scale(3.0,3.0)">
<g id="kvg:067a2-Kaisho" kvg:element="枢">
	<g id="kvg:067a2-Kaisho-g1" kvg:element="木" kvg:position="left" kvg:radical="general">
		<path style="stroke: #bf0909;" id="kvg:067a2-Kaisho-s1" kvg:type="㇐" d="M10.78,39.22c0.35,0.24,2.39,0.41,3.31,0.31c3.94-0.41,21.62-2.21,27.95-3.41c0.92-0.17,1.15-0.24,1.73,0"/>
		<path style="stroke: #bf9109;" id="kvg:067a2-Kaisho-s2" kvg:type="㇑" d="M28.36,14c0.39,1.25,2.04,3.47,2.04,4.42c0,7.33-0.3,70.23-0.3,71.08c0,10.75-5.47,2.62-6.6,1.5"/>
		<path style="stroke: #64bf09;" id="kvg:067a2-Kaisho-s3" kvg:type="㇒" d="M29.94,42.28c-5.9,14.39-9.19,20.47-18.33,33.06"/>
		<path style="stroke: #09bf36;" id="kvg:067a2-Kaisho-s4" kvg:type="㇏" d="M33.72,50.15c2.45,1.48,5.84,6.53,7.91,9.39"/>
	</g>
	<g id="kvg:067a2-Kaisho-g2" kvg:element="区" kvg:position="right">
		<g id="kvg:067a2-Kaisho-g3" kvg:element="匚" kvg:part="1" kvg:position="kamae">
			<path style="stroke: #09bfbf;" id="kvg:067a2-Kaisho-s5" kvg:type="㇐" d="M48.88,21.61c1.08,0.55,3.06,0.63,4.14,0.55C64.26,21.24,79,20,90.78,18.64c1.8-0.21,2.88,0.26,3.78,0.54"/>
		</g>
		<g id="kvg:067a2-Kaisho-g4" kvg:element="乂">
			<g id="kvg:067a2-Kaisho-g5" kvg:element="丿">
				<path style="stroke: #0936bf;" id="kvg:067a2-Kaisho-s6" kvg:type="㇒" d="M81.8,31.29c0.36,1.1,0.74,1.95,0.18,3.89C77,52.5,70,67,59.61,76.02"/>
			</g>
			<path style="stroke: #6409bf;" id="kvg:067a2-Kaisho-s7" kvg:type="㇔/㇏" d="M60.04,41.55c9.75,4.84,22.03,21.62,26.91,31.86"/>
		</g>
		<g id="kvg:067a2-Kaisho-g6" kvg:element="匚" kvg:part="2" kvg:position="kamae">
			<path style="stroke: #bf0991;" id="kvg:067a2-Kaisho-s8" kvg:type="㇗" d="M51.63,23.02c0,3.73,0,61.55,0,65.05c0,2.19,0.74,3.04,1.96,2.73c13.91-3.54,32.16-4.79,36.78-4c2.28,0.39,5.27,0.73,6.69,1.2"/>
		</g>
	</g>
</g>
</g>
<g id="kvg:StrokeNumbers_067a2-Kaisho" style="font-size:8;fill:#808080" transform="scale(3.0,3.0)">
	<text style="fill: #bf0909;" transform="matrix(1 0 0 1 3.75 39.13)">1</text>
	<text style="fill: #bf9109;" transform="matrix(1 0 0 1 18.75 15.13)">2</text>
	<text style="fill: #64bf09;" transform="matrix(1 0 0 1 17.25 51.13)">3</text>
	<text style="fill: #09bf36;" transform="matrix(1 0 0 1 36.75 49.63)">4</text>
	<text style="fill: #09bfbf;" transform="matrix(1 0 0 1 54.75 16.63)">5</text>
	<text style="fill: #0936bf;" transform="matrix(1 0 0 1 86.25 30.13)">6</text>
	<text style="fill: #6409bf;" transform="matrix(1 0 0 1 59.25 39.13)">7</text>
	<text style="fill: #bf0991;" transform="matrix(1 0 0 1 42.75 28.63)">8</text>
</g>
</svg>
