<?xml version="1.0" encoding="UTF-8"?>
<!--
This file has been modified from the original version by the kanji_colorize.py
script (available at http://github.com/cayennes/kanji-colorize) with these
settings:
    mode: spectrum
    saturation: 0.95
    value: 0.75
    image_size: 327
It remains under a Creative Commons-Attribution-Share Alike 3.0 License.

The original SVG has the following copyright:

Copyright (C) 2009/2010/2011 Ulrich Apel.
This work is distributed under the conditions of the Creative Commons
Attribution-Share Alike 3.0 Licence. This means you are free:
* to Share - to copy, distribute and transmit the work
* to Remix - to adapt the work

Under the following conditions:
* Attribution. You must attribute the work by stating your use of KanjiVG in
  your own copyright header and linking to KanjiVG's website
  (http://kanjivg.tagaini.net)
* Share Alike. If you alter, transform, or build upon this work, you may
  distribute the resulting work only under the same or similar license to this
  one.

See http://creativecommons.org/licenses/by-sa/3.0/ for more details.
-->
<!DOCTYPE svg PUBLIC "-//W3C//DTD SVG 1.0//EN" "http://www.w3.org/TR/2001/REC-SVG-20010904/DTD/svg10.dtd" [
<!ATTLIST g
xmlns:kvg CDATA #FIXED "http://kanjivg.tagaini.net"
kvg:element CDATA #IMPLIED
kvg:variant CDATA #IMPLIED
kvg:partial CDATA #IMPLIED
kvg:original CDATA #IMPLIED
kvg:part CDATA #IMPLIED
kvg:number CDATA #IMPLIED
kvg:tradForm CDATA #IMPLIED
kvg:radicalForm CDATA #IMPLIED
kvg:position CDATA #IMPLIED
kvg:radical CDATA #IMPLIED
kvg:phon CDATA #IMPLIED >
<!ATTLIST path
xmlns:kvg CDATA #FIXED "http://kanjivg.tagaini.net"
kvg:type CDATA #IMPLIED >
]>
<svg xmlns="http://www.w3.org/2000/svg" width="327" height = "327" viewBox="0 0 327 327">
<g id="kvg:StrokePaths_067d0-Kaisho" style="fill:none;stroke:#000000;stroke-width:3;stroke-linecap:round;stroke-linejoin:round;" transform="scale(3.0,3.0)">
<g id="kvg:067d0-Kaisho" kvg:element="某">
	<g id="kvg:067d0-Kaisho-g1" kvg:element="甘" kvg:position="top" kvg:radical="nelson">
		<g id="kvg:067d0-Kaisho-g2" kvg:element="廿" kvg:part="1">
			<g id="kvg:067d0-Kaisho-g3" kvg:element="十">
				<path style="stroke: #bf0909;" id="kvg:067d0-Kaisho-s1" kvg:type="㇐" d="M21.16,27.16c1.2,0.43,3.39,0.44,4.59,0.43c9.5-0.09,41.25-3.84,55.41-5.04c1.99-0.17,4.19,0.21,5.19,0.42"/>
				<path style="stroke: #bf8209;" id="kvg:067d0-Kaisho-s2" kvg:type="㇑" d="M37.92,13.86c0.86,0.4,1.37,1.78,1.54,2.57c0.17,0.79,0,35.35-0.17,40.3"/>
			</g>
			<path style="stroke: #82bf09;" id="kvg:067d0-Kaisho-s3" kvg:type="㇑" d="M66.31,10.51c0.86,0.4,1.37,1.78,1.55,2.57s0,35.42-0.17,40.37"/>
		</g>
		<path style="stroke: #09bf09;" id="kvg:067d0-Kaisho-s4" kvg:type="㇐" d="M39.99,40.12c4.61-0.55,9.25-0.92,13.88-1.34c1.51-0.14,3.01-0.27,4.43-0.39"/>
		<g id="kvg:067d0-Kaisho-g4" kvg:element="廿" kvg:part="2">
			<path style="stroke: #09bf82;" id="kvg:067d0-Kaisho-s5" kvg:type="㇐" d="M39.99,54.79c5.13-0.2,22.08-2.88,26.82-3.08"/>
		</g>
	</g>
	<g id="kvg:067d0-Kaisho-g5" kvg:element="木" kvg:position="bottom" kvg:radical="tradit">
		<path style="stroke: #0982bf;" id="kvg:067d0-Kaisho-s6" kvg:type="㇐" d="M16.33,69.22c2,0.61,4.28,0.8,6.58,0.61c11.73-0.99,45.79-4.44,63.53-5.61c2.29-0.15,3.72,0.1,6.01,0.53"/>
		<path style="stroke: #0909bf;" id="kvg:067d0-Kaisho-s7" kvg:type="㇑" d="M52.89,56.05c1.11,1.2,1.58,2.86,1.58,3.95c0,11.16-0.29,21.74-0.29,35.19c0,11.55-5.93,2.8-7.18,1.55"/>
		<path style="stroke: #8209bf;" id="kvg:067d0-Kaisho-s8" kvg:type="㇔/㇒" d="M45.96,76.05C41,84.25,35,89.25,26.5,95.37"/>
		<path style="stroke: #bf0982;" id="kvg:067d0-Kaisho-s9" kvg:type="㇔/㇏" d="M64.36,74.79c3.62,5.67,11.5,16.17,17.46,20.94"/>
	</g>
</g>
</g>
<g id="kvg:StrokeNumbers_067d0-Kaisho" style="font-size:8;fill:#808080" transform="scale(3.0,3.0)">
	<text style="fill: #bf0909;" transform="matrix(1 0 0 1 14.50 26.50)">1</text>
	<text style="fill: #bf8209;" transform="matrix(1 0 0 1 30.50 14.50)">2</text>
	<text style="fill: #82bf09;" transform="matrix(1 0 0 1 58.50 11.50)">3</text>
	<text style="fill: #09bf09;" transform="matrix(1 0 0 1 43.50 36.50)">4</text>
	<text style="fill: #09bf82;" transform="matrix(1 0 0 1 43.68 51.05)">5</text>
	<text style="fill: #0982bf;" transform="matrix(1 0 0 1 8.50 70.50)">6</text>
	<text style="fill: #0909bf;" transform="matrix(1 0 0 1 45.50 63.50)">7</text>
	<text style="fill: #8209bf;" transform="matrix(1 0 0 1 36.50 78.50)">8</text>
	<text style="fill: #bf0982;" transform="matrix(1 0 0 1 67.50 75.50)">9</text>
</g>
</svg>
