<?xml version="1.0" encoding="UTF-8"?>
<!--
This file has been modified from the original version by the kanji_colorize.py
script (available at http://github.com/cayennes/kanji-colorize) with these
settings:
    mode: spectrum
    saturation: 0.95
    value: 0.75
    image_size: 327
It remains under a Creative Commons-Attribution-Share Alike 3.0 License.

The original SVG has the following copyright:

Copyright (C) 2009/2010/2011 Ulrich Apel.
This work is distributed under the conditions of the Creative Commons
Attribution-Share Alike 3.0 Licence. This means you are free:
* to Share - to copy, distribute and transmit the work
* to Remix - to adapt the work

Under the following conditions:
* Attribution. You must attribute the work by stating your use of KanjiVG in
  your own copyright header and linking to KanjiVG's website
  (http://kanjivg.tagaini.net)
* Share Alike. If you alter, transform, or build upon this work, you may
  distribute the resulting work only under the same or similar license to this
  one.

See http://creativecommons.org/licenses/by-sa/3.0/ for more details.
-->
<!DOCTYPE svg PUBLIC "-//W3C//DTD SVG 1.0//EN" "http://www.w3.org/TR/2001/REC-SVG-20010904/DTD/svg10.dtd" [
<!ATTLIST g
xmlns:kvg CDATA #FIXED "http://kanjivg.tagaini.net"
kvg:element CDATA #IMPLIED
kvg:variant CDATA #IMPLIED
kvg:partial CDATA #IMPLIED
kvg:original CDATA #IMPLIED
kvg:part CDATA #IMPLIED
kvg:number CDATA #IMPLIED
kvg:tradForm CDATA #IMPLIED
kvg:radicalForm CDATA #IMPLIED
kvg:position CDATA #IMPLIED
kvg:radical CDATA #IMPLIED
kvg:phon CDATA #IMPLIED >
<!ATTLIST path
xmlns:kvg CDATA #FIXED "http://kanjivg.tagaini.net"
kvg:type CDATA #IMPLIED >
]>
<svg xmlns="http://www.w3.org/2000/svg" width="327" height = "327" viewBox="0 0 327 327">
<g id="kvg:StrokePaths_067fe-KaishoHzFst" style="fill:none;stroke:#000000;stroke-width:3;stroke-linecap:round;stroke-linejoin:round;" transform="scale(3.0,3.0)">
<g id="kvg:067fe-KaishoHzFst" kvg:element="柾">
	<g id="kvg:067fe-KaishoHzFst-g1" kvg:element="木" kvg:position="left" kvg:radical="general">
		<path style="stroke: #bf0909;" id="kvg:067fe-KaishoHzFst-s1" kvg:type="㇐" d="M13.03,38.47c0.35,0.24,2.39,0.41,3.31,0.31c3.94-0.41,17.12-1.71,23.45-2.91c0.92-0.17,2.15-0.24,2.73,0"/>
		<path style="stroke: #bf8209;" id="kvg:067fe-KaishoHzFst-s2" kvg:type="㇑" d="M28.11,14.25c0.91,0.47,1.89,2.25,2.04,4.42c0.06,0.95-0.3,71.23-0.3,72.08c0,12-4.97,2.88-6.1,1.75"/>
		<path style="stroke: #82bf09;" id="kvg:067fe-KaishoHzFst-s3" kvg:type="㇒" d="M29.69,42.03c-5.82,14.6-9.06,20.78-18.08,33.56"/>
		<path style="stroke: #09bf09;" id="kvg:067fe-KaishoHzFst-s4" kvg:type="㇔/㇏" d="M33.22,49.15C35.6,50.74,39.5,56.91,41.5,60"/>
	</g>
	<g id="kvg:067fe-KaishoHzFst-g2" kvg:element="正" kvg:position="right">
		<path style="stroke: #09bf82;" id="kvg:067fe-KaishoHzFst-s5" kvg:type="㇐" d="M47.5,22.37c1,0.37,2.85,0.42,3.85,0.37c10.07-0.54,23.26-3.49,37.37-3.7c1.67-0.02,2.68,0.17,3.52,0.36"/>
		<g id="kvg:067fe-KaishoHzFst-g3" kvg:element="止">
			<g id="kvg:067fe-KaishoHzFst-g4" kvg:element="卜" kvg:original="ト">
				<path style="stroke: #0982bf;" id="kvg:067fe-KaishoHzFst-s6" kvg:type="㇐" d="M71.95,51.52c1.71-0.31,13.3-2.02,19.07-2.81c0.7-0.1,1.13,0.07,1.48,0.15"/>
				<path style="stroke: #0909bf;" id="kvg:067fe-KaishoHzFst-s7" kvg:type="㇑" d="M68.47,22.57c0.08,0.47,1.16,2.46,1.24,5.46c0.4,14.41-0.25,52.12-0.25,57.03"/>
			</g>
			<path style="stroke: #8209bf;" id="kvg:067fe-KaishoHzFst-s8" kvg:type="㇑" d="M50.9,48.11c0.09,0.25,1.23,1.3,1.32,2.88c0.42,7.59,0.23,33.95,0.23,36.54"/>
			<path style="stroke: #bf0982;" id="kvg:067fe-KaishoHzFst-s9" kvg:type="㇐" d="M38.05,88.27c1.48,0.49,4.67,0.67,6.08,0.6c11.13-0.61,33.63-3.36,48.66-3.31c2.37,0.01,4.44,0.74,5.67,1.48"/>
		</g>
	</g>
</g>
</g>
<g id="kvg:StrokeNumbers_067fe-KaishoHzFst" style="font-size:8;fill:#808080" transform="scale(3.0,3.0)">
	<text style="fill: #bf0909;" transform="matrix(1 0 0 1 6.25 39.25)">1</text>
	<text style="fill: #bf8209;" transform="matrix(1 0 0 1 20.00 13.25)">2</text>
	<text style="fill: #82bf09;" transform="matrix(1 0 0 1 20.25 48.25)">3</text>
	<text style="fill: #09bf09;" transform="matrix(1 0 0 1 34.00 47.25)">4</text>
	<text style="fill: #09bf82;" transform="matrix(1 0 0 1 45.25 19.25)">5</text>
	<text style="fill: #0982bf;" transform="matrix(1 0 0 1 74.25 48.25)">6</text>
	<text style="fill: #0909bf;" transform="matrix(1 0 0 1 61.25 31.25)">7</text>
	<text style="fill: #8209bf;" transform="matrix(1 0 0 1 45.25 45.25)">8</text>
	<text style="fill: #bf0982;" transform="matrix(1 0 0 1 36.25 85.25)">9</text>
</g>
</svg>
