<?xml version="1.0" encoding="UTF-8"?>
<!--
This file has been modified from the original version by the kanji_colorize.py
script (available at http://github.com/cayennes/kanji-colorize) with these
settings:
    mode: spectrum
    saturation: 0.95
    value: 0.75
    image_size: 327
It remains under a Creative Commons-Attribution-Share Alike 3.0 License.

The original SVG has the following copyright:

Copyright (C) 2009/2010/2011 Ulrich Apel.
This work is distributed under the conditions of the Creative Commons
Attribution-Share Alike 3.0 Licence. This means you are free:
* to Share - to copy, distribute and transmit the work
* to Remix - to adapt the work

Under the following conditions:
* Attribution. You must attribute the work by stating your use of KanjiVG in
  your own copyright header and linking to KanjiVG's website
  (http://kanjivg.tagaini.net)
* Share Alike. If you alter, transform, or build upon this work, you may
  distribute the resulting work only under the same or similar license to this
  one.

See http://creativecommons.org/licenses/by-sa/3.0/ for more details.
-->
<!DOCTYPE svg PUBLIC "-//W3C//DTD SVG 1.0//EN" "http://www.w3.org/TR/2001/REC-SVG-20010904/DTD/svg10.dtd" [
<!ATTLIST g
xmlns:kvg CDATA #FIXED "http://kanjivg.tagaini.net"
kvg:element CDATA #IMPLIED
kvg:variant CDATA #IMPLIED
kvg:partial CDATA #IMPLIED
kvg:original CDATA #IMPLIED
kvg:part CDATA #IMPLIED
kvg:number CDATA #IMPLIED
kvg:tradForm CDATA #IMPLIED
kvg:radicalForm CDATA #IMPLIED
kvg:position CDATA #IMPLIED
kvg:radical CDATA #IMPLIED
kvg:phon CDATA #IMPLIED >
<!ATTLIST path
xmlns:kvg CDATA #FIXED "http://kanjivg.tagaini.net"
kvg:type CDATA #IMPLIED >
]>
<svg xmlns="http://www.w3.org/2000/svg" width="327" height = "327" viewBox="0 0 327 327">
<g id="kvg:StrokePaths_06a80-Kaisho" style="fill:none;stroke:#000000;stroke-width:3;stroke-linecap:round;stroke-linejoin:round;" transform="scale(3.0,3.0)">
<g id="kvg:06a80-Kaisho" kvg:element="檀">
	<g id="kvg:06a80-Kaisho-g1" kvg:element="木" kvg:position="left" kvg:radical="general">
		<path style="stroke: #bf0909;" id="kvg:06a80-Kaisho-s1" kvg:type="㇐" d="M14.03,39.97c0.35,0.24,2.39,0.41,3.31,0.31c3.94-0.41,16.12-1.21,22.45-2.41c0.92-0.17,2.15-0.24,2.73,0"/>
		<path style="stroke: #bf4909;" id="kvg:06a80-Kaisho-s2" kvg:type="㇑" d="M29.11,14.75c0.64,1.25,1.54,2.75,1.54,4.42c0,0.95-0.3,66.25-0.3,72.08c0,13.5-5.6,4-7.1,2.5"/>
		<path style="stroke: #bf8909;" id="kvg:06a80-Kaisho-s3" kvg:type="㇒" d="M30.69,41.03c-5.66,14.71-8.81,20.93-17.58,33.81"/>
		<path style="stroke: #b4bf09;" id="kvg:06a80-Kaisho-s4" kvg:type="㇔/㇏" d="M33.22,48.65c2.37,1.59,6.28,6.76,8.28,9.85"/>
	</g>
	<g id="kvg:06a80-Kaisho-g2" kvg:element="亶" kvg:position="right">
		<g id="kvg:06a80-Kaisho-g3" kvg:element="亠" kvg:position="top">
			<path style="stroke: #74bf09;" id="kvg:06a80-Kaisho-s5" kvg:type="㇑a" d="M64.44,10.75c2.06,1.5,4.56,4,5.51,6.63"/>
			<path style="stroke: #34bf09;" id="kvg:06a80-Kaisho-s6" kvg:type="㇐" d="M43.29,24.61c1.35,0.31,2.52,0.52,4.08,0.44c9.88-0.55,33.83-3.3,44.58-3.94c1.58-0.09,2.39,0.04,3.57,0.56"/>
		</g>
		<g id="kvg:06a80-Kaisho-g4" kvg:position="bottom">
			<g id="kvg:06a80-Kaisho-g5" kvg:element="回">
				<g id="kvg:06a80-Kaisho-g6" kvg:element="囗" kvg:part="1">
					<path style="stroke: #09bf1e;" id="kvg:06a80-Kaisho-s7" kvg:type="㇑" d="M48.53,32.68c0.54,0.63,0.63,1.32,0.74,2.13c0.76,5.52,2.19,14.54,3.31,25.36"/>
					<path style="stroke: #09bf5f;" id="kvg:06a80-Kaisho-s8" kvg:type="㇕a" d="M50.15,34.53c9.83-1.11,32.27-4,38.85-4.26c1.5-0.06,2.08,2.09,1.91,3.4c-0.82,6.23-3.41,14.68-5.04,23.11"/>
				</g>
				<g id="kvg:06a80-Kaisho-g7" kvg:element="口">
					<path style="stroke: #09bf9f;" id="kvg:06a80-Kaisho-s9" kvg:type="㇑" d="M58.98,40.57c0.26,0.18,0.57,0.29,0.65,0.55c0.92,3.17,1.34,6.4,2.12,9.71"/>
					<path style="stroke: #099fbf;" id="kvg:06a80-Kaisho-s10" kvg:type="㇕b" d="M60.61,41.29c5.89-0.54,13.17-1.55,16.25-1.91c1.12-0.13,1.8,0.46,1.64,0.99c-0.67,2.19-0.95,5.34-1.94,8.38"/>
					<path style="stroke: #095fbf;" id="kvg:06a80-Kaisho-s11" kvg:type="㇐b" d="M61.9,49.51c3.9-0.63,10.2-1.43,15.17-2.05"/>
				</g>
				<g id="kvg:06a80-Kaisho-g8" kvg:element="囗" kvg:part="2">
					<path style="stroke: #091ebf;" id="kvg:06a80-Kaisho-s12" kvg:type="㇐a" d="M53.1,57.85c9.14-1.22,22.33-2.85,33.27-3.31"/>
				</g>
			</g>
			<g id="kvg:06a80-Kaisho-g9" kvg:element="旦">
				<g id="kvg:06a80-Kaisho-g10" kvg:element="日" kvg:position="top">
					<path style="stroke: #3409bf;" id="kvg:06a80-Kaisho-s13" kvg:type="㇑" d="M53.5,66.86c0.44,0.48,0.88,0.71,0.89,1.36c0.02,0.65,2.03,18.33,2.19,18.97"/>
					<path style="stroke: #7409bf;" id="kvg:06a80-Kaisho-s14" kvg:type="㇕a" d="M54.67,67.73c2.41-0.14,25.66-3.41,27.86-3.57c1.83-0.13,2.56,1.64,2.51,2.14c-0.3,2.92-2.47,18.14-2.46,18.63"/>
					<path style="stroke: #b409bf;" id="kvg:06a80-Kaisho-s15" kvg:type="㇐a" d="M55.44,76.21c4.72-0.12,9.48-0.88,14.17-1.38c1.57-0.17,3.15-0.33,4.66-0.49"/>
					<path style="stroke: #bf0989;" id="kvg:06a80-Kaisho-s16" kvg:type="㇐a" d="M57.27,85.44c4.83-0.12,18.55-1.53,24.8-1.69"/>
				</g>
				<g id="kvg:06a80-Kaisho-g11" kvg:element="一" kvg:position="bottom">
					<path style="stroke: #bf0949;" id="kvg:06a80-Kaisho-s17" kvg:type="㇐" d="M43.29,94.57c1.11,0.43,3.13,0.46,4.24,0.43c9.77-0.22,35.17-2.4,46.6-2.39c1.84,0,2.95,0.21,3.87,0.43"/>
				</g>
			</g>
		</g>
	</g>
</g>
</g>
<g id="kvg:StrokeNumbers_06a80-Kaisho" style="font-size:8;fill:#808080" transform="scale(3.0,3.0)">
	<text style="fill: #bf0909;" transform="matrix(1 0 0 1 7.25 40.25)">1</text>
	<text style="fill: #bf4909;" transform="matrix(1 0 0 1 20.25 15.25)">2</text>
	<text style="fill: #bf8909;" transform="matrix(1 0 0 1 20.25 51.23)">3</text>
	<text style="fill: #b4bf09;" transform="matrix(1 0 0 1 35.25 48.15)">4</text>
	<text style="fill: #74bf09;" transform="matrix(1 0 0 1 58.25 11.08)">5</text>
	<text style="fill: #34bf09;" transform="matrix(1 0 0 1 41.25 22.25)">6</text>
	<text style="fill: #09bf1e;" transform="matrix(1 0 0 1 45.25 42.25)">7</text>
	<text style="fill: #09bf5f;" transform="matrix(1 0 0 1 52.25 32.25)">8</text>
	<text style="fill: #09bf9f;" transform="matrix(1 0 0 1 54.25 47.25)">9</text>
	<text style="fill: #099fbf;" transform="matrix(1 0 0 1 60.25 39.04)">10</text>
	<text style="fill: #095fbf;" transform="matrix(1 0 0 1 63.25 47.30)">11</text>
	<text style="fill: #091ebf;" transform="matrix(1 0 0 1 55.33 55.55)">12</text>
	<text style="fill: #3409bf;" transform="matrix(1 0 0 1 44.25 74.25)">13</text>
	<text style="fill: #7409bf;" transform="matrix(1 0 0 1 56.25 65.25)">14</text>
	<text style="fill: #b409bf;" transform="matrix(1 0 0 1 59.25 74.33)">15</text>
	<text style="fill: #bf0989;" transform="matrix(1 0 0 1 59.11 83.25)">16</text>
	<text style="fill: #bf0949;" transform="matrix(1 0 0 1 40.25 92.25)">17</text>
</g>
</svg>
