<?xml version="1.0" encoding="UTF-8"?>
<!--
This file has been modified from the original version by the kanji_colorize.py
script (available at http://github.com/cayennes/kanji-colorize) with these
settings:
    mode: spectrum
    saturation: 0.95
    value: 0.75
    image_size: 327
It remains under a Creative Commons-Attribution-Share Alike 3.0 License.

The original SVG has the following copyright:

Copyright (C) 2009/2010/2011 Ulrich Apel.
This work is distributed under the conditions of the Creative Commons
Attribution-Share Alike 3.0 Licence. This means you are free:
* to Share - to copy, distribute and transmit the work
* to Remix - to adapt the work

Under the following conditions:
* Attribution. You must attribute the work by stating your use of KanjiVG in
  your own copyright header and linking to KanjiVG's website
  (http://kanjivg.tagaini.net)
* Share Alike. If you alter, transform, or build upon this work, you may
  distribute the resulting work only under the same or similar license to this
  one.

See http://creativecommons.org/licenses/by-sa/3.0/ for more details.
-->
<!DOCTYPE svg PUBLIC "-//W3C//DTD SVG 1.0//EN" "http://www.w3.org/TR/2001/REC-SVG-20010904/DTD/svg10.dtd" [
<!ATTLIST g
xmlns:kvg CDATA #FIXED "http://kanjivg.tagaini.net"
kvg:element CDATA #IMPLIED
kvg:variant CDATA #IMPLIED
kvg:partial CDATA #IMPLIED
kvg:original CDATA #IMPLIED
kvg:part CDATA #IMPLIED
kvg:number CDATA #IMPLIED
kvg:tradForm CDATA #IMPLIED
kvg:radicalForm CDATA #IMPLIED
kvg:position CDATA #IMPLIED
kvg:radical CDATA #IMPLIED
kvg:phon CDATA #IMPLIED >
<!ATTLIST path
xmlns:kvg CDATA #FIXED "http://kanjivg.tagaini.net"
kvg:type CDATA #IMPLIED >
]>
<svg xmlns="http://www.w3.org/2000/svg" width="327" height = "327" viewBox="0 0 327 327">
<g id="kvg:StrokePaths_06adb-HyougaiKaisho" style="fill:none;stroke:#000000;stroke-width:3;stroke-linecap:round;stroke-linejoin:round;" transform="scale(3.0,3.0)">
<g id="kvg:06adb-HyougaiKaisho" kvg:element="櫛">
	<g id="kvg:06adb-HyougaiKaisho-g1" kvg:element="木" kvg:position="left" kvg:radical="general">
		<path style="stroke: #bf0909;" id="kvg:06adb-HyougaiKaisho-s1" kvg:type="㇐" d="M11.78,39.22c0.35,0.24,2.39,0.41,3.31,0.31c3.94-0.41,15.62-1.71,21.95-2.91c0.92-0.17,1.15-0.24,1.73,0"/>
		<path style="stroke: #bf4909;" id="kvg:06adb-HyougaiKaisho-s2" kvg:type="㇑" d="M26.36,13.5c0.91,0.47,2.54,3,2.54,5.42c0,0.95-0.3,69.73-0.3,70.58c0,12.75-5.6,1.75-6.85,0.5"/>
		<path style="stroke: #bf8909;" id="kvg:06adb-HyougaiKaisho-s3" kvg:type="㇒" d="M28.44,41.28c-5.26,15.15-8.19,21.55-16.33,34.81"/>
		<path style="stroke: #b4bf09;" id="kvg:06adb-HyougaiKaisho-s4" kvg:type="㇔/㇏" d="M31.47,47.4c2.76,1.75,6.58,7.75,8.91,11.14"/>
	</g>
	<g id="kvg:06adb-HyougaiKaisho-g2" kvg:element="節" kvg:position="right">
		<g id="kvg:06adb-HyougaiKaisho-g3" kvg:element="竹" kvg:variant="true" kvg:position="top">
			<g id="kvg:06adb-HyougaiKaisho-g4" kvg:position="left">
				<path style="stroke: #74bf09;" id="kvg:06adb-HyougaiKaisho-s5" kvg:type="㇒" d="M51.34,14.38c0.03,0.41,0.07,1.05-0.07,1.64c-0.8,3.46-4.46,10.17-10.78,14.82"/>
				<path style="stroke: #34bf09;" id="kvg:06adb-HyougaiKaisho-s6" kvg:type="㇐b" d="M50.81,22.91c2.34,0,14.17-1.69,16.8-1.69"/>
				<path style="stroke: #09bf1e;" id="kvg:06adb-HyougaiKaisho-s7" kvg:type="㇔/㇑" d="M55.34,24.82c1.01,1.36,3.25,6.52,3.5,8.63"/>
			</g>
			<g id="kvg:06adb-HyougaiKaisho-g5" kvg:position="right">
				<path style="stroke: #09bf5f;" id="kvg:06adb-HyougaiKaisho-s8" kvg:type="㇒" d="M78.28,13.25c0.03,0.35,0.12,0.91-0.05,1.41c-1.27,3.68-5.96,10.39-10.61,14.91"/>
				<path style="stroke: #09bf9f;" id="kvg:06adb-HyougaiKaisho-s9" kvg:type="㇐b" d="M76.31,22.88c3.9,0,18.17-2.72,22.55-2.72"/>
				<path style="stroke: #099fbf;" id="kvg:06adb-HyougaiKaisho-s10" kvg:type="㇒/㇚" d="M85.6,24.85c0.02,0.2,0.04,0.52-0.04,0.81c-0.43,1.7-3.46,6.29-6.8,8.58"/>
			</g>
		</g>
		<g id="kvg:06adb-HyougaiKaisho-g6" kvg:element="即" kvg:position="bottom">
			<g id="kvg:06adb-HyougaiKaisho-g7" kvg:element="艮" kvg:partial="true" kvg:position="left">
				<path style="stroke: #095fbf;" id="kvg:06adb-HyougaiKaisho-s11" kvg:type="㇕" d="M46.85,41.92c1.36-0.11,16.52-2.6,17.76-2.72c1.04-0.11,1.63,1.17,1.62,1.82c-0.07,4.54-0.26,17.13-0.77,24.07"/>
				<path style="stroke: #091ebf;" id="kvg:06adb-HyougaiKaisho-s12" kvg:type="㇐a" d="M46.72,52.8c3.16-0.47,6.37-0.71,9.55-1.01c0.98-0.09,1.95-0.18,2.89-0.27"/>
				<path style="stroke: #3409bf;" id="kvg:06adb-HyougaiKaisho-s13" kvg:type="㇐a" d="M47.01,64.99c4.7-0.82,12.65-1.99,17.76-2.77"/>
				<path style="stroke: #7409bf;" id="kvg:06adb-HyougaiKaisho-s14" kvg:type="㇙" d="M45.49,40c0.78,0.51,0.93,2.3,1.08,3.32c0.16,1.02,0.16,42.67,0.16,45.22c0,2.98,0.26,3.97,2.13,2.18c1.86-1.79,10.13-8.65,14.39-12.36"/>
				<path style="stroke: #b409bf;" id="kvg:06adb-HyougaiKaisho-s15" kvg:type="㇔" d="M56.74,71.41c3.64,2.2,9.68,9.33,11.35,15.05"/>
			</g>
			<g id="kvg:06adb-HyougaiKaisho-g8" kvg:element="卩" kvg:position="right">
				<g id="kvg:06adb-HyougaiKaisho-g9" kvg:element="厶" kvg:variant="true" kvg:original="厶">
					<path style="stroke: #bf0989;" id="kvg:06adb-HyougaiKaisho-s16" kvg:type="㇆" d="M77.79,40.71c2.84-0.48,12.29-2.48,13.66-2.64c1.36-0.15,3.64-0.31,3.55,2.92c-0.32,11.04-0.77,27.89-2.45,34.82c-2.39,9.83-5.19,0.77-5.6,0.46"/>
					<path style="stroke: #bf0949;" id="kvg:06adb-HyougaiKaisho-s17" kvg:type="㇑" d="M76.11,39.82c0.69,0.47,1.1,2.12,1.24,3.07c0.14,0.94,0,47.46-0.14,53.36"/>
				</g>
			</g>
		</g>
	</g>
</g>
</g>
<g id="kvg:StrokeNumbers_06adb-HyougaiKaisho" style="font-size:8;fill:#808080" transform="scale(3.0,3.0)">
	<text style="fill: #bf0909;" transform="matrix(1 0 0 1 5.85 39.50)">1</text>
	<text style="fill: #bf4909;" transform="matrix(1 0 0 1 18.50 14.50)">2</text>
	<text style="fill: #bf8909;" transform="matrix(1 0 0 1 18.50 49.50)">3</text>
	<text style="fill: #b4bf09;" transform="matrix(1 0 0 1 32.50 46.50)">4</text>
	<text style="fill: #74bf09;" transform="matrix(1 0 0 1 42.50 15.50)">5</text>
	<text style="fill: #34bf09;" transform="matrix(1 0 0 1 55.50 19.50)">6</text>
	<text style="fill: #09bf1e;" transform="matrix(1 0 0 1 50.50 30.50)">7</text>
	<text style="fill: #09bf5f;" transform="matrix(1 0 0 1 69.50 12.50)">8</text>
	<text style="fill: #09bf9f;" transform="matrix(1 0 0 1 82.50 19.50)">9</text>
	<text style="fill: #099fbf;" transform="matrix(1 0 0 1 73.50 29.95)">10</text>
	<text style="fill: #095fbf;" transform="matrix(1 0 0 1 48.50 38.50)">11</text>
	<text style="fill: #091ebf;" transform="matrix(1 0 0 1 50.50 48.50)">12</text>
	<text style="fill: #3409bf;" transform="matrix(1 0 0 1 50.50 60.50)">13</text>
	<text style="fill: #7409bf;" transform="matrix(1 0 0 1 37.50 49.50)">14</text>
	<text style="fill: #b409bf;" transform="matrix(1 0 0 1 61.50 73.58)">15</text>
	<text style="fill: #bf0989;" transform="matrix(1 0 0 1 83.50 36.50)">16</text>
	<text style="fill: #bf0949;" transform="matrix(1 0 0 1 68.50 48.43)">17</text>
</g>
</svg>
