<?xml version="1.0" encoding="UTF-8"?>
<!--
This file has been modified from the original version by the kanji_colorize.py
script (available at http://github.com/cayennes/kanji-colorize) with these
settings:
    mode: spectrum
    saturation: 0.95
    value: 0.75
    image_size: 327
It remains under a Creative Commons-Attribution-Share Alike 3.0 License.

The original SVG has the following copyright:

Copyright (C) 2009/2010/2011 Ulrich Apel.
This work is distributed under the conditions of the Creative Commons
Attribution-Share Alike 3.0 Licence. This means you are free:
* to Share - to copy, distribute and transmit the work
* to Remix - to adapt the work

Under the following conditions:
* Attribution. You must attribute the work by stating your use of KanjiVG in
  your own copyright header and linking to KanjiVG's website
  (http://kanjivg.tagaini.net)
* Share Alike. If you alter, transform, or build upon this work, you may
  distribute the resulting work only under the same or similar license to this
  one.

See http://creativecommons.org/licenses/by-sa/3.0/ for more details.
-->
<!DOCTYPE svg PUBLIC "-//W3C//DTD SVG 1.0//EN" "http://www.w3.org/TR/2001/REC-SVG-20010904/DTD/svg10.dtd" [
<!ATTLIST g
xmlns:kvg CDATA #FIXED "http://kanjivg.tagaini.net"
kvg:element CDATA #IMPLIED
kvg:variant CDATA #IMPLIED
kvg:partial CDATA #IMPLIED
kvg:original CDATA #IMPLIED
kvg:part CDATA #IMPLIED
kvg:number CDATA #IMPLIED
kvg:tradForm CDATA #IMPLIED
kvg:radicalForm CDATA #IMPLIED
kvg:position CDATA #IMPLIED
kvg:radical CDATA #IMPLIED
kvg:phon CDATA #IMPLIED >
<!ATTLIST path
xmlns:kvg CDATA #FIXED "http://kanjivg.tagaini.net"
kvg:type CDATA #IMPLIED >
]>
<svg xmlns="http://www.w3.org/2000/svg" width="327" height = "327" viewBox="0 0 327 327">
<g id="kvg:StrokePaths_06b62-HzFst" style="fill:none;stroke:#000000;stroke-width:3;stroke-linecap:round;stroke-linejoin:round;" transform="scale(3.0,3.0)">
<g id="kvg:06b62-HzFst" kvg:element="止" kvg:radical="general">
	<g id="kvg:06b62-HzFst-g1" kvg:element="卜" kvg:original="ト">
		<path style="stroke: #bf0909;" id="kvg:06b62-HzFst-s1" kvg:type="㇐" d="M55.88,50c7.12-0.75,17.87-2.25,24.85-3c1.73-0.19,2.18-0.25,3.26,0"/>
		<path style="stroke: #64bf09;" id="kvg:06b62-HzFst-s2" kvg:type="㇑" d="M53.37,16.5c1.09,0.5,1.74,2.25,1.96,3.25c0.22,1,0,61.75-0.22,68"/>
	</g>
	<path style="stroke: #09bfbf;" id="kvg:06b62-HzFst-s3" kvg:type="㇑" d="M31.37,47.75c1.09,0.5,1.74,2.25,1.96,3.25c0.22,1,0,31.75-0.22,38"/>
	<path style="stroke: #6409bf;" id="kvg:06b62-HzFst-s4" kvg:type="㇐" d="M14,90.5c0.82,0.25,3.02,0.84,5.2,0.75c11.8-0.5,51.3-5,66.3-5c2.19,0,6,0.5,7.25,0.75"/>
</g>
</g>
<g id="kvg:StrokeNumbers_06b62-HzFst" style="font-size:8;fill:#808080" transform="scale(3.0,3.0)">
	<text style="fill: #bf0909;" transform="matrix(1 0 0 1 62.25 45.13)">1</text>
	<text style="fill: #64bf09;" transform="matrix(1 0 0 1 43.50 15.50)">2</text>
	<text style="fill: #09bfbf;" transform="matrix(1 0 0 1 21.50 47.50)">3</text>
	<text style="fill: #6409bf;" transform="matrix(1 0 0 1 5.25 90.13)">4</text>
</g>
</svg>
