<?xml version="1.0" encoding="UTF-8"?>
<!--
This file has been modified from the original version by the kanji_colorize.py
script (available at http://github.com/cayennes/kanji-colorize) with these
settings:
    mode: spectrum
    saturation: 0.95
    value: 0.75
    image_size: 327
It remains under a Creative Commons-Attribution-Share Alike 3.0 License.

The original SVG has the following copyright:

Copyright (C) 2009/2010/2011 Ulrich Apel.
This work is distributed under the conditions of the Creative Commons
Attribution-Share Alike 3.0 Licence. This means you are free:
* to Share - to copy, distribute and transmit the work
* to Remix - to adapt the work

Under the following conditions:
* Attribution. You must attribute the work by stating your use of KanjiVG in
  your own copyright header and linking to KanjiVG's website
  (http://kanjivg.tagaini.net)
* Share Alike. If you alter, transform, or build upon this work, you may
  distribute the resulting work only under the same or similar license to this
  one.

See http://creativecommons.org/licenses/by-sa/3.0/ for more details.
-->
<!DOCTYPE svg PUBLIC "-//W3C//DTD SVG 1.0//EN" "http://www.w3.org/TR/2001/REC-SVG-20010904/DTD/svg10.dtd" [
<!ATTLIST g
xmlns:kvg CDATA #FIXED "http://kanjivg.tagaini.net"
kvg:element CDATA #IMPLIED
kvg:variant CDATA #IMPLIED
kvg:partial CDATA #IMPLIED
kvg:original CDATA #IMPLIED
kvg:part CDATA #IMPLIED
kvg:number CDATA #IMPLIED
kvg:tradForm CDATA #IMPLIED
kvg:radicalForm CDATA #IMPLIED
kvg:position CDATA #IMPLIED
kvg:radical CDATA #IMPLIED
kvg:phon CDATA #IMPLIED >
<!ATTLIST path
xmlns:kvg CDATA #FIXED "http://kanjivg.tagaini.net"
kvg:type CDATA #IMPLIED >
]>
<svg xmlns="http://www.w3.org/2000/svg" width="327" height = "327" viewBox="0 0 327 327">
<g id="kvg:StrokePaths_06ccc-Ten3" style="fill:none;stroke:#000000;stroke-width:3;stroke-linecap:round;stroke-linejoin:round;" transform="scale(3.0,3.0)">
<g id="kvg:06ccc-Ten3" kvg:element="泌">
	<g id="kvg:06ccc-Ten3-g1" kvg:element="氵" kvg:variant="true" kvg:original="水" kvg:position="left" kvg:radical="general">
		<path style="stroke: #bf0909;" id="kvg:06ccc-Ten3-s1" kvg:type="㇔" d="M20.88,16.25c4.9,1.56,12.64,6.41,13.87,8.84"/>
		<path style="stroke: #bf9109;" id="kvg:06ccc-Ten3-s2" kvg:type="㇔" d="M16.25,37c4.5,1.41,11.62,5.8,12.75,8"/>
		<path style="stroke: #64bf09;" id="kvg:06ccc-Ten3-s3" kvg:type="㇀" d="M13.25,86.23c1.71,1.27,3.78,1.32,4.86-0.25c3.14-4.57,6.29-10.16,9.14-15.99"/>
	</g>
	<g id="kvg:06ccc-Ten3-g2" kvg:element="必" kvg:position="right">
		<g id="kvg:06ccc-Ten3-g3" kvg:element="心" kvg:part="1" kvg:variant="true">
			<g id="kvg:06ccc-Ten3-g4" kvg:element="丿">
				<path style="stroke: #09bf36;" id="kvg:06ccc-Ten3-s4" kvg:type="㇒" d="M77.9,23.18c0.35,1.07,0.55,1.81,0.26,4.26C76.25,43.5,63.5,81.75,36.21,95.72"/>
			</g>
			<g id="kvg:06ccc-Ten3-g5" kvg:element="心" kvg:part="2" kvg:variant="true">
				<path style="stroke: #09bfbf;" id="kvg:06ccc-Ten3-s5" kvg:type="㇟" d="M49.93,37.62c0.57,1.13,1.49,2.25,1.69,3.35C57.25,71,63.9,85.51,83.5,91.25c10.25,3,11.25-0.25,4.46-9.63"/>
				<path style="stroke: #0936bf;" id="kvg:06ccc-Ten3-s6" kvg:type="㇔" d="M54.11,24.5c2.14,5.75,6.46,9.99,7.58,4.97"/>
				<path style="stroke: #6409bf;" id="kvg:06ccc-Ten3-s7" kvg:type="㇔" d="M45.26,57.07c0.33,2.47-3.33,13.36-5.99,17.48"/>
				<path style="stroke: #bf0991;" id="kvg:06ccc-Ten3-s8" kvg:type="㇔" d="M85.31,49.17c3.49,3.06,7.63,9.33,8.94,15.3"/>
			</g>
		</g>
	</g>
</g>
</g>
<g id="kvg:StrokeNumbers_06ccc-Ten3" style="font-size:8;fill:#808080" transform="scale(3.0,3.0)">
	<text style="fill: #bf0909;" transform="matrix(1 0 0 1 14.50 17.50)">1</text>
	<text style="fill: #bf9109;" transform="matrix(1 0 0 1 8.50 38.50)">2</text>
	<text style="fill: #64bf09;" transform="matrix(1 0 0 1 6.50 90.50)">3</text>
	<text style="fill: #09bf36;" transform="matrix(1 0 0 1 68.50 22.63)">4</text>
	<text style="fill: #09bfbf;" transform="matrix(1 0 0 1 42.50 37.50)">5</text>
	<text style="fill: #0936bf;" transform="matrix(1 0 0 1 51.50 21.13)">6</text>
	<text style="fill: #6409bf;" transform="matrix(1 0 0 1 40.50 53.50)">7</text>
	<text style="fill: #bf0991;" transform="matrix(1 0 0 1 82.50 45.13)">8</text>
</g>
</svg>
