<?xml version="1.0" encoding="UTF-8"?>
<!--
This file has been modified from the original version by the kanji_colorize.py
script (available at http://github.com/cayennes/kanji-colorize) with these
settings:
    mode: spectrum
    saturation: 0.95
    value: 0.75
    image_size: 327
It remains under a Creative Commons-Attribution-Share Alike 3.0 License.

The original SVG has the following copyright:

Copyright (C) 2009/2010/2011 Ulrich Apel.
This work is distributed under the conditions of the Creative Commons
Attribution-Share Alike 3.0 Licence. This means you are free:
* to Share - to copy, distribute and transmit the work
* to Remix - to adapt the work

Under the following conditions:
* Attribution. You must attribute the work by stating your use of KanjiVG in
  your own copyright header and linking to KanjiVG's website
  (http://kanjivg.tagaini.net)
* Share Alike. If you alter, transform, or build upon this work, you may
  distribute the resulting work only under the same or similar license to this
  one.

See http://creativecommons.org/licenses/by-sa/3.0/ for more details.
-->
<!DOCTYPE svg PUBLIC "-//W3C//DTD SVG 1.0//EN" "http://www.w3.org/TR/2001/REC-SVG-20010904/DTD/svg10.dtd" [
<!ATTLIST g
xmlns:kvg CDATA #FIXED "http://kanjivg.tagaini.net"
kvg:element CDATA #IMPLIED
kvg:variant CDATA #IMPLIED
kvg:partial CDATA #IMPLIED
kvg:original CDATA #IMPLIED
kvg:part CDATA #IMPLIED
kvg:number CDATA #IMPLIED
kvg:tradForm CDATA #IMPLIED
kvg:radicalForm CDATA #IMPLIED
kvg:position CDATA #IMPLIED
kvg:radical CDATA #IMPLIED
kvg:phon CDATA #IMPLIED >
<!ATTLIST path
xmlns:kvg CDATA #FIXED "http://kanjivg.tagaini.net"
kvg:type CDATA #IMPLIED >
]>
<svg xmlns="http://www.w3.org/2000/svg" width="327" height = "327" viewBox="0 0 327 327">
<g id="kvg:StrokePaths_06e1a-Kaisho" style="fill:none;stroke:#000000;stroke-width:3;stroke-linecap:round;stroke-linejoin:round;" transform="scale(3.0,3.0)">
<g id="kvg:06e1a-Kaisho" kvg:element="渚">
	<g id="kvg:06e1a-Kaisho-g1" kvg:element="氵" kvg:variant="true" kvg:original="水" kvg:position="left" kvg:radical="general">
		<path style="stroke: #bf0909;" id="kvg:06e1a-Kaisho-s1" kvg:type="㇔" d="M19.88,16.25c3.92,1.52,10.13,6.23,11.12,8.59"/>
		<path style="stroke: #bf6c09;" id="kvg:06e1a-Kaisho-s2" kvg:type="㇔" d="M13.5,42c3.27,1.37,8.43,5.62,9.25,7.75"/>
		<path style="stroke: #aebf09;" id="kvg:06e1a-Kaisho-s3" kvg:type="㇀" d="M14.5,87.9c1.59,1.38,3.51,1.44,4.51-0.27c2.92-4.97,5.84-11.05,8.49-17.38"/>
	</g>
	<g id="kvg:06e1a-Kaisho-g2" kvg:element="者" kvg:position="right">
		<g id="kvg:06e1a-Kaisho-g3" kvg:element="耂" kvg:original="老" kvg:partial="true">
			<g id="kvg:06e1a-Kaisho-g4" kvg:element="土">
				<path style="stroke: #4bbf09;" id="kvg:06e1a-Kaisho-s4" kvg:type="㇐" d="M41.41,28.55c0.66,0.32,1.87,0.36,2.54,0.32c7.52-0.52,22.43-2.45,29.86-2.67c1.1-0.03,1.77,0.15,2.32,0.31"/>
				<path style="stroke: #09bf2a;" id="kvg:06e1a-Kaisho-s5" kvg:type="㇑a" d="M57.25,12.87c0.1,0.29,1.41,1.49,1.52,3.3c0.48,8.71,0.26,24.56,0.26,27.53"/>
				<path style="stroke: #09bf8d;" id="kvg:06e1a-Kaisho-s6" kvg:type="㇐" d="M32.5,45.37c1.5,0.46,3.79,0.72,5.15,0.67C47,45.75,83,42.74,91.68,42.53c2.24-0.05,3.58,0.32,4.7,0.66"/>
			</g>
			<path style="stroke: #098dbf;" id="kvg:06e1a-Kaisho-s7" kvg:type="㇒" d="M84.44,19.36c0.14,1.22,0.28,3.45-0.79,4.89c-13.72,18.52-26.16,34-51.72,48.88"/>
		</g>
		<g id="kvg:06e1a-Kaisho-g5" kvg:element="日">
			<path style="stroke: #092abf;" id="kvg:06e1a-Kaisho-s8" kvg:type="㇑" d="M52.91,62.39c0.39,0.82,0.78,1.23,0.78,2.33c0,1.09-0.13,31.69,0,32.78"/>
			<path style="stroke: #4b09bf;" id="kvg:06e1a-Kaisho-s9" kvg:type="㇕a" d="M54.33,64.03c2.19-0.14,24.83-2.32,26.83-2.49c1.66-0.13,2.73,1.52,2.61,2.33c-0.26,1.64-0.51,32.7-0.51,33.52"/>
			<path style="stroke: #ae09bf;" id="kvg:06e1a-Kaisho-s10" kvg:type="㇐a" d="M54.72,78.35c4.54,0,9.15-0.61,13.67-0.97c1.53-0.12,3.06-0.24,4.53-0.36"/>
			<path style="stroke: #bf096c;" id="kvg:06e1a-Kaisho-s11" kvg:type="㇐a" d="M54.58,94.92c6.04-0.59,20.24-1.16,27.76-1.66"/>
		</g>
	</g>
</g>
</g>
<g id="kvg:StrokeNumbers_06e1a-Kaisho" style="font-size:8;fill:#808080" transform="scale(3.0,3.0)">
	<text style="fill: #bf0909;" transform="matrix(1 0 0 1 13.25 16.25)">1</text>
	<text style="fill: #bf6c09;" transform="matrix(1 0 0 1 6.25 42.25)">2</text>
	<text style="fill: #aebf09;" transform="matrix(1 0 0 1 8.25 92.25)">3</text>
	<text style="fill: #4bbf09;" transform="matrix(1 0 0 1 39.25 25.25)">4</text>
	<text style="fill: #09bf2a;" transform="matrix(1 0 0 1 47.25 11.25)">5</text>
	<text style="fill: #09bf8d;" transform="matrix(1 0 0 1 31.25 42.25)">6</text>
	<text style="fill: #098dbf;" transform="matrix(1 0 0 1 78.25 18.25)">7</text>
	<text style="fill: #092abf;" transform="matrix(1 0 0 1 46.25 75.25)">8</text>
	<text style="fill: #4b09bf;" transform="matrix(1 0 0 1 63.25 60.25)">9</text>
	<text style="fill: #ae09bf;" transform="matrix(1 0 0 1 56.99 75.25)">10</text>
	<text style="fill: #bf096c;" transform="matrix(1 0 0 1 57.25 92.25)">11</text>
</g>
</svg>
