<?xml version="1.0" encoding="UTF-8"?>
<!--
This file has been modified from the original version by the kanji_colorize.py
script (available at http://github.com/cayennes/kanji-colorize) with these
settings:
    mode: spectrum
    saturation: 0.95
    value: 0.75
    image_size: 327
It remains under a Creative Commons-Attribution-Share Alike 3.0 License.

The original SVG has the following copyright:

Copyright (C) 2009/2010/2011 Ulrich Apel.
This work is distributed under the conditions of the Creative Commons
Attribution-Share Alike 3.0 Licence. This means you are free:
* to Share - to copy, distribute and transmit the work
* to Remix - to adapt the work

Under the following conditions:
* Attribution. You must attribute the work by stating your use of KanjiVG in
  your own copyright header and linking to KanjiVG's website
  (http://kanjivg.tagaini.net)
* Share Alike. If you alter, transform, or build upon this work, you may
  distribute the resulting work only under the same or similar license to this
  one.

See http://creativecommons.org/licenses/by-sa/3.0/ for more details.
-->
<!DOCTYPE svg PUBLIC "-//W3C//DTD SVG 1.0//EN" "http://www.w3.org/TR/2001/REC-SVG-20010904/DTD/svg10.dtd" [
<!ATTLIST g
xmlns:kvg CDATA #FIXED "http://kanjivg.tagaini.net"
kvg:element CDATA #IMPLIED
kvg:variant CDATA #IMPLIED
kvg:partial CDATA #IMPLIED
kvg:original CDATA #IMPLIED
kvg:part CDATA #IMPLIED
kvg:number CDATA #IMPLIED
kvg:tradForm CDATA #IMPLIED
kvg:radicalForm CDATA #IMPLIED
kvg:position CDATA #IMPLIED
kvg:radical CDATA #IMPLIED
kvg:phon CDATA #IMPLIED >
<!ATTLIST path
xmlns:kvg CDATA #FIXED "http://kanjivg.tagaini.net"
kvg:type CDATA #IMPLIED >
]>
<svg xmlns="http://www.w3.org/2000/svg" width="327" height = "327" viewBox="0 0 327 327">
<g id="kvg:StrokePaths_06f01-Kaisho" style="fill:none;stroke:#000000;stroke-width:3;stroke-linecap:round;stroke-linejoin:round;" transform="scale(3.0,3.0)">
<g id="kvg:06f01-Kaisho" kvg:element="漁">
	<g id="kvg:06f01-Kaisho-g1" kvg:element="氵" kvg:variant="true" kvg:original="水" kvg:position="left" kvg:radical="general">
		<path style="stroke: #bf0909;" id="kvg:06f01-Kaisho-s1" kvg:type="㇔" d="M22.13,17.25c3.57,1.3,9.22,5.33,10.12,7.34"/>
		<path style="stroke: #bf5709;" id="kvg:06f01-Kaisho-s2" kvg:type="㇔" d="M17.75,40.25c3.62,1.28,9.34,5.26,10.25,7.25"/>
		<path style="stroke: #bfa509;" id="kvg:06f01-Kaisho-s3" kvg:type="㇀" d="M16.25,85.21c1.5,1.31,3.31,1.36,4.25-0.25c2.75-4.7,5.5-10.45,8-16.45"/>
	</g>
	<g id="kvg:06f01-Kaisho-g2" kvg:element="魚" kvg:position="right">
		<g id="kvg:06f01-Kaisho-g3" kvg:element="𠂊" kvg:variant="true" kvg:original="勹" kvg:position="top">
			<path style="stroke: #8bbf09;" id="kvg:06f01-Kaisho-s4" kvg:type="㇒" d="M59.23,16.5c0.05,0.5,0.1,1.29-0.09,2.01c-1.13,4.24-7.59,13.55-16.44,19.25"/>
			<path style="stroke: #3dbf09;" id="kvg:06f01-Kaisho-s5" kvg:type="㇇" d="M57.99,22.4c2.16,0,14.36-1.73,16.63-1.98c1.95-0.22,2.95,2.38,2.14,3.48c-3.42,4.62-7.26,8.61-12.83,15.94"/>
		</g>
		<g id="kvg:06f01-Kaisho-g4" kvg:position="bottom">
			<g id="kvg:06f01-Kaisho-g5" kvg:element="田">
				<path style="stroke: #09bf23;" id="kvg:06f01-Kaisho-s6" kvg:type="㇑" d="M46.03,42.82c0.3,0.46,0.31,0.78,0.48,1.37c1.37,4.8,2.16,17.43,3,26.38"/>
				<path style="stroke: #09bf71;" id="kvg:06f01-Kaisho-s7" kvg:type="㇕a" d="M47.44,43.46c10.61-1.21,28.78-3.26,36.7-4.27c2.91-0.37,4.4,0.94,4.25,2.27C87.85,46.29,86,59,83.67,68.06"/>
				<path style="stroke: #09bfbf;" id="kvg:06f01-Kaisho-s8" kvg:type="㇑a" d="M64.55,42.15c1.2,0.6,2.12,2.55,2.16,4.1c0.16,6.84,0.03,16.54,0.03,19.93"/>
				<path style="stroke: #0971bf;" id="kvg:06f01-Kaisho-s9" kvg:type="㇐a" d="M49.42,55.88c8.21-1.15,16.48-1.94,24.72-2.86c0.99-0.11,1.95-0.22,2.87-0.32"/>
				<path style="stroke: #0923bf;" id="kvg:06f01-Kaisho-s10" kvg:type="㇐a" d="M50.05,68.76c7.64-0.51,23.57-2.67,34.11-3.51"/>
			</g>
			<g id="kvg:06f01-Kaisho-g6" kvg:element="灬" kvg:variant="true" kvg:original="火">
				<path style="stroke: #3d09bf;" id="kvg:06f01-Kaisho-s11" kvg:type="㇔" d="M42.2,79.35c0,4.85-6.55,12.01-8.26,13.4"/>
				<path style="stroke: #8b09bf;" id="kvg:06f01-Kaisho-s12" kvg:type="㇔" d="M54.56,77.58c1.94,2.64,3.78,9.91,4.27,14.02"/>
				<path style="stroke: #bf09a5;" id="kvg:06f01-Kaisho-s13" kvg:type="㇔" d="M69.65,76.42c2.4,2.55,6.19,10.48,6.79,14.45"/>
				<path style="stroke: #bf0957;" id="kvg:06f01-Kaisho-s14" kvg:type="㇔" d="M86.29,77.12c3.16,2.43,8.17,9.98,8.96,13.76"/>
			</g>
		</g>
	</g>
</g>
</g>
<g id="kvg:StrokeNumbers_06f01-Kaisho" style="font-size:8;fill:#808080" transform="scale(3.0,3.0)">
	<text style="fill: #bf0909;" transform="matrix(1 0 0 1 13.99 18.13)">1</text>
	<text style="fill: #bf5709;" transform="matrix(1 0 0 1 9.50 40.56)">2</text>
	<text style="fill: #bfa509;" transform="matrix(1 0 0 1 8.50 89.50)">3</text>
	<text style="fill: #8bbf09;" transform="matrix(1 0 0 1 52.50 17.50)">4</text>
	<text style="fill: #3dbf09;" transform="matrix(1 0 0 1 63.50 18.50)">5</text>
	<text style="fill: #09bf23;" transform="matrix(1 0 0 1 39.49 50.76)">6</text>
	<text style="fill: #09bf71;" transform="matrix(1 0 0 1 52.99 40.18)">7</text>
	<text style="fill: #09bfbf;" transform="matrix(1 0 0 1 60.49 48.93)">8</text>
	<text style="fill: #0971bf;" transform="matrix(1 0 0 1 53.50 52.10)">9</text>
	<text style="fill: #0923bf;" transform="matrix(1 0 0 1 53.50 65.53)">10</text>
	<text style="fill: #3d09bf;" transform="matrix(1 0 0 1 32.50 80.50)">11</text>
	<text style="fill: #8b09bf;" transform="matrix(1 0 0 1 45.94 82.50)">12</text>
	<text style="fill: #bf09a5;" transform="matrix(1 0 0 1 60.94 82.50)">13</text>
	<text style="fill: #bf0957;" transform="matrix(1 0 0 1 77.50 82.50)">14</text>
</g>
</svg>
