<?xml version="1.0" encoding="UTF-8"?>
<!--
This file has been modified from the original version by the kanji_colorize.py
script (available at http://github.com/cayennes/kanji-colorize) with these
settings:
    mode: spectrum
    saturation: 0.95
    value: 0.75
    image_size: 327
It remains under a Creative Commons-Attribution-Share Alike 3.0 License.

The original SVG has the following copyright:

Copyright (C) 2009/2010/2011 Ulrich Apel.
This work is distributed under the conditions of the Creative Commons
Attribution-Share Alike 3.0 Licence. This means you are free:
* to Share - to copy, distribute and transmit the work
* to Remix - to adapt the work

Under the following conditions:
* Attribution. You must attribute the work by stating your use of KanjiVG in
  your own copyright header and linking to KanjiVG's website
  (http://kanjivg.tagaini.net)
* Share Alike. If you alter, transform, or build upon this work, you may
  distribute the resulting work only under the same or similar license to this
  one.

See http://creativecommons.org/licenses/by-sa/3.0/ for more details.
-->
<!DOCTYPE svg PUBLIC "-//W3C//DTD SVG 1.0//EN" "http://www.w3.org/TR/2001/REC-SVG-20010904/DTD/svg10.dtd" [
<!ATTLIST g
xmlns:kvg CDATA #FIXED "http://kanjivg.tagaini.net"
kvg:element CDATA #IMPLIED
kvg:variant CDATA #IMPLIED
kvg:partial CDATA #IMPLIED
kvg:original CDATA #IMPLIED
kvg:part CDATA #IMPLIED
kvg:number CDATA #IMPLIED
kvg:tradForm CDATA #IMPLIED
kvg:radicalForm CDATA #IMPLIED
kvg:position CDATA #IMPLIED
kvg:radical CDATA #IMPLIED
kvg:phon CDATA #IMPLIED >
<!ATTLIST path
xmlns:kvg CDATA #FIXED "http://kanjivg.tagaini.net"
kvg:type CDATA #IMPLIED >
]>
<svg xmlns="http://www.w3.org/2000/svg" width="327" height = "327" viewBox="0 0 327 327">
<g id="kvg:StrokePaths_06f64-Kaisho" style="fill:none;stroke:#000000;stroke-width:3;stroke-linecap:round;stroke-linejoin:round;" transform="scale(3.0,3.0)">
<g id="kvg:06f64-Kaisho" kvg:element="潤">
	<g id="kvg:06f64-Kaisho-g1" kvg:element="氵" kvg:variant="true" kvg:original="水" kvg:position="left" kvg:radical="general">
		<path style="stroke: #bf0909;" id="kvg:06f64-Kaisho-s1" kvg:type="㇔" d="M18.88,14.25c4.01,1.38,10.36,5.69,11.37,7.84"/>
		<path style="stroke: #bf5209;" id="kvg:06f64-Kaisho-s2" kvg:type="㇔" d="M14.75,36.5c3.62,1.68,9.34,6.89,10.25,9.5"/>
		<path style="stroke: #bf9a09;" id="kvg:06f64-Kaisho-s3" kvg:type="㇀" d="M13.75,83.71c1.5,1.31,3.31,1.36,4.25-0.25C20.75,78.75,23.5,73,26,67"/>
	</g>
	<g id="kvg:06f64-Kaisho-g2" kvg:element="閏" kvg:position="right">
		<g id="kvg:06f64-Kaisho-g3" kvg:element="門" kvg:position="kamae">
			<g id="kvg:06f64-Kaisho-g4" kvg:position="left">
				<path style="stroke: #9abf09;" id="kvg:06f64-Kaisho-s4" kvg:type="㇑" d="M37.64,16.78c0.61,0.42,2.01,3.17,2.01,4.02c0,4.45-0.08,65.37-0.2,70.66"/>
				<path style="stroke: #52bf09;" id="kvg:06f64-Kaisho-s5" kvg:type="㇕a" d="M39.82,19.4c2.02-0.1,14.37-2.55,16.21-2.66c1.53-0.1,2.33,0.86,2.4,1.62c0.11,1.16-0.97,21.1-0.97,21.67"/>
				<path style="stroke: #09bf09;" id="kvg:06f64-Kaisho-s6" kvg:type="㇐a" d="M40.18,29.12c2.99-0.34,5.97-0.82,8.94-1.29c0.8-0.13,1.61-0.25,2.4-0.38"/>
				<path style="stroke: #09bf52;" id="kvg:06f64-Kaisho-s7" kvg:type="㇐a" d="M39.82,41.02c6.72-1.09,11.12-1.92,17.06-2.42"/>
			</g>
			<g id="kvg:06f64-Kaisho-g5" kvg:position="right">
				<path style="stroke: #09bf9a;" id="kvg:06f64-Kaisho-s8" kvg:type="㇑" d="M72.75,14.18c0.39,0.59,0.79,1.82,0.79,2.58c0,0.76-0.13,22.16,0,22.93"/>
				<path style="stroke: #099abf;" id="kvg:06f64-Kaisho-s9" kvg:type="㇆a" d="M74.19,15.27c6.12-0.88,15.66-2.33,17.68-2.36c1.68-0.02,2.65,1.15,2.64,1.73c-0.44,17.49-0.44,62.78-0.44,75.48c0,9.79-5.02,2.28-6.31,1.05"/>
				<path style="stroke: #0952bf;" id="kvg:06f64-Kaisho-s10" kvg:type="㇐a" d="M74.58,26.31c3.04-0.32,6.07-0.71,9.11-1.06c0.8-0.09,1.6-0.18,2.4-0.27"/>
				<path style="stroke: #0909bf;" id="kvg:06f64-Kaisho-s11" kvg:type="㇐a" d="M74.19,37.67c7.19-0.4,12.14-1,18.63-1.25"/>
			</g>
		</g>
		<g id="kvg:06f64-Kaisho-g6" kvg:element="王" kvg:original="玉" kvg:partial="true">
			<path style="stroke: #5209bf;" id="kvg:06f64-Kaisho-s12" kvg:type="㇐" d="M51.5,52.43c0.45,0.29,1.92,0.03,2.38,0.02c5.62-0.19,18.2-1.08,23.31-1.38c0.7-0.04,1.33,0.06,1.91,0.3"/>
			<path style="stroke: #9a09bf;" id="kvg:06f64-Kaisho-s13" kvg:type="㇑a" d="M64.55,53.41c0.83,1.33,0.83,2.13,0.83,3.19c0,4.03-0.01,17.2-0.01,22.12"/>
			<path style="stroke: #bf099a;" id="kvg:06f64-Kaisho-s14" kvg:type="㇐" d="M54.09,65.29c0.45,0.32,1.92,0.15,2.38,0.14c6.03-0.18,13.21-1.17,18.8-1.73c0.56-0.06,1.79-0.13,2.62,0.15"/>
			<path style="stroke: #bf0952;" id="kvg:06f64-Kaisho-s15" kvg:type="㇐" d="M49.78,79.21c0.4,0.18,2.47,0.5,3.15,0.46c6.32-0.42,17.07-1.17,25.2-2.26c1.07-0.14,2.39,0.29,2.93,0.57"/>
		</g>
	</g>
</g>
</g>
<g id="kvg:StrokeNumbers_06f64-Kaisho" style="font-size:8;fill:#808080" transform="scale(3.0,3.0)">
	<text style="fill: #bf0909;" transform="matrix(1 0 0 1 11.50 15.50)">1</text>
	<text style="fill: #bf5209;" transform="matrix(1 0 0 1 8.25 37.50)">2</text>
	<text style="fill: #bf9a09;" transform="matrix(1 0 0 1 6.75 88.50)">3</text>
	<text style="fill: #9abf09;" transform="matrix(1 0 0 1 32.25 30.13)">4</text>
	<text style="fill: #52bf09;" transform="matrix(1 0 0 1 42.50 15.50)">5</text>
	<text style="fill: #09bf09;" transform="matrix(1 0 0 1 44.50 26.50)">6</text>
	<text style="fill: #09bf52;" transform="matrix(1 0 0 1 44.50 37.50)">7</text>
	<text style="fill: #09bf9a;" transform="matrix(1 0 0 1 65.50 21.50)">8</text>
	<text style="fill: #099abf;" transform="matrix(1 0 0 1 74.50 12.13)">9</text>
	<text style="fill: #0952bf;" transform="matrix(1 0 0 1 77.25 23.50)">10</text>
	<text style="fill: #0909bf;" transform="matrix(1 0 0 1 77.25 34.48)">11</text>
	<text style="fill: #5209bf;" transform="matrix(1 0 0 1 43.45 53.50)">12</text>
	<text style="fill: #9a09bf;" transform="matrix(1 0 0 1 56.50 60.50)">13</text>
	<text style="fill: #bf099a;" transform="matrix(1 0 0 1 44.34 65.50)">14</text>
	<text style="fill: #bf0952;" transform="matrix(1 0 0 1 44.50 76.40)">15</text>
</g>
</svg>
