<?xml version="1.0" encoding="UTF-8"?>
<!--
This file has been modified from the original version by the kanji_colorize.py
script (available at http://github.com/cayennes/kanji-colorize) with these
settings:
    mode: spectrum
    saturation: 0.95
    value: 0.75
    image_size: 327
It remains under a Creative Commons-Attribution-Share Alike 3.0 License.

The original SVG has the following copyright:

Copyright (C) 2009/2010/2011 Ulrich Apel.
This work is distributed under the conditions of the Creative Commons
Attribution-Share Alike 3.0 Licence. This means you are free:
* to Share - to copy, distribute and transmit the work
* to Remix - to adapt the work

Under the following conditions:
* Attribution. You must attribute the work by stating your use of KanjiVG in
  your own copyright header and linking to KanjiVG's website
  (http://kanjivg.tagaini.net)
* Share Alike. If you alter, transform, or build upon this work, you may
  distribute the resulting work only under the same or similar license to this
  one.

See http://creativecommons.org/licenses/by-sa/3.0/ for more details.
-->
<!DOCTYPE svg PUBLIC "-//W3C//DTD SVG 1.0//EN" "http://www.w3.org/TR/2001/REC-SVG-20010904/DTD/svg10.dtd" [
<!ATTLIST g
xmlns:kvg CDATA #FIXED "http://kanjivg.tagaini.net"
kvg:element CDATA #IMPLIED
kvg:variant CDATA #IMPLIED
kvg:partial CDATA #IMPLIED
kvg:original CDATA #IMPLIED
kvg:part CDATA #IMPLIED
kvg:number CDATA #IMPLIED
kvg:tradForm CDATA #IMPLIED
kvg:radicalForm CDATA #IMPLIED
kvg:position CDATA #IMPLIED
kvg:radical CDATA #IMPLIED
kvg:phon CDATA #IMPLIED >
<!ATTLIST path
xmlns:kvg CDATA #FIXED "http://kanjivg.tagaini.net"
kvg:type CDATA #IMPLIED >
]>
<svg xmlns="http://www.w3.org/2000/svg" width="327" height = "327" viewBox="0 0 327 327">
<g id="kvg:StrokePaths_06f97-Kaisho" style="fill:none;stroke:#000000;stroke-width:3;stroke-linecap:round;stroke-linejoin:round;" transform="scale(3.0,3.0)">
<g id="kvg:06f97-Kaisho" kvg:element="澗">
	<g id="kvg:06f97-Kaisho-g1" kvg:element="氵" kvg:variant="true" kvg:original="水" kvg:position="left" kvg:radical="general">
		<path style="stroke: #bf0909;" id="kvg:06f97-Kaisho-s1" kvg:type="㇔" d="M17.63,16.75c4.19,1.65,10.82,6.78,11.87,9.34"/>
		<path style="stroke: #bf5209;" id="kvg:06f97-Kaisho-s2" kvg:type="㇔" d="M14.75,43.25c3.79,1.54,9.8,6.35,10.75,8.75"/>
		<path style="stroke: #bf9a09;" id="kvg:06f97-Kaisho-s3" kvg:type="㇀" d="M15.75,90.21c1.5,1.31,3.31,1.36,4.25-0.25c2.75-4.7,5.5-10.45,8-16.45"/>
	</g>
	<g id="kvg:06f97-Kaisho-g2" kvg:element="間" kvg:position="right">
		<g id="kvg:06f97-Kaisho-g3" kvg:element="門" kvg:position="kamae">
			<g id="kvg:06f97-Kaisho-g4" kvg:position="left">
				<path style="stroke: #9abf09;" id="kvg:06f97-Kaisho-s4" kvg:type="㇑" d="M36.39,18.66c0.6,0.45,1.06,2.38,1.18,3.27c0.12,0.89-0.08,67.78-0.2,73.34"/>
				<path style="stroke: #52bf09;" id="kvg:06f97-Kaisho-s5" kvg:type="㇕a" d="M37.73,20.12c2.01-0.1,16.28-2.63,18.1-2.75c1.52-0.1,2.31,0.9,2.39,1.69c0.11,1.21-1.27,24.06-1.27,24.65"/>
				<path style="stroke: #09bf09;" id="kvg:06f97-Kaisho-s6" kvg:type="㇐a" d="M38.09,31.28c3.17-0.37,6.33-0.87,9.49-1.34c0.88-0.13,1.75-0.26,2.6-0.39"/>
				<path style="stroke: #09bf52;" id="kvg:06f97-Kaisho-s7" kvg:type="㇐a" d="M37.73,43.74c6.67-1.14,12.26-2,18.16-2.52"/>
			</g>
			<g id="kvg:06f97-Kaisho-g5" kvg:position="right">
				<path style="stroke: #09bf9a;" id="kvg:06f97-Kaisho-s8" kvg:type="㇑" d="M70.18,16.8c0.34,0.53,0.69,1.65,0.69,2.36c0,0.7-0.12,23,0,23.7"/>
				<path style="stroke: #099abf;" id="kvg:06f97-Kaisho-s9" kvg:type="㇆a" d="M70.94,18.23c1.94-0.09,17.73-3.38,19.5-3.49c1.48-0.09,2.33,0.96,2.31,1.49c-0.38,16.2-0.39,63-0.39,74.75c0,10.01-5.43,1.29-6.56,0.22"/>
				<path style="stroke: #0952bf;" id="kvg:06f97-Kaisho-s10" kvg:type="㇐a" d="M71.28,28.95c3.3,0,6.74-0.83,9.98-1.33c1.09-0.17,2.18-0.33,3.23-0.49"/>
				<path style="stroke: #0909bf;" id="kvg:06f97-Kaisho-s11" kvg:type="㇐a" d="M71.44,40.94c3.89,0,15.3-2.48,20.33-2.48"/>
			</g>
		</g>
		<g id="kvg:06f97-Kaisho-g6" kvg:element="日">
			<path style="stroke: #5209bf;" id="kvg:06f97-Kaisho-s12" kvg:type="㇑" d="M53.55,53.37c0.32,0.75,0.65,1.61,0.65,2.61s-0.11,28.61,0,29.61"/>
			<path style="stroke: #9a09bf;" id="kvg:06f97-Kaisho-s13" kvg:type="㇕a" d="M54.74,54.47c1.82-0.13,16.18-2.11,17.84-2.26c1.38-0.13,2.27,1.39,2.17,2.13c-0.22,1.51-0.43,29.99-0.43,30.74"/>
			<path style="stroke: #bf099a;" id="kvg:06f97-Kaisho-s14" kvg:type="㇐a" d="M55.06,68.53c3.16-0.51,6.34-0.92,9.51-1.32c0.95-0.12,1.9-0.24,2.81-0.34"/>
			<path style="stroke: #bf0952;" id="kvg:06f97-Kaisho-s15" kvg:type="㇐a" d="M54.74,84.26c3.64,0,14.29-1.48,18.62-1.96"/>
		</g>
	</g>
</g>
</g>
<g id="kvg:StrokeNumbers_06f97-Kaisho" style="font-size:8;fill:#808080" transform="scale(3.0,3.0)">
	<text style="fill: #bf0909;" transform="matrix(1 0 0 1 11.50 18.38)">1</text>
	<text style="fill: #bf5209;" transform="matrix(1 0 0 1 7.50 43.50)">2</text>
	<text style="fill: #bf9a09;" transform="matrix(1 0 0 1 7.75 92.73)">3</text>
	<text style="fill: #9abf09;" transform="matrix(1 0 0 1 30.50 31.50)">4</text>
	<text style="fill: #52bf09;" transform="matrix(1 0 0 1 38.50 16.50)">5</text>
	<text style="fill: #09bf09;" transform="matrix(1 0 0 1 42.50 28.25)">6</text>
	<text style="fill: #09bf52;" transform="matrix(1 0 0 1 42.50 40.18)">7</text>
	<text style="fill: #09bf9a;" transform="matrix(1 0 0 1 63.50 24.10)">8</text>
	<text style="fill: #099abf;" transform="matrix(1 0 0 1 71.50 14.50)">9</text>
	<text style="fill: #0952bf;" transform="matrix(1 0 0 1 74.50 25.50)">10</text>
	<text style="fill: #0909bf;" transform="matrix(1 0 0 1 73.50 37.50)">11</text>
	<text style="fill: #5209bf;" transform="matrix(1 0 0 1 44.25 61.80)">12</text>
	<text style="fill: #9a09bf;" transform="matrix(1 0 0 1 55.50 51.50)">13</text>
	<text style="fill: #bf099a;" transform="matrix(1 0 0 1 57.50 64.50)">14</text>
	<text style="fill: #bf0952;" transform="matrix(1 0 0 1 58.25 80.50)">15</text>
</g>
</svg>
