<?xml version="1.0" encoding="UTF-8"?>
<!--
This file has been modified from the original version by the kanji_colorize.py
script (available at http://github.com/cayennes/kanji-colorize) with these
settings:
    mode: spectrum
    saturation: 0.95
    value: 0.75
    image_size: 327
It remains under a Creative Commons-Attribution-Share Alike 3.0 License.

The original SVG has the following copyright:

Copyright (C) 2009/2010/2011 Ulrich Apel.
This work is distributed under the conditions of the Creative Commons
Attribution-Share Alike 3.0 Licence. This means you are free:
* to Share - to copy, distribute and transmit the work
* to Remix - to adapt the work

Under the following conditions:
* Attribution. You must attribute the work by stating your use of KanjiVG in
  your own copyright header and linking to KanjiVG's website
  (http://kanjivg.tagaini.net)
* Share Alike. If you alter, transform, or build upon this work, you may
  distribute the resulting work only under the same or similar license to this
  one.

See http://creativecommons.org/licenses/by-sa/3.0/ for more details.
-->
<!DOCTYPE svg PUBLIC "-//W3C//DTD SVG 1.0//EN" "http://www.w3.org/TR/2001/REC-SVG-20010904/DTD/svg10.dtd" [
<!ATTLIST g
xmlns:kvg CDATA #FIXED "http://kanjivg.tagaini.net"
kvg:element CDATA #IMPLIED
kvg:variant CDATA #IMPLIED
kvg:partial CDATA #IMPLIED
kvg:original CDATA #IMPLIED
kvg:part CDATA #IMPLIED
kvg:number CDATA #IMPLIED
kvg:tradForm CDATA #IMPLIED
kvg:radicalForm CDATA #IMPLIED
kvg:position CDATA #IMPLIED
kvg:radical CDATA #IMPLIED
kvg:phon CDATA #IMPLIED >
<!ATTLIST path
xmlns:kvg CDATA #FIXED "http://kanjivg.tagaini.net"
kvg:type CDATA #IMPLIED >
]>
<svg xmlns="http://www.w3.org/2000/svg" width="327" height = "327" viewBox="0 0 327 327">
<g id="kvg:StrokePaths_070b9-HzFst" style="fill:none;stroke:#000000;stroke-width:3;stroke-linecap:round;stroke-linejoin:round;" transform="scale(3.0,3.0)">
<g id="kvg:070b9-HzFst" kvg:element="点">
	<g id="kvg:070b9-HzFst-g1" kvg:element="占" kvg:position="top">
		<g id="kvg:070b9-HzFst-g2" kvg:element="卜" kvg:original="ト" kvg:radical="nelson">
			<path style="stroke: #bf0909;" id="kvg:070b9-HzFst-s1" kvg:type="㇑" d="M56.3,29.5c5.7-1,13.95-3.25,16.28-3.08c0.94,0.07,2.64,0,3.4,0.19"/>
			<path style="stroke: #bf8209;" id="kvg:070b9-HzFst-s2" kvg:type="㇔" d="M52.7,11.13c0.57,0.34,1.78,2.53,1.9,3.21c0.12,0.68-0.07,27.28-0.19,31.51"/>
		</g>
		<g id="kvg:070b9-HzFst-g3" kvg:element="口">
			<path style="stroke: #82bf09;" id="kvg:070b9-HzFst-s3" kvg:type="㇑" d="M32.61,48.83c0.42,0.41,0.85,0.76,1.03,1.28c1.45,4.1,3.2,14.42,4.19,21.8"/>
			<path style="stroke: #09bf09;" id="kvg:070b9-HzFst-s4" kvg:type="㇕b" d="M34.47,50.36c10.27-1.72,36.65-5.73,41.95-6.31c1.94-0.21,3.1,2.14,2.82,3.39c-1.15,5.17-2.58,9.89-4.16,16.45"/>
			<path style="stroke: #09bf82;" id="kvg:070b9-HzFst-s5" kvg:type="㇐b" d="M38.25,69.69c6.22-0.66,30.87-4,38.77-4.66"/>
		</g>
	</g>
	<g id="kvg:070b9-HzFst-g4" kvg:element="灬" kvg:variant="true" kvg:original="火" kvg:position="bottom" kvg:radical="tradit">
		<path style="stroke: #0982bf;" id="kvg:070b9-HzFst-s6" kvg:type="㇔" d="M23.25,83c0,5.25-5.75,13-7.25,14.5"/>
		<path style="stroke: #0909bf;" id="kvg:070b9-HzFst-s7" kvg:type="㇔" d="M40.02,82.08c2.61,2.95,4.58,10.07,5.23,14.67"/>
		<path style="stroke: #8209bf;" id="kvg:070b9-HzFst-s8" kvg:type="㇔" d="M61.5,80.5c2.4,2.73,5.71,10.72,6.31,14.97"/>
		<path style="stroke: #bf0982;" id="kvg:070b9-HzFst-s9" kvg:type="㇔" d="M82.25,79c3.81,2.82,9.85,12.08,10.81,16.47"/>
	</g>
</g>
</g>
<g id="kvg:StrokeNumbers_070b9-HzFst" style="font-size:8;fill:#808080" transform="scale(3.0,3.0)">
	<text style="fill: #bf0909;" transform="matrix(1 0 0 1 59.75 25.13)">1</text>
	<text style="fill: #bf8209;" transform="matrix(1 0 0 1 44.50 11.50)">2</text>
	<text style="fill: #82bf09;" transform="matrix(1 0 0 1 24.50 55.50)">3</text>
	<text style="fill: #09bf09;" transform="matrix(1 0 0 1 35.50 46.50)">4</text>
	<text style="fill: #09bf82;" transform="matrix(1 0 0 1 42.50 66.13)">5</text>
	<text style="fill: #0982bf;" transform="matrix(1 0 0 1 16.50 83.50)">6</text>
	<text style="fill: #0909bf;" transform="matrix(1 0 0 1 34.50 83.50)">7</text>
	<text style="fill: #8209bf;" transform="matrix(1 0 0 1 55.50 82.63)">8</text>
	<text style="fill: #bf0982;" transform="matrix(1 0 0 1 74.50 79.63)">9</text>
</g>
</svg>
