<?xml version="1.0" encoding="UTF-8"?>
<!--
This file has been modified from the original version by the kanji_colorize.py
script (available at http://github.com/cayennes/kanji-colorize) with these
settings:
    mode: spectrum
    saturation: 0.95
    value: 0.75
    image_size: 327
It remains under a Creative Commons-Attribution-Share Alike 3.0 License.

The original SVG has the following copyright:

Copyright (C) 2009/2010/2011 Ulrich Apel.
This work is distributed under the conditions of the Creative Commons
Attribution-Share Alike 3.0 Licence. This means you are free:
* to Share - to copy, distribute and transmit the work
* to Remix - to adapt the work

Under the following conditions:
* Attribution. You must attribute the work by stating your use of KanjiVG in
  your own copyright header and linking to KanjiVG's website
  (http://kanjivg.tagaini.net)
* Share Alike. If you alter, transform, or build upon this work, you may
  distribute the resulting work only under the same or similar license to this
  one.

See http://creativecommons.org/licenses/by-sa/3.0/ for more details.
-->
<!DOCTYPE svg PUBLIC "-//W3C//DTD SVG 1.0//EN" "http://www.w3.org/TR/2001/REC-SVG-20010904/DTD/svg10.dtd" [
<!ATTLIST g
xmlns:kvg CDATA #FIXED "http://kanjivg.tagaini.net"
kvg:element CDATA #IMPLIED
kvg:variant CDATA #IMPLIED
kvg:partial CDATA #IMPLIED
kvg:original CDATA #IMPLIED
kvg:part CDATA #IMPLIED
kvg:number CDATA #IMPLIED
kvg:tradForm CDATA #IMPLIED
kvg:radicalForm CDATA #IMPLIED
kvg:position CDATA #IMPLIED
kvg:radical CDATA #IMPLIED
kvg:phon CDATA #IMPLIED >
<!ATTLIST path
xmlns:kvg CDATA #FIXED "http://kanjivg.tagaini.net"
kvg:type CDATA #IMPLIED >
]>
<svg xmlns="http://www.w3.org/2000/svg" width="327" height = "327" viewBox="0 0 327 327">
<g id="kvg:StrokePaths_07269-Kaisho" style="fill:none;stroke:#000000;stroke-width:3;stroke-linecap:round;stroke-linejoin:round;" transform="scale(3.0,3.0)">
<g id="kvg:07269-Kaisho" kvg:element="物">
	<g id="kvg:07269-Kaisho-g1" kvg:element="牛" kvg:variant="true" kvg:position="left" kvg:radical="general">
		<path style="stroke: #bf0909;" id="kvg:07269-Kaisho-s1" kvg:type="㇒" d="M24.27,24.64c0.03,0.65,0.07,1.68-0.06,2.61c-0.78,5.5-5.26,17.57-11.4,24.96"/>
		<path style="stroke: #bf9109;" id="kvg:07269-Kaisho-s2" kvg:type="㇐" d="M23.75,39.25c6.75-0.75,19-4,20.25-4s2.5,0,3.75,0.25"/>
		<path style="stroke: #64bf09;" id="kvg:07269-Kaisho-s3" kvg:type="㇑" d="M34.87,13.75c1.09,0.5,1.74,2.25,1.96,3.25c0.22,1-0.22,67.75-0.22,74c0,13-6.11,2.25-7.36,1"/>
		<path style="stroke: #09bf36;" id="kvg:07269-Kaisho-s4" kvg:type="㇀" d="M14,69.83c1.83,1.43,3.35,2.05,5.18,0.82C20.26,69.92,38.43,57.48,43,54"/>
	</g>
	<g id="kvg:07269-Kaisho-g2" kvg:element="勿" kvg:position="right">
		<g id="kvg:07269-Kaisho-g3" kvg:element="勹">
			<g id="kvg:07269-Kaisho-g4" kvg:element="丿">
				<path style="stroke: #09bfbf;" id="kvg:07269-Kaisho-s5" kvg:type="㇒" d="M67.51,16c0.05,0.67,0.2,1.76-0.1,2.71C65,26.25,59.25,35.5,49.75,44.59"/>
			</g>
			<path style="stroke: #0936bf;" id="kvg:07269-Kaisho-s6" kvg:type="㇆" d="M59.25,38.66c1.29,0.64,3.1,0.85,5.16,0.42c2.07-0.42,20.5-4.04,25.66-4.25c5.16-0.21,6.2,2.13,5.42,6.59c-0.77,4.47-5.7,36.3-17.05,48.42c-3.41,3.64-5.21,1.6-8.26-1.06"/>
		</g>
		<g id="kvg:07269-Kaisho-g5" kvg:element="丿">
			<path style="stroke: #6409bf;" id="kvg:07269-Kaisho-s7" kvg:type="㇒" d="M66.01,41.13c0.06,0.64,0.31,1.74-0.11,2.58c-4.4,8.79-9.4,16.04-19.4,24.7"/>
		</g>
		<g id="kvg:07269-Kaisho-g6" kvg:element="丿">
			<path style="stroke: #bf0991;" id="kvg:07269-Kaisho-s8" kvg:type="㇒" d="M79.99,39.47c0.08,1.03,0.41,2.72-0.16,4.12c-4.58,11.16-12.58,26.16-27.58,39.39"/>
		</g>
	</g>
</g>
</g>
<g id="kvg:StrokeNumbers_07269-Kaisho" style="font-size:8;fill:#808080" transform="scale(3.0,3.0)">
	<text style="fill: #bf0909;" transform="matrix(1 0 0 1 16.50 24.50)">1</text>
	<text style="fill: #bf9109;" transform="matrix(1 0 0 1 28.50 35.50)">2</text>
	<text style="fill: #64bf09;" transform="matrix(1 0 0 1 26.50 14.50)">3</text>
	<text style="fill: #09bf36;" transform="matrix(1 0 0 1 7.75 75.13)">4</text>
	<text style="fill: #09bfbf;" transform="matrix(1 0 0 1 57.50 15.50)">5</text>
	<text style="fill: #0936bf;" transform="matrix(1 0 0 1 65.25 35.50)">6</text>
	<text style="fill: #6409bf;" transform="matrix(1 0 0 1 56.25 49.63)">7</text>
	<text style="fill: #bf0991;" transform="matrix(1 0 0 1 70.50 49.50)">8</text>
</g>
</svg>
