<?xml version="1.0" encoding="UTF-8"?>
<!--
This file has been modified from the original version by the kanji_colorize.py
script (available at http://github.com/cayennes/kanji-colorize) with these
settings:
    mode: spectrum
    saturation: 0.95
    value: 0.75
    image_size: 327
It remains under a Creative Commons-Attribution-Share Alike 3.0 License.

The original SVG has the following copyright:

Copyright (C) 2009/2010/2011 Ulrich Apel.
This work is distributed under the conditions of the Creative Commons
Attribution-Share Alike 3.0 Licence. This means you are free:
* to Share - to copy, distribute and transmit the work
* to Remix - to adapt the work

Under the following conditions:
* Attribution. You must attribute the work by stating your use of KanjiVG in
  your own copyright header and linking to KanjiVG's website
  (http://kanjivg.tagaini.net)
* Share Alike. If you alter, transform, or build upon this work, you may
  distribute the resulting work only under the same or similar license to this
  one.

See http://creativecommons.org/licenses/by-sa/3.0/ for more details.
-->
<!DOCTYPE svg PUBLIC "-//W3C//DTD SVG 1.0//EN" "http://www.w3.org/TR/2001/REC-SVG-20010904/DTD/svg10.dtd" [
<!ATTLIST g
xmlns:kvg CDATA #FIXED "http://kanjivg.tagaini.net"
kvg:element CDATA #IMPLIED
kvg:variant CDATA #IMPLIED
kvg:partial CDATA #IMPLIED
kvg:original CDATA #IMPLIED
kvg:part CDATA #IMPLIED
kvg:number CDATA #IMPLIED
kvg:tradForm CDATA #IMPLIED
kvg:radicalForm CDATA #IMPLIED
kvg:position CDATA #IMPLIED
kvg:radical CDATA #IMPLIED
kvg:phon CDATA #IMPLIED >
<!ATTLIST path
xmlns:kvg CDATA #FIXED "http://kanjivg.tagaini.net"
kvg:type CDATA #IMPLIED >
]>
<svg xmlns="http://www.w3.org/2000/svg" width="327" height = "327" viewBox="0 0 327 327">
<g id="kvg:StrokePaths_072fc-Kaisho" style="fill:none;stroke:#000000;stroke-width:3;stroke-linecap:round;stroke-linejoin:round;" transform="scale(3.0,3.0)">
<g id="kvg:072fc-Kaisho" kvg:element="狼">
	<g id="kvg:072fc-Kaisho-g1" kvg:element="⺨" kvg:variant="true" kvg:original="犬" kvg:position="left" kvg:radical="general">
		<path style="stroke: #bf0909;" id="kvg:072fc-Kaisho-s1" kvg:type="㇒" d="M36.31,15c0.06,0.63,0.27,1.85-0.12,2.53C31.2,26.23,26.13,32.39,14,41.79"/>
		<path style="stroke: #bf7609;" id="kvg:072fc-Kaisho-s2" kvg:type="㇕va" d="M18,21c28.75,24,15.75,81.5,5,69.5"/>
		<path style="stroke: #9abf09;" id="kvg:072fc-Kaisho-s3" kvg:type="㇒" d="M29.83,43c0.05,0.66,0.22,1.94-0.1,2.65c-4.1,9.1-8.27,15.54-18.23,25.39"/>
	</g>
	<g id="kvg:072fc-Kaisho-g2" kvg:element="良" kvg:position="right">
		<path style="stroke: #2dbf09;" id="kvg:072fc-Kaisho-s4" kvg:type="㇑a" d="M59.14,12.75c2.36,1.5,5.36,4.25,6.45,7.53"/>
		<g id="kvg:072fc-Kaisho-g3" kvg:element="艮">
			<path style="stroke: #09bf52;" id="kvg:072fc-Kaisho-s5" kvg:type="㇕" d="M49.32,27.81c2.3-0.11,27.14-3.69,29.23-3.82c1.74-0.11,2.75,1.25,2.73,1.93c-0.12,4.83-3.04,19.83-4.01,24.63"/>
			<path style="stroke: #09bfbf;" id="kvg:072fc-Kaisho-s6" kvg:type="㇐a" d="M49.98,40.44c4.8-0.45,9.59-1.04,14.38-1.59c1.43-0.16,2.87-0.33,4.25-0.48"/>
			<path style="stroke: #0952bf;" id="kvg:072fc-Kaisho-s7" kvg:type="㇐a" d="M49.59,53.42c7.91-0.87,21.29-2.12,29.88-2.95"/>
			<path style="stroke: #2d09bf;" id="kvg:072fc-Kaisho-s8" kvg:type="㇙" d="M47.01,25.73c1.31,0.53,2.09,2.39,2.35,3.45c0.26,1.06,0.26,57.87,0.26,60.52c0,3.05-0.18,5.34,2.99,3.23C57.75,89.5,58.75,89,67,84"/>
			<path style="stroke: #9a09bf;" id="kvg:072fc-Kaisho-s9" kvg:type="㇒" d="M86.17,52.05c0.33,1.43,0.53,2-0.57,3.15c-2.14,2.23-8.59,7.4-11.52,9.41"/>
			<path style="stroke: #bf0976;" id="kvg:072fc-Kaisho-s10" kvg:type="㇏" d="M57.88,54.23c5.78,3.93,21.02,22.28,29.8,28.97c4.68,3.57,7.06,4.51,9.63,5.19"/>
		</g>
	</g>
</g>
</g>
<g id="kvg:StrokeNumbers_072fc-Kaisho" style="font-size:8;fill:#808080" transform="scale(3.0,3.0)">
	<text style="fill: #bf0909;" transform="matrix(1 0 0 1 29.50 14.13)">1</text>
	<text style="fill: #bf7609;" transform="matrix(1 0 0 1 9.44 20.50)">2</text>
	<text style="fill: #9abf09;" transform="matrix(1 0 0 1 22.50 44.50)">3</text>
	<text style="fill: #2dbf09;" transform="matrix(1 0 0 1 53.44 13.16)">4</text>
	<text style="fill: #09bf52;" transform="matrix(1 0 0 1 50.50 23.50)">5</text>
	<text style="fill: #09bfbf;" transform="matrix(1 0 0 1 54.50 36.50)">6</text>
	<text style="fill: #0952bf;" transform="matrix(1 0 0 1 54.50 49.68)">7</text>
	<text style="fill: #2d09bf;" transform="matrix(1 0 0 1 41.44 34.50)">8</text>
	<text style="fill: #9a09bf;" transform="matrix(1 0 0 1 74.50 59.50)">9</text>
	<text style="fill: #bf0976;" transform="matrix(1 0 0 1 54.50 66.50)">10</text>
</g>
</svg>
