<?xml version="1.0" encoding="UTF-8"?>
<!--
This file has been modified from the original version by the kanji_colorize.py
script (available at http://github.com/cayennes/kanji-colorize) with these
settings:
    mode: spectrum
    saturation: 0.95
    value: 0.75
    image_size: 327
It remains under a Creative Commons-Attribution-Share Alike 3.0 License.

The original SVG has the following copyright:

Copyright (C) 2009/2010/2011 Ulrich Apel.
This work is distributed under the conditions of the Creative Commons
Attribution-Share Alike 3.0 Licence. This means you are free:
* to Share - to copy, distribute and transmit the work
* to Remix - to adapt the work

Under the following conditions:
* Attribution. You must attribute the work by stating your use of KanjiVG in
  your own copyright header and linking to KanjiVG's website
  (http://kanjivg.tagaini.net)
* Share Alike. If you alter, transform, or build upon this work, you may
  distribute the resulting work only under the same or similar license to this
  one.

See http://creativecommons.org/licenses/by-sa/3.0/ for more details.
-->
<!DOCTYPE svg PUBLIC "-//W3C//DTD SVG 1.0//EN" "http://www.w3.org/TR/2001/REC-SVG-20010904/DTD/svg10.dtd" [
<!ATTLIST g
xmlns:kvg CDATA #FIXED "http://kanjivg.tagaini.net"
kvg:element CDATA #IMPLIED
kvg:variant CDATA #IMPLIED
kvg:partial CDATA #IMPLIED
kvg:original CDATA #IMPLIED
kvg:part CDATA #IMPLIED
kvg:number CDATA #IMPLIED
kvg:tradForm CDATA #IMPLIED
kvg:radicalForm CDATA #IMPLIED
kvg:position CDATA #IMPLIED
kvg:radical CDATA #IMPLIED
kvg:phon CDATA #IMPLIED >
<!ATTLIST path
xmlns:kvg CDATA #FIXED "http://kanjivg.tagaini.net"
kvg:type CDATA #IMPLIED >
]>
<svg xmlns="http://www.w3.org/2000/svg" width="327" height = "327" viewBox="0 0 327 327">
<g id="kvg:StrokePaths_07337-Hyougai" style="fill:none;stroke:#000000;stroke-width:3;stroke-linecap:round;stroke-linejoin:round;" transform="scale(3.0,3.0)">
<g id="kvg:07337-Hyougai" kvg:element="猷">
	<g id="kvg:07337-Hyougai-g1" kvg:element="酋" kvg:position="left">
		<g id="kvg:07337-Hyougai-g2" kvg:element="八" kvg:variant="true" kvg:position="top">
			<g id="kvg:07337-Hyougai-g3" kvg:position="left">
				<path style="stroke: #bf0909;" id="kvg:07337-Hyougai-s1" kvg:type="㇔" d="M15.52,18.56c3.17,1.53,8.18,6.28,8.97,8.65"/>
			</g>
			<g id="kvg:07337-Hyougai-g4" kvg:position="right">
				<path style="stroke: #bf5d09;" id="kvg:07337-Hyougai-s2" kvg:type="㇒" d="M44.56,14.21c0.02,0.35,0.04,0.91-0.04,1.42c-0.53,3-3.55,9.57-7.68,13.6"/>
			</g>
		</g>
		<g id="kvg:07337-Hyougai-g5" kvg:element="酉" kvg:position="bottom">
			<g id="kvg:07337-Hyougai-g6" kvg:element="西" kvg:part="1" kvg:original="襾">
				<path style="stroke: #bfb109;" id="kvg:07337-Hyougai-s3" kvg:type="㇐" d="M9.84,33.43c0.89,0.44,2.51,0.48,3.4,0.44c8.07-0.37,27.44-2.87,35.81-3.52c1.48-0.12,2.37,0.21,3.11,0.43"/>
				<path style="stroke: #79bf09;" id="kvg:07337-Hyougai-s4" kvg:type="㇑" d="M15.66,48.89c0.46,0.62,0.63,2.1,0.63,2.93c0,0.82-0.3,44.29-0.3,44.7"/>
				<path style="stroke: #25bf09;" id="kvg:07337-Hyougai-s5" kvg:type="㇕a" d="M17.06,51.05c2.6-0.1,28.48-4.28,30.85-4.4c1.97-0.1,3.38,0.99,3.38,3.32c0,1.3-0.27,35.59-0.27,44.63"/>
				<path style="stroke: #09bf41;" id="kvg:07337-Hyougai-s6" kvg:type="㇒" d="M27.18,35.24c0.76,1.08,0.51,2.56,0.52,4.04c0.09,14.54-0.5,26.59-7.71,32.99"/>
				<path style="stroke: #09bf95;" id="kvg:07337-Hyougai-s7" kvg:type="㇟a" d="M36.05,34.34c0.53,1.07,0.95,2.33,0.98,3.98c0.1,5.24-0.23,15.3-0.28,21.78c-0.04,5.62,1.49,6.32,6.55,6.32c3.21,0,6.4-0.7,6.76-1.33"/>
			</g>
			<g id="kvg:07337-Hyougai-g7" kvg:element="一">
				<path style="stroke: #0995bf;" id="kvg:07337-Hyougai-s8" kvg:type="㇐a" d="M16.81,81.29c3.51,0,29.93-3.37,33.9-3.37"/>
			</g>
			<g id="kvg:07337-Hyougai-g8" kvg:element="西" kvg:part="2" kvg:original="襾">
				<path style="stroke: #0941bf;" id="kvg:07337-Hyougai-s9" kvg:type="㇐a" d="M17,93.84c7.15-0.47,24.44-2.25,33.35-2.65"/>
			</g>
		</g>
	</g>
	<g id="kvg:07337-Hyougai-g9" kvg:element="犬" kvg:position="right" kvg:radical="tradit">
		<g id="kvg:07337-Hyougai-g10" kvg:element="大">
			<path style="stroke: #2509bf;" id="kvg:07337-Hyougai-s10" kvg:type="㇐" d="M56.65,41.89c0.85,0.61,3.5,1.1,4.61,0.97c5.24-0.61,25.33-3.5,31.54-4.03c0.79-0.07,1.91-0.39,3.68,0.09"/>
			<path style="stroke: #7909bf;" id="kvg:07337-Hyougai-s11" kvg:type="㇒" d="M72.33,12.75c0.45,1.17,0.72,2.34,0.78,4.67c0.78,30.49-2.45,64.56-15.61,78.08"/>
			<path style="stroke: #bf09b1;" id="kvg:07337-Hyougai-s12" kvg:type="㇏" d="M72.62,42c4.94,14.65,14.55,39.44,20.86,49.9c1.66,2.75,2.26,3.1,3.03,3.35"/>
		</g>
		<g id="kvg:07337-Hyougai-g11" kvg:element="丶">
			<path style="stroke: #bf095d;" id="kvg:07337-Hyougai-s13" kvg:type="㇔" d="M84.13,18.5c5.64,3.98,7.18,7.02,8.93,10.75"/>
		</g>
	</g>
</g>
</g>
<g id="kvg:StrokeNumbers_07337-Hyougai" style="font-size:8;fill:#808080" transform="scale(3.0,3.0)">
	<text style="fill: #bf0909;" transform="matrix(1 0 0 1 9.50 18.50)">1</text>
	<text style="fill: #bf5d09;" transform="matrix(1 0 0 1 34.75 13.50)">2</text>
	<text style="fill: #bfb109;" transform="matrix(1 0 0 1 2.50 33.48)">3</text>
	<text style="fill: #79bf09;" transform="matrix(1 0 0 1 8.50 56.50)">4</text>
	<text style="fill: #25bf09;" transform="matrix(1 0 0 1 16.75 47.50)">5</text>
	<text style="fill: #09bf41;" transform="matrix(1 0 0 1 20.50 42.50)">6</text>
	<text style="fill: #09bf95;" transform="matrix(1 0 0 1 30.50 41.50)">7</text>
	<text style="fill: #0995bf;" transform="matrix(1 0 0 1 22.50 77.50)">8</text>
	<text style="fill: #0941bf;" transform="matrix(1 0 0 1 22.75 90.03)">9</text>
	<text style="fill: #2509bf;" transform="matrix(1 0 0 1 53.50 38.50)">10</text>
	<text style="fill: #7909bf;" transform="matrix(1 0 0 1 59.75 12.50)">11</text>
	<text style="fill: #bf09b1;" transform="matrix(1 0 0 1 77.50 49.50)">12</text>
	<text style="fill: #bf095d;" transform="matrix(1 0 0 1 79.50 15.50)">13</text>
</g>
</svg>
