<?xml version="1.0" encoding="UTF-8"?>
<!--
This file has been modified from the original version by the kanji_colorize.py
script (available at http://github.com/cayennes/kanji-colorize) with these
settings:
    mode: spectrum
    saturation: 0.95
    value: 0.75
    image_size: 327
It remains under a Creative Commons-Attribution-Share Alike 3.0 License.

The original SVG has the following copyright:

Copyright (C) 2009/2010/2011 Ulrich Apel.
This work is distributed under the conditions of the Creative Commons
Attribution-Share Alike 3.0 Licence. This means you are free:
* to Share - to copy, distribute and transmit the work
* to Remix - to adapt the work

Under the following conditions:
* Attribution. You must attribute the work by stating your use of KanjiVG in
  your own copyright header and linking to KanjiVG's website
  (http://kanjivg.tagaini.net)
* Share Alike. If you alter, transform, or build upon this work, you may
  distribute the resulting work only under the same or similar license to this
  one.

See http://creativecommons.org/licenses/by-sa/3.0/ for more details.
-->
<!DOCTYPE svg PUBLIC "-//W3C//DTD SVG 1.0//EN" "http://www.w3.org/TR/2001/REC-SVG-20010904/DTD/svg10.dtd" [
<!ATTLIST g
xmlns:kvg CDATA #FIXED "http://kanjivg.tagaini.net"
kvg:element CDATA #IMPLIED
kvg:variant CDATA #IMPLIED
kvg:partial CDATA #IMPLIED
kvg:original CDATA #IMPLIED
kvg:part CDATA #IMPLIED
kvg:number CDATA #IMPLIED
kvg:tradForm CDATA #IMPLIED
kvg:radicalForm CDATA #IMPLIED
kvg:position CDATA #IMPLIED
kvg:radical CDATA #IMPLIED
kvg:phon CDATA #IMPLIED >
<!ATTLIST path
xmlns:kvg CDATA #FIXED "http://kanjivg.tagaini.net"
kvg:type CDATA #IMPLIED >
]>
<svg xmlns="http://www.w3.org/2000/svg" width="327" height = "327" viewBox="0 0 327 327">
<g id="kvg:StrokePaths_07422-VtLst" style="fill:none;stroke:#000000;stroke-width:3;stroke-linecap:round;stroke-linejoin:round;" transform="scale(3.0,3.0)">
<g id="kvg:07422-VtLst" kvg:element="琢">
	<g id="kvg:07422-VtLst-g1" kvg:element="王" kvg:original="玉" kvg:partial="true" kvg:position="left" kvg:radical="general">
		<path style="stroke: #bf0909;" id="kvg:07422-VtLst-s1" kvg:type="㇐" d="M11.75,26.47c0.53,0.33,3.4,0.4,3.94,0.3c2.49-0.44,12.13-1.85,18.11-2.33c0.82-0.07,2.33-0.23,3.01,0.04"/>
		<path style="stroke: #bf6c09;" id="kvg:07422-VtLst-s2" kvg:type="㇐" d="M12.47,52.12c0.47,0.36,3.76,0.41,4.23,0.33c2.74-0.47,13.07-2.88,16.87-3.39c0.58-0.08,1.71-0.15,2.59,0.17"/>
		<path style="stroke: #aebf09;" id="kvg:07422-VtLst-s3" kvg:type="㇐" d="M10.86,80.32c1.1,1.15,2.97,1.65,3.74,1.15c4.95-3.17,12.47-8.36,20.02-13.84"/>
		<path style="stroke: #4bbf09;" id="kvg:07422-VtLst-s4" kvg:type="㇑" d="M23.95,28.48c0.74,0.78,1.25,2.46,1.25,3.08c0,5.27,0.04,39.04-0.1,42.53"/>
	</g>
	<g id="kvg:07422-VtLst-g2" kvg:element="豕" kvg:position="right">
		<path style="stroke: #09bf2a;" id="kvg:07422-VtLst-s5" kvg:type="㇐" d="M43.58,23.28c0.96,0.54,2.73,0.66,3.69,0.54c6.9-0.85,29.11-4.05,39.96-4.28c1.6-0.03,2.57,0.26,3.37,0.53"/>
		<path style="stroke: #09bf8d;" id="kvg:07422-VtLst-s6" kvg:type="㇒" d="M65.6,23.49c0.06,0.52,0.27,1.41-0.12,2.09c-2.67,4.63-11.21,13.65-21.4,19.96"/>
		<path style="stroke: #098dbf;" id="kvg:07422-VtLst-s7" kvg:type="㇕v" d="M59.68,35.43c9.54,8.54,16.42,33.7,8.8,55.37c-3.08,8.74-7.02,1.06-7.93,0.06"/>
		<path style="stroke: #092abf;" id="kvg:07422-VtLst-s8" kvg:type="㇒" d="M62.34,42.79c0.06,0.57,0.14,1.48-0.13,2.3c-1.58,4.86-10.62,15.52-23,22.05"/>
		<path style="stroke: #4b09bf;" id="kvg:07422-VtLst-s9" kvg:type="㇒" d="M67.03,56.08c0.08,0.7,0.17,1.82-0.16,2.83c-1.9,5.97-12.82,19.06-27.75,27.08"/>
		<path style="stroke: #ae09bf;" id="kvg:07422-VtLst-s10" kvg:type="㇒" d="M86.89,34.73c0.04,0.41,0.09,1.05-0.09,1.64c-1.09,3.45-7.38,11.03-15.97,15.67"/>
		<path style="stroke: #bf096c;" id="kvg:07422-VtLst-s11" kvg:type="㇏" d="M70.09,52.04c3.73,4.14,20.1,23.71,24.15,27.78c1.38,1.38,2.55,1.97,3.93,2.36"/>
	</g>
</g>
</g>
<g id="kvg:StrokeNumbers_07422-VtLst" style="font-size:8;fill:#808080" transform="scale(3.0,3.0)">
	<text style="fill: #bf0909;" transform="matrix(1 0 0 1 5.25 27.25)">1</text>
	<text style="fill: #bf6c09;" transform="matrix(1 0 0 1 5.25 53.25)">2</text>
	<text style="fill: #aebf09;" transform="matrix(1 0 0 1 3.25 84.25)">3</text>
	<text style="fill: #4bbf09;" transform="matrix(1 0 0 1 17.25 36.25)">4</text>
	<text style="fill: #09bf2a;" transform="matrix(1 0 0 1 41.25 20.25)">5</text>
	<text style="fill: #09bf8d;" transform="matrix(1 0 0 1 52.25 32.25)">6</text>
	<text style="fill: #098dbf;" transform="matrix(1 0 0 1 65.25 38.93)">7</text>
	<text style="fill: #092abf;" transform="matrix(1 0 0 1 52.25 48.25)">8</text>
	<text style="fill: #4b09bf;" transform="matrix(1 0 0 1 59.25 60.25)">9</text>
	<text style="fill: #ae09bf;" transform="matrix(1 0 0 1 75.25 32.25)">10</text>
	<text style="fill: #bf096c;" transform="matrix(1 0 0 1 78.25 58.63)">11</text>
</g>
</svg>
