<?xml version="1.0" encoding="UTF-8"?>
<!--
This file has been modified from the original version by the kanji_colorize.py
script (available at http://github.com/cayennes/kanji-colorize) with these
settings:
    mode: spectrum
    saturation: 0.95
    value: 0.75
    image_size: 327
It remains under a Creative Commons-Attribution-Share Alike 3.0 License.

The original SVG has the following copyright:

Copyright (C) 2009/2010/2011 Ulrich Apel.
This work is distributed under the conditions of the Creative Commons
Attribution-Share Alike 3.0 Licence. This means you are free:
* to Share - to copy, distribute and transmit the work
* to Remix - to adapt the work

Under the following conditions:
* Attribution. You must attribute the work by stating your use of KanjiVG in
  your own copyright header and linking to KanjiVG's website
  (http://kanjivg.tagaini.net)
* Share Alike. If you alter, transform, or build upon this work, you may
  distribute the resulting work only under the same or similar license to this
  one.

See http://creativecommons.org/licenses/by-sa/3.0/ for more details.
-->
<!DOCTYPE svg PUBLIC "-//W3C//DTD SVG 1.0//EN" "http://www.w3.org/TR/2001/REC-SVG-20010904/DTD/svg10.dtd" [
<!ATTLIST g
xmlns:kvg CDATA #FIXED "http://kanjivg.tagaini.net"
kvg:element CDATA #IMPLIED
kvg:variant CDATA #IMPLIED
kvg:partial CDATA #IMPLIED
kvg:original CDATA #IMPLIED
kvg:part CDATA #IMPLIED
kvg:number CDATA #IMPLIED
kvg:tradForm CDATA #IMPLIED
kvg:radicalForm CDATA #IMPLIED
kvg:position CDATA #IMPLIED
kvg:radical CDATA #IMPLIED
kvg:phon CDATA #IMPLIED >
<!ATTLIST path
xmlns:kvg CDATA #FIXED "http://kanjivg.tagaini.net"
kvg:type CDATA #IMPLIED >
]>
<svg xmlns="http://www.w3.org/2000/svg" width="327" height = "327" viewBox="0 0 327 327">
<g id="kvg:StrokePaths_0752b-Kaisho" style="fill:none;stroke:#000000;stroke-width:3;stroke-linecap:round;stroke-linejoin:round;" transform="scale(3.0,3.0)">
<g id="kvg:0752b-Kaisho" kvg:element="甫">
	<path style="stroke: #bf0909;" id="kvg:0752b-Kaisho-s1" kvg:type="㇐" d="M21,28.2c1.33,0.48,3.77,0.56,5.1,0.48c6.4-0.42,42.9-4.42,57.98-4.59c2.22-0.02,3.55,0.23,4.66,0.46"/>
	<g id="kvg:0752b-Kaisho-g1" kvg:element="用" kvg:variant="true" kvg:radical="tradit">
		<path style="stroke: #bfa509;" id="kvg:0752b-Kaisho-s2" kvg:type="㇑" d="M27.1,41.11c0.72,0.73,1.19,1.47,1.43,2.2c0.24,0.74-0.28,46.94-0.26,53.56"/>
		<path style="stroke: #3dbf09;" id="kvg:0752b-Kaisho-s3" kvg:type="㇆" d="M29.96,43.05c8.04-0.31,44.68-3.81,46.81-4.01c3.82-0.37,5.25,2.39,4.77,3.49c-0.05,2.48-0.6,30.89-0.6,47.69c0,11.98-6.04,1.79-7.34,1.07"/>
		<path style="stroke: #09bf71;" id="kvg:0752b-Kaisho-s4" kvg:type="㇐" d="M29.96,58.11c11.05-0.67,22.1-1.45,33.15-2.2c1.2-0.08,2.38-0.16,3.52-0.24"/>
		<path style="stroke: #0971bf;" id="kvg:0752b-Kaisho-s5" kvg:type="㇐" d="M30.19,73.04c10.85-0.78,21.7-1.47,32.55-2.14c1.28-0.08,2.53-0.16,3.75-0.23"/>
		<path style="stroke: #3d09bf;" id="kvg:0752b-Kaisho-s6" kvg:type="㇑" d="M51.45,10.05c1.29,0.59,2.06,2.67,2.32,3.85c0.26,1.19,0,75.07-0.26,82.48"/>
	</g>
	<g id="kvg:0752b-Kaisho-g2" kvg:element="丶" kvg:radical="nelson">
		<path style="stroke: #bf09a5;" id="kvg:0752b-Kaisho-s7" kvg:type="㇔" d="M69,9.75c3.44,1.32,8.89,5.44,9.75,7.5"/>
	</g>
</g>
</g>
<g id="kvg:StrokeNumbers_0752b-Kaisho" style="font-size:8;fill:#808080" transform="scale(3.0,3.0)">
	<text style="fill: #bf0909;" transform="matrix(1 0 0 1 13.25 27.25)">1</text>
	<text style="fill: #bfa509;" transform="matrix(1 0 0 1 19.00 46.30)">2</text>
	<text style="fill: #3dbf09;" transform="matrix(1 0 0 1 31.00 39.25)">3</text>
	<text style="fill: #09bf71;" transform="matrix(1 0 0 1 33.82 54.25)">4</text>
	<text style="fill: #0971bf;" transform="matrix(1 0 0 1 34.00 70.25)">5</text>
	<text style="fill: #3d09bf;" transform="matrix(1 0 0 1 42.25 9.25)">6</text>
	<text style="fill: #bf09a5;" transform="matrix(1 0 0 1 62.25 8.93)">7</text>
</g>
</svg>
