<?xml version="1.0" encoding="UTF-8"?>
<!--
This file has been modified from the original version by the kanji_colorize.py
script (available at http://github.com/cayennes/kanji-colorize) with these
settings:
    mode: spectrum
    saturation: 0.95
    value: 0.75
    image_size: 327
It remains under a Creative Commons-Attribution-Share Alike 3.0 License.

The original SVG has the following copyright:

Copyright (C) 2009/2010/2011 Ulrich Apel.
This work is distributed under the conditions of the Creative Commons
Attribution-Share Alike 3.0 Licence. This means you are free:
* to Share - to copy, distribute and transmit the work
* to Remix - to adapt the work

Under the following conditions:
* Attribution. You must attribute the work by stating your use of KanjiVG in
  your own copyright header and linking to KanjiVG's website
  (http://kanjivg.tagaini.net)
* Share Alike. If you alter, transform, or build upon this work, you may
  distribute the resulting work only under the same or similar license to this
  one.

See http://creativecommons.org/licenses/by-sa/3.0/ for more details.
-->
<!DOCTYPE svg PUBLIC "-//W3C//DTD SVG 1.0//EN" "http://www.w3.org/TR/2001/REC-SVG-20010904/DTD/svg10.dtd" [
<!ATTLIST g
xmlns:kvg CDATA #FIXED "http://kanjivg.tagaini.net"
kvg:element CDATA #IMPLIED
kvg:variant CDATA #IMPLIED
kvg:partial CDATA #IMPLIED
kvg:original CDATA #IMPLIED
kvg:part CDATA #IMPLIED
kvg:number CDATA #IMPLIED
kvg:tradForm CDATA #IMPLIED
kvg:radicalForm CDATA #IMPLIED
kvg:position CDATA #IMPLIED
kvg:radical CDATA #IMPLIED
kvg:phon CDATA #IMPLIED >
<!ATTLIST path
xmlns:kvg CDATA #FIXED "http://kanjivg.tagaini.net"
kvg:type CDATA #IMPLIED >
]>
<svg xmlns="http://www.w3.org/2000/svg" width="327" height = "327" viewBox="0 0 327 327">
<g id="kvg:StrokePaths_07537-Kaisho" style="fill:none;stroke:#000000;stroke-width:3;stroke-linecap:round;stroke-linejoin:round;" transform="scale(3.0,3.0)">
<g id="kvg:07537-Kaisho" kvg:element="男">
	<g id="kvg:07537-Kaisho-g1" kvg:element="田" kvg:position="top" kvg:radical="general">
		<path style="stroke: #bf0909;" id="kvg:07537-Kaisho-s1" kvg:type="㇑" d="M27.25,14c0.75,1,1.06,2.24,1.23,3.23c1.02,5.77,2.09,18.79,3.14,29.52"/>
		<path style="stroke: #bfa509;" id="kvg:07537-Kaisho-s2" kvg:type="㇕a" d="M29.25,15.45c13.82-1.04,38.88-3.55,48.31-3.71c3.9-0.07,5.87,1.48,5.66,3.04C82.44,20.49,80,32,77.63,41.7"/>
		<path style="stroke: #3dbf09;" id="kvg:07537-Kaisho-s3" kvg:type="㇑a" d="M53.5,15.72c0.5,0.78,1,1.66,1,2.54c0.03,8.9,0.2,20.68,0.2,23.25"/>
		<path style="stroke: #09bf71;" id="kvg:07537-Kaisho-s4" kvg:type="㇐a" d="M30.98,30.82c10.81-0.68,21.62-2.31,32.39-3.48c1.29-0.14,2.55-0.27,3.76-0.4"/>
		<path style="stroke: #0971bf;" id="kvg:07537-Kaisho-s5" kvg:type="㇐a" d="M32.37,45.24C45.75,43.25,62,41.5,77.76,40.78"/>
	</g>
	<g id="kvg:07537-Kaisho-g2" kvg:element="力" kvg:position="bottom">
		<path style="stroke: #3d09bf;" id="kvg:07537-Kaisho-s6" kvg:type="㇆" d="M20.48,61.48c1.44,0.45,3.24,0.35,4.5,0.24c12.02-0.98,49.84-6.59,55.52-7.05c3.69-0.3,4.72,1.35,4.51,3.45c-0.54,5.55-11.82,31.28-16.82,35.98c-4.94,4.64-6.44,2.64-8.69-0.36"/>
		<path style="stroke: #bf09a5;" id="kvg:07537-Kaisho-s7" kvg:type="㇒" d="M53.47,46.43c0.1,1.07,0.25,2.78-0.2,4.32C49.9,62.13,39.5,80.33,17.39,92.06"/>
	</g>
</g>
</g>
<g id="kvg:StrokeNumbers_07537-Kaisho" style="font-size:8;fill:#808080" transform="scale(3.0,3.0)">
	<text style="fill: #bf0909;" transform="matrix(1 0 0 1 18.75 19.50)">1</text>
	<text style="fill: #bfa509;" transform="matrix(1 0 0 1 31.50 12.50)">2</text>
	<text style="fill: #3dbf09;" transform="matrix(1 0 0 1 47.50 24.13)">3</text>
	<text style="fill: #09bf71;" transform="matrix(1 0 0 1 34.00 27.50)">4</text>
	<text style="fill: #0971bf;" transform="matrix(1 0 0 1 34.50 41.50)">5</text>
	<text style="fill: #3d09bf;" transform="matrix(1 0 0 1 11.50 63.50)">6</text>
	<text style="fill: #bf09a5;" transform="matrix(1 0 0 1 45.50 52.50)">7</text>
</g>
</svg>
