<?xml version="1.0" encoding="UTF-8"?>
<!--
This file has been modified from the original version by the kanji_colorize.py
script (available at http://github.com/cayennes/kanji-colorize) with these
settings:
    mode: spectrum
    saturation: 0.95
    value: 0.75
    image_size: 327
It remains under a Creative Commons-Attribution-Share Alike 3.0 License.

The original SVG has the following copyright:

Copyright (C) 2009/2010/2011 Ulrich Apel.
This work is distributed under the conditions of the Creative Commons
Attribution-Share Alike 3.0 Licence. This means you are free:
* to Share - to copy, distribute and transmit the work
* to Remix - to adapt the work

Under the following conditions:
* Attribution. You must attribute the work by stating your use of KanjiVG in
  your own copyright header and linking to KanjiVG's website
  (http://kanjivg.tagaini.net)
* Share Alike. If you alter, transform, or build upon this work, you may
  distribute the resulting work only under the same or similar license to this
  one.

See http://creativecommons.org/licenses/by-sa/3.0/ for more details.
-->
<!DOCTYPE svg PUBLIC "-//W3C//DTD SVG 1.0//EN" "http://www.w3.org/TR/2001/REC-SVG-20010904/DTD/svg10.dtd" [
<!ATTLIST g
xmlns:kvg CDATA #FIXED "http://kanjivg.tagaini.net"
kvg:element CDATA #IMPLIED
kvg:variant CDATA #IMPLIED
kvg:partial CDATA #IMPLIED
kvg:original CDATA #IMPLIED
kvg:part CDATA #IMPLIED
kvg:number CDATA #IMPLIED
kvg:tradForm CDATA #IMPLIED
kvg:radicalForm CDATA #IMPLIED
kvg:position CDATA #IMPLIED
kvg:radical CDATA #IMPLIED
kvg:phon CDATA #IMPLIED >
<!ATTLIST path
xmlns:kvg CDATA #FIXED "http://kanjivg.tagaini.net"
kvg:type CDATA #IMPLIED >
]>
<svg xmlns="http://www.w3.org/2000/svg" width="327" height = "327" viewBox="0 0 327 327">
<g id="kvg:StrokePaths_07532-Kaisho" style="fill:none;stroke:#000000;stroke-width:3;stroke-linecap:round;stroke-linejoin:round;" transform="scale(3.0,3.0)">
<g id="kvg:07532-Kaisho" kvg:element="甲">
	<g id="kvg:07532-Kaisho-g1" kvg:element="田" kvg:partial="true" kvg:radical="tradit">
		<path style="stroke: #bf0909;" id="kvg:07532-Kaisho-s1" kvg:type="㇑" d="M20.38,21.55c0.47,0.71,0.48,1.19,0.73,2.07c2.08,7.24,3.95,26.8,5.18,40.13"/>
		<path style="stroke: #9abf09;" id="kvg:07532-Kaisho-s2" kvg:type="㇕" d="M22.58,23.65C40.5,22,67.42,19.19,79.75,18.48c4.53-0.26,7.25,1.27,7.09,4.27c-0.38,7.14-4.34,33.49-5.17,36.45"/>
		<path style="stroke: #09bf52;" id="kvg:07532-Kaisho-s3" kvg:type="㇐" d="M25.53,41.21c13.29-0.87,26.57-1.89,39.86-2.8c1.6-0.11,3.15-0.21,4.64-0.31"/>
		<path style="stroke: #0952bf;" id="kvg:07532-Kaisho-s4" kvg:type="㇐" d="M27.15,60.37c15.6-1.62,37.6-2.62,54.66-3.31"/>
	</g>
	<g id="kvg:07532-Kaisho-g2" kvg:element="丨" kvg:radical="nelson">
		<path style="stroke: #9a09bf;" id="kvg:07532-Kaisho-s5" kvg:type="㇑" d="M52.11,22.44c0.89,0.56,1.44,2.03,1.44,3.81c-0.03,8.98,0.3,66.54,0.3,69.47"/>
	</g>
</g>
</g>
<g id="kvg:StrokeNumbers_07532-Kaisho" style="font-size:8;fill:#808080" transform="scale(3.0,3.0)">
	<text style="fill: #bf0909;" transform="matrix(1 0 0 1 14.50 30.50)">1</text>
	<text style="fill: #9abf09;" transform="matrix(1 0 0 1 23.25 20.50)">2</text>
	<text style="fill: #09bf52;" transform="matrix(1 0 0 1 29.25 37.55)">3</text>
	<text style="fill: #0952bf;" transform="matrix(1 0 0 1 29.25 55.50)">4</text>
	<text style="fill: #9a09bf;" transform="matrix(1 0 0 1 45.50 30.13)">5</text>
</g>
</svg>
