<?xml version="1.0" encoding="UTF-8"?>
<!--
This file has been modified from the original version by the kanji_colorize.py
script (available at http://github.com/cayennes/kanji-colorize) with these
settings:
    mode: spectrum
    saturation: 0.95
    value: 0.75
    image_size: 327
It remains under a Creative Commons-Attribution-Share Alike 3.0 License.

The original SVG has the following copyright:

Copyright (C) 2009/2010/2011 Ulrich Apel.
This work is distributed under the conditions of the Creative Commons
Attribution-Share Alike 3.0 Licence. This means you are free:
* to Share - to copy, distribute and transmit the work
* to Remix - to adapt the work

Under the following conditions:
* Attribution. You must attribute the work by stating your use of KanjiVG in
  your own copyright header and linking to KanjiVG's website
  (http://kanjivg.tagaini.net)
* Share Alike. If you alter, transform, or build upon this work, you may
  distribute the resulting work only under the same or similar license to this
  one.

See http://creativecommons.org/licenses/by-sa/3.0/ for more details.
-->
<!DOCTYPE svg PUBLIC "-//W3C//DTD SVG 1.0//EN" "http://www.w3.org/TR/2001/REC-SVG-20010904/DTD/svg10.dtd" [
<!ATTLIST g
xmlns:kvg CDATA #FIXED "http://kanjivg.tagaini.net"
kvg:element CDATA #IMPLIED
kvg:variant CDATA #IMPLIED
kvg:partial CDATA #IMPLIED
kvg:original CDATA #IMPLIED
kvg:part CDATA #IMPLIED
kvg:number CDATA #IMPLIED
kvg:tradForm CDATA #IMPLIED
kvg:radicalForm CDATA #IMPLIED
kvg:position CDATA #IMPLIED
kvg:radical CDATA #IMPLIED
kvg:phon CDATA #IMPLIED >
<!ATTLIST path
xmlns:kvg CDATA #FIXED "http://kanjivg.tagaini.net"
kvg:type CDATA #IMPLIED >
]>
<svg xmlns="http://www.w3.org/2000/svg" width="327" height = "327" viewBox="0 0 327 327">
<g id="kvg:StrokePaths_0757f-Kaisho" style="fill:none;stroke:#000000;stroke-width:3;stroke-linecap:round;stroke-linejoin:round;" transform="scale(3.0,3.0)">
<g id="kvg:0757f-Kaisho" kvg:element="畿">
	<g id="kvg:0757f-Kaisho-g1" kvg:element="戍" kvg:variant="true" kvg:original="戌">
		<g id="kvg:0757f-Kaisho-g2" kvg:element="幺" kvg:radical="nelson">
			<path style="stroke: #bf0909;" id="kvg:0757f-Kaisho-s1" kvg:type="㇜" d="M32.71,11.75c0.29,1.16,0.56,2.14-0.15,3.28c-3.11,5.02-5.69,10.26-8.65,12.96c-0.61,0.55-0.59,2.67,0,2.89c1.7,0.63,5.81,1.48,9.19,4.17"/>
			<path style="stroke: #bf5209;" id="kvg:0757f-Kaisho-s2" kvg:type="㇜" d="M42.19,22.56c0.26,0.5,0.34,2.15,0,2.68c-5.05,7.86-10.53,13.03-17.46,20.2c-1.59,1.64,0.39,2.58,1.43,2.25c4.34-1.4,11.51-3.53,17.08-4.87"/>
			<path style="stroke: #bf9a09;" id="kvg:0757f-Kaisho-s3" kvg:type="㇔" d="M40.7,36.8c2,1.84,5.16,7.58,5.66,10.45"/>
		</g>
		<g id="kvg:0757f-Kaisho-g3" kvg:element="幺">
			<path style="stroke: #9abf09;" id="kvg:0757f-Kaisho-s4" kvg:type="㇜" d="M72.32,10.75c0.28,1.11,0.54,2.05-0.14,3.14c-2.98,4.8-3.94,7.32-6.78,9.91c-0.58,0.53-0.56,2.56,0,2.77c1.63,0.61,5.56,1.41,8.79,3.99"/>
			<path style="stroke: #52bf09;" id="kvg:0757f-Kaisho-s5" kvg:type="㇜" d="M84.2,16.06c0.26,0.5,0.34,2.15,0,2.68c-5.05,7.86-11.53,13.03-18.46,20.2c-1.59,1.64,0.39,2.59,1.43,2.25c4.34-1.4,12.51-3.53,18.08-4.87"/>
			<path style="stroke: #09bf09;" id="kvg:0757f-Kaisho-s6" kvg:type="㇔" d="M82.7,32.05c2.34,2.07,6.57,7.97,7.16,11.2"/>
		</g>
		<g id="kvg:0757f-Kaisho-g4" kvg:element="戈" kvg:part="1">
			<g id="kvg:0757f-Kaisho-g5" kvg:element="弋" kvg:part="1">
				<path style="stroke: #09bf52;" id="kvg:0757f-Kaisho-s7" kvg:type="㇐" d="M16.75,59.23c1.52,0.54,4.32,0.8,5.82,0.54c6.15-1.05,50.93-6.24,67.11-6.73c2.53-0.08,4.05,0.26,5.31,0.53"/>
			</g>
		</g>
		<g id="kvg:0757f-Kaisho-g6" kvg:element="田" kvg:radical="tradit">
			<path style="stroke: #09bf9a;" id="kvg:0757f-Kaisho-s8" kvg:type="㇑" d="M21.49,69.7c0.21,0.4,0.71,1.18,0.83,1.69c0.94,4.19,3.68,14.36,4.4,23.07"/>
			<path style="stroke: #099abf;" id="kvg:0757f-Kaisho-s9" kvg:type="㇕a" d="M23.46,71.26c7.26-1.05,20.21-3.84,25.63-4.73c1.99-0.33,3.01,0.82,2.91,1.98c-0.38,4.22-1.8,15.71-2.71,22.77"/>
			<path style="stroke: #0952bf;" id="kvg:0757f-Kaisho-s10" kvg:type="㇑a" d="M36.6,69.62c0.34,0.38,1,1.35,1.02,2.13c0.16,5.96,0.06,15.61,0.06,18.82"/>
			<path style="stroke: #0909bf;" id="kvg:0757f-Kaisho-s11" kvg:type="㇐a" d="M24.82,81.09c5.62-0.96,11.28-1.69,16.92-2.5c0.68-0.1,1.34-0.19,1.97-0.28"/>
			<path style="stroke: #5209bf;" id="kvg:0757f-Kaisho-s12" kvg:type="㇐a" d="M27.1,92.32c5.23-0.45,14.98-2.33,22.2-3.06"/>
		</g>
		<g id="kvg:0757f-Kaisho-g7" kvg:element="戈" kvg:part="2">
			<g id="kvg:0757f-Kaisho-g8" kvg:element="弋" kvg:part="2">
				<path style="stroke: #9a09bf;" id="kvg:0757f-Kaisho-s13" kvg:type="㇂" d="M50.25,8c1.79,1.94,2.62,2.47,2.91,6.66c2.3,32.77,12.98,68.51,34.08,81.48c6.97,4.28,6.99,1.54,6.09-7.06"/>
			</g>
			<g id="kvg:0757f-Kaisho-g9" kvg:element="丿">
				<path style="stroke: #bf099a;" id="kvg:0757f-Kaisho-s14" kvg:type="㇒" d="M78.72,58.68c0.09,0.86,0.19,2.23-0.18,3.47c-2.2,7.32-12.66,24.77-29.98,34.6"/>
			</g>
			<g id="kvg:0757f-Kaisho-g10" kvg:element="弋" kvg:part="3">
				<g id="kvg:0757f-Kaisho-g11" kvg:element="丶">
					<path style="stroke: #bf0952;" id="kvg:0757f-Kaisho-s15" kvg:type="㇔" d="M74.25,43.53c1.96,1.1,5.09,3.61,6,5.5"/>
				</g>
			</g>
		</g>
	</g>
</g>
</g>
<g id="kvg:StrokeNumbers_0757f-Kaisho" style="font-size:8;fill:#808080" transform="scale(3.0,3.0)">
	<text style="fill: #bf0909;" transform="matrix(1 0 0 1 26.50 11.50)">1</text>
	<text style="fill: #bf5209;" transform="matrix(1 0 0 1 40.25 18.50)">2</text>
	<text style="fill: #bf9a09;" transform="matrix(1 0 0 1 43.50 36.50)">3</text>
	<text style="fill: #9abf09;" transform="matrix(1 0 0 1 65.50 10.50)">4</text>
	<text style="fill: #52bf09;" transform="matrix(1 0 0 1 78.50 14.50)">5</text>
	<text style="fill: #09bf09;" transform="matrix(1 0 0 1 84.50 31.50)">6</text>
	<text style="fill: #09bf52;" transform="matrix(1 0 0 1 8.50 61.50)">7</text>
	<text style="fill: #09bf9a;" transform="matrix(1 0 0 1 15.50 77.50)">8</text>
	<text style="fill: #099abf;" transform="matrix(1 0 0 1 24.50 68.28)">9</text>
	<text style="fill: #0952bf;" transform="matrix(1 0 0 1 40.50 74.50)">10</text>
	<text style="fill: #0909bf;" transform="matrix(1 0 0 1 27.50 77.88)">11</text>
	<text style="fill: #5209bf;" transform="matrix(1 0 0 1 28.50 88.55)">12</text>
	<text style="fill: #9a09bf;" transform="matrix(1 0 0 1 38.50 7.50)">13</text>
	<text style="fill: #bf099a;" transform="matrix(1 0 0 1 67.50 62.50)">14</text>
	<text style="fill: #bf0952;" transform="matrix(1 0 0 1 66.50 50.50)">15</text>
</g>
</svg>
