<?xml version="1.0" encoding="UTF-8"?>
<!--
This file has been modified from the original version by the kanji_colorize.py
script (available at http://github.com/cayennes/kanji-colorize) with these
settings:
    mode: spectrum
    saturation: 0.95
    value: 0.75
    image_size: 327
It remains under a Creative Commons-Attribution-Share Alike 3.0 License.

The original SVG has the following copyright:

Copyright (C) 2009/2010/2011 Ulrich Apel.
This work is distributed under the conditions of the Creative Commons
Attribution-Share Alike 3.0 Licence. This means you are free:
* to Share - to copy, distribute and transmit the work
* to Remix - to adapt the work

Under the following conditions:
* Attribution. You must attribute the work by stating your use of KanjiVG in
  your own copyright header and linking to KanjiVG's website
  (http://kanjivg.tagaini.net)
* Share Alike. If you alter, transform, or build upon this work, you may
  distribute the resulting work only under the same or similar license to this
  one.

See http://creativecommons.org/licenses/by-sa/3.0/ for more details.
-->
<!DOCTYPE svg PUBLIC "-//W3C//DTD SVG 1.0//EN" "http://www.w3.org/TR/2001/REC-SVG-20010904/DTD/svg10.dtd" [
<!ATTLIST g
xmlns:kvg CDATA #FIXED "http://kanjivg.tagaini.net"
kvg:element CDATA #IMPLIED
kvg:variant CDATA #IMPLIED
kvg:partial CDATA #IMPLIED
kvg:original CDATA #IMPLIED
kvg:part CDATA #IMPLIED
kvg:number CDATA #IMPLIED
kvg:tradForm CDATA #IMPLIED
kvg:radicalForm CDATA #IMPLIED
kvg:position CDATA #IMPLIED
kvg:radical CDATA #IMPLIED
kvg:phon CDATA #IMPLIED >
<!ATTLIST path
xmlns:kvg CDATA #FIXED "http://kanjivg.tagaini.net"
kvg:type CDATA #IMPLIED >
]>
<svg xmlns="http://www.w3.org/2000/svg" width="327" height = "327" viewBox="0 0 327 327">
<g id="kvg:StrokePaths_075b2-Kaisho" style="fill:none;stroke:#000000;stroke-width:3;stroke-linecap:round;stroke-linejoin:round;" transform="scale(3.0,3.0)">
<g id="kvg:075b2-Kaisho" kvg:element="疲">
	<g id="kvg:075b2-Kaisho-g1" kvg:element="疒" kvg:position="tare" kvg:radical="general">
		<path style="stroke: #bf0909;" id="kvg:075b2-Kaisho-s1" kvg:type="㇑a" d="M52.71,13.63c2.39,0.95,7.02,4.79,8.71,9.05"/>
		<path style="stroke: #bf7609;" id="kvg:075b2-Kaisho-s2" kvg:type="㇐" d="M27.63,30.23c1.52,0.54,4.3,0.63,5.82,0.54c15.8-0.91,38.55-3.52,52.61-4.23c2.53-0.13,4.05,0.26,5.31,0.53"/>
		<path style="stroke: #9abf09;" id="kvg:075b2-Kaisho-s3" kvg:type="㇒" d="M30.99,32c0,32.68-1.46,48.91-17.19,61.22"/>
		<path style="stroke: #2dbf09;" id="kvg:075b2-Kaisho-s4" kvg:type="㇔" d="M13.5,37.75c2.82,1.94,7.29,7.98,8,11"/>
		<path style="stroke: #09bf52;" id="kvg:075b2-Kaisho-s5" kvg:type="㇀" d="M10.67,67.51c1.6,0.72,2.1,0.51,3.51-0.37c5.7-3.55,9-5.82,13.32-8.89"/>
	</g>
	<g id="kvg:075b2-Kaisho-g2" kvg:element="皮">
		<path style="stroke: #09bfbf;" id="kvg:075b2-Kaisho-s6" kvg:type="㇒" d="M44.3,45.25c0.75,0.9,1.45,1.87,1.34,3.75c-1.15,20.75-4.4,34.5-15.02,43.59"/>
		<path style="stroke: #0952bf;" id="kvg:075b2-Kaisho-s7" kvg:type="㇖b" d="M45.99,47.55c12.7-2.18,29.65-4.21,34.88-4.88c8.23-1.06,2.94,5.86,0.38,8.12"/>
		<path style="stroke: #2d09bf;" id="kvg:075b2-Kaisho-s8" kvg:type="㇑a" d="M62.68,34.25c0.78,0.4,1.25,1.78,1.4,2.57s-0.06,17.07-0.06,25.17"/>
		<path style="stroke: #9a09bf;" id="kvg:075b2-Kaisho-s9" kvg:type="㇇" d="M50.94,64.11c1.28,0.28,1.02,0.33,3.58-0.1c2.56-0.43,19.79-4.09,21.55-4.51c1.76-0.43,3.19,1.65,2.4,3.12C70.37,77.79,56.9,88.54,41.53,95.59"/>
		<path style="stroke: #bf0976;" id="kvg:075b2-Kaisho-s10" kvg:type="㇏" d="M52.08,69.99c3.79,0.6,22.29,16.76,35.48,23.38c2.05,1.03,3.55,1.72,5.46,2.06"/>
	</g>
</g>
</g>
<g id="kvg:StrokeNumbers_075b2-Kaisho" style="font-size:8;fill:#808080" transform="scale(3.0,3.0)">
	<text style="fill: #bf0909;" transform="matrix(1 0 0 1 47.75 15.00)">1</text>
	<text style="fill: #bf7609;" transform="matrix(1 0 0 1 32.25 27.05)">2</text>
	<text style="fill: #9abf09;" transform="matrix(1 0 0 1 23.50 40.50)">3</text>
	<text style="fill: #2dbf09;" transform="matrix(1 0 0 1 6.50 38.50)">4</text>
	<text style="fill: #09bf52;" transform="matrix(1 0 0 1 3.50 72.50)">5</text>
	<text style="fill: #09bfbf;" transform="matrix(1 0 0 1 38.25 52.50)">6</text>
	<text style="fill: #0952bf;" transform="matrix(1 0 0 1 48.50 43.50)">7</text>
	<text style="fill: #2d09bf;" transform="matrix(1 0 0 1 53.50 37.63)">8</text>
	<text style="fill: #9a09bf;" transform="matrix(1 0 0 1 50.50 61.50)">9</text>
	<text style="fill: #bf0976;" transform="matrix(1 0 0 1 58.50 72.50)">10</text>
</g>
</svg>
