<?xml version="1.0" encoding="UTF-8"?>
<!--
This file has been modified from the original version by the kanji_colorize.py
script (available at http://github.com/cayennes/kanji-colorize) with these
settings:
    mode: spectrum
    saturation: 0.95
    value: 0.75
    image_size: 327
It remains under a Creative Commons-Attribution-Share Alike 3.0 License.

The original SVG has the following copyright:

Copyright (C) 2009/2010/2011 Ulrich Apel.
This work is distributed under the conditions of the Creative Commons
Attribution-Share Alike 3.0 Licence. This means you are free:
* to Share - to copy, distribute and transmit the work
* to Remix - to adapt the work

Under the following conditions:
* Attribution. You must attribute the work by stating your use of KanjiVG in
  your own copyright header and linking to KanjiVG's website
  (http://kanjivg.tagaini.net)
* Share Alike. If you alter, transform, or build upon this work, you may
  distribute the resulting work only under the same or similar license to this
  one.

See http://creativecommons.org/licenses/by-sa/3.0/ for more details.
-->
<!DOCTYPE svg PUBLIC "-//W3C//DTD SVG 1.0//EN" "http://www.w3.org/TR/2001/REC-SVG-20010904/DTD/svg10.dtd" [
<!ATTLIST g
xmlns:kvg CDATA #FIXED "http://kanjivg.tagaini.net"
kvg:element CDATA #IMPLIED
kvg:variant CDATA #IMPLIED
kvg:partial CDATA #IMPLIED
kvg:original CDATA #IMPLIED
kvg:part CDATA #IMPLIED
kvg:number CDATA #IMPLIED
kvg:tradForm CDATA #IMPLIED
kvg:radicalForm CDATA #IMPLIED
kvg:position CDATA #IMPLIED
kvg:radical CDATA #IMPLIED
kvg:phon CDATA #IMPLIED >
<!ATTLIST path
xmlns:kvg CDATA #FIXED "http://kanjivg.tagaini.net"
kvg:type CDATA #IMPLIED >
]>
<svg xmlns="http://www.w3.org/2000/svg" width="327" height = "327" viewBox="0 0 327 327">
<g id="kvg:StrokePaths_07684-Kaisho" style="fill:none;stroke:#000000;stroke-width:3;stroke-linecap:round;stroke-linejoin:round;" transform="scale(3.0,3.0)">
<g id="kvg:07684-Kaisho" kvg:element="的">
	<g id="kvg:07684-Kaisho-g1" kvg:position="left" kvg:radical="general">
		<g id="kvg:07684-Kaisho-g2" kvg:position="top">
			<path style="stroke: #bf0909;" id="kvg:07684-Kaisho-s1" kvg:type="㇔" d="M29.44,15.5c0.37,0.67,0.42,1.49,0.34,2.07c-0.52,3.44-4.97,11.66-9.02,16.28"/>
		</g>
		<g id="kvg:07684-Kaisho-g3" kvg:element="日" kvg:position="bottom">
			<path style="stroke: #bf9109;" id="kvg:07684-Kaisho-s2" kvg:type="㇑" d="M14.5,35.47c0.47,1.12,0.94,1.68,0.94,3.18c0,1.5,1.31,34.98,1.5,42.35"/>
			<path style="stroke: #64bf09;" id="kvg:07684-Kaisho-s3" kvg:type="㇕a" d="M15.72,37.11c2.64-0.19,23.24-4.04,25.65-4.26c2.01-0.19,3.3,1.25,3.14,2.36c-0.31,2.25-1.37,31.44-1.61,43.4"/>
			<path style="stroke: #09bf36;" id="kvg:07684-Kaisho-s4" kvg:type="㇐a" d="M16.68,56.36c4.26,0,8.7-1.1,12.88-1.76c1.39-0.22,2.79-0.44,4.14-0.64"/>
			<path style="stroke: #09bfbf;" id="kvg:07684-Kaisho-s5" kvg:type="㇐a" d="M17.71,77.44c7.54-0.69,15.04-1.94,23.78-2.14"/>
		</g>
	</g>
	<g id="kvg:07684-Kaisho-g4" kvg:element="勺" kvg:position="right">
		<g id="kvg:07684-Kaisho-g5" kvg:element="勹">
			<g id="kvg:07684-Kaisho-g6" kvg:element="丿">
				<path style="stroke: #0936bf;" id="kvg:07684-Kaisho-s6" kvg:type="㇒" d="M64.64,14.62c0.04,0.8,0.09,2.06-0.09,3.21c-1.05,6.77-7.06,21.62-15.29,30.71"/>
			</g>
			<path style="stroke: #6409bf;" id="kvg:07684-Kaisho-s7" kvg:type="㇆" d="M62.57,33.28c0.86,0.66,2.07,0.88,3.45,0.44s20.04-3.52,23.5-3.75c3.46-0.22,5.08,0.72,4.97,5.41c-0.17,7.73-7.39,45.38-15.85,57.75c-2.46,3.6-3.49,1.66-5.53-1.11"/>
		</g>
		<g id="kvg:07684-Kaisho-g7" kvg:element="丶">
			<path style="stroke: #bf0991;" id="kvg:07684-Kaisho-s8" kvg:type="㇔" d="M60.38,53.68c3.35,2.26,8.65,9.31,9.49,12.84"/>
		</g>
	</g>
</g>
</g>
<g id="kvg:StrokeNumbers_07684-Kaisho" style="font-size:8;fill:#808080" transform="scale(3.0,3.0)">
	<text style="fill: #bf0909;" transform="matrix(1 0 0 1 33.49 13.63)">1</text>
	<text style="fill: #bf9109;" transform="matrix(1 0 0 1 8.25 45.13)">2</text>
	<text style="fill: #64bf09;" transform="matrix(1 0 0 1 15.75 33.13)">3</text>
	<text style="fill: #09bf36;" transform="matrix(1 0 0 1 20.25 51.13)">4</text>
	<text style="fill: #09bfbf;" transform="matrix(1 0 0 1 21.75 73.63)">5</text>
	<text style="fill: #0936bf;" transform="matrix(1 0 0 1 69.75 12.13)">6</text>
	<text style="fill: #6409bf;" transform="matrix(1 0 0 1 69.75 30.13)">7</text>
	<text style="fill: #bf0991;" transform="matrix(1 0 0 1 60.75 49.63)">8</text>
</g>
</svg>
