<?xml version="1.0" encoding="UTF-8"?>
<!--
This file has been modified from the original version by the kanji_colorize.py
script (available at http://github.com/cayennes/kanji-colorize) with these
settings:
    mode: spectrum
    saturation: 0.95
    value: 0.75
    image_size: 327
It remains under a Creative Commons-Attribution-Share Alike 3.0 License.

The original SVG has the following copyright:

Copyright (C) 2009/2010/2011 Ulrich Apel.
This work is distributed under the conditions of the Creative Commons
Attribution-Share Alike 3.0 Licence. This means you are free:
* to Share - to copy, distribute and transmit the work
* to Remix - to adapt the work

Under the following conditions:
* Attribution. You must attribute the work by stating your use of KanjiVG in
  your own copyright header and linking to KanjiVG's website
  (http://kanjivg.tagaini.net)
* Share Alike. If you alter, transform, or build upon this work, you may
  distribute the resulting work only under the same or similar license to this
  one.

See http://creativecommons.org/licenses/by-sa/3.0/ for more details.
-->
<!DOCTYPE svg PUBLIC "-//W3C//DTD SVG 1.0//EN" "http://www.w3.org/TR/2001/REC-SVG-20010904/DTD/svg10.dtd" [
<!ATTLIST g
xmlns:kvg CDATA #FIXED "http://kanjivg.tagaini.net"
kvg:element CDATA #IMPLIED
kvg:variant CDATA #IMPLIED
kvg:partial CDATA #IMPLIED
kvg:original CDATA #IMPLIED
kvg:part CDATA #IMPLIED
kvg:number CDATA #IMPLIED
kvg:tradForm CDATA #IMPLIED
kvg:radicalForm CDATA #IMPLIED
kvg:position CDATA #IMPLIED
kvg:radical CDATA #IMPLIED
kvg:phon CDATA #IMPLIED >
<!ATTLIST path
xmlns:kvg CDATA #FIXED "http://kanjivg.tagaini.net"
kvg:type CDATA #IMPLIED >
]>
<svg xmlns="http://www.w3.org/2000/svg" width="327" height = "327" viewBox="0 0 327 327">
<g id="kvg:StrokePaths_076fb-Kaisho" style="fill:none;stroke:#000000;stroke-width:3;stroke-linecap:round;stroke-linejoin:round;" transform="scale(3.0,3.0)">
<g id="kvg:076fb-Kaisho" kvg:element="盻">
	<g id="kvg:076fb-Kaisho-g1" kvg:element="目" kvg:position="left" kvg:radical="general">
		<path style="stroke: #bf0909;" id="kvg:076fb-Kaisho-s1" kvg:type="㇑" d="M13.38,25.07c0.29,1.36,0.71,2.4,0.71,4.16c0,1.77-0.1,53.97,0,55.75"/>
		<path style="stroke: #bf8209;" id="kvg:076fb-Kaisho-s2" kvg:type="㇕a" d="M14.57,25.76c1.62-0.02,13.48-1.32,14.96-1.4c1.23-0.07,2.1,1.49,2.1,3.13c0,6.04-0.57,42.89-0.57,56.68"/>
		<path style="stroke: #82bf09;" id="kvg:076fb-Kaisho-s3" kvg:type="㇐a" d="M14.54,45.34c2.74-0.28,5.49-0.5,8.24-0.65c0.74-0.04,1.47-0.08,2.18-0.11"/>
		<path style="stroke: #09bf09;" id="kvg:076fb-Kaisho-s4" kvg:type="㇐a" d="M14.67,62.64c2.54-0.12,5.07-0.36,7.6-0.51c0.7-0.04,1.42-0.08,2.14-0.11"/>
		<path style="stroke: #09bf82;" id="kvg:076fb-Kaisho-s5" kvg:type="㇐a" d="M14.04,81.75c4.41-0.25,11.37-0.9,16.95-0.87"/>
	</g>
	<g id="kvg:076fb-Kaisho-g2" kvg:element="兮" kvg:position="right">
		<g id="kvg:076fb-Kaisho-g3" kvg:element="八" kvg:position="top">
			<g id="kvg:076fb-Kaisho-g4" kvg:position="left">
				<path style="stroke: #0982bf;" id="kvg:076fb-Kaisho-s6" kvg:type="㇒" d="M55.81,16.25c0.31,0.83,0.01,1.8-0.43,2.77c-2.58,5.76-10.08,18.6-17.63,24.73"/>
			</g>
			<g id="kvg:076fb-Kaisho-g5" kvg:position="right">
				<path style="stroke: #0909bf;" id="kvg:076fb-Kaisho-s7" kvg:type="㇏" d="M66.58,11.25c1.16,0.27,2.26,0.63,3.01,1.35c6.8,6.58,15,20.23,21.44,24.35c2.78,1.78,3.77,2.73,6.47,3.3"/>
			</g>
		</g>
		<g id="kvg:076fb-Kaisho-g6" kvg:position="bottom">
			<path style="stroke: #8209bf;" id="kvg:076fb-Kaisho-s8" kvg:type="㇐" d="M47.27,43.25c0.82,0.29,2.31,0.32,3.12,0.29c6.31-0.26,21.25-1.94,30.31-2.33c1.36-0.06,2.17,0.14,2.85,0.28"/>
			<path style="stroke: #bf0982;" id="kvg:076fb-Kaisho-s9" kvg:type="㇉" d="M57.75,45.05c0.34,0.78,0.54,1.79,0.07,2.92c-1.31,3.13-3.78,8.92-5.52,12.06c-0.99,1.78-0.32,3.42,2.06,2.91c4.33-0.93,18.49-2.57,23.88-3.43c2.79-0.44,4.9,0.31,3.84,4.44C79.25,75,74.05,86.07,68.19,92.81c-4.94,5.69-6.41,1.44-8.35-1.45"/>
		</g>
	</g>
</g>
</g>
<g id="kvg:StrokeNumbers_076fb-Kaisho" style="font-size:8;fill:#808080" transform="scale(3.0,3.0)">
	<text style="fill: #bf0909;" transform="matrix(1 0 0 1 7.25 32.63)">1</text>
	<text style="fill: #bf8209;" transform="matrix(1 0 0 1 16.50 22.50)">2</text>
	<text style="fill: #82bf09;" transform="matrix(1 0 0 1 18.24 42.50)">3</text>
	<text style="fill: #09bf09;" transform="matrix(1 0 0 1 18.07 59.50)">4</text>
	<text style="fill: #09bf82;" transform="matrix(1 0 0 1 18.25 78.83)">5</text>
	<text style="fill: #0982bf;" transform="matrix(1 0 0 1 46.50 15.50)">6</text>
	<text style="fill: #0909bf;" transform="matrix(1 0 0 1 61.50 10.50)">7</text>
	<text style="fill: #8209bf;" transform="matrix(1 0 0 1 49.50 40.50)">8</text>
	<text style="fill: #bf0982;" transform="matrix(1 0 0 1 48.50 53.03)">9</text>
</g>
</svg>
