<?xml version="1.0" encoding="UTF-8"?>
<!--
This file has been modified from the original version by the kanji_colorize.py
script (available at http://github.com/cayennes/kanji-colorize) with these
settings:
    mode: spectrum
    saturation: 0.95
    value: 0.75
    image_size: 327
It remains under a Creative Commons-Attribution-Share Alike 3.0 License.

The original SVG has the following copyright:

Copyright (C) 2009/2010/2011 Ulrich Apel.
This work is distributed under the conditions of the Creative Commons
Attribution-Share Alike 3.0 Licence. This means you are free:
* to Share - to copy, distribute and transmit the work
* to Remix - to adapt the work

Under the following conditions:
* Attribution. You must attribute the work by stating your use of KanjiVG in
  your own copyright header and linking to KanjiVG's website
  (http://kanjivg.tagaini.net)
* Share Alike. If you alter, transform, or build upon this work, you may
  distribute the resulting work only under the same or similar license to this
  one.

See http://creativecommons.org/licenses/by-sa/3.0/ for more details.
-->
<!DOCTYPE svg PUBLIC "-//W3C//DTD SVG 1.0//EN" "http://www.w3.org/TR/2001/REC-SVG-20010904/DTD/svg10.dtd" [
<!ATTLIST g
xmlns:kvg CDATA #FIXED "http://kanjivg.tagaini.net"
kvg:element CDATA #IMPLIED
kvg:variant CDATA #IMPLIED
kvg:partial CDATA #IMPLIED
kvg:original CDATA #IMPLIED
kvg:part CDATA #IMPLIED
kvg:number CDATA #IMPLIED
kvg:tradForm CDATA #IMPLIED
kvg:radicalForm CDATA #IMPLIED
kvg:position CDATA #IMPLIED
kvg:radical CDATA #IMPLIED
kvg:phon CDATA #IMPLIED >
<!ATTLIST path
xmlns:kvg CDATA #FIXED "http://kanjivg.tagaini.net"
kvg:type CDATA #IMPLIED >
]>
<svg xmlns="http://www.w3.org/2000/svg" width="327" height = "327" viewBox="0 0 327 327">
<g id="kvg:StrokePaths_0770b-Kaisho" style="fill:none;stroke:#000000;stroke-width:3;stroke-linecap:round;stroke-linejoin:round;" transform="scale(3.0,3.0)">
<g id="kvg:0770b-Kaisho" kvg:element="看">
	<g id="kvg:0770b-Kaisho-g1" kvg:element="手" kvg:variant="true">
		<path style="stroke: #bf0909;" id="kvg:0770b-Kaisho-s1" kvg:type="㇒" d="M67.96,9c0.11,0.3,0.23,0.78-0.22,1.21c-2.64,2.54-17.78,8.13-38.5,11.54"/>
		<path style="stroke: #bf8209;" id="kvg:0770b-Kaisho-s2" kvg:type="㇐" d="M22.38,33.17c0.94,0.38,2.66,0.47,3.6,0.38C37.75,32.5,64.75,27,72.75,26.5c1.56-0.1,4.1-0.15,4.88,0.04"/>
		<path style="stroke: #82bf09;" id="kvg:0770b-Kaisho-s3" kvg:type="㇐" d="M12.4,48.12c0.94,0.38,2.66,0.5,3.6,0.38C27.5,47,73,41,92,40.25c1.56-0.06,2.5,0.18,3.29,0.37"/>
		<g id="kvg:0770b-Kaisho-g2" kvg:element="丿" kvg:radical="nelson">
			<path style="stroke: #09bf09;" id="kvg:0770b-Kaisho-s4" kvg:type="㇒" d="M48.38,21.05c0.32,0.88,0.56,1.97,0.41,3.21C47.25,37,33,66.25,17.5,75.75"/>
		</g>
		<g id="kvg:0770b-Kaisho-g3" kvg:element="目" kvg:radical="tradit">
			<path style="stroke: #09bf82;" id="kvg:0770b-Kaisho-s5" kvg:type="㇑" d="M40.47,56.27c0.54,1.02,1.34,1.77,1.34,3.13c0,1.36-0.18,41.25,0,42.6"/>
			<path style="stroke: #0982bf;" id="kvg:0770b-Kaisho-s6" kvg:type="㇕a" d="M41.63,59.08c8.37-1.83,26.12-4.64,28.92-4.84c2.34-0.17,3.98,0.51,3.98,2.7c0,3.05,0.09,41.87-0.09,42.88"/>
			<path style="stroke: #0909bf;" id="kvg:0770b-Kaisho-s7" kvg:type="㇐a" d="M42.66,71.41c5.53-0.74,11.05-1.56,16.57-2.33c1.5-0.21,2.99-0.41,4.42-0.6"/>
			<path style="stroke: #8209bf;" id="kvg:0770b-Kaisho-s8" kvg:type="㇐a" d="M41.91,84.08c5.22-0.37,11.42-1.14,16.61-1.81c1.46-0.19,2.92-0.38,4.37-0.56"/>
			<path style="stroke: #bf0982;" id="kvg:0770b-Kaisho-s9" kvg:type="㇐a" d="M41.88,97.8c8.62-0.8,22.62-2.05,32.27-2.52"/>
		</g>
	</g>
</g>
</g>
<g id="kvg:StrokeNumbers_0770b-Kaisho" style="font-size:8;fill:#808080" transform="scale(3.0,3.0)">
	<text style="fill: #bf0909;" transform="matrix(1 0 0 1 59.75 7.63)">1</text>
	<text style="fill: #bf8209;" transform="matrix(1 0 0 1 14.50 34.63)">2</text>
	<text style="fill: #82bf09;" transform="matrix(1 0 0 1 4.50 49.55)">3</text>
	<text style="fill: #09bf09;" transform="matrix(1 0 0 1 42.50 26.50)">4</text>
	<text style="fill: #09bf82;" transform="matrix(1 0 0 1 34.50 70.50)">5</text>
	<text style="fill: #0982bf;" transform="matrix(1 0 0 1 45.50 55.50)">6</text>
	<text style="fill: #0909bf;" transform="matrix(1 0 0 1 46.50 68.50)">7</text>
	<text style="fill: #8209bf;" transform="matrix(1 0 0 1 46.46 80.98)">8</text>
	<text style="fill: #bf0982;" transform="matrix(1 0 0 1 46.46 94.40)">9</text>
</g>
</svg>
