<?xml version="1.0" encoding="UTF-8"?>
<!--
This file has been modified from the original version by the kanji_colorize.py
script (available at http://github.com/cayennes/kanji-colorize) with these
settings:
    mode: spectrum
    saturation: 0.95
    value: 0.75
    image_size: 327
It remains under a Creative Commons-Attribution-Share Alike 3.0 License.

The original SVG has the following copyright:

Copyright (C) 2009/2010/2011 Ulrich Apel.
This work is distributed under the conditions of the Creative Commons
Attribution-Share Alike 3.0 Licence. This means you are free:
* to Share - to copy, distribute and transmit the work
* to Remix - to adapt the work

Under the following conditions:
* Attribution. You must attribute the work by stating your use of KanjiVG in
  your own copyright header and linking to KanjiVG's website
  (http://kanjivg.tagaini.net)
* Share Alike. If you alter, transform, or build upon this work, you may
  distribute the resulting work only under the same or similar license to this
  one.

See http://creativecommons.org/licenses/by-sa/3.0/ for more details.
-->
<!DOCTYPE svg PUBLIC "-//W3C//DTD SVG 1.0//EN" "http://www.w3.org/TR/2001/REC-SVG-20010904/DTD/svg10.dtd" [
<!ATTLIST g
xmlns:kvg CDATA #FIXED "http://kanjivg.tagaini.net"
kvg:element CDATA #IMPLIED
kvg:variant CDATA #IMPLIED
kvg:partial CDATA #IMPLIED
kvg:original CDATA #IMPLIED
kvg:part CDATA #IMPLIED
kvg:number CDATA #IMPLIED
kvg:tradForm CDATA #IMPLIED
kvg:radicalForm CDATA #IMPLIED
kvg:position CDATA #IMPLIED
kvg:radical CDATA #IMPLIED
kvg:phon CDATA #IMPLIED >
<!ATTLIST path
xmlns:kvg CDATA #FIXED "http://kanjivg.tagaini.net"
kvg:type CDATA #IMPLIED >
]>
<svg xmlns="http://www.w3.org/2000/svg" width="327" height = "327" viewBox="0 0 327 327">
<g id="kvg:StrokePaths_07701-Kaisho" style="fill:none;stroke:#000000;stroke-width:3;stroke-linecap:round;stroke-linejoin:round;" transform="scale(3.0,3.0)">
<g id="kvg:07701-Kaisho" kvg:element="省">
	<g id="kvg:07701-Kaisho-g1" kvg:element="少" kvg:position="top">
		<g id="kvg:07701-Kaisho-g2" kvg:element="小">
			<path style="stroke: #bf0909;" id="kvg:07701-Kaisho-s1" kvg:type="㇚" d="M56.1,12.5c0.08,0.24,1.16,1.27,1.24,2.82c0.4,7.49,0.19,17.99,0.25,20.62c0.16,7.55-5.09,3.8-7.62,1.63"/>
			<path style="stroke: #bf8209;" id="kvg:07701-Kaisho-s2" kvg:type="㇒" d="M36.22,24.68c0.05,0.38,0.19,1-0.1,1.52c-2.1,3.79-10.98,11.1-18.2,14.59"/>
			<path style="stroke: #82bf09;" id="kvg:07701-Kaisho-s3" kvg:type="㇔" d="M76.17,20.92c6.59,2.16,15.43,7.7,17.08,11.06"/>
		</g>
		<g id="kvg:07701-Kaisho-g3" kvg:element="丿" kvg:radical="nelson">
			<path style="stroke: #09bf09;" id="kvg:07701-Kaisho-s4" kvg:type="㇒" d="M69.53,25.53c0.14,0.95,0.42,2.46-0.29,3.8c-5.8,11.08-28.14,28.98-50.81,36.42"/>
		</g>
	</g>
	<g id="kvg:07701-Kaisho-g4" kvg:element="目" kvg:position="bottom" kvg:radical="tradit">
		<path style="stroke: #09bf82;" id="kvg:07701-Kaisho-s5" kvg:type="㇑" d="M41.25,51.39c0.62,1.03,1.53,2.79,1.53,4.17c0,1.37,0.08,39.7,0.08,40.39"/>
		<path style="stroke: #0982bf;" id="kvg:07701-Kaisho-s6" kvg:type="㇕a" d="M43.82,53.31c5.68-0.56,29.91-3.87,33.12-4.07c2.68-0.17,3.56,0.76,3.56,3.23c0.01,4.28-0.05,24.51-0.04,39.59c0,1.55,0,2.24-0.21,3.26"/>
		<path style="stroke: #0909bf;" id="kvg:07701-Kaisho-s7" kvg:type="㇐a" d="M43.76,65.08c6.01-0.2,12.02-0.75,18.01-1.18c1.8-0.13,3.58-0.26,5.29-0.37"/>
		<path style="stroke: #8209bf;" id="kvg:07701-Kaisho-s8" kvg:type="㇐a" d="M44.05,78.91c5.76-0.35,11.52-0.84,17.27-1.24c1.57-0.11,3.14-0.22,4.68-0.31"/>
		<path style="stroke: #bf0982;" id="kvg:07701-Kaisho-s9" kvg:type="㇐a" d="M43.66,93.29c7.01,0,27.39-1.54,36.46-1.54"/>
	</g>
</g>
</g>
<g id="kvg:StrokeNumbers_07701-Kaisho" style="font-size:8;fill:#808080" transform="scale(3.0,3.0)">
	<text style="fill: #bf0909;" transform="matrix(1 0 0 1 47.50 12.50)">1</text>
	<text style="fill: #bf8209;" transform="matrix(1 0 0 1 27.75 23.50)">2</text>
	<text style="fill: #82bf09;" transform="matrix(1 0 0 1 72.25 17.63)">3</text>
	<text style="fill: #09bf09;" transform="matrix(1 0 0 1 62.25 24.13)">4</text>
	<text style="fill: #09bf82;" transform="matrix(1 0 0 1 35.50 67.50)">5</text>
	<text style="fill: #0982bf;" transform="matrix(1 0 0 1 61.50 48.50)">6</text>
	<text style="fill: #0909bf;" transform="matrix(1 0 0 1 47.50 62.50)">7</text>
	<text style="fill: #8209bf;" transform="matrix(1 0 0 1 47.46 75.13)">8</text>
	<text style="fill: #bf0982;" transform="matrix(1 0 0 1 47.46 90.13)">9</text>
</g>
</svg>
