<?xml version="1.0" encoding="UTF-8"?>
<!--
This file has been modified from the original version by the kanji_colorize.py
script (available at http://github.com/cayennes/kanji-colorize) with these
settings:
    mode: spectrum
    saturation: 0.95
    value: 0.75
    image_size: 327
It remains under a Creative Commons-Attribution-Share Alike 3.0 License.

The original SVG has the following copyright:

Copyright (C) 2009/2010/2011 Ulrich Apel.
This work is distributed under the conditions of the Creative Commons
Attribution-Share Alike 3.0 Licence. This means you are free:
* to Share - to copy, distribute and transmit the work
* to Remix - to adapt the work

Under the following conditions:
* Attribution. You must attribute the work by stating your use of KanjiVG in
  your own copyright header and linking to KanjiVG's website
  (http://kanjivg.tagaini.net)
* Share Alike. If you alter, transform, or build upon this work, you may
  distribute the resulting work only under the same or similar license to this
  one.

See http://creativecommons.org/licenses/by-sa/3.0/ for more details.
-->
<!DOCTYPE svg PUBLIC "-//W3C//DTD SVG 1.0//EN" "http://www.w3.org/TR/2001/REC-SVG-20010904/DTD/svg10.dtd" [
<!ATTLIST g
xmlns:kvg CDATA #FIXED "http://kanjivg.tagaini.net"
kvg:element CDATA #IMPLIED
kvg:variant CDATA #IMPLIED
kvg:partial CDATA #IMPLIED
kvg:original CDATA #IMPLIED
kvg:part CDATA #IMPLIED
kvg:number CDATA #IMPLIED
kvg:tradForm CDATA #IMPLIED
kvg:radicalForm CDATA #IMPLIED
kvg:position CDATA #IMPLIED
kvg:radical CDATA #IMPLIED
kvg:phon CDATA #IMPLIED >
<!ATTLIST path
xmlns:kvg CDATA #FIXED "http://kanjivg.tagaini.net"
kvg:type CDATA #IMPLIED >
]>
<svg xmlns="http://www.w3.org/2000/svg" width="327" height = "327" viewBox="0 0 327 327">
<g id="kvg:StrokePaths_077b3-KaishoVtLst" style="fill:none;stroke:#000000;stroke-width:3;stroke-linecap:round;stroke-linejoin:round;" transform="scale(3.0,3.0)">
<g id="kvg:077b3-KaishoVtLst" kvg:element="瞳">
	<g id="kvg:077b3-KaishoVtLst-g1" kvg:element="目" kvg:position="left" kvg:radical="general">
		<path style="stroke: #bf0909;" id="kvg:077b3-KaishoVtLst-s1" kvg:type="㇑" d="M13.88,24.25c0.34,1.36,0.84,2.4,0.84,4.17c0,1.77-0.11,54.09,0,55.87"/>
		<path style="stroke: #bf4909;" id="kvg:077b3-KaishoVtLst-s2" kvg:type="㇕a" d="M15.29,25.44c1.93-0.02,16.07-2.33,17.83-2.41c1.47-0.07,2.5,1.49,2.5,3.14c0,6.05-0.68,42.99-0.68,56.8"/>
		<path style="stroke: #bf8909;" id="kvg:077b3-KaishoVtLst-s3" kvg:type="㇐a" d="M15.26,43.07c3.45-0.3,6.88-0.77,10.32-1.15c0.94-0.1,1.87-0.2,2.78-0.29"/>
		<path style="stroke: #b4bf09;" id="kvg:077b3-KaishoVtLst-s4" kvg:type="㇐a" d="M15.42,59.91c3.03-0.12,7.54-0.5,10.56-0.76c0.84-0.07,1.69-0.14,2.55-0.2"/>
		<path style="stroke: #74bf09;" id="kvg:077b3-KaishoVtLst-s5" kvg:type="㇐a" d="M14.66,81.06c5.26-0.25,13.55-1.41,20.21-1.37"/>
	</g>
	<g id="kvg:077b3-KaishoVtLst-g2" kvg:element="童" kvg:position="right">
		<g id="kvg:077b3-KaishoVtLst-g3" kvg:element="立" kvg:position="top">
			<g id="kvg:077b3-KaishoVtLst-g4" kvg:element="亠" kvg:position="top">
				<path style="stroke: #34bf09;" id="kvg:077b3-KaishoVtLst-s6" kvg:type="㇑a" d="M62.43,12.5c2.47,1.53,5.23,4.39,6.86,6.87"/>
				<path style="stroke: #09bf1e;" id="kvg:077b3-KaishoVtLst-s7" kvg:type="㇐" d="M45.11,25.4c1.05,0.33,2.28,0.38,3.32,0.33c5.92-0.28,27.49-2.61,36.45-2.85c1.75-0.05,2.8,0.16,3.67,0.32"/>
			</g>
			<g id="kvg:077b3-KaishoVtLst-g5" kvg:position="bottom">
				<path style="stroke: #09bf5f;" id="kvg:077b3-KaishoVtLst-s8" kvg:type="㇔" d="M54.35,27.7c2.8,3.5,4.07,6.58,4.33,8.89"/>
				<path style="stroke: #09bf9f;" id="kvg:077b3-KaishoVtLst-s9" kvg:type="㇒" d="M77.93,26.67c0.07,0.58,0.11,1.51,0.04,1.8c-0.44,1.94-3.98,7.08-5.07,8.56"/>
				<path style="stroke: #099fbf;" id="kvg:077b3-KaishoVtLst-s10" kvg:type="㇐" d="M40.97,39.64c1.26,0.38,2.74,0.51,3.99,0.38c14.17-1.48,30.76-2.43,46.66-3.2c2.1-0.1,3.36,0.18,4.41,0.37"/>
			</g>
		</g>
		<g id="kvg:077b3-KaishoVtLst-g6" kvg:element="里" kvg:variant="true" kvg:position="bottom">
			<path style="stroke: #095fbf;" id="kvg:077b3-KaishoVtLst-s11" kvg:type="㇑" d="M47.94,48.76c0.27,0.36,0.28,0.61,0.43,1.06c1.24,3.73,2.82,14.13,3.58,21.08"/>
			<path style="stroke: #091ebf;" id="kvg:077b3-KaishoVtLst-s12" kvg:type="㇕" d="M49.22,49.26c9.58-0.94,26-3.03,33.15-3.81c2.62-0.29,4.39,2.21,4.25,3.24c-0.49,3.76-2.83,11.8-4.67,19.79"/>
			<path style="stroke: #3409bf;" id="kvg:077b3-KaishoVtLst-s13" kvg:type="㇐" d="M51.01,58.9c7.4-0.89,14.89-1.29,22.32-1.89c0.89-0.07,1.76-0.14,2.59-0.21"/>
			<path style="stroke: #7409bf;" id="kvg:077b3-KaishoVtLst-s14" kvg:type="㇐" d="M52.03,68.95c6.9-0.4,20.9-2.12,30.42-2.77"/>
			<path style="stroke: #b409bf;" id="kvg:077b3-KaishoVtLst-s15" kvg:type="㇐" d="M48.08,80.08c0.73,0.24,2.06,0.26,2.79,0.24c7.58-0.27,24.26-1.93,33.64-1.98c1.21-0.01,1.94,0.11,2.55,0.23"/>
			<path style="stroke: #bf0989;" id="kvg:077b3-KaishoVtLst-s16" kvg:type="㇐" d="M40.24,93.29c1.06,0.44,3,0.51,4.05,0.44c11-0.74,32.46-3.33,47.48-3.33c1.76,0,2.82,0.21,3.7,0.43"/>
			<path style="stroke: #bf0949;" id="kvg:077b3-KaishoVtLst-s17" kvg:type="㇑" d="M65.61,48.13c0.56,0.54,0.97,1.57,1,2.91c0.19,9.78,0.07,37.38,0.07,40.11"/>
		</g>
	</g>
</g>
</g>
<g id="kvg:StrokeNumbers_077b3-KaishoVtLst" style="font-size:8;fill:#808080" transform="scale(3.0,3.0)">
	<text style="fill: #bf0909;" transform="matrix(1 0 0 1 6.60 32.60)">1</text>
	<text style="fill: #bf4909;" transform="matrix(1 0 0 1 17.25 22.25)">2</text>
	<text style="fill: #bf8909;" transform="matrix(1 0 0 1 19.24 39.25)">3</text>
	<text style="fill: #b4bf09;" transform="matrix(1 0 0 1 19.07 56.25)">4</text>
	<text style="fill: #74bf09;" transform="matrix(1 0 0 1 19.25 77.60)">5</text>
	<text style="fill: #34bf09;" transform="matrix(1 0 0 1 57.25 12.25)">6</text>
	<text style="fill: #09bf1e;" transform="matrix(1 0 0 1 42.00 22.25)">7</text>
	<text style="fill: #09bf5f;" transform="matrix(1 0 0 1 49.25 33.85)">8</text>
	<text style="fill: #09bf9f;" transform="matrix(1 0 0 1 69.25 31.78)">9</text>
	<text style="fill: #099fbf;" transform="matrix(1 0 0 1 38.25 37.25)">10</text>
	<text style="fill: #095fbf;" transform="matrix(1 0 0 1 39.25 56.63)">11</text>
	<text style="fill: #091ebf;" transform="matrix(1 0 0 1 52.00 46.55)">12</text>
	<text style="fill: #3409bf;" transform="matrix(1 0 0 1 53.25 56.48)">13</text>
	<text style="fill: #7409bf;" transform="matrix(1 0 0 1 53.25 66.40)">14</text>
	<text style="fill: #b409bf;" transform="matrix(1 0 0 1 41.25 77.25)">15</text>
	<text style="fill: #bf0989;" transform="matrix(1 0 0 1 39.25 90.25)">16</text>
	<text style="fill: #bf0949;" transform="matrix(1 0 0 1 70.00 54.33)">17</text>
</g>
</svg>
