<?xml version="1.0" encoding="UTF-8"?>
<!--
This file has been modified from the original version by the kanji_colorize.py
script (available at http://github.com/cayennes/kanji-colorize) with these
settings:
    mode: spectrum
    saturation: 0.95
    value: 0.75
    image_size: 327
It remains under a Creative Commons-Attribution-Share Alike 3.0 License.

The original SVG has the following copyright:

Copyright (C) 2009/2010/2011 Ulrich Apel.
This work is distributed under the conditions of the Creative Commons
Attribution-Share Alike 3.0 Licence. This means you are free:
* to Share - to copy, distribute and transmit the work
* to Remix - to adapt the work

Under the following conditions:
* Attribution. You must attribute the work by stating your use of KanjiVG in
  your own copyright header and linking to KanjiVG's website
  (http://kanjivg.tagaini.net)
* Share Alike. If you alter, transform, or build upon this work, you may
  distribute the resulting work only under the same or similar license to this
  one.

See http://creativecommons.org/licenses/by-sa/3.0/ for more details.
-->
<!DOCTYPE svg PUBLIC "-//W3C//DTD SVG 1.0//EN" "http://www.w3.org/TR/2001/REC-SVG-20010904/DTD/svg10.dtd" [
<!ATTLIST g
xmlns:kvg CDATA #FIXED "http://kanjivg.tagaini.net"
kvg:element CDATA #IMPLIED
kvg:variant CDATA #IMPLIED
kvg:partial CDATA #IMPLIED
kvg:original CDATA #IMPLIED
kvg:part CDATA #IMPLIED
kvg:number CDATA #IMPLIED
kvg:tradForm CDATA #IMPLIED
kvg:radicalForm CDATA #IMPLIED
kvg:position CDATA #IMPLIED
kvg:radical CDATA #IMPLIED
kvg:phon CDATA #IMPLIED >
<!ATTLIST path
xmlns:kvg CDATA #FIXED "http://kanjivg.tagaini.net"
kvg:type CDATA #IMPLIED >
]>
<svg xmlns="http://www.w3.org/2000/svg" width="327" height = "327" viewBox="0 0 327 327">
<g id="kvg:StrokePaths_07956-Kaisho" style="fill:none;stroke:#000000;stroke-width:3;stroke-linecap:round;stroke-linejoin:round;" transform="scale(3.0,3.0)">
<g id="kvg:07956-Kaisho" kvg:element="祖">
	<g id="kvg:07956-Kaisho-g1" kvg:element="礻" kvg:variant="true" kvg:original="示" kvg:position="left" kvg:radical="general">
		<path style="stroke: #bf0909;" id="kvg:07956-Kaisho-s1" kvg:type="㇔" d="M25.83,15.25c3.24,2,6.72,5,9.5,8.5"/>
		<path style="stroke: #bf8209;" id="kvg:07956-Kaisho-s2" kvg:type="㇇" d="M12.08,37.82c1.05,0.48,2.69,1.28,4.42,0.75c2.12-0.66,17.83-4.76,20.43-5.56c2.6-0.8,5.21,1.08,3.63,3.48C35.11,44.78,24.75,58,14.35,69.25"/>
		<path style="stroke: #82bf09;" id="kvg:07956-Kaisho-s3" kvg:type="㇑" d="M29,53.61c0.12,0.29,1.65,1.53,1.77,3.39c0.57,8.93,0.06,33.7,0.06,36.75"/>
		<path style="stroke: #09bf09;" id="kvg:07956-Kaisho-s4" kvg:type="㇔" d="M33.08,51.5c4.01,2.47,8.31,6.17,11.75,10.5"/>
	</g>
	<g id="kvg:07956-Kaisho-g2" kvg:element="且" kvg:position="right">
		<g id="kvg:07956-Kaisho-g3" kvg:element="月">
			<path style="stroke: #09bf82;" id="kvg:07956-Kaisho-s5" kvg:type="㇑a" d="M54.94,25.73c0.56,0.98,0.94,1.94,1.13,2.89c0.19,0.95,0.42,57.64,0.34,59.75"/>
			<path style="stroke: #0982bf;" id="kvg:07956-Kaisho-s6" kvg:type="㇕b" d="M57.18,26.81c2.24-0.1,22.72-2.82,24.38-2.98c2.98-0.29,4.11,2.31,3.75,3.7c-0.35,1.33-0.18,38.44-0.28,57.49"/>
			<path style="stroke: #0909bf;" id="kvg:07956-Kaisho-s7" kvg:type="㇐a" d="M57.26,46.28c4.58-0.56,8.16-1.08,12.75-1.54c1.23-0.12,2.45-0.24,3.64-0.35"/>
			<path style="stroke: #8209bf;" id="kvg:07956-Kaisho-s8" kvg:type="㇐a" d="M57.71,65.51c4.2-0.24,8.39-0.64,12.59-0.96c1.22-0.09,2.44-0.19,3.64-0.27"/>
		</g>
		<g id="kvg:07956-Kaisho-g4" kvg:element="一">
			<path style="stroke: #bf0982;" id="kvg:07956-Kaisho-s9" kvg:type="㇐" d="M43.08,89.84c1.12,0.41,3.18,0.48,4.3,0.41c11.68-0.68,36.89-3.28,48.28-3.18c1.87,0.02,2.99,0.19,3.93,0.4"/>
		</g>
	</g>
</g>
</g>
<g id="kvg:StrokeNumbers_07956-Kaisho" style="font-size:8;fill:#808080" transform="scale(3.0,3.0)">
	<text style="fill: #bf0909;" transform="matrix(1 0 0 1 17.25 15.50)">1</text>
	<text style="fill: #bf8209;" transform="matrix(1 0 0 1 14.25 35.50)">2</text>
	<text style="fill: #82bf09;" transform="matrix(1 0 0 1 23.50 70.50)">3</text>
	<text style="fill: #09bf09;" transform="matrix(1 0 0 1 39.75 52.40)">4</text>
	<text style="fill: #09bf82;" transform="matrix(1 0 0 1 48.75 36.13)">5</text>
	<text style="fill: #0982bf;" transform="matrix(1 0 0 1 57.50 23.50)">6</text>
	<text style="fill: #0909bf;" transform="matrix(1 0 0 1 60.50 43.58)">7</text>
	<text style="fill: #8209bf;" transform="matrix(1 0 0 1 60.46 62.50)">8</text>
	<text style="fill: #bf0982;" transform="matrix(1 0 0 1 41.50 87.50)">9</text>
</g>
</svg>
