<?xml version="1.0" encoding="UTF-8"?>
<!--
This file has been modified from the original version by the kanji_colorize.py
script (available at http://github.com/cayennes/kanji-colorize) with these
settings:
    mode: spectrum
    saturation: 0.95
    value: 0.75
    image_size: 327
It remains under a Creative Commons-Attribution-Share Alike 3.0 License.

The original SVG has the following copyright:

Copyright (C) 2009/2010/2011 Ulrich Apel.
This work is distributed under the conditions of the Creative Commons
Attribution-Share Alike 3.0 Licence. This means you are free:
* to Share - to copy, distribute and transmit the work
* to Remix - to adapt the work

Under the following conditions:
* Attribution. You must attribute the work by stating your use of KanjiVG in
  your own copyright header and linking to KanjiVG's website
  (http://kanjivg.tagaini.net)
* Share Alike. If you alter, transform, or build upon this work, you may
  distribute the resulting work only under the same or similar license to this
  one.

See http://creativecommons.org/licenses/by-sa/3.0/ for more details.
-->
<!DOCTYPE svg PUBLIC "-//W3C//DTD SVG 1.0//EN" "http://www.w3.org/TR/2001/REC-SVG-20010904/DTD/svg10.dtd" [
<!ATTLIST g
xmlns:kvg CDATA #FIXED "http://kanjivg.tagaini.net"
kvg:element CDATA #IMPLIED
kvg:variant CDATA #IMPLIED
kvg:partial CDATA #IMPLIED
kvg:original CDATA #IMPLIED
kvg:part CDATA #IMPLIED
kvg:number CDATA #IMPLIED
kvg:tradForm CDATA #IMPLIED
kvg:radicalForm CDATA #IMPLIED
kvg:position CDATA #IMPLIED
kvg:radical CDATA #IMPLIED
kvg:phon CDATA #IMPLIED >
<!ATTLIST path
xmlns:kvg CDATA #FIXED "http://kanjivg.tagaini.net"
kvg:type CDATA #IMPLIED >
]>
<svg xmlns="http://www.w3.org/2000/svg" width="327" height = "327" viewBox="0 0 327 327">
<g id="kvg:StrokePaths_0798e-KaishoHzFst" style="fill:none;stroke:#000000;stroke-width:3;stroke-linecap:round;stroke-linejoin:round;" transform="scale(3.0,3.0)">
<g id="kvg:0798e-KaishoHzFst" kvg:element="禎">
	<g id="kvg:0798e-KaishoHzFst-g1" kvg:element="礻" kvg:variant="true" kvg:original="示" kvg:position="left" kvg:radical="general">
		<path style="stroke: #bf0909;" id="kvg:0798e-KaishoHzFst-s1" kvg:type="㇔" d="M23.33,13.41c4.35,2.14,9.02,5.34,12.75,9.08"/>
		<path style="stroke: #bf5d09;" id="kvg:0798e-KaishoHzFst-s2" kvg:type="㇇" d="M14.33,38.25c1.01,0.45,2.59,1.2,4.26,0.7c2.05-0.61,16.24-3.95,18.74-4.7s5.02,1.01,3.5,3.25c-5.25,7.75-17.5,24.5-26.25,32.25"/>
		<path style="stroke: #bfb109;" id="kvg:0798e-KaishoHzFst-s3" kvg:type="㇑" d="M28.75,56.36c0.12,0.29,1.65,1.53,1.77,3.39c0.57,8.93,0.06,33.7,0.06,36.75"/>
		<path style="stroke: #79bf09;" id="kvg:0798e-KaishoHzFst-s4" kvg:type="㇔" d="M33.99,53.91c3.78,2.45,7.84,6.13,11.08,10.42"/>
	</g>
	<g id="kvg:0798e-KaishoHzFst-g2" kvg:element="貞" kvg:position="right">
		<g id="kvg:0798e-KaishoHzFst-g3" kvg:element="卜" kvg:variant="true" kvg:original="ト" kvg:position="top">
			<path style="stroke: #25bf09;" id="kvg:0798e-KaishoHzFst-s5" kvg:type="㇐" d="M70.8,25.5c2.96-0.5,14.81-3.25,16.39-3.25c1.58,0,2.37,0,3.55,0"/>
			<path style="stroke: #09bf41;" id="kvg:0798e-KaishoHzFst-s6" kvg:type="㇑" d="M66.08,11.13c0.6,0.49,1.87,3.64,1.99,4.62c0.12,0.97-0.08,15.31-0.2,21.38"/>
		</g>
		<g id="kvg:0798e-KaishoHzFst-g4" kvg:element="貝" kvg:position="bottom">
			<g id="kvg:0798e-KaishoHzFst-g5" kvg:element="目" kvg:position="top">
				<path style="stroke: #09bf95;" id="kvg:0798e-KaishoHzFst-s7" kvg:type="㇑" d="M53.16,37.51c0.55,0.98,1.35,1.69,1.35,3.02s0.25,34.53-0.4,40.14"/>
				<path style="stroke: #0995bf;" id="kvg:0798e-KaishoHzFst-s8" kvg:type="㇕a" d="M55.42,38.57c3.11-0.29,26.8-2.9,29.63-3.22c2.36-0.26,3.62,0.77,3.62,2.01c0,3.04-0.7,39.86-0.7,40.86"/>
				<path style="stroke: #0941bf;" id="kvg:0798e-KaishoHzFst-s9" kvg:type="㇐a" d="M54.57,51.67c5.66-0.6,11.32-1.15,16.98-1.69c1.75-0.17,3.49-0.33,5.15-0.48"/>
				<path style="stroke: #2509bf;" id="kvg:0798e-KaishoHzFst-s10" kvg:type="㇐a" d="M54.82,64.77c5.44-0.68,11.4-1.14,16.86-1.58c1.51-0.12,3.01-0.24,4.5-0.35"/>
				<path style="stroke: #7909bf;" id="kvg:0798e-KaishoHzFst-s11" kvg:type="㇐a" d="M54.42,78.04c8.77-0.91,25.52-1.55,33.52-1.88"/>
			</g>
			<g id="kvg:0798e-KaishoHzFst-g6" kvg:position="bottom">
				<path style="stroke: #bf09b1;" id="kvg:0798e-KaishoHzFst-s12" kvg:type="㇒" d="M62.36,83.78c0.47,1.1,0.07,2.37-0.87,3.22c-2.84,2.58-10.72,8.03-16.4,11.18"/>
				<path style="stroke: #bf095d;" id="kvg:0798e-KaishoHzFst-s13" kvg:type="㇔" d="M78.9,83.29c5.98,3.38,13.05,9.67,14.69,12.77"/>
			</g>
		</g>
	</g>
</g>
</g>
<g id="kvg:StrokeNumbers_0798e-KaishoHzFst" style="font-size:8;fill:#808080" transform="scale(3.0,3.0)">
	<text style="fill: #bf0909;" transform="matrix(1 0 0 1 17.25 13.38)">1</text>
	<text style="fill: #bf5d09;" transform="matrix(1 0 0 1 6.25 39.25)">2</text>
	<text style="fill: #bfb109;" transform="matrix(1 0 0 1 23.25 71.25)">3</text>
	<text style="fill: #79bf09;" transform="matrix(1 0 0 1 38.25 54.25)">4</text>
	<text style="fill: #25bf09;" transform="matrix(1 0 0 1 72.25 22.25)">5</text>
	<text style="fill: #09bf41;" transform="matrix(1 0 0 1 56.25 12.25)">6</text>
	<text style="fill: #09bf95;" transform="matrix(1 0 0 1 46.25 46.26)">7</text>
	<text style="fill: #0995bf;" transform="matrix(1 0 0 1 56.25 36.25)">8</text>
	<text style="fill: #0941bf;" transform="matrix(1 0 0 1 59.25 48.25)">9</text>
	<text style="fill: #2509bf;" transform="matrix(1 0 0 1 58.99 61.25)">10</text>
	<text style="fill: #7909bf;" transform="matrix(1 0 0 1 59.25 74.30)">11</text>
	<text style="fill: #bf09b1;" transform="matrix(1 0 0 1 47.25 89.55)">12</text>
	<text style="fill: #bf095d;" transform="matrix(1 0 0 1 69.25 88.48)">13</text>
</g>
</svg>
