<?xml version="1.0" encoding="UTF-8"?>
<!--
This file has been modified from the original version by the kanji_colorize.py
script (available at http://github.com/cayennes/kanji-colorize) with these
settings:
    mode: spectrum
    saturation: 0.95
    value: 0.75
    image_size: 327
It remains under a Creative Commons-Attribution-Share Alike 3.0 License.

The original SVG has the following copyright:

Copyright (C) 2009/2010/2011 Ulrich Apel.
This work is distributed under the conditions of the Creative Commons
Attribution-Share Alike 3.0 Licence. This means you are free:
* to Share - to copy, distribute and transmit the work
* to Remix - to adapt the work

Under the following conditions:
* Attribution. You must attribute the work by stating your use of KanjiVG in
  your own copyright header and linking to KanjiVG's website
  (http://kanjivg.tagaini.net)
* Share Alike. If you alter, transform, or build upon this work, you may
  distribute the resulting work only under the same or similar license to this
  one.

See http://creativecommons.org/licenses/by-sa/3.0/ for more details.
-->
<!DOCTYPE svg PUBLIC "-//W3C//DTD SVG 1.0//EN" "http://www.w3.org/TR/2001/REC-SVG-20010904/DTD/svg10.dtd" [
<!ATTLIST g
xmlns:kvg CDATA #FIXED "http://kanjivg.tagaini.net"
kvg:element CDATA #IMPLIED
kvg:variant CDATA #IMPLIED
kvg:partial CDATA #IMPLIED
kvg:original CDATA #IMPLIED
kvg:part CDATA #IMPLIED
kvg:number CDATA #IMPLIED
kvg:tradForm CDATA #IMPLIED
kvg:radicalForm CDATA #IMPLIED
kvg:position CDATA #IMPLIED
kvg:radical CDATA #IMPLIED
kvg:phon CDATA #IMPLIED >
<!ATTLIST path
xmlns:kvg CDATA #FIXED "http://kanjivg.tagaini.net"
kvg:type CDATA #IMPLIED >
]>
<svg xmlns="http://www.w3.org/2000/svg" width="327" height = "327" viewBox="0 0 327 327">
<g id="kvg:StrokePaths_079be-Kaisho" style="fill:none;stroke:#000000;stroke-width:3;stroke-linecap:round;stroke-linejoin:round;" transform="scale(3.0,3.0)">
<g id="kvg:079be-Kaisho" kvg:element="禾" kvg:radical="general">
	<g id="kvg:079be-Kaisho-g1" kvg:element="丿" kvg:position="top">
		<path style="stroke: #bf0909;" id="kvg:079be-Kaisho-s1" kvg:type="㇒" d="M74,11c-0.25,1-0.58,2.27-1.26,2.73C68.25,16.75,52.62,24.36,28,29.25"/>
	</g>
	<g id="kvg:079be-Kaisho-g2" kvg:element="木" kvg:position="bottom">
		<path style="stroke: #9abf09;" id="kvg:079be-Kaisho-s2" kvg:type="㇐" d="M16.75,45c0.75,0.23,3.76,0.84,5.75,0.68c9-0.68,47.75-3.93,63-4.57c2-0.08,4.5,0.27,5.75,0.5"/>
		<path style="stroke: #09bf52;" id="kvg:079be-Kaisho-s3" kvg:type="㇑" d="M53.22,25.5c0.89,0.46,1.42,2.05,1.6,2.97c0.18,0.91-0.18,63.05-0.18,63.78c0,12.75-5.64,3.5-8.14,1"/>
		<path style="stroke: #0952bf;" id="kvg:079be-Kaisho-s4" kvg:type="㇒" d="M52.25,45.68c-7.5,12.07-23.75,28.07-37,36.82"/>
		<path style="stroke: #9a09bf;" id="kvg:079be-Kaisho-s5" kvg:type="㇏" d="M56,45.46c5.38,5.22,29.99,29.92,35.84,35.06c1.98,1.74,3.68,2.49,5.66,2.98"/>
	</g>
</g>
</g>
<g id="kvg:StrokeNumbers_079be-Kaisho" style="font-size:8;fill:#808080" transform="scale(3.0,3.0)">
	<text style="fill: #bf0909;" transform="matrix(1 0 0 1 66.50 10.50)">1</text>
	<text style="fill: #9abf09;" transform="matrix(1 0 0 1 8.50 45.13)">2</text>
	<text style="fill: #09bf52;" transform="matrix(1 0 0 1 46.50 34.50)">3</text>
	<text style="fill: #0952bf;" transform="matrix(1 0 0 1 36.75 55.63)">4</text>
	<text style="fill: #9a09bf;" transform="matrix(1 0 0 1 67.50 53.50)">5</text>
</g>
</svg>
