<?xml version="1.0" encoding="UTF-8"?>
<!--
This file has been modified from the original version by the kanji_colorize.py
script (available at http://github.com/cayennes/kanji-colorize) with these
settings:
    mode: spectrum
    saturation: 0.95
    value: 0.75
    image_size: 327
It remains under a Creative Commons-Attribution-Share Alike 3.0 License.

The original SVG has the following copyright:

Copyright (C) 2009/2010/2011 Ulrich Apel.
This work is distributed under the conditions of the Creative Commons
Attribution-Share Alike 3.0 Licence. This means you are free:
* to Share - to copy, distribute and transmit the work
* to Remix - to adapt the work

Under the following conditions:
* Attribution. You must attribute the work by stating your use of KanjiVG in
  your own copyright header and linking to KanjiVG's website
  (http://kanjivg.tagaini.net)
* Share Alike. If you alter, transform, or build upon this work, you may
  distribute the resulting work only under the same or similar license to this
  one.

See http://creativecommons.org/licenses/by-sa/3.0/ for more details.
-->
<!DOCTYPE svg PUBLIC "-//W3C//DTD SVG 1.0//EN" "http://www.w3.org/TR/2001/REC-SVG-20010904/DTD/svg10.dtd" [
<!ATTLIST g
xmlns:kvg CDATA #FIXED "http://kanjivg.tagaini.net"
kvg:element CDATA #IMPLIED
kvg:variant CDATA #IMPLIED
kvg:partial CDATA #IMPLIED
kvg:original CDATA #IMPLIED
kvg:part CDATA #IMPLIED
kvg:number CDATA #IMPLIED
kvg:tradForm CDATA #IMPLIED
kvg:radicalForm CDATA #IMPLIED
kvg:position CDATA #IMPLIED
kvg:radical CDATA #IMPLIED
kvg:phon CDATA #IMPLIED >
<!ATTLIST path
xmlns:kvg CDATA #FIXED "http://kanjivg.tagaini.net"
kvg:type CDATA #IMPLIED >
]>
<svg xmlns="http://www.w3.org/2000/svg" width="327" height = "327" viewBox="0 0 327 327">
<g id="kvg:StrokePaths_07a93-Kaisho" style="fill:none;stroke:#000000;stroke-width:3;stroke-linecap:round;stroke-linejoin:round;" transform="scale(3.0,3.0)">
<g id="kvg:07a93-Kaisho" kvg:element="窓">
	<g id="kvg:07a93-Kaisho-g1" kvg:element="穴" kvg:variant="true" kvg:position="top" kvg:radical="general">
		<g id="kvg:07a93-Kaisho-g2" kvg:element="宀" kvg:position="top">
			<path style="stroke: #bf0909;" id="kvg:07a93-Kaisho-s1" kvg:type="㇑a" d="M49.34,10.25c3.31,1.62,6.53,4.21,8.09,7.65"/>
			<g id="kvg:07a93-Kaisho-g3" kvg:element="冖">
				<path style="stroke: #bf6c09;" id="kvg:07a93-Kaisho-s2" kvg:type="㇔" d="M24.69,23.76c0,3.73-2.04,14-2.96,16.49"/>
				<path style="stroke: #aebf09;" id="kvg:07a93-Kaisho-s3" kvg:type="㇖b" d="M26.32,26.24c11.43-1.99,46.43-6.49,54.77-6.38c10.79,0.14,2.29,6.41-0.4,8.3"/>
			</g>
		</g>
		<g id="kvg:07a93-Kaisho-g4" kvg:element="八" kvg:variant="true" kvg:position="bottom">
			<path style="stroke: #4bbf09;" id="kvg:07a93-Kaisho-s4" kvg:type="㇒" d="M40.02,31.5c0.04,0.42,0.08,1.09-0.08,1.69c-0.93,3.57-5.81,12.1-13.53,16.22"/>
			<path style="stroke: #09bf2a;" id="kvg:07a93-Kaisho-s5" kvg:type="㇔/㇏" d="M62.24,28.87c5.37,2.71,12.51,8.58,15.65,14.18"/>
		</g>
	</g>
	<g id="kvg:07a93-Kaisho-g5" kvg:position="bottom">
		<g id="kvg:07a93-Kaisho-g6" kvg:element="厶">
			<path style="stroke: #09bf8d;" id="kvg:07a93-Kaisho-s6" kvg:type="㇜" d="M51.5,42c0.5,1.25,0.3,1.82-0.02,2.33c-4.23,6.67-7.73,10.42-14.93,17.5c-1.77,1.74-1.93,2.13,0.92,1.49c9.28-2.07,22.03-6.07,29.52-7.4"/>
			<path style="stroke: #098dbf;" id="kvg:07a93-Kaisho-s7" kvg:type="㇔" d="M61.83,50.55c3.54,2.19,9.15,9.01,10.03,12.42"/>
		</g>
		<g id="kvg:07a93-Kaisho-g7" kvg:element="心">
			<path style="stroke: #092abf;" id="kvg:07a93-Kaisho-s8" kvg:type="㇔" d="M24.63,78.27c0.31,2.54-3.12,13.75-5.62,17.98"/>
			<path style="stroke: #4b09bf;" id="kvg:07a93-Kaisho-s9" kvg:type="㇟b" d="M32.5,76.71C42,93,57.5,99.75,77.45,98.75c9.05,0.25,8.8-4,3.33-7.48"/>
			<path style="stroke: #ae09bf;" id="kvg:07a93-Kaisho-s10" kvg:type="㇔a" d="M49.53,69.87c1.56,2.9,5.65,9.37,6.63,5.28"/>
			<path style="stroke: #bf096c;" id="kvg:07a93-Kaisho-s11" kvg:type="㇔" d="M76.6,71.34c4.06,1.52,7.1,2.91,10.4,7.62"/>
		</g>
	</g>
</g>
</g>
<g id="kvg:StrokeNumbers_07a93-Kaisho" style="font-size:8;fill:#808080" transform="scale(3.0,3.0)">
	<text style="fill: #bf0909;" transform="matrix(1 0 0 1 44.50 10.50)">1</text>
	<text style="fill: #bf6c09;" transform="matrix(1 0 0 1 17.25 30.13)">2</text>
	<text style="fill: #aebf09;" transform="matrix(1 0 0 1 29.25 21.13)">3</text>
	<text style="fill: #4bbf09;" transform="matrix(1 0 0 1 31.50 34.50)">4</text>
	<text style="fill: #09bf2a;" transform="matrix(1 0 0 1 55.50 31.50)">5</text>
	<text style="fill: #09bf8d;" transform="matrix(1 0 0 1 44.25 43.50)">6</text>
	<text style="fill: #098dbf;" transform="matrix(1 0 0 1 56.50 49.50)">7</text>
	<text style="fill: #092abf;" transform="matrix(1 0 0 1 18.50 78.13)">8</text>
	<text style="fill: #4b09bf;" transform="matrix(1 0 0 1 30.50 89.50)">9</text>
	<text style="fill: #ae09bf;" transform="matrix(1 0 0 1 40.50 73.50)">10</text>
	<text style="fill: #bf096c;" transform="matrix(1 0 0 1 65.50 74.50)">11</text>
</g>
</svg>
