<?xml version="1.0" encoding="UTF-8"?>
<!--
This file has been modified from the original version by the kanji_colorize.py
script (available at http://github.com/cayennes/kanji-colorize) with these
settings:
    mode: spectrum
    saturation: 0.95
    value: 0.75
    image_size: 327
It remains under a Creative Commons-Attribution-Share Alike 3.0 License.

The original SVG has the following copyright:

Copyright (C) 2009/2010/2011 Ulrich Apel.
This work is distributed under the conditions of the Creative Commons
Attribution-Share Alike 3.0 Licence. This means you are free:
* to Share - to copy, distribute and transmit the work
* to Remix - to adapt the work

Under the following conditions:
* Attribution. You must attribute the work by stating your use of KanjiVG in
  your own copyright header and linking to KanjiVG's website
  (http://kanjivg.tagaini.net)
* Share Alike. If you alter, transform, or build upon this work, you may
  distribute the resulting work only under the same or similar license to this
  one.

See http://creativecommons.org/licenses/by-sa/3.0/ for more details.
-->
<!DOCTYPE svg PUBLIC "-//W3C//DTD SVG 1.0//EN" "http://www.w3.org/TR/2001/REC-SVG-20010904/DTD/svg10.dtd" [
<!ATTLIST g
xmlns:kvg CDATA #FIXED "http://kanjivg.tagaini.net"
kvg:element CDATA #IMPLIED
kvg:variant CDATA #IMPLIED
kvg:partial CDATA #IMPLIED
kvg:original CDATA #IMPLIED
kvg:part CDATA #IMPLIED
kvg:number CDATA #IMPLIED
kvg:tradForm CDATA #IMPLIED
kvg:radicalForm CDATA #IMPLIED
kvg:position CDATA #IMPLIED
kvg:radical CDATA #IMPLIED
kvg:phon CDATA #IMPLIED >
<!ATTLIST path
xmlns:kvg CDATA #FIXED "http://kanjivg.tagaini.net"
kvg:type CDATA #IMPLIED >
]>
<svg xmlns="http://www.w3.org/2000/svg" width="327" height = "327" viewBox="0 0 327 327">
<g id="kvg:StrokePaths_07aaf-KaishoVtLst" style="fill:none;stroke:#000000;stroke-width:3;stroke-linecap:round;stroke-linejoin:round;" transform="scale(3.0,3.0)">
<g id="kvg:07aaf-KaishoVtLst" kvg:element="窯">
	<g id="kvg:07aaf-KaishoVtLst-g1" kvg:element="穴" kvg:variant="true" kvg:position="top" kvg:radical="general">
		<g id="kvg:07aaf-KaishoVtLst-g2" kvg:element="宀" kvg:position="top">
			<path style="stroke: #bf0909;" id="kvg:07aaf-KaishoVtLst-s1" kvg:type="㇑a" d="M49.52,9c2.84,1.57,6.27,4.08,8.16,7.4"/>
			<g id="kvg:07aaf-KaishoVtLst-g3" kvg:element="冖">
				<path style="stroke: #bf5209;" id="kvg:07aaf-KaishoVtLst-s2" kvg:type="㇔" d="M20.29,23.51c0,3.73-2.28,14-3.32,16.49"/>
				<path style="stroke: #bf9a09;" id="kvg:07aaf-KaishoVtLst-s3" kvg:type="㇖b" d="M22.12,25.49c12.8-1.99,55-5.49,64.34-5.38c12.09,0.14,2.56,6.41-0.45,8.3"/>
			</g>
		</g>
		<g id="kvg:07aaf-KaishoVtLst-g4" kvg:element="八" kvg:variant="true" kvg:position="bottom">
			<path style="stroke: #9abf09;" id="kvg:07aaf-KaishoVtLst-s4" kvg:type="㇒" d="M38.97,29.25c0.04,0.35,0.17,0.94-0.09,1.41C36.5,35,31.5,40,23.73,44.17"/>
			<path style="stroke: #52bf09;" id="kvg:07aaf-KaishoVtLst-s5" kvg:type="㇟/㇏" d="M58.34,23.62c0.4,0.43,0.75,0.94,0.75,1.61c0,1.77-0.29,2.37-0.29,4.39c0,4.73,4.86,4.19,9.64,4.19c5.05,0,8.37-0.61,9.08-0.95"/>
		</g>
	</g>
	<g id="kvg:07aaf-KaishoVtLst-g5" kvg:element="羔" kvg:position="bottom">
		<g id="kvg:07aaf-KaishoVtLst-g6" kvg:element="羊" kvg:variant="true" kvg:position="top">
			<path style="stroke: #09bf09;" id="kvg:07aaf-KaishoVtLst-s6" kvg:type="㇔" d="M38.82,39.91c2.04,1.43,5.62,5.88,6.13,8.11"/>
			<path style="stroke: #09bf52;" id="kvg:07aaf-KaishoVtLst-s7" kvg:type="㇒" d="M64.23,39.14c0.02,0.19,0.03,0.48-0.03,0.75c-0.36,1.58-3.12,5.93-5.8,8.35"/>
			<path style="stroke: #09bf9a;" id="kvg:07aaf-KaishoVtLst-s8" kvg:type="㇐" d="M33.18,51.41c0.65,0.24,3.35,0.29,4,0.24C43.25,51.25,65,49,72.48,48.32c1.08-0.1,1.74,0.12,2.29,0.24"/>
			<path style="stroke: #099abf;" id="kvg:07aaf-KaishoVtLst-s9" kvg:type="㇐" d="M34.75,62.21c0.62,0.23,1.76,0.28,2.38,0.23c5.62-0.44,26.39-2.82,32.51-3.07c1.03-0.04,1.66,0.11,2.17,0.23"/>
			<path style="stroke: #0952bf;" id="kvg:07aaf-KaishoVtLst-s10" kvg:type="㇐" d="M26.71,74.48c1.06,0.34,2.99,0.39,4.05,0.34c6.49-0.32,36-2.99,47.58-3.69c1.75-0.11,2.82,0.16,3.7,0.34"/>
			<path style="stroke: #0909bf;" id="kvg:07aaf-KaishoVtLst-s11" kvg:type="㇑" d="M52.16,51.82c0.87,0.32,1.56,1.9,1.56,2.56c0,5.4,0,13.22,0,18.88"/>
		</g>
		<g id="kvg:07aaf-KaishoVtLst-g7" kvg:element="灬" kvg:variant="true" kvg:original="火" kvg:position="bottom">
			<path style="stroke: #5209bf;" id="kvg:07aaf-KaishoVtLst-s12" kvg:type="㇔" d="M24.94,84.18c0,4.46-6.92,11.04-8.72,12.32"/>
			<path style="stroke: #9a09bf;" id="kvg:07aaf-KaishoVtLst-s13" kvg:type="㇔" d="M40.9,81.98c1.66,2.87,3.24,10.76,3.66,15.22"/>
			<path style="stroke: #bf099a;" id="kvg:07aaf-KaishoVtLst-s14" kvg:type="㇔" d="M60.17,80.97c2.53,2.64,6.53,10.87,7.16,14.98"/>
			<path style="stroke: #bf0952;" id="kvg:07aaf-KaishoVtLst-s15" kvg:type="㇔" d="M80,80.23c4.06,3.04,10.48,12.5,11.5,17.23"/>
		</g>
	</g>
</g>
</g>
<g id="kvg:StrokeNumbers_07aaf-KaishoVtLst" style="font-size:8;fill:#808080" transform="scale(3.0,3.0)">
	<text style="fill: #bf0909;" transform="matrix(1 0 0 1 43.25 10.38)">1</text>
	<text style="fill: #bf5209;" transform="matrix(1 0 0 1 13.25 25.38)">2</text>
	<text style="fill: #bf9a09;" transform="matrix(1 0 0 1 23.25 22.25)">3</text>
	<text style="fill: #9abf09;" transform="matrix(1 0 0 1 31.25 32.25)">4</text>
	<text style="fill: #52bf09;" transform="matrix(1 0 0 1 52.25 31.25)">5</text>
	<text style="fill: #09bf09;" transform="matrix(1 0 0 1 33.25 46.38)">6</text>
	<text style="fill: #09bf52;" transform="matrix(1 0 0 1 54.50 42.25)">7</text>
	<text style="fill: #09bf9a;" transform="matrix(1 0 0 1 26.00 52.38)">8</text>
	<text style="fill: #099abf;" transform="matrix(1 0 0 1 25.25 62.88)">9</text>
	<text style="fill: #0952bf;" transform="matrix(1 0 0 1 23.25 71.25)">10</text>
	<text style="fill: #0909bf;" transform="matrix(1 0 0 1 44.00 59.25)">11</text>
	<text style="fill: #5209bf;" transform="matrix(1 0 0 1 15.25 84.25)">12</text>
	<text style="fill: #9a09bf;" transform="matrix(1 0 0 1 31.25 85.25)">13</text>
	<text style="fill: #bf099a;" transform="matrix(1 0 0 1 50.25 84.25)">14</text>
	<text style="fill: #bf0952;" transform="matrix(1 0 0 1 69.25 83.25)">15</text>
</g>
</svg>
