<?xml version="1.0" encoding="UTF-8"?>
<!--
This file has been modified from the original version by the kanji_colorize.py
script (available at http://github.com/cayennes/kanji-colorize) with these
settings:
    mode: spectrum
    saturation: 0.95
    value: 0.75
    image_size: 327
It remains under a Creative Commons-Attribution-Share Alike 3.0 License.

The original SVG has the following copyright:

Copyright (C) 2009/2010/2011 Ulrich Apel.
This work is distributed under the conditions of the Creative Commons
Attribution-Share Alike 3.0 Licence. This means you are free:
* to Share - to copy, distribute and transmit the work
* to Remix - to adapt the work

Under the following conditions:
* Attribution. You must attribute the work by stating your use of KanjiVG in
  your own copyright header and linking to KanjiVG's website
  (http://kanjivg.tagaini.net)
* Share Alike. If you alter, transform, or build upon this work, you may
  distribute the resulting work only under the same or similar license to this
  one.

See http://creativecommons.org/licenses/by-sa/3.0/ for more details.
-->
<!DOCTYPE svg PUBLIC "-//W3C//DTD SVG 1.0//EN" "http://www.w3.org/TR/2001/REC-SVG-20010904/DTD/svg10.dtd" [
<!ATTLIST g
xmlns:kvg CDATA #FIXED "http://kanjivg.tagaini.net"
kvg:element CDATA #IMPLIED
kvg:variant CDATA #IMPLIED
kvg:partial CDATA #IMPLIED
kvg:original CDATA #IMPLIED
kvg:part CDATA #IMPLIED
kvg:number CDATA #IMPLIED
kvg:tradForm CDATA #IMPLIED
kvg:radicalForm CDATA #IMPLIED
kvg:position CDATA #IMPLIED
kvg:radical CDATA #IMPLIED
kvg:phon CDATA #IMPLIED >
<!ATTLIST path
xmlns:kvg CDATA #FIXED "http://kanjivg.tagaini.net"
kvg:type CDATA #IMPLIED >
]>
<svg xmlns="http://www.w3.org/2000/svg" width="327" height = "327" viewBox="0 0 327 327">
<g id="kvg:StrokePaths_07aca-Kaisho" style="fill:none;stroke:#000000;stroke-width:3;stroke-linecap:round;stroke-linejoin:round;" transform="scale(3.0,3.0)">
<g id="kvg:07aca-Kaisho" kvg:element="竊">
	<g id="kvg:07aca-Kaisho-g1" kvg:element="穴" kvg:variant="true" kvg:position="top" kvg:radical="general">
		<g id="kvg:07aca-Kaisho-g2" kvg:element="宀" kvg:position="top">
			<path style="stroke: #bf0909;" id="kvg:07aca-Kaisho-s1" kvg:type="㇑a" d="M50.6,8.25c1.83,1.17,4.59,4.09,5.26,6.9"/>
			<g id="kvg:07aca-Kaisho-g3" kvg:element="冖">
				<path style="stroke: #bf3b09;" id="kvg:07aca-Kaisho-s2" kvg:type="㇔" d="M19.27,21.01c0,3.23-2.42,12.09-3.52,14.24"/>
				<path style="stroke: #bf6c09;" id="kvg:07aca-Kaisho-s3" kvg:type="㇖b" d="M19.37,23.24c12.8-1.99,58.5-4.99,67.84-4.88c12.09,0.14,2.56,6.41-0.45,8.3"/>
			</g>
		</g>
		<g id="kvg:07aca-Kaisho-g4" kvg:element="八" kvg:variant="true" kvg:position="bottom">
			<path style="stroke: #bf9e09;" id="kvg:07aca-Kaisho-s4" kvg:type="㇒" d="M42.26,24.25c0.05,0.29,0.22,0.77-0.11,1.16c-3.05,3.56-9.45,7.67-19.4,11.09"/>
			<path style="stroke: #aebf09;" id="kvg:07aca-Kaisho-s5" kvg:type="㇟/㇏" d="M61.34,21.37C61.7,21.71,62,22.1,62,22.62c0,1.38-0.25,3.79-0.25,5.37c0,3.68,5.16,3.26,9.38,3.26c4.44,0,8.26-0.48,8.88-0.74"/>
		</g>
	</g>
	<g id="kvg:07aca-Kaisho-g5" kvg:position="bottom">
		<g id="kvg:07aca-Kaisho-g6" kvg:element="釆" kvg:position="left">
			<g id="kvg:07aca-Kaisho-g7" kvg:element="丿" kvg:position="top">
				<path style="stroke: #7dbf09;" id="kvg:07aca-Kaisho-s6" kvg:type="㇒" d="M42.15,35.56c0.07,0.25,0.1,0.6-0.14,1c-1.91,3.26-13,7.6-24.51,8.94"/>
			</g>
			<g id="kvg:07aca-Kaisho-g8" kvg:element="米" kvg:variant="true" kvg:position="bottom">
				<path style="stroke: #4bbf09;" id="kvg:07aca-Kaisho-s7" kvg:type="㇔" d="M18.25,50.75c2.08,1.9,5.23,7.29,5.75,10.25"/>
				<path style="stroke: #1abf09;" id="kvg:07aca-Kaisho-s8" kvg:type="㇒" d="M46.2,46.15c0.02,0.31,0.1,0.84-0.04,1.26c-1.13,3.4-2.94,7.41-6.66,12.08"/>
				<path style="stroke: #09bf2a;" id="kvg:07aca-Kaisho-s9" kvg:type="㇐" d="M16.25,63.78c0.37,0.12,1.36,0.43,2.34,0.36c4.07-0.28,21.96-1.62,28.06-1.64c0.99,0,1.23-0.12,1.85,0"/>
				<path style="stroke: #09bf5c;" id="kvg:07aca-Kaisho-s10" kvg:type="㇑" d="M31.91,44.68c0.7,0.36,1.12,1.63,1.25,2.36c0.14,0.73-0.14,43.18-0.14,47.71c0,9.25-4.65,3.12-5.78,2"/>
				<path style="stroke: #09bf8d;" id="kvg:07aca-Kaisho-s11" kvg:type="㇒" d="M33.16,63.51c-3.95,8.38-13.54,20.15-22.41,24.99"/>
				<path style="stroke: #09bfbf;" id="kvg:07aca-Kaisho-s12" kvg:type="㇔/㇏" d="M34.25,67.5c3.03,1.4,9.75,8.7,10.92,11.68"/>
			</g>
		</g>
		<g id="kvg:07aca-Kaisho-g9" kvg:position="right">
			<g id="kvg:07aca-Kaisho-g10" kvg:element="卜" kvg:original="ト">
				<path style="stroke: #098dbf;" id="kvg:07aca-Kaisho-s13" kvg:type="㇑" d="M68.07,37.81c0.67,0.2,1.08,1.25,1.21,1.65c0.13,0.4,0.28,4.99,0.28,9.28"/>
				<path style="stroke: #095cbf;" id="kvg:07aca-Kaisho-s14" kvg:type="㇐/㇔" d="M69.9,41.95c4.4-0.19,6.67-0.77,10.99-0.96c1.07-0.05,1.35-0.06,2.02,0"/>
			</g>
			<path style="stroke: #092abf;" id="kvg:07aca-Kaisho-s15" kvg:type="㇑" d="M54.93,49.31c0.78,0.57,1.38,1.97,1.48,2.72c0.87,6.22,1.33,9.97,1.77,14.85"/>
			<path style="stroke: #1a09bf;" id="kvg:07aca-Kaisho-s16" kvg:type="㇕" d="M56.95,50.49c11.87-1.09,18.32-1.71,26.91-2.13c3.35-0.16,3.19,1.72,3.17,4.14C87,56,85.99,62.5,85.36,66.1"/>
			<path style="stroke: #4b09bf;" id="kvg:07aca-Kaisho-s17" kvg:type="㇒" d="M71,51.89c0.03,0.3,0.05,0.77-0.05,1.19c-0.6,2.51-4.02,8.01-8.72,11.38"/>
			<path style="stroke: #7d09bf;" id="kvg:07aca-Kaisho-s18" kvg:type="㇏" d="M71.1,57.08c3.24,0.99,8.36,4.09,9.17,5.63"/>
			<g id="kvg:07aca-Kaisho-g11" kvg:element="禸">
				<path style="stroke: #ae09bf;" id="kvg:07aca-Kaisho-s19" kvg:type="㇑" d="M50.71,70.85c0.62,1.09,1.54,2.48,1.64,3.27c0.48,3.87,1.13,16.82,1.93,24.14"/>
				<path style="stroke: #bf099e;" id="kvg:07aca-Kaisho-s20" kvg:type="㇆" d="M51.73,71.69c6.25-0.49,37.96-2.99,39.11-3.23c2.47-0.5,4.1,1.22,4.01,2.7c-0.21,3.56-2.39,18.85-4.34,23.37c-2.43,5.64-3.31,3.47-5.49-0.04"/>
				<path style="stroke: #bf096c;" id="kvg:07aca-Kaisho-s21" kvg:type="㇜" d="M 69.305619,72.754335 c -1.243842,3.114086 -3.828378,6.947698 -9.025362,13.180899 -1.06,1.61 -1.06,1.96 0.49,1.61 C 64.020257,86.795234 72.75,83.38 79.2,81.86"/>
				<path style="stroke: #bf093b;" id="kvg:07aca-Kaisho-s22" kvg:type="㇔" d="M74.5,75.75c3.26,2.03,8.43,8.34,9.25,11.5"/>
			</g>
		</g>
	</g>
</g>
</g>
<g id="kvg:StrokeNumbers_07aca-Kaisho" style="font-size:8;fill:#808080" transform="scale(3.0,3.0)">
	<text style="fill: #bf0909;" transform="matrix(1 0 0 1 44.50 9.50)">1</text>
	<text style="fill: #bf3b09;" transform="matrix(1 0 0 1 11.50 20.50)">2</text>
	<text style="fill: #bf6c09;" transform="matrix(1 0 0 1 23.71 18.50)">3</text>
	<text style="fill: #bf9e09;" transform="matrix(1 0 0 1 29.50 29.50)">4</text>
	<text style="fill: #aebf09;" transform="matrix(1 0 0 1 54.50 27.50)">5</text>
	<text style="fill: #7dbf09;" transform="matrix(1 0 0 1 34.50 37.50)">6</text>
	<text style="fill: #4bbf09;" transform="matrix(1 0 0 1 11.25 54.03)">7</text>
	<text style="fill: #1abf09;" transform="matrix(1 0 0 1 44.50 43.50)">8</text>
	<text style="fill: #09bf2a;" transform="matrix(1 0 0 1 8.50 66.50)">9</text>
	<text style="fill: #09bf5c;" transform="matrix(1 0 0 1 25.25 52.50)">10</text>
	<text style="fill: #09bf8d;" transform="matrix(1 0 0 1 17.50 73.88)">11</text>
	<text style="fill: #09bfbf;" transform="matrix(1 0 0 1 40.25 70.50)">12</text>
	<text style="fill: #098dbf;" transform="matrix(1 0 0 1 58.50 39.50)">13</text>
	<text style="fill: #095cbf;" transform="matrix(1 0 0 1 72.50 39.50)">14</text>
	<text style="fill: #092abf;" transform="matrix(1 0 0 1 47.50 56.58)">15</text>
	<text style="fill: #1a09bf;" transform="matrix(1 0 0 1 56.50 47.50)">16</text>
	<text style="fill: #4b09bf;" transform="matrix(1 0 0 1 60.25 58.43)">17</text>
	<text style="fill: #7d09bf;" transform="matrix(1 0 0 1 74.25 56.35)">18</text>
	<text style="fill: #ae09bf;" transform="matrix(1 0 0 1 43.25 88.50)">19</text>
	<text style="fill: #bf099e;" transform="matrix(1 0 0 1 50.50 68.20)">20</text>
    <text style="fill: #bf096c;" transform="matrix(1 0 0 1 55.59 78.95)">21</text>
	<text style="fill: #bf093b;" transform="matrix(1 0 0 1 81.50 78.50)">22</text>
</g>
</svg>
