<?xml version="1.0" encoding="UTF-8"?>
<!--
This file has been modified from the original version by the kanji_colorize.py
script (available at http://github.com/cayennes/kanji-colorize) with these
settings:
    mode: spectrum
    saturation: 0.95
    value: 0.75
    image_size: 327
It remains under a Creative Commons-Attribution-Share Alike 3.0 License.

The original SVG has the following copyright:

Copyright (C) 2009/2010/2011 Ulrich Apel.
This work is distributed under the conditions of the Creative Commons
Attribution-Share Alike 3.0 Licence. This means you are free:
* to Share - to copy, distribute and transmit the work
* to Remix - to adapt the work

Under the following conditions:
* Attribution. You must attribute the work by stating your use of KanjiVG in
  your own copyright header and linking to KanjiVG's website
  (http://kanjivg.tagaini.net)
* Share Alike. If you alter, transform, or build upon this work, you may
  distribute the resulting work only under the same or similar license to this
  one.

See http://creativecommons.org/licenses/by-sa/3.0/ for more details.
-->
<!DOCTYPE svg PUBLIC "-//W3C//DTD SVG 1.0//EN" "http://www.w3.org/TR/2001/REC-SVG-20010904/DTD/svg10.dtd" [
<!ATTLIST g
xmlns:kvg CDATA #FIXED "http://kanjivg.tagaini.net"
kvg:element CDATA #IMPLIED
kvg:variant CDATA #IMPLIED
kvg:partial CDATA #IMPLIED
kvg:original CDATA #IMPLIED
kvg:part CDATA #IMPLIED
kvg:number CDATA #IMPLIED
kvg:tradForm CDATA #IMPLIED
kvg:radicalForm CDATA #IMPLIED
kvg:position CDATA #IMPLIED
kvg:radical CDATA #IMPLIED
kvg:phon CDATA #IMPLIED >
<!ATTLIST path
xmlns:kvg CDATA #FIXED "http://kanjivg.tagaini.net"
kvg:type CDATA #IMPLIED >
]>
<svg xmlns="http://www.w3.org/2000/svg" width="327" height = "327" viewBox="0 0 327 327">
<g id="kvg:StrokePaths_07d2b-KaishoHzFst" style="fill:none;stroke:#000000;stroke-width:3;stroke-linecap:round;stroke-linejoin:round;" transform="scale(3.0,3.0)">
<g id="kvg:07d2b-KaishoHzFst" kvg:element="紫">
	<g id="kvg:07d2b-KaishoHzFst-g1" kvg:element="此" kvg:position="top">
		<g id="kvg:07d2b-KaishoHzFst-g2" kvg:element="止" kvg:position="left">
			<g id="kvg:07d2b-KaishoHzFst-g3" kvg:element="卜" kvg:original="ト">
				<path style="stroke: #bf0909;" id="kvg:07d2b-KaishoHzFst-s1" kvg:type="㇑" d="M37.83,26.08c4.72-0.73,7.36-1.19,11.99-1.93c1.15-0.18,1.44-0.24,2.16,0"/>
				<path style="stroke: #bf6409;" id="kvg:07d2b-KaishoHzFst-s2" kvg:type="㇐" d="M35.38,13.32c1.06,0.49,1.7,2.19,1.91,3.17c0.21,0.98-0.08,12.29-0.08,22.77"/>
			</g>
			<path style="stroke: #bfbf09;" id="kvg:07d2b-KaishoHzFst-s3" kvg:type="㇑" d="M22.27,23.81c1.06,0.49,1.91,2.17,1.91,3.17c0,5.36,0.28,10.51,0.28,17.58"/>
			<path style="stroke: #64bf09;" id="kvg:07d2b-KaishoHzFst-s4" kvg:type="㇀/㇐" d="M13.75,46.32c0.44,0.71,2.42,0.79,3.59,0.52c6.27-1.41,24.63-9.08,34.43-13.09"/>
		</g>
		<g id="kvg:07d2b-KaishoHzFst-g4" kvg:element="匕" kvg:position="right">
			<path style="stroke: #09bf09;" id="kvg:07d2b-KaishoHzFst-s5" kvg:type="㇒" d="M64.75,24.75c7.5-1.75,14-2.75,18.05-3.93c1.66-0.48,2.95-0.57,4.2-0.82"/>
			<path style="stroke: #09bf64;" id="kvg:07d2b-KaishoHzFst-s6" kvg:type="㇟" d="M62.81,11.71c1.05,1.16,1.12,1.94,1.47,3.49c0.35,1.55-0.06,7.35-0.06,16.32c0,10.23,4.63,8.36,14.08,8.36c5.95,0,9.95-0.14,12.95-2.84"/>
		</g>
	</g>
	<g id="kvg:07d2b-KaishoHzFst-g5" kvg:element="糸" kvg:position="bottom" kvg:radical="general">
		<path style="stroke: #09bfbf;" id="kvg:07d2b-KaishoHzFst-s7" kvg:type="㇜" d="M52.5,39c0.5,1.5,0.72,2.54-0.75,3.75c-2.75,2.25-6.5,5.5-11.5,9c-1.02,0.72-0.49,2.47,0.5,2.75c5.25,1.5,5.5,2.5,10,5.25"/>
		<path style="stroke: #0964bf;" id="kvg:07d2b-KaishoHzFst-s8" kvg:type="㇜" d="M65.75,46.5c0.5,2.25-0.66,3.61-1.5,4.25c-10.5,8-18.25,12.5-29.75,19.5c-1.97,1.2-1.04,2.31,1,2c10-1.5,26-4,38-6"/>
		<path style="stroke: #0909bf;" id="kvg:07d2b-KaishoHzFst-s9" kvg:type="㇔" d="M70,61c3,2.25,7.75,9.25,8.5,12.75"/>
		<path style="stroke: #6409bf;" id="kvg:07d2b-KaishoHzFst-s10" kvg:type="㇚/㇑" d="M53.23,73.25c0.12,0.37,1.8,1.93,1.8,4.29c0,6.21-0.37,9.71-0.37,15.21c0,11.75-4.91,3-5.91,2"/>
		<path style="stroke: #bf09bf;" id="kvg:07d2b-KaishoHzFst-s11" kvg:type="㇒" d="M38.96,81.75c0.31,0.63-0.24,2.69-0.81,3.14c-3.74,2.93-12.6,8.59-17.9,11.11"/>
		<path style="stroke: #bf0964;" id="kvg:07d2b-KaishoHzFst-s12" kvg:type="㇔" d="M71.75,81.5c5.21,2.52,14.14,9.23,16,11.75"/>
	</g>
</g>
</g>
<g id="kvg:StrokeNumbers_07d2b-KaishoHzFst" style="font-size:8;fill:#808080" transform="scale(3.0,3.0)">
	<text style="fill: #bf0909;" transform="matrix(1 0 0 1 41.50 22.50)">1</text>
	<text style="fill: #bf6409;" transform="matrix(1 0 0 1 27.75 13.50)">2</text>
	<text style="fill: #bfbf09;" transform="matrix(1 0 0 1 13.50 24.13)">3</text>
	<text style="fill: #64bf09;" transform="matrix(1 0 0 1 6.50 49.50)">4</text>
	<text style="fill: #09bf09;" transform="matrix(1 0 0 1 68.50 19.50)">5</text>
	<text style="fill: #09bf64;" transform="matrix(1 0 0 1 54.50 12.50)">6</text>
	<text style="fill: #09bfbf;" transform="matrix(1 0 0 1 41.50 46.50)">7</text>
	<text style="fill: #0964bf;" transform="matrix(1 0 0 1 58.50 47.50)">8</text>
	<text style="fill: #0909bf;" transform="matrix(1 0 0 1 62.50 61.50)">9</text>
	<text style="fill: #6409bf;" transform="matrix(1 0 0 1 43.50 79.50)">10</text>
	<text style="fill: #bf09bf;" transform="matrix(1 0 0 1 28.50 82.50)">11</text>
	<text style="fill: #bf0964;" transform="matrix(1 0 0 1 63.50 78.13)">12</text>
</g>
</svg>
