<?xml version="1.0" encoding="UTF-8"?>
<!--
This file has been modified from the original version by the kanji_colorize.py
script (available at http://github.com/cayennes/kanji-colorize) with these
settings:
    mode: spectrum
    saturation: 0.95
    value: 0.75
    image_size: 327
It remains under a Creative Commons-Attribution-Share Alike 3.0 License.

The original SVG has the following copyright:

Copyright (C) 2009/2010/2011 Ulrich Apel.
This work is distributed under the conditions of the Creative Commons
Attribution-Share Alike 3.0 Licence. This means you are free:
* to Share - to copy, distribute and transmit the work
* to Remix - to adapt the work

Under the following conditions:
* Attribution. You must attribute the work by stating your use of KanjiVG in
  your own copyright header and linking to KanjiVG's website
  (http://kanjivg.tagaini.net)
* Share Alike. If you alter, transform, or build upon this work, you may
  distribute the resulting work only under the same or similar license to this
  one.

See http://creativecommons.org/licenses/by-sa/3.0/ for more details.
-->
<!DOCTYPE svg PUBLIC "-//W3C//DTD SVG 1.0//EN" "http://www.w3.org/TR/2001/REC-SVG-20010904/DTD/svg10.dtd" [
<!ATTLIST g
xmlns:kvg CDATA #FIXED "http://kanjivg.tagaini.net"
kvg:element CDATA #IMPLIED
kvg:variant CDATA #IMPLIED
kvg:partial CDATA #IMPLIED
kvg:original CDATA #IMPLIED
kvg:part CDATA #IMPLIED
kvg:number CDATA #IMPLIED
kvg:tradForm CDATA #IMPLIED
kvg:radicalForm CDATA #IMPLIED
kvg:position CDATA #IMPLIED
kvg:radical CDATA #IMPLIED
kvg:phon CDATA #IMPLIED >
<!ATTLIST path
xmlns:kvg CDATA #FIXED "http://kanjivg.tagaini.net"
kvg:type CDATA #IMPLIED >
]>
<svg xmlns="http://www.w3.org/2000/svg" width="327" height = "327" viewBox="0 0 327 327">
<g id="kvg:StrokePaths_080c6-Kaisho" style="fill:none;stroke:#000000;stroke-width:3;stroke-linecap:round;stroke-linejoin:round;" transform="scale(3.0,3.0)">
<g id="kvg:080c6-Kaisho" kvg:element="胆">
	<g id="kvg:080c6-Kaisho-g1" kvg:element="月" kvg:variant="true" kvg:original="肉" kvg:position="left" kvg:radical="general">
		<path style="stroke: #bf0909;" id="kvg:080c6-Kaisho-s1" kvg:type="㇒" d="M19.75,17.58c0.57,1.01,0.95,2,1.14,2.98c0.19,0.98,0.17,27.58-0.44,35.81c-0.87,11.71-1.33,22.45-8.95,36.96"/>
		<path style="stroke: #bf8209;" id="kvg:080c6-Kaisho-s2" kvg:type="㇆a" d="M22.03,19.78c4.46-0.86,15.18-3.56,16.88-3.69c1.39-0.1,2.38,1.39,2.38,2.84c0,3.44-0.57,47.61-0.57,67.12c0,9.44-2.47,5.69-5.98,3.24"/>
		<path style="stroke: #82bf09;" id="kvg:080c6-Kaisho-s3" kvg:type="㇐a" d="M22.03,40.33c3.15-0.38,5.78-0.9,8.92-1.4c0.79-0.13,1.57-0.25,2.35-0.38"/>
		<path style="stroke: #09bf09;" id="kvg:080c6-Kaisho-s4" kvg:type="㇐a" d="M21.97,58.95c2.86-0.06,5.73-0.44,8.57-0.77c0.84-0.1,1.68-0.2,2.53-0.29"/>
	</g>
	<g id="kvg:080c6-Kaisho-g2" kvg:element="旦" kvg:position="right">
		<g id="kvg:080c6-Kaisho-g3" kvg:element="日" kvg:position="top">
			<path style="stroke: #09bf82;" id="kvg:080c6-Kaisho-s5" kvg:type="㇑" d="M55.95,18.78c0.7,1.26,1.4,1.9,1.4,3.58s0,41.89,0,49.69"/>
			<path style="stroke: #0982bf;" id="kvg:080c6-Kaisho-s6" kvg:type="㇕a" d="M58.87,20.47c3.65-0.2,19.45-2.49,22.78-2.73c2.78-0.19,4.56,2.16,4.35,3.31c-0.43,2.34-0.36,48.05-0.36,49.21"/>
			<path style="stroke: #0909bf;" id="kvg:080c6-Kaisho-s7" kvg:type="㇐a" d="M57.52,44.06c4.71-0.56,9.41-1.12,14.13-1.57c1.19-0.12,2.38-0.22,3.55-0.32"/>
			<path style="stroke: #8209bf;" id="kvg:080c6-Kaisho-s8" kvg:type="㇐a" d="M57.87,67.91c8.88-0.66,16.88-1.66,27.34-2.06"/>
		</g>
		<g id="kvg:080c6-Kaisho-g4" kvg:element="一" kvg:position="bottom">
			<path style="stroke: #bf0982;" id="kvg:080c6-Kaisho-s9" kvg:type="㇐" d="M47,86.28c1,0.47,2.82,0.49,3.82,0.47c8.8-0.23,34.39-3.07,44.69-3.06c1.66,0,2.66,0.22,3.49,0.46"/>
		</g>
	</g>
</g>
</g>
<g id="kvg:StrokeNumbers_080c6-Kaisho" style="font-size:8;fill:#808080" transform="scale(3.0,3.0)">
	<text style="fill: #bf0909;" transform="matrix(1 0 0 1 14.25 27.13)">1</text>
	<text style="fill: #bf8209;" transform="matrix(1 0 0 1 23.25 16.50)">2</text>
	<text style="fill: #82bf09;" transform="matrix(1 0 0 1 25.50 36.05)">3</text>
	<text style="fill: #09bf09;" transform="matrix(1 0 0 1 25.33 55.48)">4</text>
	<text style="fill: #09bf82;" transform="matrix(1 0 0 1 50.25 27.50)">5</text>
	<text style="fill: #0982bf;" transform="matrix(1 0 0 1 59.25 17.50)">6</text>
	<text style="fill: #0909bf;" transform="matrix(1 0 0 1 62.50 40.55)">7</text>
	<text style="fill: #8209bf;" transform="matrix(1 0 0 1 62.46 64.48)">8</text>
	<text style="fill: #bf0982;" transform="matrix(1 0 0 1 47.50 83.90)">9</text>
</g>
</svg>
