<?xml version="1.0" encoding="UTF-8"?>
<!--
This file has been modified from the original version by the kanji_colorize.py
script (available at http://github.com/cayennes/kanji-colorize) with these
settings:
    mode: spectrum
    saturation: 0.95
    value: 0.75
    image_size: 327
It remains under a Creative Commons-Attribution-Share Alike 3.0 License.

The original SVG has the following copyright:

Copyright (C) 2009/2010/2011 Ulrich Apel.
This work is distributed under the conditions of the Creative Commons
Attribution-Share Alike 3.0 Licence. This means you are free:
* to Share - to copy, distribute and transmit the work
* to Remix - to adapt the work

Under the following conditions:
* Attribution. You must attribute the work by stating your use of KanjiVG in
  your own copyright header and linking to KanjiVG's website
  (http://kanjivg.tagaini.net)
* Share Alike. If you alter, transform, or build upon this work, you may
  distribute the resulting work only under the same or similar license to this
  one.

See http://creativecommons.org/licenses/by-sa/3.0/ for more details.
-->
<!DOCTYPE svg PUBLIC "-//W3C//DTD SVG 1.0//EN" "http://www.w3.org/TR/2001/REC-SVG-20010904/DTD/svg10.dtd" [
<!ATTLIST g
xmlns:kvg CDATA #FIXED "http://kanjivg.tagaini.net"
kvg:element CDATA #IMPLIED
kvg:variant CDATA #IMPLIED
kvg:partial CDATA #IMPLIED
kvg:original CDATA #IMPLIED
kvg:part CDATA #IMPLIED
kvg:number CDATA #IMPLIED
kvg:tradForm CDATA #IMPLIED
kvg:radicalForm CDATA #IMPLIED
kvg:position CDATA #IMPLIED
kvg:radical CDATA #IMPLIED
kvg:phon CDATA #IMPLIED >
<!ATTLIST path
xmlns:kvg CDATA #FIXED "http://kanjivg.tagaini.net"
kvg:type CDATA #IMPLIED >
]>
<svg xmlns="http://www.w3.org/2000/svg" width="327" height = "327" viewBox="0 0 327 327">
<g id="kvg:StrokePaths_08106-Kaisho" style="fill:none;stroke:#000000;stroke-width:3;stroke-linecap:round;stroke-linejoin:round;" transform="scale(3.0,3.0)">
<g id="kvg:08106-Kaisho" kvg:element="脆">
	<g id="kvg:08106-Kaisho-g1" kvg:element="月" kvg:variant="true" kvg:original="肉" kvg:position="left" kvg:radical="general">
		<path style="stroke: #bf0909;" id="kvg:08106-Kaisho-s1" kvg:type="㇒" d="M20.47,21.74c0.52,0.95,0.88,1.88,1.05,2.8c0.17,0.92,0.15,25.9-0.41,33.63c-0.8,11-3.11,22.08-10.61,34.72"/>
		<path style="stroke: #bf7609;" id="kvg:08106-Kaisho-s2" kvg:type="㇆a" d="M22.57,22.81c2.1-0.06,10.65-1.84,12.21-1.96c2.8-0.23,3,1.31,3,2.67c0,3.23-0.53,45.72-0.53,64.05c0,12.61-5.91,3.55-7.7,2.04"/>
		<path style="stroke: #9abf09;" id="kvg:08106-Kaisho-s3" kvg:type="㇐a" d="M22.07,41.2c2.68-0.21,5.34-0.58,8-0.91c0.7-0.09,1.4-0.17,2.09-0.25"/>
		<path style="stroke: #2dbf09;" id="kvg:08106-Kaisho-s4" kvg:type="㇐a" d="M22.01,59.65c2.38-0.05,4.76-0.26,7.13-0.47c0.68-0.06,1.36-0.12,2.05-0.18"/>
	</g>
	<g id="kvg:08106-Kaisho-g2" kvg:element="危" kvg:position="right">
		<g id="kvg:08106-Kaisho-g3" kvg:element="𠂊" kvg:variant="true" kvg:original="勹" kvg:position="top">
			<path style="stroke: #09bf52;" id="kvg:08106-Kaisho-s5" kvg:type="㇒" d="M62.35,13c0.05,0.58,0.1,1.5-0.1,2.34c-1.17,4.92-8.99,16.44-17.48,23.41"/>
			<path style="stroke: #09bfbf;" id="kvg:08106-Kaisho-s6" kvg:type="㇇" d="M60.17,22.88c1.93,0,17.16-1.87,19.18-2.15c1.74-0.24,2.63,2.07,1.91,3.26c-3.05,5-7.46,9.5-10.68,16.25"/>
		</g>
		<g id="kvg:08106-Kaisho-g4" kvg:element="厄" kvg:position="bottom">
			<g id="kvg:08106-Kaisho-g5" kvg:element="厂" kvg:position="tare">
				<path style="stroke: #0952bf;" id="kvg:08106-Kaisho-s7" kvg:type="㇐" d="M50.58,42.07c0.91,0.41,2.56,0.48,3.47,0.41c12.45-0.98,23.7-2.73,37-3.69c1.52-0.11,2.42,0.2,3.17,0.4"/>
				<path style="stroke: #2d09bf;" id="kvg:08106-Kaisho-s8" kvg:type="㇒" d="M53.8,43.67c0.03,1.18,0.07,2.55-0.06,4.25C52.98,57.92,51.9,82.5,43.06,92.99"/>
			</g>
			<g id="kvg:08106-Kaisho-g6" kvg:element="卩">
				<path style="stroke: #9a09bf;" id="kvg:08106-Kaisho-s9" kvg:type="㇆" d="M62.48,56c0.63,0.12,1.89,0.57,3.15,0.33c4.37-0.83,15.91-2.55,17.46-2.92c2.54-0.6,4.19,1.06,4.09,3.48C87.01,61,85.5,70,82.21,76.1c-2.52,4.67-4.61,0.58-5.08,0.34"/>
				<path style="stroke: #bf0976;" id="kvg:08106-Kaisho-s10" kvg:type="㇟/㇑" d="M64.45,57.3c0.62,1.36,0.61,2.97,0.64,5.07c0.17,9.38,0.18,12,0.18,18.38c0,12.82,3.94,13.21,14.68,13.21c7.68,0,12.74-1.92,13.82-3.01c2.29-2.29,1.66-3.44,1.87-7.45"/>
			</g>
		</g>
	</g>
</g>
</g>
<g id="kvg:StrokeNumbers_08106-Kaisho" style="font-size:8;fill:#808080" transform="scale(3.0,3.0)">
	<text style="fill: #bf0909;" transform="matrix(1 0 0 1 14.94 30.50)">1</text>
	<text style="fill: #bf7609;" transform="matrix(1 0 0 1 23.50 19.50)">2</text>
	<text style="fill: #9abf09;" transform="matrix(1 0 0 1 25.50 37.50)">3</text>
	<text style="fill: #2dbf09;" transform="matrix(1 0 0 1 25.50 56.50)">4</text>
	<text style="fill: #09bf52;" transform="matrix(1 0 0 1 54.50 13.50)">5</text>
	<text style="fill: #09bfbf;" transform="matrix(1 0 0 1 67.50 19.50)">6</text>
	<text style="fill: #0952bf;" transform="matrix(1 0 0 1 55.50 39.50)">7</text>
	<text style="fill: #2d09bf;" transform="matrix(1 0 0 1 46.50 50.10)">8</text>
	<text style="fill: #9a09bf;" transform="matrix(1 0 0 1 64.50 53.50)">9</text>
	<text style="fill: #bf0976;" transform="matrix(1 0 0 1 55.50 65.50)">10</text>
</g>
</svg>
