<?xml version="1.0" encoding="UTF-8"?>
<!--
This file has been modified from the original version by the kanji_colorize.py
script (available at http://github.com/cayennes/kanji-colorize) with these
settings:
    mode: spectrum
    saturation: 0.95
    value: 0.75
    image_size: 327
It remains under a Creative Commons-Attribution-Share Alike 3.0 License.

The original SVG has the following copyright:

Copyright (C) 2009/2010/2011 Ulrich Apel.
This work is distributed under the conditions of the Creative Commons
Attribution-Share Alike 3.0 Licence. This means you are free:
* to Share - to copy, distribute and transmit the work
* to Remix - to adapt the work

Under the following conditions:
* Attribution. You must attribute the work by stating your use of KanjiVG in
  your own copyright header and linking to KanjiVG's website
  (http://kanjivg.tagaini.net)
* Share Alike. If you alter, transform, or build upon this work, you may
  distribute the resulting work only under the same or similar license to this
  one.

See http://creativecommons.org/licenses/by-sa/3.0/ for more details.
-->
<!DOCTYPE svg PUBLIC "-//W3C//DTD SVG 1.0//EN" "http://www.w3.org/TR/2001/REC-SVG-20010904/DTD/svg10.dtd" [
<!ATTLIST g
xmlns:kvg CDATA #FIXED "http://kanjivg.tagaini.net"
kvg:element CDATA #IMPLIED
kvg:variant CDATA #IMPLIED
kvg:partial CDATA #IMPLIED
kvg:original CDATA #IMPLIED
kvg:part CDATA #IMPLIED
kvg:number CDATA #IMPLIED
kvg:tradForm CDATA #IMPLIED
kvg:radicalForm CDATA #IMPLIED
kvg:position CDATA #IMPLIED
kvg:radical CDATA #IMPLIED
kvg:phon CDATA #IMPLIED >
<!ATTLIST path
xmlns:kvg CDATA #FIXED "http://kanjivg.tagaini.net"
kvg:type CDATA #IMPLIED >
]>
<svg xmlns="http://www.w3.org/2000/svg" width="327" height = "327" viewBox="0 0 327 327">
<g id="kvg:StrokePaths_0819a-KaishoHzFstLeRi" style="fill:none;stroke:#000000;stroke-width:3;stroke-linecap:round;stroke-linejoin:round;" transform="scale(3.0,3.0)">
<g id="kvg:0819a-KaishoHzFstLeRi" kvg:element="膚">
	<g id="kvg:0819a-KaishoHzFstLeRi-g1" kvg:element="虍" kvg:radical="nelson">
		<path style="stroke: #bf0909;" id="kvg:0819a-KaishoHzFstLeRi-s1" kvg:type="㇐" d="M55.35,16.77C60,16,70.75,14.5,75.46,13.89c1.55-0.2,2.5,0.18,3.29,0.37"/>
		<path style="stroke: #bf5209;" id="kvg:0819a-KaishoHzFstLeRi-s2" kvg:type="㇑" d="M52.02,9.08C53,10,53.77,11.07,53.77,14.1c0,5.9-0.02,5.69-0.02,10.65"/>
		<path style="stroke: #bf9a09;" id="kvg:0819a-KaishoHzFstLeRi-s3" kvg:type="㇒" d="M25.86,26.18c0.66,0.54,1.23,2.57,1.23,4.53c0,22.05-5.34,45.05-16.34,55.8"/>
		<path style="stroke: #9abf09;" id="kvg:0819a-KaishoHzFstLeRi-s4" kvg:type="㇖" d="M27.24,28.74c1.51,0.01,3.76-0.44,5.64-0.72C46.25,26,70.75,22,82.2,21.84c12.07-0.17,2.55,6.66-0.45,8.78"/>
		<g id="kvg:0819a-KaishoHzFstLeRi-g2" kvg:element="七">
			<g id="kvg:0819a-KaishoHzFstLeRi-g3" kvg:element="一">
				<path style="stroke: #52bf09;" id="kvg:0819a-KaishoHzFstLeRi-s5" kvg:type="㇐" d="M34.25,36.51c1.06,0.53,3.68,0.69,4.74,0.53c11.96-1.88,17.51-3.54,28.29-5.94c1.73-0.39,2.83-0.25,3.72,0.02"/>
			</g>
			<path style="stroke: #09bf09;" id="kvg:0819a-KaishoHzFstLeRi-s6" kvg:type="㇟a" d="M50.25,27.68c0.55,0.45,1.29,2.22,1.29,2.84c0,4.98-0.1,1.64-0.1,3.87c0,6.61,1.57,6.11,9.48,6.11c2.95,0,9.8,0,12.33-0.89"/>
		</g>
	</g>
	<g id="kvg:0819a-KaishoHzFstLeRi-g4" kvg:element="胃">
		<g id="kvg:0819a-KaishoHzFstLeRi-g5" kvg:element="田" kvg:position="top">
			<path style="stroke: #09bf52;" id="kvg:0819a-KaishoHzFstLeRi-s7" kvg:type="㇑" d="M37.12,47.67c0.3,0.29,0.31,0.49,0.47,0.85c1.34,2.98,2.39,10.47,3.17,16.01"/>
			<path style="stroke: #09bf9a;" id="kvg:0819a-KaishoHzFstLeRi-s8" kvg:type="㇕a" d="M38.53,48.64c10.62-0.66,29.17-2.33,37.1-2.89c2.91-0.21,4.55,0.69,4.24,2.28c-0.59,2.98-1.94,7.72-3.38,13.96"/>
			<path style="stroke: #099abf;" id="kvg:0819a-KaishoHzFstLeRi-s9" kvg:type="㇑a" d="M57.27,47.61c0.54,0.24,1.15,1.48,1.15,2.47c0,4.53-0.08,7.09-0.08,11.86"/>
			<path style="stroke: #0952bf;" id="kvg:0819a-KaishoHzFstLeRi-s10" kvg:type="㇐a" d="M40.43,56.04c3.46-0.26,34.19-2.42,37.05-2.52"/>
			<path style="stroke: #0909bf;" id="kvg:0819a-KaishoHzFstLeRi-s11" kvg:type="㇐a" d="M41.32,63.44c8.88-0.5,24.71-2.28,35.27-2.71"/>
		</g>
		<g id="kvg:0819a-KaishoHzFstLeRi-g6" kvg:element="月" kvg:position="bottom" kvg:radical="tradit">
			<path style="stroke: #5209bf;" id="kvg:0819a-KaishoHzFstLeRi-s12" kvg:type="㇒" d="M39.22,70.68c0.69,0.4,1.16,1.11,1.39,1.51c0.23,0.4,0.41,25,0.32,25.92"/>
			<path style="stroke: #9a09bf;" id="kvg:0819a-KaishoHzFstLeRi-s13" kvg:type="㇆a" d="M40.62,71.36c2.77-0.13,31.04-3.09,33.1-3.23c2.03-0.13,3.13,1.62,3.13,3.88c0,1.53-0.08,14.64-0.08,22.84c0,6.26-4.85,0.58-5.77,0.08"/>
			<path style="stroke: #bf099a;" id="kvg:0819a-KaishoHzFstLeRi-s14" kvg:type="㇐a" d="M42.04,79.15c5.69-0.42,10.87-1.09,16.55-1.7c1.52-0.16,3.03-0.32,4.51-0.48"/>
			<path style="stroke: #bf0952;" id="kvg:0819a-KaishoHzFstLeRi-s15" kvg:type="㇐a" d="M42.78,87.14c5.21-0.26,10.41-0.89,15.6-1.4c1.51-0.15,3.02-0.3,4.52-0.44"/>
		</g>
	</g>
</g>
</g>
<g id="kvg:StrokeNumbers_0819a-KaishoHzFstLeRi" style="font-size:8;fill:#808080" transform="scale(3.0,3.0)">
	<text style="fill: #bf0909;" transform="matrix(1 0 0 1 59.25 12.13)">1</text>
	<text style="fill: #bf5209;" transform="matrix(1 0 0 1 44.25 9.13)">2</text>
	<text style="fill: #bf9a09;" transform="matrix(1 0 0 1 19.00 36.50)">3</text>
	<text style="fill: #9abf09;" transform="matrix(1 0 0 1 27.75 25.50)">4</text>
	<text style="fill: #52bf09;" transform="matrix(1 0 0 1 33.75 34.50)">5</text>
	<text style="fill: #09bf09;" transform="matrix(1 0 0 1 43.50 32.50)">6</text>
	<text style="fill: #09bf52;" transform="matrix(1 0 0 1 31.50 57.50)">7</text>
	<text style="fill: #09bf9a;" transform="matrix(1 0 0 1 38.25 46.63)">8</text>
	<text style="fill: #099abf;" transform="matrix(1 0 0 1 62.50 52.50)">9</text>
	<text style="fill: #0952bf;" transform="matrix(1 0 0 1 44.25 54.05)">10</text>
	<text style="fill: #0909bf;" transform="matrix(1 0 0 1 44.25 61.48)">11</text>
	<text style="fill: #5209bf;" transform="matrix(1 0 0 1 30.50 77.50)">12</text>
	<text style="fill: #9a09bf;" transform="matrix(1 0 0 1 42.75 69.50)">13</text>
	<text style="fill: #bf099a;" transform="matrix(1 0 0 1 45.75 77.50)">14</text>
	<text style="fill: #bf0952;" transform="matrix(1 0 0 1 45.75 85.50)">15</text>
</g>
</svg>
