<?xml version="1.0" encoding="UTF-8"?>
<!--
This file has been modified from the original version by the kanji_colorize.py
script (available at http://github.com/cayennes/kanji-colorize) with these
settings:
    mode: spectrum
    saturation: 0.95
    value: 0.75
    image_size: 327
It remains under a Creative Commons-Attribution-Share Alike 3.0 License.

The original SVG has the following copyright:

Copyright (C) 2009/2010/2011 Ulrich Apel.
This work is distributed under the conditions of the Creative Commons
Attribution-Share Alike 3.0 Licence. This means you are free:
* to Share - to copy, distribute and transmit the work
* to Remix - to adapt the work

Under the following conditions:
* Attribution. You must attribute the work by stating your use of KanjiVG in
  your own copyright header and linking to KanjiVG's website
  (http://kanjivg.tagaini.net)
* Share Alike. If you alter, transform, or build upon this work, you may
  distribute the resulting work only under the same or similar license to this
  one.

See http://creativecommons.org/licenses/by-sa/3.0/ for more details.
-->
<!DOCTYPE svg PUBLIC "-//W3C//DTD SVG 1.0//EN" "http://www.w3.org/TR/2001/REC-SVG-20010904/DTD/svg10.dtd" [
<!ATTLIST g
xmlns:kvg CDATA #FIXED "http://kanjivg.tagaini.net"
kvg:element CDATA #IMPLIED
kvg:variant CDATA #IMPLIED
kvg:partial CDATA #IMPLIED
kvg:original CDATA #IMPLIED
kvg:part CDATA #IMPLIED
kvg:number CDATA #IMPLIED
kvg:tradForm CDATA #IMPLIED
kvg:radicalForm CDATA #IMPLIED
kvg:position CDATA #IMPLIED
kvg:radical CDATA #IMPLIED
kvg:phon CDATA #IMPLIED >
<!ATTLIST path
xmlns:kvg CDATA #FIXED "http://kanjivg.tagaini.net"
kvg:type CDATA #IMPLIED >
]>
<svg xmlns="http://www.w3.org/2000/svg" width="327" height = "327" viewBox="0 0 327 327">
<g id="kvg:StrokePaths_081d3-KaishoHzFst" style="fill:none;stroke:#000000;stroke-width:3;stroke-linecap:round;stroke-linejoin:round;" transform="scale(3.0,3.0)">
<g id="kvg:081d3-KaishoHzFst" kvg:element="臓">
	<g id="kvg:081d3-KaishoHzFst-g1" kvg:element="月" kvg:variant="true" kvg:original="肉" kvg:position="left" kvg:radical="general">
		<path style="stroke: #bf0909;" id="kvg:081d3-KaishoHzFst-s1" kvg:type="㇒" d="M16.48,20.3c0.45,0.99,0.75,1.96,0.9,2.92s-0.16,32.98-0.35,35.09C16,69.75,15.75,82.75,8.75,92.35"/>
		<path style="stroke: #bf4209;" id="kvg:081d3-KaishoHzFst-s2" kvg:type="㇆a" d="M18.28,21.42c1.81-0.06,10.89-2.44,12.24-2.57c2.41-0.24,3.01,1.36,3.01,2.78c0,3.37-0.45,46.03-0.45,65.16c0,11.71-5.08,3.71-6.62,2.13"/>
		<path style="stroke: #bf7c09;" id="kvg:081d3-KaishoHzFst-s3" kvg:type="㇐a" d="M18.28,40.12c2.52-0.23,5.02-0.62,7.53-0.95c0.69-0.09,1.37-0.18,2.03-0.26"/>
		<path style="stroke: #bfb509;" id="kvg:081d3-KaishoHzFst-s4" kvg:type="㇐a" d="M18.24,58.33c2.27-0.06,4.54-0.43,6.78-0.75c0.66-0.09,1.33-0.19,2-0.29"/>
	</g>
	<g id="kvg:081d3-KaishoHzFst-g2" kvg:element="蔵" kvg:position="right">
		<g id="kvg:081d3-KaishoHzFst-g3" kvg:element="艹" kvg:variant="true" kvg:original="艸" kvg:position="top">
			<path style="stroke: #8fbf09;" id="kvg:081d3-KaishoHzFst-s5" kvg:type="㇐" d="M40.5,25.82c0.98,0.48,2.12,0.58,3.1,0.48c9.01-0.88,33.61-4.99,43.99-5.05c1.63-0.01,2.61,0.23,3.43,0.47"/>
			<path style="stroke: #56bf09;" id="kvg:081d3-KaishoHzFst-s6" kvg:type="㇑a" d="M53.49,15.08c1.06,1.05,1.4,1.36,1.51,2.01c1.06,6.02,1.97,12.23,2.27,14.42"/>
			<path style="stroke: #1cbf09;" id="kvg:081d3-KaishoHzFst-s7" kvg:type="㇑a" d="M75.6,13.25c0.19,0.68,0.43,1.19,0.22,2.02c-1.22,4.91-1.78,7.37-3.11,11.99"/>
		</g>
		<g id="kvg:081d3-KaishoHzFst-g4" kvg:position="bottom">
			<g id="kvg:081d3-KaishoHzFst-g5" kvg:element="厂" kvg:part="1" kvg:variant="true">
				<path style="stroke: #09bf2f;" id="kvg:081d3-KaishoHzFst-s8" kvg:type="㇒" d="M45.53,40.22c0.34,0.69,0.58,1.62,0.58,3.63c0,17.27-0.61,34.65-7.17,48.15"/>
			</g>
			<g id="kvg:081d3-KaishoHzFst-g6" kvg:element="戈" kvg:part="1">
				<g id="kvg:081d3-KaishoHzFst-g7" kvg:element="弋" kvg:part="1">
					<g id="kvg:081d3-KaishoHzFst-g8" kvg:element="厂" kvg:part="2" kvg:variant="true">
						<path style="stroke: #09bf69;" id="kvg:081d3-KaishoHzFst-s9" kvg:type="㇐" d="M43.33,39.77c0.96,0.42,2.73,0.54,3.69,0.42c8.8-1.1,30.27-3.67,38.93-4.24c1.6-0.11,2.56,0.2,3.36,0.41"/>
					</g>
					<g id="kvg:081d3-KaishoHzFst-g9" kvg:element="臣" kvg:variant="true">
						<path style="stroke: #09bfa2;" id="kvg:081d3-KaishoHzFst-s10" kvg:type="㇐" d="M53.66,49.89c2.5-0.37,11.67-1.72,17.49-2.08c0.88-0.05,1.41-0.12,1.85,0.01"/>
						<path style="stroke: #09a2bf;" id="kvg:081d3-KaishoHzFst-s11" kvg:type="㇑" d="M52.89,49.66c0.38,0.25,0.61,1.11,0.68,1.6c0.08,0.49,0,35.04-0.08,38.12"/>
						<path style="stroke: #0969bf;" id="kvg:081d3-KaishoHzFst-s12" kvg:type="㇑" d="M63.29,49.59c0.02,0.13,1.03,0.75,1.04,1.65c0.02,2.53-0.01,7.26-0.07,9.53"/>
						<path style="stroke: #092fbf;" id="kvg:081d3-KaishoHzFst-s13" kvg:type="㇕" d="M53.81,62.71c6-0.9,13.14-2.3,17.31-2.92c1.69-0.25,2.16,0.77,1.92,2.09c-0.43,2.4-1.05,5.4-1.49,8.29"/>
						<path style="stroke: #1c09bf;" id="kvg:081d3-KaishoHzFst-s14" kvg:type="㇐" d="M53.83,73.79c2.5-0.37,14.48-2.58,18.97-2.98"/>
						<path style="stroke: #5609bf;" id="kvg:081d3-KaishoHzFst-s15" kvg:type="㇑" d="M64.05,74.21c0.02,0.12,0.53,0.6,0.54,1.29c0.02,2.07-0.01,8.06-0.07,10.37"/>
						<path style="stroke: #8f09bf;" id="kvg:081d3-KaishoHzFst-s16" kvg:type="㇐" d="M53.66,88.13c2.5-0.37,12.65-2.39,18.48-2.75c0.88-0.06,1.41-0.12,1.85,0.01"/>
					</g>
					<g id="kvg:081d3-KaishoHzFst-g10" kvg:element="戈" kvg:part="2">
						<g id="kvg:081d3-KaishoHzFst-g11" kvg:element="弋" kvg:part="2">
							<path style="stroke: #bf09b5;" id="kvg:081d3-KaishoHzFst-s17" kvg:type="㇂" d="M74.82,31.42c1.01,1.26,1.48,1.61,1.64,4.34C77.65,57.66,85.5,83,96.33,92.72c3.56,3.19,3.4,0.54,2.89-5.06"/>
						</g>
						<g id="kvg:081d3-KaishoHzFst-g12" kvg:element="丿">
							<path style="stroke: #bf097c;" id="kvg:081d3-KaishoHzFst-s18" kvg:type="㇒" d="M90.38,48.99c0.05,0.97,0.08,2.49-0.09,3.89C88.75,65.5,84.25,82,73.61,90.96"/>
						</g>
						<g id="kvg:081d3-KaishoHzFst-g13" kvg:element="弋" kvg:part="3">
							<g id="kvg:081d3-KaishoHzFst-g14" kvg:element="丶">
								<path style="stroke: #bf0942;" id="kvg:081d3-KaishoHzFst-s19" kvg:type="㇔" d="M89.51,26.83c1.87,1.54,4.87,5.06,5.74,7.69"/>
							</g>
						</g>
					</g>
				</g>
			</g>
		</g>
	</g>
</g>
</g>
<g id="kvg:StrokeNumbers_081d3-KaishoHzFst" style="font-size:8;fill:#808080" transform="scale(3.0,3.0)">
	<text style="fill: #bf0909;" transform="matrix(1 0 0 1 10.50 29.50)">1</text>
	<text style="fill: #bf4209;" transform="matrix(1 0 0 1 18.75 17.50)">2</text>
	<text style="fill: #bf7c09;" transform="matrix(1 0 0 1 21.75 36.05)">3</text>
	<text style="fill: #bfb509;" transform="matrix(1 0 0 1 21.58 54.50)">4</text>
	<text style="fill: #8fbf09;" transform="matrix(1 0 0 1 39.50 22.50)">5</text>
	<text style="fill: #56bf09;" transform="matrix(1 0 0 1 46.50 13.50)">6</text>
	<text style="fill: #1cbf09;" transform="matrix(1 0 0 1 67.50 12.13)">7</text>
	<text style="fill: #09bf2f;" transform="matrix(1 0 0 1 38.25 48.50)">8</text>
	<text style="fill: #09bf69;" transform="matrix(1 0 0 1 44.50 37.50)">9</text>
	<text style="fill: #09bfa2;" transform="matrix(1 0 0 1 51.75 46.50)">10</text>
	<text style="fill: #09a2bf;" transform="matrix(1 0 0 1 45.50 82.55)">11</text>
	<text style="fill: #0969bf;" transform="matrix(1 0 0 1 66.75 55.63)">12</text>
	<text style="fill: #092fbf;" transform="matrix(1 0 0 1 54.75 60.05)">13</text>
	<text style="fill: #1c09bf;" transform="matrix(1 0 0 1 54.75 70.48)">14</text>
	<text style="fill: #5609bf;" transform="matrix(1 0 0 1 67.50 79.40)">15</text>
	<text style="fill: #8f09bf;" transform="matrix(1 0 0 1 54.75 84.50)">16</text>
	<text style="fill: #bf09b5;" transform="matrix(1 0 0 1 65.25 34.50)">17</text>
	<text style="fill: #bf097c;" transform="matrix(1 0 0 1 83.50 45.50)">18</text>
	<text style="fill: #bf0942;" transform="matrix(1 0 0 1 79.50 31.50)">19</text>
</g>
</svg>
