<?xml version="1.0" encoding="UTF-8"?>
<!--
This file has been modified from the original version by the kanji_colorize.py
script (available at http://github.com/cayennes/kanji-colorize) with these
settings:
    mode: spectrum
    saturation: 0.95
    value: 0.75
    image_size: 327
It remains under a Creative Commons-Attribution-Share Alike 3.0 License.

The original SVG has the following copyright:

Copyright (C) 2009/2010/2011 Ulrich Apel.
This work is distributed under the conditions of the Creative Commons
Attribution-Share Alike 3.0 Licence. This means you are free:
* to Share - to copy, distribute and transmit the work
* to Remix - to adapt the work

Under the following conditions:
* Attribution. You must attribute the work by stating your use of KanjiVG in
  your own copyright header and linking to KanjiVG's website
  (http://kanjivg.tagaini.net)
* Share Alike. If you alter, transform, or build upon this work, you may
  distribute the resulting work only under the same or similar license to this
  one.

See http://creativecommons.org/licenses/by-sa/3.0/ for more details.
-->
<!DOCTYPE svg PUBLIC "-//W3C//DTD SVG 1.0//EN" "http://www.w3.org/TR/2001/REC-SVG-20010904/DTD/svg10.dtd" [
<!ATTLIST g
xmlns:kvg CDATA #FIXED "http://kanjivg.tagaini.net"
kvg:element CDATA #IMPLIED
kvg:variant CDATA #IMPLIED
kvg:partial CDATA #IMPLIED
kvg:original CDATA #IMPLIED
kvg:part CDATA #IMPLIED
kvg:number CDATA #IMPLIED
kvg:tradForm CDATA #IMPLIED
kvg:radicalForm CDATA #IMPLIED
kvg:position CDATA #IMPLIED
kvg:radical CDATA #IMPLIED
kvg:phon CDATA #IMPLIED >
<!ATTLIST path
xmlns:kvg CDATA #FIXED "http://kanjivg.tagaini.net"
kvg:type CDATA #IMPLIED >
]>
<svg xmlns="http://www.w3.org/2000/svg" width="327" height = "327" viewBox="0 0 327 327">
<g id="kvg:StrokePaths_08237-Kaisho" style="fill:none;stroke:#000000;stroke-width:3;stroke-linecap:round;stroke-linejoin:round;" transform="scale(3.0,3.0)">
<g id="kvg:08237-Kaisho" kvg:element="舷">
	<g id="kvg:08237-Kaisho-g1" kvg:element="舟" kvg:position="left" kvg:radical="general">
		<path style="stroke: #bf0909;" id="kvg:08237-Kaisho-s1" kvg:type="㇒" d="M32.45,12.25c0.94,1.93,1.07,1.93,0.75,3.47c-0.31,1.54-4.57,9.24-8.96,15.78"/>
		<path style="stroke: #bf6c09;" id="kvg:08237-Kaisho-s2" kvg:type="㇒" d="M19.56,31.22c0.86,1.3,1.08,3.56,1.08,5.18c0,1.62,0.12,23,0.22,25.92c0.43,12.76-4.1,27.68-10.6,35.18"/>
		<path style="stroke: #aebf09;" id="kvg:08237-Kaisho-s3" kvg:type="㇆a" d="M21.75,33.06c4.2-0.64,14.8-2.86,18.6-3.5c3.8-0.64,3.6,1.27,3.6,3.5c0,2.22-0.4,53.71-0.4,56.89c0,9.05-5.4,1.91-6.2,1.27"/>
		<path style="stroke: #4bbf09;" id="kvg:08237-Kaisho-s4" kvg:type="㇔" d="M28.03,38.52c1.56,1.8,5.46,6.61,5.85,8.72"/>
		<path style="stroke: #09bf2a;" id="kvg:08237-Kaisho-s5" kvg:type="㇑" d="M30.05,57.89c1,1.59,1.2,2.54,1.2,3.81c0,1.27-0.4,12.3-0.4,18.21"/>
		<path style="stroke: #09bf8d;" id="kvg:08237-Kaisho-s6" kvg:type="㇀/㇐" d="M11,60c0.44,1.12,2.36,1.31,3.75,1s30.75-11.75,34.5-13.25"/>
	</g>
	<g id="kvg:08237-Kaisho-g2" kvg:element="玄" kvg:position="right">
		<g id="kvg:08237-Kaisho-g3" kvg:element="亠" kvg:position="top">
			<path style="stroke: #098dbf;" id="kvg:08237-Kaisho-s7" kvg:type="㇑a" d="M67.56,13c2.96,1.55,7.85,7.55,7.85,10.63"/>
			<path style="stroke: #092abf;" id="kvg:08237-Kaisho-s8" kvg:type="㇐" d="M53,30.73c0.9,0.07,2.95,0.49,3.83,0.39c7.06-0.82,26.26-3.59,36.33-4.15c1.48-0.08,2.24,0.03,3.34,0.5"/>
		</g>
		<g id="kvg:08237-Kaisho-g4" kvg:element="幺" kvg:position="bottom">
			<path style="stroke: #4b09bf;" id="kvg:08237-Kaisho-s9" kvg:type="㇜" d="M70.59,32.28c0.37,1.46,0.6,2.63-0.18,4.14C67,42.99,63.25,48.75,57.01,56.29c-0.67,0.82-0.24,1.88,0.5,2.15c4.99,1.8,10.7,3.43,13.99,6.11"/>
			<path style="stroke: #ae09bf;" id="kvg:08237-Kaisho-s10" kvg:type="㇜" d="M85.21,41.84c0.54,1.54,0.15,4.62-0.5,5.56C75.75,60.33,70,70.23,55.96,87.03c-1.57,1.88-1.01,3.29,1,2.78c10.04-2.56,16.79-3.58,31-7.62"/>
			<path style="stroke: #bf096c;" id="kvg:08237-Kaisho-s11" kvg:type="㇔" d="M81.71,71.1c4.32,4.02,11.17,16.51,12.25,22.76"/>
		</g>
	</g>
</g>
</g>
<g id="kvg:StrokeNumbers_08237-Kaisho" style="font-size:8;fill:#808080" transform="scale(3.0,3.0)">
	<text style="fill: #bf0909;" transform="matrix(1 0 0 1 24.50 12.50)">1</text>
	<text style="fill: #bf6c09;" transform="matrix(1 0 0 1 13.25 40.30)">2</text>
	<text style="fill: #aebf09;" transform="matrix(1 0 0 1 33.50 27.50)">3</text>
	<text style="fill: #4bbf09;" transform="matrix(1 0 0 1 31.50 39.40)">4</text>
	<text style="fill: #09bf2a;" transform="matrix(1 0 0 1 24.50 66.50)">5</text>
	<text style="fill: #09bf8d;" transform="matrix(1 0 0 1 3.50 63.50)">6</text>
	<text style="fill: #098dbf;" transform="matrix(1 0 0 1 62.50 13.50)">7</text>
	<text style="fill: #092abf;" transform="matrix(1 0 0 1 50.50 27.50)">8</text>
	<text style="fill: #4b09bf;" transform="matrix(1 0 0 1 62.50 39.50)">9</text>
	<text style="fill: #ae09bf;" transform="matrix(1 0 0 1 74.00 44.95)">10</text>
	<text style="fill: #bf096c;" transform="matrix(1 0 0 1 82.50 70.50)">11</text>
</g>
</svg>
