<?xml version="1.0" encoding="UTF-8"?>
<!--
This file has been modified from the original version by the kanji_colorize.py
script (available at http://github.com/cayennes/kanji-colorize) with these
settings:
    mode: spectrum
    saturation: 0.95
    value: 0.75
    image_size: 327
It remains under a Creative Commons-Attribution-Share Alike 3.0 License.

The original SVG has the following copyright:

Copyright (C) 2009/2010/2011 Ulrich Apel.
This work is distributed under the conditions of the Creative Commons
Attribution-Share Alike 3.0 Licence. This means you are free:
* to Share - to copy, distribute and transmit the work
* to Remix - to adapt the work

Under the following conditions:
* Attribution. You must attribute the work by stating your use of KanjiVG in
  your own copyright header and linking to KanjiVG's website
  (http://kanjivg.tagaini.net)
* Share Alike. If you alter, transform, or build upon this work, you may
  distribute the resulting work only under the same or similar license to this
  one.

See http://creativecommons.org/licenses/by-sa/3.0/ for more details.
-->
<!DOCTYPE svg PUBLIC "-//W3C//DTD SVG 1.0//EN" "http://www.w3.org/TR/2001/REC-SVG-20010904/DTD/svg10.dtd" [
<!ATTLIST g
xmlns:kvg CDATA #FIXED "http://kanjivg.tagaini.net"
kvg:element CDATA #IMPLIED
kvg:variant CDATA #IMPLIED
kvg:partial CDATA #IMPLIED
kvg:original CDATA #IMPLIED
kvg:part CDATA #IMPLIED
kvg:number CDATA #IMPLIED
kvg:tradForm CDATA #IMPLIED
kvg:radicalForm CDATA #IMPLIED
kvg:position CDATA #IMPLIED
kvg:radical CDATA #IMPLIED
kvg:phon CDATA #IMPLIED >
<!ATTLIST path
xmlns:kvg CDATA #FIXED "http://kanjivg.tagaini.net"
kvg:type CDATA #IMPLIED >
]>
<svg xmlns="http://www.w3.org/2000/svg" width="327" height = "327" viewBox="0 0 327 327">
<g id="kvg:StrokePaths_083dc-Kaisho" style="fill:none;stroke:#000000;stroke-width:3;stroke-linecap:round;stroke-linejoin:round;" transform="scale(3.0,3.0)">
<g id="kvg:083dc-Kaisho" kvg:element="菜">
	<g id="kvg:083dc-Kaisho-g1" kvg:element="艹" kvg:variant="true" kvg:original="艸" kvg:position="top" kvg:radical="general">
		<path style="stroke: #bf0909;" id="kvg:083dc-Kaisho-s1" kvg:type="㇐" d="M19,24.27c1.52,0.53,3.3,0.63,4.83,0.53c14.01-0.96,41.68-4.96,57.84-5.03c2.54-0.01,4.07,0.25,5.34,0.51"/>
		<path style="stroke: #bf6c09;" id="kvg:083dc-Kaisho-s2" kvg:type="㇑a" d="M36.75,13c1,1,2.31,1.87,2.5,2.75C41,24,41.5,28,42,31"/>
		<path style="stroke: #aebf09;" id="kvg:083dc-Kaisho-s3" kvg:type="㇑a" d="M68.75,8.75c0.42,1.18,0.8,2.51,0.5,4c-0.75,3.75-2,8.5-4,14.25"/>
	</g>
	<g id="kvg:083dc-Kaisho-g2" kvg:element="采" kvg:position="bottom">
		<g id="kvg:083dc-Kaisho-g3" kvg:element="⺤" kvg:variant="true" kvg:original="爪" kvg:position="top">
			<path style="stroke: #4bbf09;" id="kvg:083dc-Kaisho-s4" kvg:type="㇒" d="M58.7,28.47c0.08,0.27-0.34,1.19-0.65,1.58c-1.83,2.27-11.81,6.77-26.17,9.82"/>
			<path style="stroke: #09bf2a;" id="kvg:083dc-Kaisho-s5" kvg:type="㇔" d="M30.52,45.58c2.13,1.51,6.01,6.71,6.54,9.06"/>
			<path style="stroke: #09bf8d;" id="kvg:083dc-Kaisho-s6" kvg:type="㇔" d="M48.96,42.03c1.98,1.43,5.1,5.89,5.59,8.12"/>
			<path style="stroke: #098dbf;" id="kvg:083dc-Kaisho-s7" kvg:type="㇒" d="M74.52,35.69c0.04,0.36,0.07,0.92-0.06,1.44c-0.8,3.03-5.39,9.68-11.68,13.74"/>
		</g>
		<g id="kvg:083dc-Kaisho-g4" kvg:element="木" kvg:position="bottom">
			<path style="stroke: #092abf;" id="kvg:083dc-Kaisho-s8" kvg:type="㇐" d="M21.75,65.5c0.75,0.25,2.75,0.66,4.75,0.75C32,66.5,68.25,62,82,60.75c1.99-0.18,2.5-0.25,3.75,0"/>
			<path style="stroke: #4b09bf;" id="kvg:083dc-Kaisho-s9" kvg:type="㇑" d="M52.75,53.75C53.5,54.5,54.25,56,54.5,57s-0.25,36.73-0.25,38c0,11.25-5.5,3.5-6.5,2.5"/>
			<path style="stroke: #ae09bf;" id="kvg:083dc-Kaisho-s10" kvg:type="㇒" d="M52.25,64.25c-6.29,9.39-22.66,22.68-35.75,28"/>
			<path style="stroke: #bf096c;" id="kvg:083dc-Kaisho-s11" kvg:type="㇏" d="M55.5,65c5.12,3.57,27.55,20.45,33.12,23.96c1.88,1.19,3.5,1.7,5.38,2.04"/>
		</g>
	</g>
</g>
</g>
<g id="kvg:StrokeNumbers_083dc-Kaisho" style="font-size:8;fill:#808080" transform="scale(3.0,3.0)">
	<text style="fill: #bf0909;" transform="matrix(1 0 0 1 12.49 24.13)">1</text>
	<text style="fill: #bf6c09;" transform="matrix(1 0 0 1 27.50 13.50)">2</text>
	<text style="fill: #aebf09;" transform="matrix(1 0 0 1 59.50 9.50)">3</text>
	<text style="fill: #4bbf09;" transform="matrix(1 0 0 1 48.50 30.50)">4</text>
	<text style="fill: #09bf2a;" transform="matrix(1 0 0 1 22.50 49.50)">5</text>
	<text style="fill: #09bf8d;" transform="matrix(1 0 0 1 41.50 46.50)">6</text>
	<text style="fill: #098dbf;" transform="matrix(1 0 0 1 65.50 38.50)">7</text>
	<text style="fill: #092abf;" transform="matrix(1 0 0 1 14.50 67.63)">8</text>
	<text style="fill: #4b09bf;" transform="matrix(1 0 0 1 43.50 57.50)">9</text>
	<text style="fill: #ae09bf;" transform="matrix(1 0 0 1 32.25 75.13)">10</text>
	<text style="fill: #bf096c;" transform="matrix(1 0 0 1 70.50 73.63)">11</text>
</g>
</svg>
