<?xml version="1.0" encoding="UTF-8"?>
<!--
This file has been modified from the original version by the kanji_colorize.py
script (available at http://github.com/cayennes/kanji-colorize) with these
settings:
    mode: spectrum
    saturation: 0.95
    value: 0.75
    image_size: 327
It remains under a Creative Commons-Attribution-Share Alike 3.0 License.

The original SVG has the following copyright:

Copyright (C) 2009/2010/2011 Ulrich Apel.
This work is distributed under the conditions of the Creative Commons
Attribution-Share Alike 3.0 Licence. This means you are free:
* to Share - to copy, distribute and transmit the work
* to Remix - to adapt the work

Under the following conditions:
* Attribution. You must attribute the work by stating your use of KanjiVG in
  your own copyright header and linking to KanjiVG's website
  (http://kanjivg.tagaini.net)
* Share Alike. If you alter, transform, or build upon this work, you may
  distribute the resulting work only under the same or similar license to this
  one.

See http://creativecommons.org/licenses/by-sa/3.0/ for more details.
-->
<!DOCTYPE svg PUBLIC "-//W3C//DTD SVG 1.0//EN" "http://www.w3.org/TR/2001/REC-SVG-20010904/DTD/svg10.dtd" [
<!ATTLIST g
xmlns:kvg CDATA #FIXED "http://kanjivg.tagaini.net"
kvg:element CDATA #IMPLIED
kvg:variant CDATA #IMPLIED
kvg:partial CDATA #IMPLIED
kvg:original CDATA #IMPLIED
kvg:part CDATA #IMPLIED
kvg:number CDATA #IMPLIED
kvg:tradForm CDATA #IMPLIED
kvg:radicalForm CDATA #IMPLIED
kvg:position CDATA #IMPLIED
kvg:radical CDATA #IMPLIED
kvg:phon CDATA #IMPLIED >
<!ATTLIST path
xmlns:kvg CDATA #FIXED "http://kanjivg.tagaini.net"
kvg:type CDATA #IMPLIED >
]>
<svg xmlns="http://www.w3.org/2000/svg" width="327" height = "327" viewBox="0 0 327 327">
<g id="kvg:StrokePaths_083d6-Kaisho" style="fill:none;stroke:#000000;stroke-width:3;stroke-linecap:round;stroke-linejoin:round;" transform="scale(3.0,3.0)">
<g id="kvg:083d6-Kaisho" kvg:element="菖">
	<g id="kvg:083d6-Kaisho-g1" kvg:element="艹" kvg:variant="true" kvg:original="艸" kvg:position="top" kvg:radical="general">
		<path style="stroke: #bf0909;" id="kvg:083d6-Kaisho-s1" kvg:type="㇐" d="M16.75,23.88c1.38,0.56,2.98,0.67,4.37,0.56c12.67-1.02,48.95-4.35,63.56-4.43c2.3-0.01,3.68,0.27,4.83,0.55"/>
		<path style="stroke: #bf6c09;" id="kvg:083d6-Kaisho-s2" kvg:type="㇑a" d="M36.5,11.25c1.75,1.43,2.37,1.86,2.5,2.75c1.25,8.5,1.75,13.75,2.75,19.25"/>
		<path style="stroke: #aebf09;" id="kvg:083d6-Kaisho-s3" kvg:type="㇑a" d="M69.5,10.5c0.42,1.18,0.97,2.05,0.5,3.5c-2.75,8.5-3.75,12.25-5.5,17.25"/>
	</g>
	<g id="kvg:083d6-Kaisho-g2" kvg:element="昌" kvg:position="bottom">
		<g id="kvg:083d6-Kaisho-g3" kvg:element="日" kvg:position="top">
			<path style="stroke: #4bbf09;" id="kvg:083d6-Kaisho-s4" kvg:type="㇑" d="M31.01,37.48c0.46,0.42,0.47,0.72,0.73,1.25c2.09,4.39,4.08,14.99,5.37,23.18"/>
			<path style="stroke: #09bf2a;" id="kvg:083d6-Kaisho-s5" kvg:type="㇕a" d="M32.82,39.27c10.84-0.94,31.2-2.21,39.29-2.99c2.97-0.29,3.58,1.65,3.43,2.67C74.98,42.7,72.71,53.13,70.47,60"/>
			<path style="stroke: #09bf8d;" id="kvg:083d6-Kaisho-s6" kvg:type="㇐a" d="M34.73,49.09c6.26-0.57,12.57-0.78,18.85-1.14c2.16-0.12,4.34-0.25,6.42-0.37"/>
			<path style="stroke: #098dbf;" id="kvg:083d6-Kaisho-s7" kvg:type="㇐a" d="M36.7,60.03c9.52-0.86,24.19-1.35,34.41-1.9"/>
		</g>
		<g id="kvg:083d6-Kaisho-g4" kvg:element="日" kvg:position="bottom">
			<path style="stroke: #092abf;" id="kvg:083d6-Kaisho-s8" kvg:type="㇑" d="M25.81,69.14c0.59,0.51,0.77,0.82,0.94,1.5c1.45,5.98,3.47,16.51,4.17,26.57"/>
			<path style="stroke: #4b09bf;" id="kvg:083d6-Kaisho-s9" kvg:type="㇕a" d="M27.24,70.42c14.36-1.1,40.18-2.62,50.9-3.55c3.94-0.34,4.74,1.94,4.54,3.15c-0.74,4.41-3.44,20.48-5.42,26.53"/>
			<path style="stroke: #ae09bf;" id="kvg:083d6-Kaisho-s10" kvg:type="㇐a" d="M29.05,82.16c8.49-0.78,17.04-1.14,25.55-1.66c2.89-0.18,5.77-0.35,8.5-0.52"/>
			<path style="stroke: #bf096c;" id="kvg:083d6-Kaisho-s11" kvg:type="㇐a" d="M31.15,94.27c12.6-0.52,36.85-1.52,47.16-1.57"/>
		</g>
	</g>
</g>
</g>
<g id="kvg:StrokeNumbers_083d6-Kaisho" style="font-size:8;fill:#808080" transform="scale(3.0,3.0)">
	<text style="fill: #bf0909;" transform="matrix(1 0 0 1 11.25 24.25)">1</text>
	<text style="fill: #bf6c09;" transform="matrix(1 0 0 1 28.25 11.25)">2</text>
	<text style="fill: #aebf09;" transform="matrix(1 0 0 1 60.25 10.25)">3</text>
	<text style="fill: #4bbf09;" transform="matrix(1 0 0 1 24.25 45.25)">4</text>
	<text style="fill: #09bf2a;" transform="matrix(1 0 0 1 34.25 36.25)">5</text>
	<text style="fill: #09bf8d;" transform="matrix(1 0 0 1 39.25 46.25)">6</text>
	<text style="fill: #098dbf;" transform="matrix(1 0 0 1 40.25 57.25)">7</text>
	<text style="fill: #092abf;" transform="matrix(1 0 0 1 19.25 77.25)">8</text>
	<text style="fill: #4b09bf;" transform="matrix(1 0 0 1 29.25 67.25)">9</text>
	<text style="fill: #ae09bf;" transform="matrix(1 0 0 1 32.99 78.25)">10</text>
	<text style="fill: #bf096c;" transform="matrix(1 0 0 1 34.25 91.68)">11</text>
</g>
</svg>
