<?xml version="1.0" encoding="UTF-8"?>
<!--
This file has been modified from the original version by the kanji_colorize.py
script (available at http://github.com/cayennes/kanji-colorize) with these
settings:
    mode: spectrum
    saturation: 0.95
    value: 0.75
    image_size: 327
It remains under a Creative Commons-Attribution-Share Alike 3.0 License.

The original SVG has the following copyright:

Copyright (C) 2009/2010/2011 Ulrich Apel.
This work is distributed under the conditions of the Creative Commons
Attribution-Share Alike 3.0 Licence. This means you are free:
* to Share - to copy, distribute and transmit the work
* to Remix - to adapt the work

Under the following conditions:
* Attribution. You must attribute the work by stating your use of KanjiVG in
  your own copyright header and linking to KanjiVG's website
  (http://kanjivg.tagaini.net)
* Share Alike. If you alter, transform, or build upon this work, you may
  distribute the resulting work only under the same or similar license to this
  one.

See http://creativecommons.org/licenses/by-sa/3.0/ for more details.
-->
<!DOCTYPE svg PUBLIC "-//W3C//DTD SVG 1.0//EN" "http://www.w3.org/TR/2001/REC-SVG-20010904/DTD/svg10.dtd" [
<!ATTLIST g
xmlns:kvg CDATA #FIXED "http://kanjivg.tagaini.net"
kvg:element CDATA #IMPLIED
kvg:variant CDATA #IMPLIED
kvg:partial CDATA #IMPLIED
kvg:original CDATA #IMPLIED
kvg:part CDATA #IMPLIED
kvg:number CDATA #IMPLIED
kvg:tradForm CDATA #IMPLIED
kvg:radicalForm CDATA #IMPLIED
kvg:position CDATA #IMPLIED
kvg:radical CDATA #IMPLIED
kvg:phon CDATA #IMPLIED >
<!ATTLIST path
xmlns:kvg CDATA #FIXED "http://kanjivg.tagaini.net"
kvg:type CDATA #IMPLIED >
]>
<svg xmlns="http://www.w3.org/2000/svg" width="327" height = "327" viewBox="0 0 327 327">
<g id="kvg:StrokePaths_08868-HzLst" style="fill:none;stroke:#000000;stroke-width:3;stroke-linecap:round;stroke-linejoin:round;" transform="scale(3.0,3.0)">
<g id="kvg:08868-HzLst" kvg:element="表">
	<g id="kvg:08868-HzLst-g1" kvg:position="top">
		<g id="kvg:08868-HzLst-g2" kvg:element="二" kvg:part="1">
			<path style="stroke: #bf0909;" id="kvg:08868-HzLst-s1" kvg:type="㇐" d="M30,24.4c1.02,0.37,2.9,0.55,3.9,0.37c4.12-0.72,31.85-4.76,41.53-4.76c1.7,0,2.72,0.18,3.57,0.36"/>
		</g>
		<g id="kvg:08868-HzLst-g3" kvg:element="二" kvg:part="2">
			<path style="stroke: #bf9109;" id="kvg:08868-HzLst-s2" kvg:type="㇐" d="M32.25,35.89c0.94,0.38,2.66,0.49,3.6,0.38c5.98-0.66,32.4-4.27,39.61-4.88c1.56-0.13,2.5,0.18,3.29,0.37"/>
		</g>
		<g id="kvg:08868-HzLst-g4" kvg:element="丨" kvg:radical="nelson">
			<path style="stroke: #64bf09;" id="kvg:08868-HzLst-s3" kvg:type="㇑" d="M16.25,49.7c1.52,0.54,4.31,0.68,5.82,0.54c10.68-0.99,49.43-5.49,65.11-6.23c2.53-0.12,4.05,0.26,5.31,0.53"/>
		</g>
	</g>
	<g id="kvg:08868-HzLst-g5" kvg:element="衣" kvg:partial="true" kvg:position="bottom" kvg:radical="tradit">
		<g id="kvg:08868-HzLst-g6" kvg:element="亠" kvg:partial="true" kvg:position="top">
			<path style="stroke: #09bf36;" id="kvg:08868-HzLst-s4" kvg:type="㇐" d="M52.37,9.75c1.09,0.5,1.74,2.25,1.96,3.25c0.22,1,0.5,27.25,0.28,33.5"/>
		</g>
		<g id="kvg:08868-HzLst-g7" kvg:position="bottom">
			<path style="stroke: #09bfbf;" id="kvg:08868-HzLst-s5" kvg:type="㇒" d="M43.97,51.14c0.09,0.83,0.59,2.35-0.18,3.34c-7.03,9.01-15.53,18.26-30.73,26.48"/>
			<path style="stroke: #0936bf;" id="kvg:08868-HzLst-s6" kvg:type="㇙" d="M37.75,66c0.48,0.54,1,1.06,1,2c-0.03,11.82-0.32,20.69-0.32,22.69s1.18,3.14,2.68,1.64s14.35-11.84,16.35-13.34"/>
			<path style="stroke: #6409bf;" id="kvg:08868-HzLst-s7" kvg:type="㇒" d="M76.25,51.89c0.05,0.43,0.57,2.05,0.25,2.61c-2,3.5-5.75,7.5-12.25,12.25"/>
			<path style="stroke: #bf0991;" id="kvg:08868-HzLst-s8" kvg:type="㇏" d="M50.75,60.75c4,0.75,32.79,23.64,38.31,27.35c2.08,1.4,3.86,2,5.94,2.4"/>
		</g>
	</g>
</g>
</g>
<g id="kvg:StrokeNumbers_08868-HzLst" style="font-size:8;fill:#808080" transform="scale(3.0,3.0)">
	<text style="fill: #bf0909;" transform="matrix(1 0 0 1 23.25 24.50)">1</text>
	<text style="fill: #bf9109;" transform="matrix(1 0 0 1 24.75 36.13)">2</text>
	<text style="fill: #64bf09;" transform="matrix(1 0 0 1 9.50 49.50)">3</text>
	<text style="fill: #09bf36;" transform="matrix(1 0 0 1 42.50 10.50)">4</text>
	<text style="fill: #09bfbf;" transform="matrix(1 0 0 1 31.50 59.50)">5</text>
	<text style="fill: #0936bf;" transform="matrix(1 0 0 1 31.50 77.50)">6</text>
	<text style="fill: #6409bf;" transform="matrix(1 0 0 1 69.50 54.50)">7</text>
	<text style="fill: #bf0991;" transform="matrix(1 0 0 1 52.50 57.50)">8</text>
</g>
</svg>
