<?xml version="1.0" encoding="UTF-8"?>
<!--
This file has been modified from the original version by the kanji_colorize.py
script (available at http://github.com/cayennes/kanji-colorize) with these
settings:
    mode: spectrum
    saturation: 0.95
    value: 0.75
    image_size: 327
It remains under a Creative Commons-Attribution-Share Alike 3.0 License.

The original SVG has the following copyright:

Copyright (C) 2009/2010/2011 Ulrich Apel.
This work is distributed under the conditions of the Creative Commons
Attribution-Share Alike 3.0 Licence. This means you are free:
* to Share - to copy, distribute and transmit the work
* to Remix - to adapt the work

Under the following conditions:
* Attribution. You must attribute the work by stating your use of KanjiVG in
  your own copyright header and linking to KanjiVG's website
  (http://kanjivg.tagaini.net)
* Share Alike. If you alter, transform, or build upon this work, you may
  distribute the resulting work only under the same or similar license to this
  one.

See http://creativecommons.org/licenses/by-sa/3.0/ for more details.
-->
<!DOCTYPE svg PUBLIC "-//W3C//DTD SVG 1.0//EN" "http://www.w3.org/TR/2001/REC-SVG-20010904/DTD/svg10.dtd" [
<!ATTLIST g
xmlns:kvg CDATA #FIXED "http://kanjivg.tagaini.net"
kvg:element CDATA #IMPLIED
kvg:variant CDATA #IMPLIED
kvg:partial CDATA #IMPLIED
kvg:original CDATA #IMPLIED
kvg:part CDATA #IMPLIED
kvg:number CDATA #IMPLIED
kvg:tradForm CDATA #IMPLIED
kvg:radicalForm CDATA #IMPLIED
kvg:position CDATA #IMPLIED
kvg:radical CDATA #IMPLIED
kvg:phon CDATA #IMPLIED >
<!ATTLIST path
xmlns:kvg CDATA #FIXED "http://kanjivg.tagaini.net"
kvg:type CDATA #IMPLIED >
]>
<svg xmlns="http://www.w3.org/2000/svg" width="327" height = "327" viewBox="0 0 327 327">
<g id="kvg:StrokePaths_08863-Kaisho" style="fill:none;stroke:#000000;stroke-width:3;stroke-linecap:round;stroke-linejoin:round;" transform="scale(3.0,3.0)">
<g id="kvg:08863-Kaisho" kvg:element="衣" kvg:radical="general">
	<g id="kvg:08863-Kaisho-g1" kvg:element="亠" kvg:position="top">
		<path style="stroke: #bf0909;" id="kvg:08863-Kaisho-s1" kvg:type="㇑a" d="M47.36,12.25c3.97,1.84,9.23,7.55,10.51,12.58"/>
		<path style="stroke: #bfbf09;" id="kvg:08863-Kaisho-s2" kvg:type="㇐" d="M13,33.11c1.42,0.1,4.67,0.65,6.06,0.55C34.5,32.5,69,27.75,84.2,27.45c2.35-0.05,3.55,0.05,5.3,0.7"/>
	</g>
	<g id="kvg:08863-Kaisho-g2" kvg:position="bottom">
		<path style="stroke: #09bf09;" id="kvg:08863-Kaisho-s3" kvg:type="㇒" d="M45.97,34.64c0.09,0.83,0.36,2.22-0.18,3.34c-3.53,7.26-15.03,20.51-32.73,31.98"/>
		<path style="stroke: #09bfbf;" id="kvg:08863-Kaisho-s4" kvg:type="㇙" d="M37.75,54.5c0.48,0.54,1,1.06,1,2c-0.03,11.82-0.32,32.19-0.32,34.19s1.18,3.14,2.68,1.64s14.35-11.84,16.35-13.34"/>
		<path style="stroke: #0909bf;" id="kvg:08863-Kaisho-s5" kvg:type="㇒" d="M76.25,38.89c0.05,0.43,0.57,2.05,0.25,2.61c-2,3.5-8.25,8.5-18.44,15.47"/>
		<path style="stroke: #bf09bf;" id="kvg:08863-Kaisho-s6" kvg:type="㇏" d="M48.75,51.75c2,1,5.2,3.83,5.75,4.25c8.17,6.3,28.04,22.39,33.56,26.1c2.08,1.4,3.86,2,5.94,2.4"/>
	</g>
</g>
</g>
<g id="kvg:StrokeNumbers_08863-Kaisho" style="font-size:8;fill:#808080" transform="scale(3.0,3.0)">
	<text style="fill: #bf0909;" transform="matrix(1 0 0 1 40 12.13)">1</text>
	<text style="fill: #bfbf09;" transform="matrix(1 0 0 1 11.58 30.93)">2</text>
	<text style="fill: #09bf09;" transform="matrix(1 0 0 1 37.16 40.68)">3</text>
	<text style="fill: #09bfbf;" transform="matrix(1 0 0 1 31.52 65.25)">4</text>
	<text style="fill: #0909bf;" transform="matrix(1 0 0 1 79.15 41.44)">5</text>
	<text style="fill: #bf09bf;" transform="matrix(1 0 0 1 48.04 49.37)">6</text>
</g>
</svg>
