<?xml version="1.0" encoding="UTF-8"?>
<!--
This file has been modified from the original version by the kanji_colorize.py
script (available at http://github.com/cayennes/kanji-colorize) with these
settings:
    mode: spectrum
    saturation: 0.95
    value: 0.75
    image_size: 327
It remains under a Creative Commons-Attribution-Share Alike 3.0 License.

The original SVG has the following copyright:

Copyright (C) 2009/2010/2011 Ulrich Apel.
This work is distributed under the conditions of the Creative Commons
Attribution-Share Alike 3.0 Licence. This means you are free:
* to Share - to copy, distribute and transmit the work
* to Remix - to adapt the work

Under the following conditions:
* Attribution. You must attribute the work by stating your use of KanjiVG in
  your own copyright header and linking to KanjiVG's website
  (http://kanjivg.tagaini.net)
* Share Alike. If you alter, transform, or build upon this work, you may
  distribute the resulting work only under the same or similar license to this
  one.

See http://creativecommons.org/licenses/by-sa/3.0/ for more details.
-->
<!DOCTYPE svg PUBLIC "-//W3C//DTD SVG 1.0//EN" "http://www.w3.org/TR/2001/REC-SVG-20010904/DTD/svg10.dtd" [
<!ATTLIST g
xmlns:kvg CDATA #FIXED "http://kanjivg.tagaini.net"
kvg:element CDATA #IMPLIED
kvg:variant CDATA #IMPLIED
kvg:partial CDATA #IMPLIED
kvg:original CDATA #IMPLIED
kvg:part CDATA #IMPLIED
kvg:number CDATA #IMPLIED
kvg:tradForm CDATA #IMPLIED
kvg:radicalForm CDATA #IMPLIED
kvg:position CDATA #IMPLIED
kvg:radical CDATA #IMPLIED
kvg:phon CDATA #IMPLIED >
<!ATTLIST path
xmlns:kvg CDATA #FIXED "http://kanjivg.tagaini.net"
kvg:type CDATA #IMPLIED >
]>
<svg xmlns="http://www.w3.org/2000/svg" width="327" height = "327" viewBox="0 0 327 327">
<g id="kvg:StrokePaths_08870-Kaisho" style="fill:none;stroke:#000000;stroke-width:3;stroke-linecap:round;stroke-linejoin:round;" transform="scale(3.0,3.0)">
<g id="kvg:08870-Kaisho" kvg:element="衰">
	<g id="kvg:08870-Kaisho-g1" kvg:element="衣" kvg:part="1" kvg:position="top" kvg:radical="tradit">
		<g id="kvg:08870-Kaisho-g2" kvg:element="亠" kvg:radical="nelson">
			<path style="stroke: #bf0909;" id="kvg:08870-Kaisho-s1" kvg:type="㇑a" d="M50.9,11.25c1.6,1.5,4.18,4.72,4.81,6.72"/>
			<path style="stroke: #bf7609;" id="kvg:08870-Kaisho-s2" kvg:type="㇐" d="M20.68,25.15c2.11,0.6,5.04,0.64,6.53,0.51c12.06-1.07,38.77-4.49,55.15-4.77c2.53-0.04,3.82,0.04,5.71,0.65"/>
		</g>
	</g>
	<g id="kvg:08870-Kaisho-g3" kvg:position="bottom">
		<g id="kvg:08870-Kaisho-g4" kvg:element="口" kvg:part="1">
			<path style="stroke: #9abf09;" id="kvg:08870-Kaisho-s3" kvg:type="㇑" d="M32.46,36.23c0.46,0.42,0.94,0.77,1.14,1.3c1.61,4.17,3.53,14.69,4.63,22.19"/>
			<path style="stroke: #2dbf09;" id="kvg:08870-Kaisho-s4" kvg:type="㇕" d="M35.35,37.16c11.36-1.75,31.79-4.55,37.65-5.14c2.14-0.21,3.38,2.17,3.12,3.45C75,41,74.25,45.75,72.19,54.83"/>
		</g>
		<path style="stroke: #09bf52;" id="kvg:08870-Kaisho-s5" kvg:type="㇐" d="M14.75,47.7c1.74,0.54,4.94,0.64,6.68,0.54c16.84-0.99,50.07-5.49,68.97-6.23c2.9-0.11,4.65,0.26,6.1,0.53"/>
		<g id="kvg:08870-Kaisho-g5" kvg:element="口" kvg:part="2">
			<path style="stroke: #09bfbf;" id="kvg:08870-Kaisho-s6" kvg:type="㇐" d="M38.7,56.95c6.88-0.67,24.4-2.8,33.13-3.47"/>
		</g>
		<g id="kvg:08870-Kaisho-g6" kvg:element="衣" kvg:part="2" kvg:radical="tradit">
			<path style="stroke: #0952bf;" id="kvg:08870-Kaisho-s7" kvg:type="㇒" d="M48.51,57.63c0.09,0.69,0.36,1.85-0.18,2.78c-3.46,6.05-14.71,17.09-32.02,26.64"/>
			<path style="stroke: #2d09bf;" id="kvg:08870-Kaisho-s8" kvg:type="㇙" d="M40.97,74.17c0.47,0.45,0.98,0.89,0.98,1.67c-0.03,9.85-0.32,14.81-0.32,16.48c0,1.67,1.16,2.61,2.62,1.36c1.47-1.25,11.54-9.37,13.5-10.62"/>
			<path style="stroke: #9a09bf;" id="kvg:08870-Kaisho-s9" kvg:type="㇒" d="M80.2,60.17c0.04,0.3,0.45,1.42,0.2,1.81c-1.61,2.43-6.63,5.9-14.81,10.74"/>
			<path style="stroke: #bf0976;" id="kvg:08870-Kaisho-s10" kvg:type="㇏" d="M54.73,66.38c2.27-0.13,3.77,1.37,5.89,3.2c6.71,5.79,23.37,19.51,28.07,22.74c1.77,1.22,3.29,1.74,5.05,2.09"/>
		</g>
	</g>
</g>
</g>
<g id="kvg:StrokeNumbers_08870-Kaisho" style="font-size:8;fill:#808080" transform="scale(3.0,3.0)">
	<text style="fill: #bf0909;" transform="matrix(1 0 0 1 44.50 11.50)">1</text>
	<text style="fill: #bf7609;" transform="matrix(1 0 0 1 12.75 25.63)">2</text>
	<text style="fill: #9abf09;" transform="matrix(1 0 0 1 26.25 42.05)">3</text>
	<text style="fill: #2dbf09;" transform="matrix(1 0 0 1 36.75 33.50)">4</text>
	<text style="fill: #09bf52;" transform="matrix(1 0 0 1 6.75 49.63)">5</text>
	<text style="fill: #09bfbf;" transform="matrix(1 0 0 1 42.50 53.50)">6</text>
	<text style="fill: #0952bf;" transform="matrix(1 0 0 1 34.50 68.50)">7</text>
	<text style="fill: #2d09bf;" transform="matrix(1 0 0 1 34.50 84.50)">8</text>
	<text style="fill: #9a09bf;" transform="matrix(1 0 0 1 71.50 63.50)">9</text>
	<text style="fill: #bf0976;" transform="matrix(1 0 0 1 48.75 74.50)">10</text>
</g>
</svg>
