<?xml version="1.0" encoding="UTF-8"?>
<!--
This file has been modified from the original version by the kanji_colorize.py
script (available at http://github.com/cayennes/kanji-colorize) with these
settings:
    mode: spectrum
    saturation: 0.95
    value: 0.75
    image_size: 327
It remains under a Creative Commons-Attribution-Share Alike 3.0 License.

The original SVG has the following copyright:

Copyright (C) 2009/2010/2011 Ulrich Apel.
This work is distributed under the conditions of the Creative Commons
Attribution-Share Alike 3.0 Licence. This means you are free:
* to Share - to copy, distribute and transmit the work
* to Remix - to adapt the work

Under the following conditions:
* Attribution. You must attribute the work by stating your use of KanjiVG in
  your own copyright header and linking to KanjiVG's website
  (http://kanjivg.tagaini.net)
* Share Alike. If you alter, transform, or build upon this work, you may
  distribute the resulting work only under the same or similar license to this
  one.

See http://creativecommons.org/licenses/by-sa/3.0/ for more details.
-->
<!DOCTYPE svg PUBLIC "-//W3C//DTD SVG 1.0//EN" "http://www.w3.org/TR/2001/REC-SVG-20010904/DTD/svg10.dtd" [
<!ATTLIST g
xmlns:kvg CDATA #FIXED "http://kanjivg.tagaini.net"
kvg:element CDATA #IMPLIED
kvg:variant CDATA #IMPLIED
kvg:partial CDATA #IMPLIED
kvg:original CDATA #IMPLIED
kvg:part CDATA #IMPLIED
kvg:number CDATA #IMPLIED
kvg:tradForm CDATA #IMPLIED
kvg:radicalForm CDATA #IMPLIED
kvg:position CDATA #IMPLIED
kvg:radical CDATA #IMPLIED
kvg:phon CDATA #IMPLIED >
<!ATTLIST path
xmlns:kvg CDATA #FIXED "http://kanjivg.tagaini.net"
kvg:type CDATA #IMPLIED >
]>
<svg xmlns="http://www.w3.org/2000/svg" width="327" height = "327" viewBox="0 0 327 327">
<g id="kvg:StrokePaths_08a63-Kaisho" style="fill:none;stroke:#000000;stroke-width:3;stroke-linecap:round;stroke-linejoin:round;" transform="scale(3.0,3.0)">
<g id="kvg:08a63-Kaisho" kvg:element="詣">
	<g id="kvg:08a63-Kaisho-g1" kvg:element="言" kvg:position="left" kvg:radical="general">
		<path style="stroke: #bf0909;" id="kvg:08a63-Kaisho-s1" kvg:type="㇔" d="M26.85,16c2.92,1.72,7.54,7.07,8.27,9.75"/>
		<path style="stroke: #bf5d09;" id="kvg:08a63-Kaisho-s2" kvg:type="㇐" d="M13.87,35.65c0.74,0.25,3.55,0.29,4.29,0.25c9.12-0.45,19.85-2.83,26.48-3.05c1.23-0.04,3.08,0.12,3.7,0.24"/>
		<path style="stroke: #bfb109;" id="kvg:08a63-Kaisho-s3" kvg:type="㇐" d="M20.83,47.56c0.42,0.12,2.99,0.13,3.41,0.12c4.38-0.14,10.3-1.56,14.61-1.55c0.7,0,3.62,0.06,3.97,0.12"/>
		<path style="stroke: #79bf09;" id="kvg:08a63-Kaisho-s4" kvg:type="㇐" d="M21.43,60.33c0.38,0.12,2.67,0.13,3.05,0.12c3.91-0.13,11.27-2.11,15.12-2.09c0.62,0,3.24,0.06,3.55,0.11"/>
		<g id="kvg:08a63-Kaisho-g2" kvg:element="口">
			<path style="stroke: #25bf09;" id="kvg:08a63-Kaisho-s5" kvg:type="㇑" d="M20.67,72.4c0.38,0.36,0.82,0.65,0.95,1.13c1.09,4.21,2.98,14.54,4.08,20.71"/>
			<path style="stroke: #09bf41;" id="kvg:08a63-Kaisho-s6" kvg:type="㇕b" d="M22.07,74.87c7.1-0.89,14.7-2.1,21.25-3c1.64-0.22,2.64,1.04,2.4,2.06c-0.98,4.25-1.83,8.22-3.57,15.28"/>
			<path style="stroke: #09bf95;" id="kvg:08a63-Kaisho-s7" kvg:type="㇐b" d="M25.5,91.05c5.29-0.54,10.25-0.55,18.79-1.31"/>
		</g>
	</g>
	<g id="kvg:08a63-Kaisho-g3" kvg:element="旨" kvg:position="right">
		<g id="kvg:08a63-Kaisho-g4" kvg:element="匕" kvg:position="top">
			<path style="stroke: #0995bf;" id="kvg:08a63-Kaisho-s8" kvg:type="㇒" d="M57,34c7.01-1.22,17.11-4.01,22-4.5c2.5-0.25,2.75-0.5,5,0"/>
			<path style="stroke: #0941bf;" id="kvg:08a63-Kaisho-s9" kvg:type="㇟" d="M55.73,15c0.72,0.53,1.01,2.31,1.01,3.11c0,3.79-0.07,10.96-0.07,18.53c0,11.86,2.46,12.95,17.82,12.95C85,49.6,88.75,48,91.5,45.03"/>
		</g>
		<g id="kvg:08a63-Kaisho-g5" kvg:element="日" kvg:position="bottom">
			<path style="stroke: #2509bf;" id="kvg:08a63-Kaisho-s10" kvg:type="㇑" d="M58.13,59.74c0.49,0.88,1.28,2.62,1.28,3.68c0,1.06,1.24,30.52,1.24,31.05"/>
			<path style="stroke: #7909bf;" id="kvg:08a63-Kaisho-s11" kvg:type="㇕a" d="M60.06,61.3c2.21-0.13,25-3.22,27.01-3.37c1.67-0.13,2.75,1.47,2.62,2.25c-0.26,1.59-2.68,33.62-2.68,34.41"/>
			<path style="stroke: #bf09b1;" id="kvg:08a63-Kaisho-s12" kvg:type="㇐a" d="M60.95,76.65c4.19,0,8.46-0.7,12.62-1.12c1.41-0.14,2.84-0.29,4.21-0.42"/>
			<path style="stroke: #bf095d;" id="kvg:08a63-Kaisho-s13" kvg:type="㇐a" d="M61.31,92.7c6.08-0.57,17.38-1.09,24.95-1.58"/>
		</g>
	</g>
</g>
</g>
<g id="kvg:StrokeNumbers_08a63-Kaisho" style="font-size:8;fill:#808080" transform="scale(3.0,3.0)">
	<text style="fill: #bf0909;" transform="matrix(1 0 0 1 20.50 16.50)">1</text>
	<text style="fill: #bf5d09;" transform="matrix(1 0 0 1 6.50 36.38)">2</text>
	<text style="fill: #bfb109;" transform="matrix(1 0 0 1 13.50 48.50)">3</text>
	<text style="fill: #79bf09;" transform="matrix(1 0 0 1 14.50 61.50)">4</text>
	<text style="fill: #25bf09;" transform="matrix(1 0 0 1 15.50 81.15)">5</text>
	<text style="fill: #09bf41;" transform="matrix(1 0 0 1 25.50 71.50)">6</text>
	<text style="fill: #09bf95;" transform="matrix(1 0 0 1 29.50 88.50)">7</text>
	<text style="fill: #0995bf;" transform="matrix(1 0 0 1 60 30)">8</text>
	<text style="fill: #0941bf;" transform="matrix(1 0 0 1 47.75 15.50)">9</text>
	<text style="fill: #2509bf;" transform="matrix(1 0 0 1 49.25 72.45)">10</text>
	<text style="fill: #7909bf;" transform="matrix(1 0 0 1 62.75 58.38)">11</text>
	<text style="fill: #bf09b1;" transform="matrix(1 0 0 1 62.75 73.30)">12</text>
	<text style="fill: #bf095d;" transform="matrix(1 0 0 1 62.75 88.23)">13</text>
</g>
</svg>
