<?xml version="1.0" encoding="UTF-8"?>
<!--
This file has been modified from the original version by the kanji_colorize.py
script (available at http://github.com/cayennes/kanji-colorize) with these
settings:
    mode: spectrum
    saturation: 0.95
    value: 0.75
    image_size: 327
It remains under a Creative Commons-Attribution-Share Alike 3.0 License.

The original SVG has the following copyright:

Copyright (C) 2009/2010/2011 Ulrich Apel.
This work is distributed under the conditions of the Creative Commons
Attribution-Share Alike 3.0 Licence. This means you are free:
* to Share - to copy, distribute and transmit the work
* to Remix - to adapt the work

Under the following conditions:
* Attribution. You must attribute the work by stating your use of KanjiVG in
  your own copyright header and linking to KanjiVG's website
  (http://kanjivg.tagaini.net)
* Share Alike. If you alter, transform, or build upon this work, you may
  distribute the resulting work only under the same or similar license to this
  one.

See http://creativecommons.org/licenses/by-sa/3.0/ for more details.
-->
<!DOCTYPE svg PUBLIC "-//W3C//DTD SVG 1.0//EN" "http://www.w3.org/TR/2001/REC-SVG-20010904/DTD/svg10.dtd" [
<!ATTLIST g
xmlns:kvg CDATA #FIXED "http://kanjivg.tagaini.net"
kvg:element CDATA #IMPLIED
kvg:variant CDATA #IMPLIED
kvg:partial CDATA #IMPLIED
kvg:original CDATA #IMPLIED
kvg:part CDATA #IMPLIED
kvg:number CDATA #IMPLIED
kvg:tradForm CDATA #IMPLIED
kvg:radicalForm CDATA #IMPLIED
kvg:position CDATA #IMPLIED
kvg:radical CDATA #IMPLIED
kvg:phon CDATA #IMPLIED >
<!ATTLIST path
xmlns:kvg CDATA #FIXED "http://kanjivg.tagaini.net"
kvg:type CDATA #IMPLIED >
]>
<svg xmlns="http://www.w3.org/2000/svg" width="327" height = "327" viewBox="0 0 327 327">
<g id="kvg:StrokePaths_08df3-MidFst" style="fill:none;stroke:#000000;stroke-width:3;stroke-linecap:round;stroke-linejoin:round;" transform="scale(3.0,3.0)">
<g id="kvg:08df3-MidFst" kvg:element="跳">
	<g id="kvg:08df3-MidFst-g1" kvg:element="足" kvg:position="left" kvg:radical="general">
		<g id="kvg:08df3-MidFst-g2" kvg:element="口">
			<path style="stroke: #bf0909;" id="kvg:08df3-MidFst-s1" kvg:type="㇑" d="M14.28,22.34c0.39,0.34,0.79,0.62,0.97,1.04c1.36,3.35,2.99,12.6,3.92,18.62"/>
			<path style="stroke: #bf5d09;" id="kvg:08df3-MidFst-s2" kvg:type="㇕b" d="M16.22,24.15c9.28-1.8,17.79-3.22,22.38-3.66c1.68-0.16,2.69,0.95,2.45,1.9c-1,3.92-2.16,9.57-3.64,14.99"/>
			<path style="stroke: #bfb109;" id="kvg:08df3-MidFst-s3" kvg:type="㇐b" d="M19.34,39.98c5.4-0.5,12.34-1.36,19.74-2.12"/>
		</g>
		<path style="stroke: #79bf09;" id="kvg:08df3-MidFst-s4" kvg:type="㇑a" d="M28.37,41.24c1.09,0.5,1.74,2.25,1.96,3.25c0.22,1,0,27.75-0.22,34"/>
		<path style="stroke: #25bf09;" id="kvg:08df3-MidFst-s5" kvg:type="㇐b" d="M30.38,55.24c3.37-0.49,6.37-1.74,9.85-2c1.74-0.13,2.18-0.25,3.26,0"/>
		<path style="stroke: #09bf41;" id="kvg:08df3-MidFst-s6" kvg:type="㇒" d="M16.87,57.49c1.09,0.5,1.74,2.25,1.96,3.25c0.22,1,0.5,17.75,0.28,24"/>
		<path style="stroke: #09bf95;" id="kvg:08df3-MidFst-s7" kvg:type="㇀/㇏" d="M12,85.57c0.33,0.8,2.77,1.85,3.57,1.4C23.5,82.5,32.25,77,41,71.99"/>
	</g>
	<g id="kvg:08df3-MidFst-g3" kvg:element="兆" kvg:position="right">
		<g id="kvg:08df3-MidFst-g4" kvg:element="儿" kvg:part="1" kvg:original="八" kvg:position="left">
			<g id="kvg:08df3-MidFst-g5" kvg:element="丿">
				<path style="stroke: #0995bf;" id="kvg:08df3-MidFst-s8" kvg:type="㇒" d="M58.24,17.86c0.85,1.56,1.67,3.51,1.67,4.73c0,7.64,0.07,16.24,0.07,24.67c0,21-6.74,35.25-18.84,44.93"/>
			</g>
			<g id="kvg:08df3-MidFst-g6" kvg:element="冫">
				<g id="kvg:08df3-MidFst-g7" kvg:position="top">
					<path style="stroke: #0941bf;" id="kvg:08df3-MidFst-s9" kvg:type="㇔" d="M70.28,16.69c0.97,1.02,1.46,2.72,1.49,4.3c0.14,7.06-0.02,53.62-0.02,58.42c0,11.21,3.26,10.37,11.69,10.37C96,89.77,96,88.58,96,81.91"/>
				</g>
				<g id="kvg:08df3-MidFst-g8" kvg:position="bottom">
					<path style="stroke: #2509bf;" id="kvg:08df3-MidFst-s10" kvg:type="㇀" d="M44.91,34.99c2.81,1.56,6.49,5.99,7.2,8.42"/>
				</g>
			</g>
		</g>
		<g id="kvg:08df3-MidFst-g9" kvg:position="right">
			<g id="kvg:08df3-MidFst-g10" kvg:element="儿" kvg:part="2" kvg:original="八">
				<path style="stroke: #7909bf;" id="kvg:08df3-MidFst-s11" kvg:type="㇟" d="M41.61,63.67c1.03,0.48,2.06,0.64,2.84,0.1c1.08-0.75,7.86-6.03,12.11-9.67"/>
			</g>
			<path style="stroke: #bf09b1;" id="kvg:08df3-MidFst-s12" kvg:type="㇒" d="M88.9,27.96c0.03,0.33,0.14,0.87-0.07,1.31c-1.73,3.62-5.28,8.11-11.4,12.49"/>
			<path style="stroke: #bf095d;" id="kvg:08df3-MidFst-s13" kvg:type="㇔" d="M75.7,53.9c5.01,2.25,12.94,9.22,14.2,12.71"/>
		</g>
	</g>
</g>
</g>
<g id="kvg:StrokeNumbers_08df3-MidFst" style="font-size:8;fill:#808080" transform="scale(3.0,3.0)">
	<text style="fill: #bf0909;" transform="matrix(1 0 0 1 8.50 29.50)">1</text>
	<text style="fill: #bf5d09;" transform="matrix(1 0 0 1 18.50 20.50)">2</text>
	<text style="fill: #bfb109;" transform="matrix(1 0 0 1 22.50 36.05)">3</text>
	<text style="fill: #79bf09;" transform="matrix(1 0 0 1 22.50 48.50)">4</text>
	<text style="fill: #25bf09;" transform="matrix(1 0 0 1 33.50 50.50)">5</text>
	<text style="fill: #09bf41;" transform="matrix(1 0 0 1 7.50 58.50)">6</text>
	<text style="fill: #09bf95;" transform="matrix(1 0 0 1 4.50 88.50)">7</text>
	<text style="fill: #0995bf;" transform="matrix(1 0 0 1 49.50 19.50)">8</text>
	<text style="fill: #0941bf;" transform="matrix(1 0 0 1 64.50 13.63)">9</text>
	<text style="fill: #2509bf;" transform="matrix(1 0 0 1 45.50 33.05)">10</text>
	<text style="fill: #7909bf;" transform="matrix(1 0 0 1 39.50 60.50)">11</text>
	<text style="fill: #bf09b1;" transform="matrix(1 0 0 1 77.50 26.50)">12</text>
	<text style="fill: #bf095d;" transform="matrix(1 0 0 1 76.50 52.50)">13</text>
</g>
</svg>
