<?xml version="1.0" encoding="UTF-8"?>
<!--
This file has been modified from the original version by the kanji_colorize.py
script (available at http://github.com/cayennes/kanji-colorize) with these
settings:
    mode: spectrum
    saturation: 0.95
    value: 0.75
    image_size: 327
It remains under a Creative Commons-Attribution-Share Alike 3.0 License.

The original SVG has the following copyright:

Copyright (C) 2009/2010/2011 Ulrich Apel.
This work is distributed under the conditions of the Creative Commons
Attribution-Share Alike 3.0 Licence. This means you are free:
* to Share - to copy, distribute and transmit the work
* to Remix - to adapt the work

Under the following conditions:
* Attribution. You must attribute the work by stating your use of KanjiVG in
  your own copyright header and linking to KanjiVG's website
  (http://kanjivg.tagaini.net)
* Share Alike. If you alter, transform, or build upon this work, you may
  distribute the resulting work only under the same or similar license to this
  one.

See http://creativecommons.org/licenses/by-sa/3.0/ for more details.
-->
<!DOCTYPE svg PUBLIC "-//W3C//DTD SVG 1.0//EN" "http://www.w3.org/TR/2001/REC-SVG-20010904/DTD/svg10.dtd" [
<!ATTLIST g
xmlns:kvg CDATA #FIXED "http://kanjivg.tagaini.net"
kvg:element CDATA #IMPLIED
kvg:variant CDATA #IMPLIED
kvg:partial CDATA #IMPLIED
kvg:original CDATA #IMPLIED
kvg:part CDATA #IMPLIED
kvg:number CDATA #IMPLIED
kvg:tradForm CDATA #IMPLIED
kvg:radicalForm CDATA #IMPLIED
kvg:position CDATA #IMPLIED
kvg:radical CDATA #IMPLIED
kvg:phon CDATA #IMPLIED >
<!ATTLIST path
xmlns:kvg CDATA #FIXED "http://kanjivg.tagaini.net"
kvg:type CDATA #IMPLIED >
]>
<svg xmlns="http://www.w3.org/2000/svg" width="327" height = "327" viewBox="0 0 327 327">
<g id="kvg:StrokePaths_08eaf-Kaisho" style="fill:none;stroke:#000000;stroke-width:3;stroke-linecap:round;stroke-linejoin:round;" transform="scale(3.0,3.0)">
<g id="kvg:08eaf-Kaisho" kvg:element="躯">
	<g id="kvg:08eaf-Kaisho-g1" kvg:element="身" kvg:position="left" kvg:radical="general">
		<path style="stroke: #bf0909;" id="kvg:08eaf-Kaisho-s1" kvg:type="㇒" d="M32.59,11.64c0.02,0.27,0.48,1.5,0.39,1.89c-0.53,2.31-4.64,8.58-8.8,11.68"/>
		<path style="stroke: #bf6c09;" id="kvg:08eaf-Kaisho-s2" kvg:type="㇑a" d="M21.33,25.25c0.57,0.5,0.91,2.25,1.02,3.25c0.11,1,0.26,30.75,0.15,37"/>
		<path style="stroke: #aebf09;" id="kvg:08eaf-Kaisho-s3" kvg:type="㇆a" d="M22.74,26.84c2.72-0.84,13.4-2.34,15.64-2.36c1.88-0.02,2.33,1.02,2.33,4.02c0,12.39-0.35,48.56-0.35,59.68c0,10.33-2.65,6.08-4.5,2.82"/>
		<path style="stroke: #4bbf09;" id="kvg:08eaf-Kaisho-s4" kvg:type="㇐a" d="M22.96,39.25c3.08-0.38,5.66-0.73,8.74-1.09c0.87-0.1,1.72-0.2,2.52-0.3"/>
		<path style="stroke: #09bf2a;" id="kvg:08eaf-Kaisho-s5" kvg:type="㇐a" d="M22.85,49.75c2.95-0.25,5.89-0.56,8.83-0.88c0.73-0.08,1.46-0.16,2.18-0.23"/>
		<path style="stroke: #09bf8d;" id="kvg:08eaf-Kaisho-s6" kvg:type="㇀" d="M15.15,66.93c0.75,1.32,2.06,1.75,4.29,0.66c4.55-2.24,14.98-7.24,20.22-10.09"/>
		<path style="stroke: #098dbf;" id="kvg:08eaf-Kaisho-s7" kvg:type="㇒" d="M47.31,48.5c0.29,0.91,0.8,2.51,0,4.02C41.8,62.93,23.02,81.7,11.28,87"/>
	</g>
	<g id="kvg:08eaf-Kaisho-g2" kvg:element="区" kvg:position="right">
		<g id="kvg:08eaf-Kaisho-g3" kvg:element="匚" kvg:part="1" kvg:position="kamae">
			<path style="stroke: #092abf;" id="kvg:08eaf-Kaisho-s8" kvg:type="㇐" d="M52.4,21.75c1.07,0.57,3.04,0.66,4.12,0.57c11.17-0.96,24.98-2.07,34.43-2.9c1.8-0.16,3.95-0.31,4.84-0.02"/>
		</g>
		<g id="kvg:08eaf-Kaisho-g4" kvg:element="乂">
			<g id="kvg:08eaf-Kaisho-g5" kvg:element="丿">
				<path style="stroke: #4b09bf;" id="kvg:08eaf-Kaisho-s9" kvg:type="㇒" d="M86.91,29.4c0.42,1.25,0.77,2.2,0.21,4.43c-5,19.88-13.3,36.97-25.82,47.09"/>
			</g>
			<path style="stroke: #ae09bf;" id="kvg:08eaf-Kaisho-s10" kvg:type="㇔/㇏" d="M62.05,39.75C73.52,47.49,84,64.69,89.44,78.87"/>
		</g>
		<g id="kvg:08eaf-Kaisho-g6" kvg:element="匚" kvg:part="2" kvg:position="kamae">
			<path style="stroke: #bf096c;" id="kvg:08eaf-Kaisho-s11" kvg:type="㇗" d="M55.14,23.23c0,3.91,0,62.47,0,66.13c0,4.64,0.7,4.03,1.94,3.91c7.07-0.73,33.48-2.75,35.78-2.75c2.3,0,4.24,0.16,5.65,0.65"/>
		</g>
	</g>
</g>
</g>
<g id="kvg:StrokeNumbers_08eaf-Kaisho" style="font-size:8;fill:#808080" transform="scale(3.0,3.0)">
	<text style="fill: #bf0909;" transform="matrix(1 0 0 1 24.50 10.85)">1</text>
	<text style="fill: #bf6c09;" transform="matrix(1 0 0 1 15.66 34.50)">2</text>
	<text style="fill: #aebf09;" transform="matrix(1 0 0 1 21.50 21.50)">3</text>
	<text style="fill: #4bbf09;" transform="matrix(1 0 0 1 26.50 35.50)">4</text>
	<text style="fill: #09bf2a;" transform="matrix(1 0 0 1 26.50 46.50)">5</text>
	<text style="fill: #09bf8d;" transform="matrix(1 0 0 1 8.50 70.50)">6</text>
	<text style="fill: #098dbf;" transform="matrix(1 0 0 1 43.50 45.50)">7</text>
	<text style="fill: #092abf;" transform="matrix(1 0 0 1 53.50 19.50)">8</text>
	<text style="fill: #4b09bf;" transform="matrix(1 0 0 1 78.50 30.50)">9</text>
	<text style="fill: #ae09bf;" transform="matrix(1 0 0 1 60.50 37.50)">10</text>
	<text style="fill: #bf096c;" transform="matrix(1 0 0 1 45.25 30.50)">11</text>
</g>
</svg>
