<?xml version="1.0" encoding="UTF-8"?>
<!--
This file has been modified from the original version by the kanji_colorize.py
script (available at http://github.com/cayennes/kanji-colorize) with these
settings:
    mode: spectrum
    saturation: 0.95
    value: 0.75
    image_size: 327
It remains under a Creative Commons-Attribution-Share Alike 3.0 License.

The original SVG has the following copyright:

Copyright (C) 2009/2010/2011 Ulrich Apel.
This work is distributed under the conditions of the Creative Commons
Attribution-Share Alike 3.0 Licence. This means you are free:
* to Share - to copy, distribute and transmit the work
* to Remix - to adapt the work

Under the following conditions:
* Attribution. You must attribute the work by stating your use of KanjiVG in
  your own copyright header and linking to KanjiVG's website
  (http://kanjivg.tagaini.net)
* Share Alike. If you alter, transform, or build upon this work, you may
  distribute the resulting work only under the same or similar license to this
  one.

See http://creativecommons.org/licenses/by-sa/3.0/ for more details.
-->
<!DOCTYPE svg PUBLIC "-//W3C//DTD SVG 1.0//EN" "http://www.w3.org/TR/2001/REC-SVG-20010904/DTD/svg10.dtd" [
<!ATTLIST g
xmlns:kvg CDATA #FIXED "http://kanjivg.tagaini.net"
kvg:element CDATA #IMPLIED
kvg:variant CDATA #IMPLIED
kvg:partial CDATA #IMPLIED
kvg:original CDATA #IMPLIED
kvg:part CDATA #IMPLIED
kvg:number CDATA #IMPLIED
kvg:tradForm CDATA #IMPLIED
kvg:radicalForm CDATA #IMPLIED
kvg:position CDATA #IMPLIED
kvg:radical CDATA #IMPLIED
kvg:phon CDATA #IMPLIED >
<!ATTLIST path
xmlns:kvg CDATA #FIXED "http://kanjivg.tagaini.net"
kvg:type CDATA #IMPLIED >
]>
<svg xmlns="http://www.w3.org/2000/svg" width="327" height = "327" viewBox="0 0 327 327">
<g id="kvg:StrokePaths_08f1d-Kaisho" style="fill:none;stroke:#000000;stroke-width:3;stroke-linecap:round;stroke-linejoin:round;" transform="scale(3.0,3.0)">
<g id="kvg:08f1d-Kaisho" kvg:element="輝">
	<g id="kvg:08f1d-Kaisho-g1" kvg:element="光" kvg:position="left">
		<g id="kvg:08f1d-Kaisho-g2" kvg:element="⺌" kvg:variant="true" kvg:original="小" kvg:position="top" kvg:radical="nelson">
			<path style="stroke: #bf0909;" id="kvg:08f1d-Kaisho-s1" kvg:type="㇑" d="M28.83,15.1c1.17,1.4,2.37,2.82,2.43,4.44c0.3,7.74-0.19,24.56-0.19,27.19"/>
			<path style="stroke: #bf5209;" id="kvg:08f1d-Kaisho-s2" kvg:type="㇔" d="M15,29.25c2.74,2.55,7.07,10.48,7.75,14.44"/>
			<path style="stroke: #bf9a09;" id="kvg:08f1d-Kaisho-s3" kvg:type="㇒" d="M42.95,23.86c0.02,0.37,0.05,0.97-0.05,1.5c-0.59,3.17-4,10.13-8.65,14.38"/>
		</g>
		<g id="kvg:08f1d-Kaisho-g3" kvg:element="兀" kvg:variant="true" kvg:position="bottom">
			<g id="kvg:08f1d-Kaisho-g4" kvg:element="一">
				<path style="stroke: #9abf09;" id="kvg:08f1d-Kaisho-s4" kvg:type="㇐" d="M12.13,50.5c0.61,0.53,2.23,0.62,2.84,0.53C21.33,50.14,36.5,46,42.2,44.92c1-0.19,2.13-0.25,2.64,0.02"/>
			</g>
			<g id="kvg:08f1d-Kaisho-g5" kvg:element="儿" kvg:variant="true" kvg:original="八">
				<g id="kvg:08f1d-Kaisho-g6" kvg:element="丿">
					<path style="stroke: #52bf09;" id="kvg:08f1d-Kaisho-s5" kvg:type="㇒" d="M25.16,52.5c0.04,0.84,0.11,2.18-0.08,3.38c-1.64,10.17-6.48,26.07-14.28,32.38"/>
				</g>
				<path style="stroke: #09bf09;" id="kvg:08f1d-Kaisho-s6" kvg:type="㇙/㇟" d="M34.18,50.4c0.5,1.17,0.9,2.54,0.93,4.34c0.14,8.03,0.13,13.51-0.62,17.76c-0.6,3.42-0.29,3.99,3,1c5.5-5,6.88-6.34,7.75-7.25"/>
			</g>
		</g>
	</g>
	<g id="kvg:08f1d-Kaisho-g7" kvg:element="軍" kvg:position="right">
		<g id="kvg:08f1d-Kaisho-g8" kvg:element="冖" kvg:position="top">
			<path style="stroke: #09bf52;" id="kvg:08f1d-Kaisho-s7" kvg:type="㇔" d="M51.87,16.96c-0.09,2.83-2.27,10.25-3.05,11.94"/>
			<path style="stroke: #09bf9a;" id="kvg:08f1d-Kaisho-s8" kvg:type="㇖b" d="M53.17,17.73c5.05-0.57,25.85-3.05,35.85-3.51c7.6-0.35,1.18,6.09,0.25,7.06"/>
		</g>
		<g id="kvg:08f1d-Kaisho-g9" kvg:element="車" kvg:position="bottom" kvg:radical="tradit">
			<path style="stroke: #099abf;" id="kvg:08f1d-Kaisho-s9" kvg:type="㇐" d="M53.12,33.39c0.84,0.37,2.38,0.45,3.22,0.37c8.12-0.81,19.8-3.27,29.28-3.74c1.4-0.07,2.24,0.17,2.94,0.36"/>
			<path style="stroke: #0952bf;" id="kvg:08f1d-Kaisho-s10" kvg:type="㇑" d="M51.23,42.35c0.58,0.47,1.32,1.82,1.43,2.44c0.87,4.93,1.8,14.94,2.84,22.92"/>
			<path style="stroke: #0909bf;" id="kvg:08f1d-Kaisho-s11" kvg:type="㇕a" d="M53.46,44.52c8.83-0.9,28.21-4.07,34.23-4.21c2.49-0.06,3,1.22,2.9,2.62c-0.37,4.81-2.27,13.2-4.24,21.08"/>
			<path style="stroke: #5209bf;" id="kvg:08f1d-Kaisho-s12" kvg:type="㇐a" d="M55.54,54.67c7.09-0.24,14.16-1.92,21.21-2.72c0.78-0.09,1.57-0.17,2.37-0.25"/>
			<path style="stroke: #9a09bf;" id="kvg:08f1d-Kaisho-s13" kvg:type="㇐a" d="M55.54,65.8c7.74-0.93,21.23-3.71,31.3-3.71"/>
			<path style="stroke: #bf099a;" id="kvg:08f1d-Kaisho-s14" kvg:type="㇐" d="M46.18,77.14c1.06,0.64,2.99,0.74,4.07,0.64c17.93-1.66,27.11-3.62,44.86-4.37c1.77-0.07,2.83,0.31,3.72,0.63"/>
			<path style="stroke: #bf0952;" id="kvg:08f1d-Kaisho-s15" kvg:type="㇑" d="M69.17,20.55c0.54,0.57,1.68,4.3,1.79,5.45c0.11,1.15-0.07,64.46-0.18,71.64"/>
		</g>
	</g>
</g>
</g>
<g id="kvg:StrokeNumbers_08f1d-Kaisho" style="font-size:8;fill:#808080" transform="scale(3.0,3.0)">
	<text style="fill: #bf0909;" transform="matrix(1 0 0 1 20.25 15.50)">1</text>
	<text style="fill: #bf5209;" transform="matrix(1 0 0 1 7.50 29.50)">2</text>
	<text style="fill: #bf9a09;" transform="matrix(1 0 0 1 36.75 24.13)">3</text>
	<text style="fill: #9abf09;" transform="matrix(1 0 0 1 5.50 51.50)">4</text>
	<text style="fill: #52bf09;" transform="matrix(1 0 0 1 16.50 60.50)">5</text>
	<text style="fill: #09bf09;" transform="matrix(1 0 0 1 29.50 56.50)">6</text>
	<text style="fill: #09bf52;" transform="matrix(1 0 0 1 45.75 16.63)">7</text>
	<text style="fill: #09bf9a;" transform="matrix(1 0 0 1 55.50 14.50)">8</text>
	<text style="fill: #099abf;" transform="matrix(1 0 0 1 53.50 31.55)">9</text>
	<text style="fill: #0952bf;" transform="matrix(1 0 0 1 42.75 55.48)">10</text>
	<text style="fill: #0909bf;" transform="matrix(1 0 0 1 54.75 41.50)">11</text>
	<text style="fill: #5209bf;" transform="matrix(1 0 0 1 57.75 51.50)">12</text>
	<text style="fill: #9a09bf;" transform="matrix(1 0 0 1 57.75 62.50)">13</text>
	<text style="fill: #bf099a;" transform="matrix(1 0 0 1 46.50 74.90)">14</text>
	<text style="fill: #bf0952;" transform="matrix(1 0 0 1 59.50 24.13)">15</text>
</g>
</svg>
