<?xml version="1.0" encoding="UTF-8"?>
<!--
This file has been modified from the original version by the kanji_colorize.py
script (available at http://github.com/cayennes/kanji-colorize) with these
settings:
    mode: spectrum
    saturation: 0.95
    value: 0.75
    image_size: 327
It remains under a Creative Commons-Attribution-Share Alike 3.0 License.

The original SVG has the following copyright:

Copyright (C) 2009/2010/2011 Ulrich Apel.
This work is distributed under the conditions of the Creative Commons
Attribution-Share Alike 3.0 Licence. This means you are free:
* to Share - to copy, distribute and transmit the work
* to Remix - to adapt the work

Under the following conditions:
* Attribution. You must attribute the work by stating your use of KanjiVG in
  your own copyright header and linking to KanjiVG's website
  (http://kanjivg.tagaini.net)
* Share Alike. If you alter, transform, or build upon this work, you may
  distribute the resulting work only under the same or similar license to this
  one.

See http://creativecommons.org/licenses/by-sa/3.0/ for more details.
-->
<!DOCTYPE svg PUBLIC "-//W3C//DTD SVG 1.0//EN" "http://www.w3.org/TR/2001/REC-SVG-20010904/DTD/svg10.dtd" [
<!ATTLIST g
xmlns:kvg CDATA #FIXED "http://kanjivg.tagaini.net"
kvg:element CDATA #IMPLIED
kvg:variant CDATA #IMPLIED
kvg:partial CDATA #IMPLIED
kvg:original CDATA #IMPLIED
kvg:part CDATA #IMPLIED
kvg:number CDATA #IMPLIED
kvg:tradForm CDATA #IMPLIED
kvg:radicalForm CDATA #IMPLIED
kvg:position CDATA #IMPLIED
kvg:radical CDATA #IMPLIED
kvg:phon CDATA #IMPLIED >
<!ATTLIST path
xmlns:kvg CDATA #FIXED "http://kanjivg.tagaini.net"
kvg:type CDATA #IMPLIED >
]>
<svg xmlns="http://www.w3.org/2000/svg" width="327" height = "327" viewBox="0 0 327 327">
<g id="kvg:StrokePaths_08f44-KaishoVtLst" style="fill:none;stroke:#000000;stroke-width:3;stroke-linecap:round;stroke-linejoin:round;" transform="scale(3.0,3.0)">
<g id="kvg:08f44-KaishoVtLst" kvg:element="轄">
	<g id="kvg:08f44-KaishoVtLst-g1" kvg:element="車" kvg:position="left" kvg:radical="general">
		<path style="stroke: #bf0909;" id="kvg:08f44-KaishoVtLst-s1" kvg:type="㇐" d="M15.58,28.3c1.07-0.01,1.72-0.04,2.34-0.14c5.84-0.92,18.09-1.92,26.63-3.68c1-0.21,1.62,0.17,2.13,0.35"/>
		<path style="stroke: #bf4909;" id="kvg:08f44-KaishoVtLst-s2" kvg:type="㇑" d="M14.56,40.27c0.5,0.44,1.14,2.27,1.23,2.85c0.68,4.18,2.56,11.98,3.51,19.89"/>
		<path style="stroke: #bf8909;" id="kvg:08f44-KaishoVtLst-s3" kvg:type="㇕a" d="M16.5,41.85c7.64-0.84,23.96-4.34,29.18-4.47c2.16-0.05,2.6,1.14,2.51,2.46c-0.32,4.5-1.63,11.88-3.35,19.26"/>
		<path style="stroke: #b4bf09;" id="kvg:08f44-KaishoVtLst-s4" kvg:type="㇐a" d="M18.3,51.28c5.51-0.66,10.98-1.53,16.49-2.18c0.6-0.07,1.21-0.14,1.84-0.21"/>
		<path style="stroke: #74bf09;" id="kvg:08f44-KaishoVtLst-s5" kvg:type="㇐a" d="M19.35,61.71c6.69-0.87,15.7-2.35,25.48-3.47"/>
		<path style="stroke: #34bf09;" id="kvg:08f44-KaishoVtLst-s6" kvg:type="㇐" d="M11.53,75.21c0.97,0,2.45,0.04,3.33-0.03c9.39-0.68,22.39-3.43,30.83-4.56c1.43-0.19,2.32,0.22,3.04,0.46"/>
		<path style="stroke: #09bf1e;" id="kvg:08f44-KaishoVtLst-s7" kvg:type="㇑" d="M29.3,13.63c0.45,0.57,1.98,2.26,1.98,3.4c0,4.22-0.06,71.75-0.15,78.85"/>
	</g>
	<g id="kvg:08f44-KaishoVtLst-g2" kvg:element="害" kvg:position="right">
		<g id="kvg:08f44-KaishoVtLst-g3" kvg:element="宀" kvg:position="top">
			<path style="stroke: #09bf5f;" id="kvg:08f44-KaishoVtLst-s8" kvg:type="㇑a" d="M67.14,14c2.78,1.52,5.61,4,7.92,8.37"/>
			<g id="kvg:08f44-KaishoVtLst-g4" kvg:element="冖">
				<path style="stroke: #09bf9f;" id="kvg:08f44-KaishoVtLst-s9" kvg:type="㇔" d="M56,28.82c0,2.57-1.58,10.63-2.29,12.35"/>
				<path style="stroke: #099fbf;" id="kvg:08f44-KaishoVtLst-s10" kvg:type="㇖b" d="M57.47,30.09c0.79,0.06,30.29-5.08,34.31-5.08c6.18,0,0.77,6.21-0.23,6.85"/>
			</g>
		</g>
		<g id="kvg:08f44-KaishoVtLst-g5" kvg:position="bottom">
			<path style="stroke: #095fbf;" id="kvg:08f44-KaishoVtLst-s11" kvg:type="㇐" d="M58.74,43.66c0.69,0.35,1.94,0.45,2.63,0.35c4.37-0.61,18.16-2.76,22.7-3.1c1.14-0.08,1.83,0.17,2.4,0.35"/>
			<path style="stroke: #091ebf;" id="kvg:08f44-KaishoVtLst-s12" kvg:type="㇐" d="M57.61,54.81c0.69,0.35,1.94,0.45,2.63,0.35c4.37-0.61,19.75-2.57,24.83-2.67c1.14-0.02,1.83,0.17,2.4,0.35"/>
			<path style="stroke: #3409bf;" id="kvg:08f44-KaishoVtLst-s13" kvg:type="㇐" d="M53.13,67.78c0.58,0.35,1.63,0.39,2.2,0.35c4.07-0.25,31.67-3.89,36.53-4.52c0.95-0.12,2.53,0.17,3.01,0.34"/>
			<path style="stroke: #7409bf;" id="kvg:08f44-KaishoVtLst-s14" kvg:type="㇑" d="M70.85,34.45c0.8,0.46,1.27,2.08,1.43,3.01c0.16,0.93,0.1,22.09-0.06,27.88"/>
			<g id="kvg:08f44-KaishoVtLst-g6" kvg:element="口">
				<path style="stroke: #b409bf;" id="kvg:08f44-KaishoVtLst-s15" kvg:type="㇑" d="M57.69,76.98c0.3,0.32,0.6,0.58,0.73,0.98c1.03,3.15,2.26,11.84,2.97,17.5"/>
				<path style="stroke: #bf0989;" id="kvg:08f44-KaishoVtLst-s16" kvg:type="㇕b" d="M59.54,78.07c7.29-1.32,23.63-3.06,27.39-3.5c1.37-0.16,2.2,1.64,2,2.6c-0.82,3.97-1.74,7.39-3.49,13.1"/>
				<path style="stroke: #bf0949;" id="kvg:08f44-KaishoVtLst-s17" kvg:type="㇐b" d="M61.68,93.38c4.41-0.5,19.53-2.11,25.13-2.62"/>
			</g>
		</g>
	</g>
</g>
</g>
<g id="kvg:StrokeNumbers_08f44-KaishoVtLst" style="font-size:8;fill:#808080" transform="scale(3.0,3.0)">
	<text style="fill: #bf0909;" transform="matrix(1 0 0 1 9.50 28.63)">1</text>
	<text style="fill: #bf4909;" transform="matrix(1 0 0 1 8.25 49.55)">2</text>
	<text style="fill: #bf8909;" transform="matrix(1 0 0 1 15.75 38.50)">3</text>
	<text style="fill: #b4bf09;" transform="matrix(1 0 0 1 18.77 49.10)">4</text>
	<text style="fill: #74bf09;" transform="matrix(1 0 0 1 20.27 59.53)">5</text>
	<text style="fill: #34bf09;" transform="matrix(1 0 0 1 4.50 76.63)">6</text>
	<text style="fill: #09bf1e;" transform="matrix(1 0 0 1 21.75 14.50)">7</text>
	<text style="fill: #09bf5f;" transform="matrix(1 0 0 1 60.50 15.50)">8</text>
	<text style="fill: #09bf9f;" transform="matrix(1 0 0 1 48.50 32.50)">9</text>
	<text style="fill: #099fbf;" transform="matrix(1 0 0 1 56.25 26.50)">10</text>
	<text style="fill: #095fbf;" transform="matrix(1 0 0 1 57.75 40.55)">11</text>
	<text style="fill: #091ebf;" transform="matrix(1 0 0 1 56.50 52.63)">12</text>
	<text style="fill: #3409bf;" transform="matrix(1 0 0 1 50.91 65.20)">13</text>
	<text style="fill: #7409bf;" transform="matrix(1 0 0 1 74.00 36.39)">14</text>
	<text style="fill: #b409bf;" transform="matrix(1 0 0 1 47.25 84.61)">15</text>
	<text style="fill: #bf0989;" transform="matrix(1 0 0 1 57.91 75.50)">16</text>
	<text style="fill: #bf0949;" transform="matrix(1 0 0 1 63.75 90.05)">17</text>
</g>
</svg>
