<?xml version="1.0" encoding="UTF-8"?>
<!--
This file has been modified from the original version by the kanji_colorize.py
script (available at http://github.com/cayennes/kanji-colorize) with these
settings:
    mode: spectrum
    saturation: 0.95
    value: 0.75
    image_size: 327
It remains under a Creative Commons-Attribution-Share Alike 3.0 License.

The original SVG has the following copyright:

Copyright (C) 2009/2010/2011 Ulrich Apel.
This work is distributed under the conditions of the Creative Commons
Attribution-Share Alike 3.0 Licence. This means you are free:
* to Share - to copy, distribute and transmit the work
* to Remix - to adapt the work

Under the following conditions:
* Attribution. You must attribute the work by stating your use of KanjiVG in
  your own copyright header and linking to KanjiVG's website
  (http://kanjivg.tagaini.net)
* Share Alike. If you alter, transform, or build upon this work, you may
  distribute the resulting work only under the same or similar license to this
  one.

See http://creativecommons.org/licenses/by-sa/3.0/ for more details.
-->
<!DOCTYPE svg PUBLIC "-//W3C//DTD SVG 1.0//EN" "http://www.w3.org/TR/2001/REC-SVG-20010904/DTD/svg10.dtd" [
<!ATTLIST g
xmlns:kvg CDATA #FIXED "http://kanjivg.tagaini.net"
kvg:element CDATA #IMPLIED
kvg:variant CDATA #IMPLIED
kvg:partial CDATA #IMPLIED
kvg:original CDATA #IMPLIED
kvg:part CDATA #IMPLIED
kvg:number CDATA #IMPLIED
kvg:tradForm CDATA #IMPLIED
kvg:radicalForm CDATA #IMPLIED
kvg:position CDATA #IMPLIED
kvg:radical CDATA #IMPLIED
kvg:phon CDATA #IMPLIED >
<!ATTLIST path
xmlns:kvg CDATA #FIXED "http://kanjivg.tagaini.net"
kvg:type CDATA #IMPLIED >
]>
<svg xmlns="http://www.w3.org/2000/svg" width="327" height = "327" viewBox="0 0 327 327">
<g id="kvg:StrokePaths_08fb2-Kaisho" style="fill:none;stroke:#000000;stroke-width:3;stroke-linecap:round;stroke-linejoin:round;" transform="scale(3.0,3.0)">
<g id="kvg:08fb2-Kaisho" kvg:element="農">
	<g id="kvg:08fb2-Kaisho-g1" kvg:element="曲" kvg:position="top">
		<g id="kvg:08fb2-Kaisho-g2" kvg:element="日" kvg:part="1">
			<path style="stroke: #bf0909;" id="kvg:08fb2-Kaisho-s1" kvg:type="㇑" d="M29.05,19.67c0.35,0.52,0.7,0.77,0.7,1.46s4.45,19.26,4.45,19.61c0,0.34,0.12,0.34,0.23,1.03"/>
			<path style="stroke: #bf5d09;" id="kvg:08fb2-Kaisho-s2" kvg:type="㇕a" d="M30.34,20.63c3.23-0.32,43.42-3.69,46.27-3.78c2.89-0.1,3.64,1.4,3.33,3.18c-0.62,3.49-2.19,8.98-4.83,18.79"/>
		</g>
		<g id="kvg:08fb2-Kaisho-g3" kvg:element="廾" kvg:part="1" kvg:variant="true">
			<g id="kvg:08fb2-Kaisho-g4" kvg:element="丿">
				<g id="kvg:08fb2-Kaisho-g5" kvg:element="十" kvg:part="1">
					<path style="stroke: #bfb109;" id="kvg:08fb2-Kaisho-s3" kvg:type="㇑a" d="M42.89,10.91c1.01,0.46,2.21,2.07,2.32,3.02c1.29,11.57,1.29,13.82,2.51,25.04"/>
				</g>
			</g>
			<path style="stroke: #79bf09;" id="kvg:08fb2-Kaisho-s4" kvg:type="㇑a" d="M61.62,9.23c1.01,0.46,1.42,2.07,1.32,3.02c-0.94,9-2.44,19.75-3.19,25"/>
			<g id="kvg:08fb2-Kaisho-g6" kvg:element="日" kvg:part="2">
				<g id="kvg:08fb2-Kaisho-g7" kvg:element="十" kvg:part="2">
					<path style="stroke: #25bf09;" id="kvg:08fb2-Kaisho-s5" kvg:type="㇐a" d="M32.35,29.86c10.03,0,20.21-1.41,30.2-2.15c1.25-0.09,4.47-0.18,5.63-0.27"/>
				</g>
			</g>
			<path style="stroke: #09bf41;" id="kvg:08fb2-Kaisho-s6" kvg:type="㇐a" d="M35.24,40.03c5.46-0.33,32.56-2.71,39.36-3"/>
		</g>
	</g>
	<g id="kvg:08fb2-Kaisho-g8" kvg:element="辰" kvg:position="bottom" kvg:radical="general">
		<g id="kvg:08fb2-Kaisho-g9" kvg:element="厂">
			<path style="stroke: #09bf95;" id="kvg:08fb2-Kaisho-s7" kvg:type="㇐" d="M27.23,50c1.38,0.41,3.92,0.51,5.3,0.41c11.19-0.78,41.49-3.53,47.46-3.88c2.3-0.14,2.52,0.22,4.83,0.41"/>
			<path style="stroke: #0995bf;" id="kvg:08fb2-Kaisho-s8" kvg:type="㇒" d="M30.66,52.12c0.03,1.3-0.07,3.34-0.07,5.21c0,17.17-6.84,32.42-16.72,41.8"/>
		</g>
		<path style="stroke: #0941bf;" id="kvg:08fb2-Kaisho-s9" kvg:type="㇐" d="M40.89,59.3c0.85,0.29,2.42,0.37,3.28,0.29c5.44-0.5,21.66-2.5,27.08-2.97c1.42-0.12,2.28,0.14,2.99,0.28"/>
		<path style="stroke: #2509bf;" id="kvg:08fb2-Kaisho-s10" kvg:type="㇐" d="M33.71,70.4c0.86,0.29,2.42,0.37,3.28,0.29c5.44-0.5,35.63-3.53,41.51-3.62c1.42-0.02,4.1,0.14,4.81,0.29"/>
		<path style="stroke: #7909bf;" id="kvg:08fb2-Kaisho-s11" kvg:type="㇙" d="M42.58,72.78c1.37,1.34,1.27,1.91,1.27,3.83c0,9.04-0.09,18.64-0.91,20.13c-0.74,1.34,1,2.9,2.9,1.75c1.9-1.15,12.37-9.18,14.91-10.33"/>
		<path style="stroke: #bf09b1;" id="kvg:08fb2-Kaisho-s12" kvg:type="㇒" d="M75.59,71.93c0.02,0.22,0.04,0.57-0.04,0.88c-0.51,1.85-3.44,5.93-7.44,8.42"/>
		<path style="stroke: #bf095d;" id="kvg:08fb2-Kaisho-s13" kvg:type="㇏" d="M54.02,75.42c7.17,1.77,27.81,18.19,33.42,21.55c1.9,1.14,3.53,1.63,5.43,1.96"/>
	</g>
</g>
</g>
<g id="kvg:StrokeNumbers_08fb2-Kaisho" style="font-size:8;fill:#808080" transform="scale(3.0,3.0)">
	<text style="fill: #bf0909;" transform="matrix(1 0 0 1 23.50 28.63)">1</text>
	<text style="fill: #bf5d09;" transform="matrix(1 0 0 1 30.50 17.50)">2</text>
	<text style="fill: #bfb109;" transform="matrix(1 0 0 1 38.50 8.50)">3</text>
	<text style="fill: #79bf09;" transform="matrix(1 0 0 1 52.50 8.50)">4</text>
	<text style="fill: #25bf09;" transform="matrix(1 0 0 1 36.75 27.50)">5</text>
	<text style="fill: #09bf41;" transform="matrix(1 0 0 1 37.50 37.63)">6</text>
	<text style="fill: #09bf95;" transform="matrix(1 0 0 1 27.75 48.50)">7</text>
	<text style="fill: #0995bf;" transform="matrix(1 0 0 1 22.50 58.50)">8</text>
	<text style="fill: #0941bf;" transform="matrix(1 0 0 1 34.50 59.50)">9</text>
	<text style="fill: #2509bf;" transform="matrix(1 0 0 1 33.75 67.63)">10</text>
	<text style="fill: #7909bf;" transform="matrix(1 0 0 1 34.50 81.50)">11</text>
	<text style="fill: #bf09b1;" transform="matrix(1 0 0 1 79.50 77.00)">12</text>
	<text style="fill: #bf095d;" transform="matrix(1 0 0 1 49.50 83.50)">13</text>
</g>
</svg>
