<?xml version="1.0" encoding="UTF-8"?>
<!--
This file has been modified from the original version by the kanji_colorize.py
script (available at http://github.com/cayennes/kanji-colorize) with these
settings:
    mode: spectrum
    saturation: 0.95
    value: 0.75
    image_size: 327
It remains under a Creative Commons-Attribution-Share Alike 3.0 License.

The original SVG has the following copyright:

Copyright (C) 2009/2010/2011 Ulrich Apel.
This work is distributed under the conditions of the Creative Commons
Attribution-Share Alike 3.0 Licence. This means you are free:
* to Share - to copy, distribute and transmit the work
* to Remix - to adapt the work

Under the following conditions:
* Attribution. You must attribute the work by stating your use of KanjiVG in
  your own copyright header and linking to KanjiVG's website
  (http://kanjivg.tagaini.net)
* Share Alike. If you alter, transform, or build upon this work, you may
  distribute the resulting work only under the same or similar license to this
  one.

See http://creativecommons.org/licenses/by-sa/3.0/ for more details.
-->
<!DOCTYPE svg PUBLIC "-//W3C//DTD SVG 1.0//EN" "http://www.w3.org/TR/2001/REC-SVG-20010904/DTD/svg10.dtd" [
<!ATTLIST g
xmlns:kvg CDATA #FIXED "http://kanjivg.tagaini.net"
kvg:element CDATA #IMPLIED
kvg:variant CDATA #IMPLIED
kvg:partial CDATA #IMPLIED
kvg:original CDATA #IMPLIED
kvg:part CDATA #IMPLIED
kvg:number CDATA #IMPLIED
kvg:tradForm CDATA #IMPLIED
kvg:radicalForm CDATA #IMPLIED
kvg:position CDATA #IMPLIED
kvg:radical CDATA #IMPLIED
kvg:phon CDATA #IMPLIED >
<!ATTLIST path
xmlns:kvg CDATA #FIXED "http://kanjivg.tagaini.net"
kvg:type CDATA #IMPLIED >
]>
<svg xmlns="http://www.w3.org/2000/svg" width="327" height = "327" viewBox="0 0 327 327">
<g id="kvg:StrokePaths_090ca-Kaisho" style="fill:none;stroke:#000000;stroke-width:3;stroke-linecap:round;stroke-linejoin:round;" transform="scale(3.0,3.0)">
<g id="kvg:090ca-Kaisho" kvg:element="郊">
	<g id="kvg:090ca-Kaisho-g1" kvg:element="交" kvg:variant="true" kvg:position="left">
		<g id="kvg:090ca-Kaisho-g2" kvg:element="亠" kvg:position="top">
			<path style="stroke: #bf0909;" id="kvg:090ca-Kaisho-s1" kvg:type="㇑a" d="M33.94,12.5c3.17,1.22,6.92,5.06,8.36,8.32"/>
			<path style="stroke: #bf8209;" id="kvg:090ca-Kaisho-s2" kvg:type="㇐" d="M17.84,28.91c0.75,0.07,2.45,0.44,3.18,0.39c8.77-0.59,23.23-3.05,31.57-3.98c1.23-0.14,1.87,0.03,2.78,0.49"/>
		</g>
		<g id="kvg:090ca-Kaisho-g3" kvg:element="父" kvg:variant="true" kvg:position="bottom">
			<path style="stroke: #82bf09;" id="kvg:090ca-Kaisho-s3" kvg:type="㇒" d="M28.49,37.01c0.25,0.61-0.01,2.02-0.62,3.01c-2.39,3.91-6.72,8.16-11.6,11.58"/>
			<path style="stroke: #09bf09;" id="kvg:090ca-Kaisho-s4" kvg:type="㇔" d="M47.17,32.86c4.57,3.81,8.35,8.21,10.63,12.83"/>
			<path style="stroke: #09bf82;" id="kvg:090ca-Kaisho-s5" kvg:type="㇒" d="M48.21,47.11c0.44,0.9,0.59,2.49-0.14,4.11C41.25,66.25,29,79.5,14.02,87.62"/>
			<path style="stroke: #0982bf;" id="kvg:090ca-Kaisho-s6" kvg:type="㇔/㇏" d="M25.88,55.85c8.26,2.67,19.52,13.29,26.54,23.95"/>
		</g>
	</g>
	<g id="kvg:090ca-Kaisho-g4" kvg:element="⻏" kvg:variant="true" kvg:original="邑" kvg:position="right" kvg:radical="general">
		<path style="stroke: #0909bf;" id="kvg:090ca-Kaisho-s7" kvg:type="㇇" d="M64.17,21.67c0.83,0.08,2.32,0.62,3.4,0.44c4.63-0.81,17.17-3.62,19.6-4.44c3-1,6,1,4.67,3.33c-1.33,2.33-7.5,15.17-9.83,18.5"/>
		<path style="stroke: #8209bf;" id="kvg:090ca-Kaisho-s8" kvg:type="㇕va" d="M81.5,40c20.5,10.75,17,38.25,2.23,29.16"/>
		<path style="stroke: #bf0982;" id="kvg:090ca-Kaisho-s9" kvg:type="㇑" d="M67.83,23c0.22,1,0,68.75-0.22,75"/>
	</g>
</g>
</g>
<g id="kvg:StrokeNumbers_090ca-Kaisho" style="font-size:8;fill:#808080" transform="scale(3.0,3.0)">
	<text style="fill: #bf0909;" transform="matrix(1 0 0 1 28.50 11.50)">1</text>
	<text style="fill: #bf8209;" transform="matrix(1 0 0 1 10.50 29.50)">2</text>
	<text style="fill: #82bf09;" transform="matrix(1 0 0 1 20.50 38.50)">3</text>
	<text style="fill: #09bf09;" transform="matrix(1 0 0 1 39.75 35.50)">4</text>
	<text style="fill: #09bf82;" transform="matrix(1 0 0 1 39.75 46.50)">5</text>
	<text style="fill: #0982bf;" transform="matrix(1 0 0 1 18.75 58.50)">6</text>
	<text style="fill: #0909bf;" transform="matrix(1 0 0 1 69.75 18.13)">7</text>
	<text style="fill: #8209bf;" transform="matrix(1 0 0 1 75.75 39.13)">8</text>
	<text style="fill: #bf0982;" transform="matrix(1 0 0 1 60.75 31.63)">9</text>
</g>
</svg>
