<?xml version="1.0" encoding="UTF-8"?>
<!--
This file has been modified from the original version by the kanji_colorize.py
script (available at http://github.com/cayennes/kanji-colorize) with these
settings:
    mode: spectrum
    saturation: 0.95
    value: 0.75
    image_size: 327
It remains under a Creative Commons-Attribution-Share Alike 3.0 License.

The original SVG has the following copyright:

Copyright (C) 2009/2010/2011 Ulrich Apel.
This work is distributed under the conditions of the Creative Commons
Attribution-Share Alike 3.0 Licence. This means you are free:
* to Share - to copy, distribute and transmit the work
* to Remix - to adapt the work

Under the following conditions:
* Attribution. You must attribute the work by stating your use of KanjiVG in
  your own copyright header and linking to KanjiVG's website
  (http://kanjivg.tagaini.net)
* Share Alike. If you alter, transform, or build upon this work, you may
  distribute the resulting work only under the same or similar license to this
  one.

See http://creativecommons.org/licenses/by-sa/3.0/ for more details.
-->
<!DOCTYPE svg PUBLIC "-//W3C//DTD SVG 1.0//EN" "http://www.w3.org/TR/2001/REC-SVG-20010904/DTD/svg10.dtd" [
<!ATTLIST g
xmlns:kvg CDATA #FIXED "http://kanjivg.tagaini.net"
kvg:element CDATA #IMPLIED
kvg:variant CDATA #IMPLIED
kvg:partial CDATA #IMPLIED
kvg:original CDATA #IMPLIED
kvg:part CDATA #IMPLIED
kvg:number CDATA #IMPLIED
kvg:tradForm CDATA #IMPLIED
kvg:radicalForm CDATA #IMPLIED
kvg:position CDATA #IMPLIED
kvg:radical CDATA #IMPLIED
kvg:phon CDATA #IMPLIED >
<!ATTLIST path
xmlns:kvg CDATA #FIXED "http://kanjivg.tagaini.net"
kvg:type CDATA #IMPLIED >
]>
<svg xmlns="http://www.w3.org/2000/svg" width="327" height = "327" viewBox="0 0 327 327">
<g id="kvg:StrokePaths_090f5-VtLst" style="fill:none;stroke:#000000;stroke-width:3;stroke-linecap:round;stroke-linejoin:round;" transform="scale(3.0,3.0)">
<g id="kvg:090f5-VtLst" kvg:element="郵">
	<g id="kvg:090f5-VtLst-g1" kvg:element="垂" kvg:position="left">
		<g id="kvg:090f5-VtLst-g2" kvg:element="千" kvg:part="1">
			<g id="kvg:090f5-VtLst-g3" kvg:element="丿">
				<path style="stroke: #bf0909;" id="kvg:090f5-VtLst-s1" kvg:type="㇒" d="M46.58,12.25c0.07,0.32,0.26,0.93-0.14,1.29c-4.94,4.53-12.25,8.69-25.13,12.35"/>
			</g>
			<g id="kvg:090f5-VtLst-g4" kvg:element="十" kvg:part="1">
				<path style="stroke: #bf6c09;" id="kvg:090f5-VtLst-s2" kvg:type="㇐" d="M15.92,34.24c0.94,0.38,2.67,0.49,3.61,0.38c6-0.66,27.72-3.87,34.51-4.32c1.56-0.1,2.51,0.18,3.3,0.37"/>
			</g>
		</g>
		<path style="stroke: #aebf09;" id="kvg:090f5-VtLst-s3" kvg:type="㇐" d="M11.7,50.3c0.96,0.39,2.08,0.47,3.05,0.39c8.84-0.71,33.91-4.81,44.29-5.36c1.6-0.08,2.57,0.19,3.37,0.38"/>
		<path style="stroke: #4bbf09;" id="kvg:090f5-VtLst-s4" kvg:type="㇑" d="M21.41,41.17c1.12,1.44,1.48,1.88,1.6,2.77c1.12,8.31,2.08,16.88,2.4,19.9"/>
		<path style="stroke: #09bf2a;" id="kvg:090f5-VtLst-s5" kvg:type="㇑" d="M52.2,37.24c0.3,0.51,1.01,2.22,0.76,3.44c-1.45,7.13-2.11,12.2-3.7,18.92"/>
		<g id="kvg:090f5-VtLst-g5" kvg:element="土" kvg:part="1">
			<path style="stroke: #09bf8d;" id="kvg:090f5-VtLst-s6" kvg:type="㇐" d="M16.34,65.94c0.94,0.38,2.67,0.49,3.61,0.38c6-0.66,25.3-4.33,33.23-5.46c1.55-0.22,2.51,0.18,3.29,0.37"/>
		</g>
		<g id="kvg:090f5-VtLst-g6" kvg:element="土" kvg:part="2">
			<g id="kvg:090f5-VtLst-g7" kvg:element="千" kvg:part="2">
				<g id="kvg:090f5-VtLst-g8" kvg:element="十" kvg:part="2">
					<path style="stroke: #098dbf;" id="kvg:090f5-VtLst-s7" kvg:type="㇑" d="M17.7,85.43c0.69,1.11,1.95,1.38,2.65,1.11C25.5,84.5,50,76.25,57.75,74.04"/>
				</g>
			</g>
			<path style="stroke: #092abf;" id="kvg:090f5-VtLst-s8" kvg:type="㇐" d="M36.05,23.18c1.07,0.43,1.71,1.93,1.93,2.79c0.21,0.86,0.21,45.42,0.21,53.99"/>
		</g>
	</g>
	<g id="kvg:090f5-VtLst-g9" kvg:element="⻏" kvg:variant="true" kvg:original="邑" kvg:position="right" kvg:radical="general">
		<path style="stroke: #4b09bf;" id="kvg:090f5-VtLst-s9" kvg:type="㇇" d="M70.67,25.02c7.43-1.11,14.91-2.72,18.43-3.83c3.52-1.11,5.04,1.61,3.48,4.2C91,27.98,83.86,41.06,81.12,44.76"/>
		<path style="stroke: #ae09bf;" id="kvg:090f5-VtLst-s10" kvg:type="㇕va" d="M81.12,44.76c20.63,13.49,13.38,45.74,2.46,31.68"/>
		<path style="stroke: #bf096c;" id="kvg:090f5-VtLst-s11" kvg:type="㇑" d="M68.37,22.25c1.09,0.5,1.74,2.25,1.96,3.25c0.22,1,0,67.25-0.22,73.5"/>
	</g>
</g>
</g>
<g id="kvg:StrokeNumbers_090f5-VtLst" style="font-size:8;fill:#808080" transform="scale(3.0,3.0)">
	<text style="fill: #bf0909;" transform="matrix(1 0 0 1 38.25 12.13)">1</text>
	<text style="fill: #bf6c09;" transform="matrix(1 0 0 1 8.25 36.13)">2</text>
	<text style="fill: #aebf09;" transform="matrix(1 0 0 1 3.75 52.63)">3</text>
	<text style="fill: #4bbf09;" transform="matrix(1 0 0 1 14.25 46.63)">4</text>
	<text style="fill: #09bf2a;" transform="matrix(1 0 0 1 44.25 42.13)">5</text>
	<text style="fill: #09bf8d;" transform="matrix(1 0 0 1 8.25 67.63)">6</text>
	<text style="fill: #098dbf;" transform="matrix(1 0 0 1 9.75 91.63)">7</text>
	<text style="fill: #092abf;" transform="matrix(1 0 0 1 30.50 30.50)">8</text>
	<text style="fill: #4b09bf;" transform="matrix(1 0 0 1 72.50 20.50)">9</text>
	<text style="fill: #ae09bf;" transform="matrix(1 0 0 1 75.75 54.13)">10</text>
	<text style="fill: #bf096c;" transform="matrix(1 0 0 1 60.75 32.63)">11</text>
</g>
</svg>
