<?xml version="1.0" encoding="UTF-8"?>
<!--
This file has been modified from the original version by the kanji_colorize.py
script (available at http://github.com/cayennes/kanji-colorize) with these
settings:
    mode: spectrum
    saturation: 0.95
    value: 0.75
    image_size: 327
It remains under a Creative Commons-Attribution-Share Alike 3.0 License.

The original SVG has the following copyright:

Copyright (C) 2009/2010/2011 Ulrich Apel.
This work is distributed under the conditions of the Creative Commons
Attribution-Share Alike 3.0 Licence. This means you are free:
* to Share - to copy, distribute and transmit the work
* to Remix - to adapt the work

Under the following conditions:
* Attribution. You must attribute the work by stating your use of KanjiVG in
  your own copyright header and linking to KanjiVG's website
  (http://kanjivg.tagaini.net)
* Share Alike. If you alter, transform, or build upon this work, you may
  distribute the resulting work only under the same or similar license to this
  one.

See http://creativecommons.org/licenses/by-sa/3.0/ for more details.
-->
<!DOCTYPE svg PUBLIC "-//W3C//DTD SVG 1.0//EN" "http://www.w3.org/TR/2001/REC-SVG-20010904/DTD/svg10.dtd" [
<!ATTLIST g
xmlns:kvg CDATA #FIXED "http://kanjivg.tagaini.net"
kvg:element CDATA #IMPLIED
kvg:variant CDATA #IMPLIED
kvg:partial CDATA #IMPLIED
kvg:original CDATA #IMPLIED
kvg:part CDATA #IMPLIED
kvg:number CDATA #IMPLIED
kvg:tradForm CDATA #IMPLIED
kvg:radicalForm CDATA #IMPLIED
kvg:position CDATA #IMPLIED
kvg:radical CDATA #IMPLIED
kvg:phon CDATA #IMPLIED >
<!ATTLIST path
xmlns:kvg CDATA #FIXED "http://kanjivg.tagaini.net"
kvg:type CDATA #IMPLIED >
]>
<svg xmlns="http://www.w3.org/2000/svg" width="327" height = "327" viewBox="0 0 327 327">
<g id="kvg:StrokePaths_0914b-HyougaiKaisho" style="fill:none;stroke:#000000;stroke-width:3;stroke-linecap:round;stroke-linejoin:round;" transform="scale(3.0,3.0)">
<g id="kvg:0914b-HyougaiKaisho" kvg:element="酋">
	<g id="kvg:0914b-HyougaiKaisho-g1" kvg:element="八" kvg:variant="true" kvg:position="top" kvg:radical="nelson">
		<g id="kvg:0914b-HyougaiKaisho-g2" kvg:position="left">
			<path style="stroke: #bf0909;" id="kvg:0914b-HyougaiKaisho-s1" kvg:type="㇔" d="M34.52,14.02c3.37,1.97,8.7,8.09,9.54,11.16"/>
		</g>
		<g id="kvg:0914b-HyougaiKaisho-g3" kvg:position="right">
			<path style="stroke: #bf8209;" id="kvg:0914b-HyougaiKaisho-s2" kvg:type="㇒" d="M70.78,10.96c0.02,0.41,0.05,1.06-0.05,1.65c-0.6,3.48-4.01,11.12-8.69,15.8"/>
		</g>
	</g>
	<g id="kvg:0914b-HyougaiKaisho-g4" kvg:element="酉" kvg:position="bottom" kvg:radical="tradit">
		<g id="kvg:0914b-HyougaiKaisho-g5" kvg:element="西" kvg:part="1" kvg:original="襾">
			<path style="stroke: #82bf09;" id="kvg:0914b-HyougaiKaisho-s3" kvg:type="㇐" d="M18.4,32.11c1.2,0.47,4.9,0.6,6.1,0.47c8-0.84,49.26-4.32,60.66-4.32c2,0,4.2,0.23,5.2,0.46"/>
			<path style="stroke: #09bf09;" id="kvg:0914b-HyougaiKaisho-s4" kvg:type="㇑" d="M30.48,44.22c0.65,0.7,0.9,2.39,0.9,3.32s-0.43,46.34-0.43,46.8c0,0.47,0.22,0.47,0.43,1.4"/>
			<path style="stroke: #09bf82;" id="kvg:0914b-HyougaiKaisho-s5" kvg:type="㇕a" d="M32.47,46.68c3.7-0.12,40.6-3.73,43.97-3.87c2.81-0.12,4.81,1.12,4.81,3.77c0,1.48-0.39,35.32-0.38,45.59c0,1.06-0.22,1.52-0.22,2.22"/>
			<path style="stroke: #0982bf;" id="kvg:0914b-HyougaiKaisho-s6" kvg:type="㇒" d="M47.48,31.64c1.22,1.09,0.81,2.58,0.82,4.07c0.15,14.65-0.8,26.79-12.33,33.24"/>
			<path style="stroke: #0909bf;" id="kvg:0914b-HyougaiKaisho-s7" kvg:type="㇟a" d="M60.02,32.02c0.66,1.15,1.18,2.5,1.22,4.27c0.12,5.63-0.29,13.2-0.35,20.14c-0.05,6.03,1.85,6.78,8.12,6.78c3.98,0,7.93-0.75,8.39-1.43"/>
		</g>
		<g id="kvg:0914b-HyougaiKaisho-g6" kvg:element="一">
			<path style="stroke: #8209bf;" id="kvg:0914b-HyougaiKaisho-s8" kvg:type="㇐a" d="M40.99,76.17c0.85-0.04,2.36-0.11,4.27-0.19c5.71-0.26,15.01-0.69,21-0.97c2.23-0.1,4-0.18,4.96-0.22"/>
		</g>
		<g id="kvg:0914b-HyougaiKaisho-g7" kvg:element="西" kvg:part="2" kvg:original="襾">
			<path style="stroke: #bf0982;" id="kvg:0914b-HyougaiKaisho-s9" kvg:type="㇐a" d="M32.39,92.63c10.2-0.5,34.85-1.34,47.55-1.77"/>
		</g>
	</g>
</g>
</g>
<g id="kvg:StrokeNumbers_0914b-HyougaiKaisho" style="font-size:8;fill:#808080" transform="scale(3.0,3.0)">
	<text style="fill: #bf0909;" transform="matrix(1 0 0 1 28.50 13.50)">1</text>
	<text style="fill: #bf8209;" transform="matrix(1 0 0 1 62.25 10.50)">2</text>
	<text style="fill: #82bf09;" transform="matrix(1 0 0 1 11.50 32.50)">3</text>
	<text style="fill: #09bf09;" transform="matrix(1 0 0 1 23.50 52.50)">4</text>
	<text style="fill: #09bf82;" transform="matrix(1 0 0 1 33.25 42.50)">5</text>
	<text style="fill: #0982bf;" transform="matrix(1 0 0 1 40.50 39.25)">6</text>
	<text style="fill: #0909bf;" transform="matrix(1 0 0 1 53.50 38.50)">7</text>
	<text style="fill: #8209bf;" transform="matrix(1 0 0 1 38.50 73.50)">8</text>
	<text style="fill: #bf0982;" transform="matrix(1 0 0 1 38.25 89.50)">9</text>
</g>
</svg>
