<?xml version="1.0" encoding="UTF-8"?>
<!--
This file has been modified from the original version by the kanji_colorize.py
script (available at http://github.com/cayennes/kanji-colorize) with these
settings:
    mode: spectrum
    saturation: 0.95
    value: 0.75
    image_size: 327
It remains under a Creative Commons-Attribution-Share Alike 3.0 License.

The original SVG has the following copyright:

Copyright (C) 2009/2010/2011 Ulrich Apel.
This work is distributed under the conditions of the Creative Commons
Attribution-Share Alike 3.0 Licence. This means you are free:
* to Share - to copy, distribute and transmit the work
* to Remix - to adapt the work

Under the following conditions:
* Attribution. You must attribute the work by stating your use of KanjiVG in
  your own copyright header and linking to KanjiVG's website
  (http://kanjivg.tagaini.net)
* Share Alike. If you alter, transform, or build upon this work, you may
  distribute the resulting work only under the same or similar license to this
  one.

See http://creativecommons.org/licenses/by-sa/3.0/ for more details.
-->
<!DOCTYPE svg PUBLIC "-//W3C//DTD SVG 1.0//EN" "http://www.w3.org/TR/2001/REC-SVG-20010904/DTD/svg10.dtd" [
<!ATTLIST g
xmlns:kvg CDATA #FIXED "http://kanjivg.tagaini.net"
kvg:element CDATA #IMPLIED
kvg:variant CDATA #IMPLIED
kvg:partial CDATA #IMPLIED
kvg:original CDATA #IMPLIED
kvg:part CDATA #IMPLIED
kvg:number CDATA #IMPLIED
kvg:tradForm CDATA #IMPLIED
kvg:radicalForm CDATA #IMPLIED
kvg:position CDATA #IMPLIED
kvg:radical CDATA #IMPLIED
kvg:phon CDATA #IMPLIED >
<!ATTLIST path
xmlns:kvg CDATA #FIXED "http://kanjivg.tagaini.net"
kvg:type CDATA #IMPLIED >
]>
<svg xmlns="http://www.w3.org/2000/svg" width="327" height = "327" viewBox="0 0 327 327">
<g id="kvg:StrokePaths_0916c-Kaisho" style="fill:none;stroke:#000000;stroke-width:3;stroke-linecap:round;stroke-linejoin:round;" transform="scale(3.0,3.0)">
<g id="kvg:0916c-Kaisho" kvg:element="酬">
	<g id="kvg:0916c-Kaisho-g1" kvg:element="酉" kvg:position="left" kvg:radical="general">
		<g id="kvg:0916c-Kaisho-g2" kvg:element="西" kvg:part="1" kvg:original="襾">
			<path style="stroke: #bf0909;" id="kvg:0916c-Kaisho-s1" kvg:type="㇐" d="M11.79,23.66c0.62,0.37,3.75,0.93,4.39,0.87C22.75,24,38.5,22,41.26,21.74c1.57-0.14,3.34-0.62,4.68-0.13"/>
			<path style="stroke: #bf5d09;" id="kvg:0916c-Kaisho-s2" kvg:type="㇑" d="M14.13,36.32c0.4,0.66,0.55,2.23,0.55,3.11s-0.27,48.84-0.27,49.27"/>
			<path style="stroke: #bfb109;" id="kvg:0916c-Kaisho-s3" kvg:type="㇕a" d="M14.87,38.68c2.27-0.11,23.28-3.34,25.33-3.62c2.13-0.28,3.4,1.05,3.4,3.52c0,1.38-0.21,38.97-0.2,48.58"/>
			<path style="stroke: #79bf09;" id="kvg:0916c-Kaisho-s4" kvg:type="㇒" d="M22.84,26.24c0.5,1.08,0.33,2.06,0.34,3.54c0.06,14.5-0.32,21.79-4.66,31.92"/>
			<path style="stroke: #25bf09;" id="kvg:0916c-Kaisho-s5" kvg:type="㇟a" d="M30.88,24.91c0.42,1.12,0.76,2.43,0.79,4.15c0.08,5.47-0.19,14.23-0.22,20.98c-0.03,5.86,1.31,7.07,4.29,7.07c3.02,0,4.6-0.2,4.89-0.86"/>
		</g>
		<g id="kvg:0916c-Kaisho-g3" kvg:element="一">
			<path style="stroke: #09bf41;" id="kvg:0916c-Kaisho-s6" kvg:type="㇐a" d="M20.46,70.94c0.63-0.07,1.29-0.14,1.98-0.21c4.49-0.5,8.98-1.03,13.47-1.51c0.7-0.08,1.37-0.15,2.01-0.21"/>
		</g>
		<g id="kvg:0916c-Kaisho-g4" kvg:element="西" kvg:part="2" kvg:original="襾">
			<path style="stroke: #09bf95;" id="kvg:0916c-Kaisho-s7" kvg:type="㇐a" d="M15.13,85.06c6.25-0.47,20.42-1.72,28.2-2.12"/>
		</g>
	</g>
	<g id="kvg:0916c-Kaisho-g5" kvg:element="州" kvg:position="right">
		<g id="kvg:0916c-Kaisho-g6" kvg:element="丶">
			<path style="stroke: #0995bf;" id="kvg:0916c-Kaisho-s8" kvg:type="㇔" d="M52.6,47.75c-0.01,5.58-0.51,9.58-2.29,14.13"/>
		</g>
		<g id="kvg:0916c-Kaisho-g7" kvg:element="川" kvg:part="1" kvg:variant="true" kvg:original="巛">
			<path style="stroke: #0941bf;" id="kvg:0916c-Kaisho-s9" kvg:type="㇒" d="M57.27,23.93c0.92,1.9,1.76,4.62,1.78,6.62c0.11,12.96,2.02,45.8-11.75,60.19"/>
		</g>
		<g id="kvg:0916c-Kaisho-g8" kvg:element="丶">
			<path style="stroke: #2509bf;" id="kvg:0916c-Kaisho-s10" kvg:type="㇔" d="M64.52,43.17c1.46,1.69,3.76,6.93,4.13,9.55"/>
		</g>
		<g id="kvg:0916c-Kaisho-g9" kvg:element="川" kvg:part="2" kvg:variant="true" kvg:original="巛">
			<path style="stroke: #7909bf;" id="kvg:0916c-Kaisho-s11" kvg:type="㇑" d="M73.75,20.63c0.43,0.36,1.33,2.69,1.41,3.4c0.09,0.72-0.05,58.36-0.14,62.85"/>
		</g>
		<g id="kvg:0916c-Kaisho-g10" kvg:element="丶">
			<path style="stroke: #bf09b1;" id="kvg:0916c-Kaisho-s12" kvg:type="㇔" d="M82.01,41.17c1.63,1.95,4.22,8.02,4.63,11.05"/>
		</g>
		<g id="kvg:0916c-Kaisho-g11" kvg:element="川" kvg:variant="true" kvg:original="巛">
			<path style="stroke: #bf095d;" id="kvg:0916c-Kaisho-s13" kvg:type="㇑" d="M90.31,17.13c0.76,0.45,2.36,3.35,2.51,4.25c0.15,0.9-0.1,68.15-0.25,73.75"/>
		</g>
	</g>
</g>
</g>
<g id="kvg:StrokeNumbers_0916c-Kaisho" style="font-size:8;fill:#808080" transform="scale(3.0,3.0)">
	<text style="fill: #bf0909;" transform="matrix(1 0 0 1 5.50 24.50)">1</text>
	<text style="fill: #bf5d09;" transform="matrix(1 0 0 1 5.50 42.50)">2</text>
	<text style="fill: #bfb109;" transform="matrix(1 0 0 1 13.50 35.50)">3</text>
	<text style="fill: #79bf09;" transform="matrix(1 0 0 1 16.50 31.50)">4</text>
	<text style="fill: #25bf09;" transform="matrix(1 0 0 1 26.50 31.50)">5</text>
	<text style="fill: #09bf41;" transform="matrix(1 0 0 1 19.50 67.63)">6</text>
	<text style="fill: #09bf95;" transform="matrix(1 0 0 1 19.50 82.55)">7</text>
	<text style="fill: #0995bf;" transform="matrix(1 0 0 1 49.50 43.50)">8</text>
	<text style="fill: #0941bf;" transform="matrix(1 0 0 1 52.50 22.50)">9</text>
	<text style="fill: #2509bf;" transform="matrix(1 0 0 1 62.25 40.50)">10</text>
	<text style="fill: #7909bf;" transform="matrix(1 0 0 1 62.50 19.50)">11</text>
	<text style="fill: #bf09b1;" transform="matrix(1 0 0 1 78.50 38.50)">12</text>
	<text style="fill: #bf095d;" transform="matrix(1 0 0 1 79.50 16.50)">13</text>
</g>
</svg>
