<?xml version="1.0" encoding="UTF-8"?>
<!--
This file has been modified from the original version by the kanji_colorize.py
script (available at http://github.com/cayennes/kanji-colorize) with these
settings:
    mode: spectrum
    saturation: 0.95
    value: 0.75
    image_size: 327
It remains under a Creative Commons-Attribution-Share Alike 3.0 License.

The original SVG has the following copyright:

Copyright (C) 2009/2010/2011 Ulrich Apel.
This work is distributed under the conditions of the Creative Commons
Attribution-Share Alike 3.0 Licence. This means you are free:
* to Share - to copy, distribute and transmit the work
* to Remix - to adapt the work

Under the following conditions:
* Attribution. You must attribute the work by stating your use of KanjiVG in
  your own copyright header and linking to KanjiVG's website
  (http://kanjivg.tagaini.net)
* Share Alike. If you alter, transform, or build upon this work, you may
  distribute the resulting work only under the same or similar license to this
  one.

See http://creativecommons.org/licenses/by-sa/3.0/ for more details.
-->
<!DOCTYPE svg PUBLIC "-//W3C//DTD SVG 1.0//EN" "http://www.w3.org/TR/2001/REC-SVG-20010904/DTD/svg10.dtd" [
<!ATTLIST g
xmlns:kvg CDATA #FIXED "http://kanjivg.tagaini.net"
kvg:element CDATA #IMPLIED
kvg:variant CDATA #IMPLIED
kvg:partial CDATA #IMPLIED
kvg:original CDATA #IMPLIED
kvg:part CDATA #IMPLIED
kvg:number CDATA #IMPLIED
kvg:tradForm CDATA #IMPLIED
kvg:radicalForm CDATA #IMPLIED
kvg:position CDATA #IMPLIED
kvg:radical CDATA #IMPLIED
kvg:phon CDATA #IMPLIED >
<!ATTLIST path
xmlns:kvg CDATA #FIXED "http://kanjivg.tagaini.net"
kvg:type CDATA #IMPLIED >
]>
<svg xmlns="http://www.w3.org/2000/svg" width="327" height = "327" viewBox="0 0 327 327">
<g id="kvg:StrokePaths_09396-Kaisho" style="fill:none;stroke:#000000;stroke-width:3;stroke-linecap:round;stroke-linejoin:round;" transform="scale(3.0,3.0)">
<g id="kvg:09396-Kaisho" kvg:element="鎖">
	<g id="kvg:09396-Kaisho-g1" kvg:element="金" kvg:position="left" kvg:radical="general">
		<path style="stroke: #bf0909;" id="kvg:09396-Kaisho-s1" kvg:type="㇒" d="M34.25,16.49c0,0.71,0.05,1.28-0.15,2.14c-1.05,4.47-11.56,19.38-20.13,25.99"/>
		<path style="stroke: #bf4609;" id="kvg:09396-Kaisho-s2" kvg:type="㇔/㇏" d="M35.89,21.71C40.72,23.7,47.9,28.99,50.25,34"/>
		<path style="stroke: #bf8209;" id="kvg:09396-Kaisho-s3" kvg:type="㇐" d="M21,42.76c1.97,0,2.86,0.12,3.5,0.07c5.68-0.41,11.5-2.58,18.44-3.3c0.96-0.1,1.18-0.07,2.82-0.07"/>
		<path style="stroke: #bfbf09;" id="kvg:09396-Kaisho-s4" kvg:type="㇐" d="M16.09,56.81c0.59,0.33,2.56,0.48,3.17,0.43c5.49-0.49,17.24-2.99,25.78-4.67c0.73-0.14,2.38-0.13,3.49,0.15"/>
		<path style="stroke: #82bf09;" id="kvg:09396-Kaisho-s5" kvg:type="㇑a" d="M32.45,44.19c1.24,0.78,1.24,2.52,1.24,3.14c0,4.35,0.31,27.42,0.31,36.48"/>
		<path style="stroke: #46bf09;" id="kvg:09396-Kaisho-s6" kvg:type="㇔" d="M17.89,67.01c4.67,4.57,6.95,9.52,7.9,12.19"/>
		<path style="stroke: #09bf09;" id="kvg:09396-Kaisho-s7" kvg:type="㇒" d="M46.67,61.05c0.33,0.84,0.5,2.06,0.37,2.76c-0.33,1.81-2.93,5.13-6.62,10.47"/>
		<path style="stroke: #09bf46;" id="kvg:09396-Kaisho-s8" kvg:type="㇀/㇐" d="M17,90.75c2,0.5,2.94,0.23,4-0.25c5-2.25,12.5-6.25,24.75-12.25"/>
	</g>
	<g id="kvg:09396-Kaisho-g2" kvg:position="right">
		<g id="kvg:09396-Kaisho-g3" kvg:element="⺌" kvg:variant="true" kvg:original="小" kvg:position="top">
			<path style="stroke: #09bf82;" id="kvg:09396-Kaisho-s9" kvg:type="㇑" d="M71.96,12.87c0.09,0.26,1.26,1.35,1.26,2.99c0,11.14,0.24,20.07,0.24,22.76"/>
			<path style="stroke: #09bfbf;" id="kvg:09396-Kaisho-s10" kvg:type="㇔" d="M54.27,20.91c3.21,2.22,8.29,9.13,9.09,12.58"/>
			<path style="stroke: #0982bf;" id="kvg:09396-Kaisho-s11" kvg:type="㇒" d="M90.51,17.22c0.03,0.36,0.05,1.44-0.05,1.96c-0.61,3.09-4.14,9.36-8.96,13.51"/>
		</g>
		<g id="kvg:09396-Kaisho-g4" kvg:element="貝" kvg:position="bottom">
			<g id="kvg:09396-Kaisho-g5" kvg:element="目" kvg:position="top">
				<path style="stroke: #0946bf;" id="kvg:09396-Kaisho-s12" kvg:type="㇑" d="M58.11,38.61c0.48,0.86,1.17,1.5,1.17,2.64c0,1.14,0.18,35.94,0.18,36.52"/>
				<path style="stroke: #0909bf;" id="kvg:09396-Kaisho-s13" kvg:type="㇕a" d="M60.08,40.1c2.7-0.14,23.79-2.47,26.25-2.65c2.05-0.14,3.02,1.29,3,2.36c-0.08,4.44-0.8,24.46-0.79,37.04"/>
				<path style="stroke: #4609bf;" id="kvg:09396-Kaisho-s14" kvg:type="㇐a" d="M60.04,51.19c4.47,0,9-0.72,13.44-1.16c1.45-0.15,2.9-0.29,4.29-0.43"/>
				<path style="stroke: #8209bf;" id="kvg:09396-Kaisho-s15" kvg:type="㇐a" d="M60.26,62.71c4.25,0,8.52-0.5,12.75-0.86c1.28-0.11,2.58-0.21,3.85-0.32"/>
				<path style="stroke: #bf09bf;" id="kvg:09396-Kaisho-s16" kvg:type="㇐a" d="M60.95,74.86c5.37,0,19.74-1.72,26.69-1.72"/>
			</g>
			<g id="kvg:09396-Kaisho-g6" kvg:position="bottom">
				<path style="stroke: #bf0982;" id="kvg:09396-Kaisho-s17" kvg:type="㇒" d="M63.38,79.65c0.38,1.53,0.76,1.94,0,3.06c-2.29,3.36-9.36,11.61-13.94,15.58"/>
				<path style="stroke: #bf0946;" id="kvg:09396-Kaisho-s18" kvg:type="㇔" d="M80.65,81.07c5.98,4.08,13.04,11.47,14.67,15.04"/>
			</g>
		</g>
	</g>
</g>
</g>
<g id="kvg:StrokeNumbers_09396-Kaisho" style="font-size:8;fill:#808080" transform="scale(3.0,3.0)">
	<text style="fill: #bf0909;" transform="matrix(1 0 0 1 27.75 18.13)">1</text>
	<text style="fill: #bf4609;" transform="matrix(1 0 0 1 40.50 21.50)">2</text>
	<text style="fill: #bf8209;" transform="matrix(1 0 0 1 28.50 39.13)">3</text>
	<text style="fill: #bfbf09;" transform="matrix(1 0 0 1 15.50 54.05)">4</text>
	<text style="fill: #82bf09;" transform="matrix(1 0 0 1 25.50 51.50)">5</text>
	<text style="fill: #46bf09;" transform="matrix(1 0 0 1 11.25 69.13)">6</text>
	<text style="fill: #09bf09;" transform="matrix(1 0 0 1 39.75 63.50)">7</text>
	<text style="fill: #09bf46;" transform="matrix(1 0 0 1 10.50 95.50)">8</text>
	<text style="fill: #09bf82;" transform="matrix(1 0 0 1 63.50 13.50)">9</text>
	<text style="fill: #09bfbf;" transform="matrix(1 0 0 1 49.50 17.50)">10</text>
	<text style="fill: #0982bf;" transform="matrix(1 0 0 1 80.50 16.50)">11</text>
	<text style="fill: #0946bf;" transform="matrix(1 0 0 1 49.50 46.50)">12</text>
	<text style="fill: #0909bf;" transform="matrix(1 0 0 1 63.75 37.63)">13</text>
	<text style="fill: #4609bf;" transform="matrix(1 0 0 1 63.75 48.05)">14</text>
	<text style="fill: #8209bf;" transform="matrix(1 0 0 1 63.75 59.98)">15</text>
	<text style="fill: #bf09bf;" transform="matrix(1 0 0 1 63.75 71.90)">16</text>
	<text style="fill: #bf0982;" transform="matrix(1 0 0 1 51.75 85.33)">17</text>
	<text style="fill: #bf0946;" transform="matrix(1 0 0 1 72.75 85.63)">18</text>
</g>
</svg>
