<?xml version="1.0" encoding="UTF-8"?>
<!--
This file has been modified from the original version by the kanji_colorize.py
script (available at http://github.com/cayennes/kanji-colorize) with these
settings:
    mode: spectrum
    saturation: 0.95
    value: 0.75
    image_size: 327
It remains under a Creative Commons-Attribution-Share Alike 3.0 License.

The original SVG has the following copyright:

Copyright (C) 2009/2010/2011 Ulrich Apel.
This work is distributed under the conditions of the Creative Commons
Attribution-Share Alike 3.0 Licence. This means you are free:
* to Share - to copy, distribute and transmit the work
* to Remix - to adapt the work

Under the following conditions:
* Attribution. You must attribute the work by stating your use of KanjiVG in
  your own copyright header and linking to KanjiVG's website
  (http://kanjivg.tagaini.net)
* Share Alike. If you alter, transform, or build upon this work, you may
  distribute the resulting work only under the same or similar license to this
  one.

See http://creativecommons.org/licenses/by-sa/3.0/ for more details.
-->
<!DOCTYPE svg PUBLIC "-//W3C//DTD SVG 1.0//EN" "http://www.w3.org/TR/2001/REC-SVG-20010904/DTD/svg10.dtd" [
<!ATTLIST g
xmlns:kvg CDATA #FIXED "http://kanjivg.tagaini.net"
kvg:element CDATA #IMPLIED
kvg:variant CDATA #IMPLIED
kvg:partial CDATA #IMPLIED
kvg:original CDATA #IMPLIED
kvg:part CDATA #IMPLIED
kvg:number CDATA #IMPLIED
kvg:tradForm CDATA #IMPLIED
kvg:radicalForm CDATA #IMPLIED
kvg:position CDATA #IMPLIED
kvg:radical CDATA #IMPLIED
kvg:phon CDATA #IMPLIED >
<!ATTLIST path
xmlns:kvg CDATA #FIXED "http://kanjivg.tagaini.net"
kvg:type CDATA #IMPLIED >
]>
<svg xmlns="http://www.w3.org/2000/svg" width="327" height = "327" viewBox="0 0 327 327">
<g id="kvg:StrokePaths_09580-Kaisho" style="fill:none;stroke:#000000;stroke-width:3;stroke-linecap:round;stroke-linejoin:round;" transform="scale(3.0,3.0)">
<g id="kvg:09580-Kaisho" kvg:element="門" kvg:radical="general">
	<g id="kvg:09580-Kaisho-g1" kvg:position="left">
		<path style="stroke: #bf0909;" id="kvg:09580-Kaisho-s1" kvg:type="㇑" d="M16.14,14.22c0.76,0.45,2.36,3.35,2.51,4.25c0.15,0.9-0.1,68.15-0.25,73.75"/>
		<path style="stroke: #bf9109;" id="kvg:09580-Kaisho-s2" kvg:type="㇕a" d="M18.86,17.32c2.52-0.12,19.94-2.47,22.23-2.61c1.91-0.12,2.9,1.04,3,1.96c0.14,1.41-1.59,25.52-1.59,26.21"/>
		<path style="stroke: #64bf09;" id="kvg:09580-Kaisho-s3" kvg:type="㇐a" d="M19.31,29.68C25.5,29,36.5,27.25,42.46,26.52"/>
		<path style="stroke: #09bf36;" id="kvg:09580-Kaisho-s4" kvg:type="㇐a" d="M18.86,44.07c8.39-1.32,14.89-2.32,22.3-2.92"/>
	</g>
	<g id="kvg:09580-Kaisho-g2" kvg:position="right">
		<path style="stroke: #09bfbf;" id="kvg:09580-Kaisho-s5" kvg:type="㇑" d="M61.96,13.47c0.46,0.61,0.92,1.92,0.92,2.73c0,0.81-0.15,23.23,0,24.05"/>
		<path style="stroke: #0936bf;" id="kvg:09580-Kaisho-s6" kvg:type="㇆a" d="M63.63,14.57c2.58-0.1,22.2-2.21,24.55-2.33c1.96-0.1,3.08,1.11,3.07,1.73C90.75,32.75,90.74,76,90.74,89.62c0.01,11.13-5.99,3.13-10.24-0.62"/>
		<path style="stroke: #6409bf;" id="kvg:09580-Kaisho-s7" kvg:type="㇐a" d="M64.09,26.39c3.49,0,21.55-1.92,25.5-1.92"/>
		<path style="stroke: #bf0991;" id="kvg:09580-Kaisho-s8" kvg:type="㇐a" d="M63.63,39.13c5.16,0,18.97-1.72,25.65-1.72"/>
	</g>
</g>
</g>
<g id="kvg:StrokeNumbers_09580-Kaisho" style="font-size:8;fill:#808080" transform="scale(3.0,3.0)">
	<text style="fill: #bf0909;" transform="matrix(1 0 0 1 9.50 22.50)">1</text>
	<text style="fill: #bf9109;" transform="matrix(1 0 0 1 20.50 13.50)">2</text>
	<text style="fill: #64bf09;" transform="matrix(1 0 0 1 22.50 26.50)">3</text>
	<text style="fill: #09bf36;" transform="matrix(1 0 0 1 22.50 39.50)">4</text>
	<text style="fill: #09bfbf;" transform="matrix(1 0 0 1 53.50 19.50)">5</text>
	<text style="fill: #0936bf;" transform="matrix(1 0 0 1 63.50 11.50)">6</text>
	<text style="fill: #6409bf;" transform="matrix(1 0 0 1 66.50 23.50)">7</text>
	<text style="fill: #bf0991;" transform="matrix(1 0 0 1 66.50 35.50)">8</text>
</g>
</svg>
