<?xml version="1.0" encoding="UTF-8"?>
<!--
This file has been modified from the original version by the kanji_colorize.py
script (available at http://github.com/cayennes/kanji-colorize) with these
settings:
    mode: spectrum
    saturation: 0.95
    value: 0.75
    image_size: 327
It remains under a Creative Commons-Attribution-Share Alike 3.0 License.

The original SVG has the following copyright:

Copyright (C) 2009/2010/2011 Ulrich Apel.
This work is distributed under the conditions of the Creative Commons
Attribution-Share Alike 3.0 Licence. This means you are free:
* to Share - to copy, distribute and transmit the work
* to Remix - to adapt the work

Under the following conditions:
* Attribution. You must attribute the work by stating your use of KanjiVG in
  your own copyright header and linking to KanjiVG's website
  (http://kanjivg.tagaini.net)
* Share Alike. If you alter, transform, or build upon this work, you may
  distribute the resulting work only under the same or similar license to this
  one.

See http://creativecommons.org/licenses/by-sa/3.0/ for more details.
-->
<!DOCTYPE svg PUBLIC "-//W3C//DTD SVG 1.0//EN" "http://www.w3.org/TR/2001/REC-SVG-20010904/DTD/svg10.dtd" [
<!ATTLIST g
xmlns:kvg CDATA #FIXED "http://kanjivg.tagaini.net"
kvg:element CDATA #IMPLIED
kvg:variant CDATA #IMPLIED
kvg:partial CDATA #IMPLIED
kvg:original CDATA #IMPLIED
kvg:part CDATA #IMPLIED
kvg:number CDATA #IMPLIED
kvg:tradForm CDATA #IMPLIED
kvg:radicalForm CDATA #IMPLIED
kvg:position CDATA #IMPLIED
kvg:radical CDATA #IMPLIED
kvg:phon CDATA #IMPLIED >
<!ATTLIST path
xmlns:kvg CDATA #FIXED "http://kanjivg.tagaini.net"
kvg:type CDATA #IMPLIED >
]>
<svg xmlns="http://www.w3.org/2000/svg" width="327" height = "327" viewBox="0 0 327 327">
<g id="kvg:StrokePaths_09673-Kaisho" style="fill:none;stroke:#000000;stroke-width:3;stroke-linecap:round;stroke-linejoin:round;" transform="scale(3.0,3.0)">
<g id="kvg:09673-Kaisho" kvg:element="陳">
	<g id="kvg:09673-Kaisho-g1" kvg:element="⻖" kvg:variant="true" kvg:original="阜" kvg:position="left" kvg:radical="general">
		<path style="stroke: #bf0909;" id="kvg:09673-Kaisho-s1" kvg:type="㇇" d="M18.17,22.17c6.33-1,11-2,14-3s6,1,4.67,3.33c-1.33,2.33-7,13.67-9.33,17"/>
		<path style="stroke: #bf6c09;" id="kvg:09673-Kaisho-s2" kvg:type="㇕va" d="M27.5,39.5c13.33,8.33,13.67,33.33,1.67,29"/>
		<path style="stroke: #aebf09;" id="kvg:09673-Kaisho-s3" kvg:type="㇑" d="M16.37,20.25c1.09,0.5,1.74,2.25,1.96,3.25c0.22,1,0,64.75-0.22,71"/>
	</g>
	<g id="kvg:09673-Kaisho-g2" kvg:element="東" kvg:position="right">
		<g id="kvg:09673-Kaisho-g3" kvg:element="木" kvg:part="1">
			<path style="stroke: #4bbf09;" id="kvg:09673-Kaisho-s4" kvg:type="㇐" d="M45.21,26.17c0.82,0.38,2.32,0.42,3.15,0.38c8.55-0.43,24.39-3,35.19-3.32c1.37-0.04,2.19,0.18,2.88,0.37"/>
		</g>
		<g id="kvg:09673-Kaisho-g4" kvg:element="日">
			<path style="stroke: #09bf2a;" id="kvg:09673-Kaisho-s5" kvg:type="㇑" d="M44.41,38.68c0.34,0.35,1.38,1.45,1.38,2.3c0,0.85,3.94,22.26,4.08,23.11"/>
			<path style="stroke: #09bf8d;" id="kvg:09673-Kaisho-s6" kvg:type="㇕a" d="M46.53,39.66c6.47-0.63,35.67-3.95,37.93-4.07c1.89-0.11,3.05,2.59,2.96,3.23c-0.92,6.85-1.67,11.52-3.62,21.85"/>
			<path style="stroke: #098dbf;" id="kvg:09673-Kaisho-s7" kvg:type="㇐a" d="M48.07,50.91c6.63-0.72,13.26-1.34,19.9-1.96c2.05-0.19,4.08-0.37,6-0.54"/>
			<path style="stroke: #092abf;" id="kvg:09673-Kaisho-s8" kvg:type="㇐a" d="M50.89,61.2c6.86-0.46,23.78-2.61,32.32-3"/>
		</g>
		<g id="kvg:09673-Kaisho-g5" kvg:element="木" kvg:part="2">
			<path style="stroke: #4b09bf;" id="kvg:09673-Kaisho-s9" kvg:type="㇑" d="M63.44,12.5c1.09,0.49,1.75,2.21,1.97,3.19s-0.22,70.41-0.22,76.56c0,12.5-5.81,2.38-6.69,1.5"/>
			<path style="stroke: #ae09bf;" id="kvg:09673-Kaisho-s10" kvg:type="㇒" d="M65.19,59.66C59.96,70.12,46.37,84.92,35.5,90.84"/>
			<path style="stroke: #bf096c;" id="kvg:09673-Kaisho-s11" kvg:type="㇏" d="M66.19,60.16c7.11,8.92,21.89,22.42,26.72,25.11c1.65,0.92,2.82,1.78,4.34,2.14"/>
		</g>
	</g>
</g>
</g>
<g id="kvg:StrokeNumbers_09673-Kaisho" style="font-size:8;fill:#808080" transform="scale(3.0,3.0)">
	<text style="fill: #bf0909;" transform="matrix(1 0 0 1 20.25 18.13)">1</text>
	<text style="fill: #bf6c09;" transform="matrix(1 0 0 1 23.25 48.05)">2</text>
	<text style="fill: #aebf09;" transform="matrix(1 0 0 1 9.75 28.63)">3</text>
	<text style="fill: #4bbf09;" transform="matrix(1 0 0 1 45.50 23.50)">4</text>
	<text style="fill: #09bf2a;" transform="matrix(1 0 0 1 38.25 46.55)">5</text>
	<text style="fill: #09bf8d;" transform="matrix(1 0 0 1 47.25 36.50)">6</text>
	<text style="fill: #098dbf;" transform="matrix(1 0 0 1 52.50 48.05)">7</text>
	<text style="fill: #092abf;" transform="matrix(1 0 0 1 52.50 58.48)">8</text>
	<text style="fill: #4b09bf;" transform="matrix(1 0 0 1 53.50 12.50)">9</text>
	<text style="fill: #ae09bf;" transform="matrix(1 0 0 1 45.50 73.50)">10</text>
	<text style="fill: #bf096c;" transform="matrix(1 0 0 1 79.50 71.50)">11</text>
</g>
</svg>
