<?xml version="1.0" encoding="UTF-8"?>
<!--
This file has been modified from the original version by the kanji_colorize.py
script (available at http://github.com/cayennes/kanji-colorize) with these
settings:
    mode: spectrum
    saturation: 0.95
    value: 0.75
    image_size: 327
It remains under a Creative Commons-Attribution-Share Alike 3.0 License.

The original SVG has the following copyright:

Copyright (C) 2009/2010/2011 Ulrich Apel.
This work is distributed under the conditions of the Creative Commons
Attribution-Share Alike 3.0 Licence. This means you are free:
* to Share - to copy, distribute and transmit the work
* to Remix - to adapt the work

Under the following conditions:
* Attribution. You must attribute the work by stating your use of KanjiVG in
  your own copyright header and linking to KanjiVG's website
  (http://kanjivg.tagaini.net)
* Share Alike. If you alter, transform, or build upon this work, you may
  distribute the resulting work only under the same or similar license to this
  one.

See http://creativecommons.org/licenses/by-sa/3.0/ for more details.
-->
<!DOCTYPE svg PUBLIC "-//W3C//DTD SVG 1.0//EN" "http://www.w3.org/TR/2001/REC-SVG-20010904/DTD/svg10.dtd" [
<!ATTLIST g
xmlns:kvg CDATA #FIXED "http://kanjivg.tagaini.net"
kvg:element CDATA #IMPLIED
kvg:variant CDATA #IMPLIED
kvg:partial CDATA #IMPLIED
kvg:original CDATA #IMPLIED
kvg:part CDATA #IMPLIED
kvg:number CDATA #IMPLIED
kvg:tradForm CDATA #IMPLIED
kvg:radicalForm CDATA #IMPLIED
kvg:position CDATA #IMPLIED
kvg:radical CDATA #IMPLIED
kvg:phon CDATA #IMPLIED >
<!ATTLIST path
xmlns:kvg CDATA #FIXED "http://kanjivg.tagaini.net"
kvg:type CDATA #IMPLIED >
]>
<svg xmlns="http://www.w3.org/2000/svg" width="327" height = "327" viewBox="0 0 327 327">
<g id="kvg:StrokePaths_096a0-Kaisho" style="fill:none;stroke:#000000;stroke-width:3;stroke-linecap:round;stroke-linejoin:round;" transform="scale(3.0,3.0)">
<g id="kvg:096a0-Kaisho" kvg:element="隠">
	<g id="kvg:096a0-Kaisho-g1" kvg:element="⻖" kvg:variant="true" kvg:original="阜" kvg:position="left" kvg:radical="general">
		<path style="stroke: #bf0909;" id="kvg:096a0-Kaisho-s1" kvg:type="㇇" d="M18.67,19.67c6.33-1,11-2,14-3s6,1,4.67,3.33c-1.33,2.33-6.5,15.67-8.83,19"/>
		<path style="stroke: #bf5709;" id="kvg:096a0-Kaisho-s2" kvg:type="㇕va" d="M28,39.5c10.5,9.5,11.25,34-0.33,26"/>
		<path style="stroke: #bfa509;" id="kvg:096a0-Kaisho-s3" kvg:type="㇑" d="M16.87,18.25c1.09,0.5,1.74,2.25,1.96,3.25c0.22,1,0,67.25-0.22,73.5"/>
	</g>
	<g id="kvg:096a0-Kaisho-g2" kvg:position="right">
		<g id="kvg:096a0-Kaisho-g3" kvg:element="⺤" kvg:variant="true" kvg:original="爪">
			<path style="stroke: #8bbf09;" id="kvg:096a0-Kaisho-s4" kvg:type="㇒" d="M74.76,13.39c0.08,0.27,0.16,0.7-0.15,1.09c-1.84,2.29-14.36,7.27-27.32,9.38"/>
			<path style="stroke: #3dbf09;" id="kvg:096a0-Kaisho-s5" kvg:type="㇔" d="M47.39,26.85c1.79,1.83,4.63,7.52,5.07,10.36"/>
			<path style="stroke: #09bf23;" id="kvg:096a0-Kaisho-s6" kvg:type="㇔" d="M61.19,26.53c1.9,1.71,4.9,7.01,5.38,9.67"/>
			<path style="stroke: #09bf71;" id="kvg:096a0-Kaisho-s7" kvg:type="㇒" d="M83.65,22.66c0.03,0.34,0.06,0.87-0.06,1.35c-0.69,2.85-4.62,9.09-10.01,12.92"/>
		</g>
		<g id="kvg:096a0-Kaisho-g4" kvg:element="⺕" kvg:variant="true" kvg:original="彑">
			<path style="stroke: #09bfbf;" id="kvg:096a0-Kaisho-s8" kvg:type="㇕" d="M45.16,42.94c1.77,0.22,2.62,0.59,4.25,0.44C59.31,42.49,71,40.5,79.12,39.5c2.28-0.28,3.89,1.11,3.54,3.32c-0.92,5.8-2.41,13.18-3.83,21.12"/>
			<path style="stroke: #0971bf;" id="kvg:096a0-Kaisho-s9" kvg:type="㇐c" d="M45.38,52.96c1.46,0.16,2.61,0.52,4.23,0.33c4.93-0.6,12.32-1.64,18.9-2.44c1.95-0.24,3.82-0.45,5.54-0.63"/>
			<path style="stroke: #0923bf;" id="kvg:096a0-Kaisho-s10" kvg:type="㇐c" d="M45.99,63.99c1.11,0.14,3.11,0.54,4.43,0.41c11.33-1.14,21.08-3.14,28.69-3.53"/>
		</g>
		<g id="kvg:096a0-Kaisho-g5" kvg:element="心">
			<path style="stroke: #3d09bf;" id="kvg:096a0-Kaisho-s11" kvg:type="㇔" d="M40.51,77.78c0.27,2.27-2.7,12.32-4.86,16.11"/>
			<path style="stroke: #8b09bf;" id="kvg:096a0-Kaisho-s12" kvg:type="㇟b" d="M49.93,73.38C56.75,91,67.25,95.5,84.07,93.89c6.9-0.66,7.43-4.14,1.74-7.26"/>
			<path style="stroke: #bf09a5;" id="kvg:096a0-Kaisho-s13" kvg:type="㇔a" d="M61.94,71.99c1.28,2.72,4.31,9.01,5.44,3.96"/>
			<path style="stroke: #bf0957;" id="kvg:096a0-Kaisho-s14" kvg:type="㇔" d="M85.42,69.81c3.33,2.69,7.08,6.69,9.81,12.05"/>
		</g>
	</g>
</g>
</g>
<g id="kvg:StrokeNumbers_096a0-Kaisho" style="font-size:8;fill:#808080" transform="scale(3.0,3.0)">
	<text style="fill: #bf0909;" transform="matrix(1 0 0 1 20.25 15.13)">1</text>
	<text style="fill: #bf5709;" transform="matrix(1 0 0 1 24.75 49.55)">2</text>
	<text style="fill: #bfa509;" transform="matrix(1 0 0 1 9.75 27.13)">3</text>
	<text style="fill: #8bbf09;" transform="matrix(1 0 0 1 66.50 12.13)">4</text>
	<text style="fill: #3dbf09;" transform="matrix(1 0 0 1 41.50 33.50)">5</text>
	<text style="fill: #09bf23;" transform="matrix(1 0 0 1 56.25 33.50)">6</text>
	<text style="fill: #09bf71;" transform="matrix(1 0 0 1 75.75 26.98)">7</text>
	<text style="fill: #09bfbf;" transform="matrix(1 0 0 1 38.25 44.50)">8</text>
	<text style="fill: #0971bf;" transform="matrix(1 0 0 1 39.50 55.55)">9</text>
	<text style="fill: #0923bf;" transform="matrix(1 0 0 1 38.25 67.48)">10</text>
	<text style="fill: #3d09bf;" transform="matrix(1 0 0 1 30.50 80.91)">11</text>
	<text style="fill: #8b09bf;" transform="matrix(1 0 0 1 44.25 88.71)">12</text>
	<text style="fill: #bf09a5;" transform="matrix(1 0 0 1 52.50 74.75)">13</text>
	<text style="fill: #bf0957;" transform="matrix(1 0 0 1 75.50 73.50)">14</text>
</g>
</svg>
