<?xml version="1.0" encoding="UTF-8"?>
<!--
This file has been modified from the original version by the kanji_colorize.py
script (available at http://github.com/cayennes/kanji-colorize) with these
settings:
    mode: spectrum
    saturation: 0.95
    value: 0.75
    image_size: 327
It remains under a Creative Commons-Attribution-Share Alike 3.0 License.

The original SVG has the following copyright:

Copyright (C) 2009/2010/2011 Ulrich Apel.
This work is distributed under the conditions of the Creative Commons
Attribution-Share Alike 3.0 Licence. This means you are free:
* to Share - to copy, distribute and transmit the work
* to Remix - to adapt the work

Under the following conditions:
* Attribution. You must attribute the work by stating your use of KanjiVG in
  your own copyright header and linking to KanjiVG's website
  (http://kanjivg.tagaini.net)
* Share Alike. If you alter, transform, or build upon this work, you may
  distribute the resulting work only under the same or similar license to this
  one.

See http://creativecommons.org/licenses/by-sa/3.0/ for more details.
-->
<!DOCTYPE svg PUBLIC "-//W3C//DTD SVG 1.0//EN" "http://www.w3.org/TR/2001/REC-SVG-20010904/DTD/svg10.dtd" [
<!ATTLIST g
xmlns:kvg CDATA #FIXED "http://kanjivg.tagaini.net"
kvg:element CDATA #IMPLIED
kvg:variant CDATA #IMPLIED
kvg:partial CDATA #IMPLIED
kvg:original CDATA #IMPLIED
kvg:part CDATA #IMPLIED
kvg:number CDATA #IMPLIED
kvg:tradForm CDATA #IMPLIED
kvg:radicalForm CDATA #IMPLIED
kvg:position CDATA #IMPLIED
kvg:radical CDATA #IMPLIED
kvg:phon CDATA #IMPLIED >
<!ATTLIST path
xmlns:kvg CDATA #FIXED "http://kanjivg.tagaini.net"
kvg:type CDATA #IMPLIED >
]>
<svg xmlns="http://www.w3.org/2000/svg" width="327" height = "327" viewBox="0 0 327 327">
<g id="kvg:StrokePaths_097f5-Kaisho" style="fill:none;stroke:#000000;stroke-width:3;stroke-linecap:round;stroke-linejoin:round;" transform="scale(3.0,3.0)">
<g id="kvg:097f5-Kaisho" kvg:element="韵">
	<g id="kvg:097f5-Kaisho-g1" kvg:element="音" kvg:position="left" kvg:radical="tradit">
		<g id="kvg:097f5-Kaisho-g2" kvg:element="立" kvg:position="top">
			<g id="kvg:097f5-Kaisho-g3" kvg:element="亠" kvg:position="top">
				<path style="stroke: #bf0909;" id="kvg:097f5-Kaisho-s1" kvg:type="㇑a" d="M25.59,12.46c3.89,1.9,7.4,6.1,9.28,10.32"/>
				<path style="stroke: #bf5d09;" id="kvg:097f5-Kaisho-s2" kvg:type="㇐" d="M12.14,30.67c0.89,0.1,2.92,0.12,3.8,0.04c7.56-0.7,17.29-2.13,27.57-2.67c1.48-0.08,2.35-0.18,3.09-0.16"/>
			</g>
			<g id="kvg:097f5-Kaisho-g4" kvg:position="bottom">
				<path style="stroke: #bfb109;" id="kvg:097f5-Kaisho-s3" kvg:type="㇔" d="M18.86,33.89c2.35,2.49,4.55,9.76,5.09,12.56"/>
				<path style="stroke: #79bf09;" id="kvg:097f5-Kaisho-s4" kvg:type="㇒" d="M40.69,30.86C41,31.75,41.41,33,41.3,33.38c-1.07,3.84-2.73,8.54-4.44,11.59"/>
				<path style="stroke: #25bf09;" id="kvg:097f5-Kaisho-s5" kvg:type="㇐" d="M9.88,50.75c1.12,0.25,2.51,0.41,3.63,0.39c6.65-0.13,20.28-2.63,31.17-3.15c1.45-0.1,3.07,0,3.95,0.49"/>
			</g>
		</g>
		<g id="kvg:097f5-Kaisho-g5" kvg:element="日" kvg:position="bottom">
			<path style="stroke: #09bf41;" id="kvg:097f5-Kaisho-s6" kvg:type="㇑" d="M16.2,61.35c0.45,0.78,0.82,1.38,1.01,2.43c0.82,4.63,2.73,29.68,2.73,30.76"/>
			<path style="stroke: #09bf95;" id="kvg:097f5-Kaisho-s7" kvg:type="㇕a" d="M18.52,62.76c2.57-0.27,19.23-2.01,23.38-2.43c2.35-0.24,3.33,0.93,3.33,2.76c0,3.06-2.79,28.4-3.18,29.72"/>
			<path style="stroke: #0995bf;" id="kvg:097f5-Kaisho-s8" kvg:type="㇐a" d="M19.03,76.63c4.47-0.39,8.93-0.75,13.4-1.1c1.17-0.09,2.32-0.18,3.41-0.26"/>
			<path style="stroke: #0941bf;" id="kvg:097f5-Kaisho-s9" kvg:type="㇐a" d="M20.81,93.15c5.14-0.28,14.01-1.11,20.66-1.48"/>
		</g>
	</g>
	<g id="kvg:097f5-Kaisho-g6" kvg:element="匀" kvg:position="right" kvg:phon="匀">
		<g id="kvg:097f5-Kaisho-g7" kvg:element="勹">
			<g id="kvg:097f5-Kaisho-g8" kvg:element="丿">
				<path style="stroke: #2509bf;" id="kvg:097f5-Kaisho-s10" kvg:type="㇒" d="M65.8,14.75c0.04,0.79,0.07,2.04-0.07,3.18c-0.86,6.71-5.76,21.43-12.48,30.45"/>
			</g>
			<path style="stroke: #7909bf;" id="kvg:097f5-Kaisho-s11" kvg:type="㇆" d="M64.54,29.92c1.46,0.33,3.1,0.17,4.6-0.04C75.5,29,86,27.25,90.28,26.25c3.51-0.82,5.12,0.3,4.78,5.19c-0.79,11.29-2.75,44.6-8.24,58.98c-2.32,6.08-5.57,4.33-8.76-0.16"/>
		</g>
		<g id="kvg:097f5-Kaisho-g9" kvg:element="冫" kvg:original="二" kvg:variant="true">
			<g id="kvg:097f5-Kaisho-g10" kvg:element="二" kvg:variant="true" kvg:position="top">
				<path style="stroke: #bf09b1;" id="kvg:097f5-Kaisho-s12" kvg:type="㇐" d="M59.09,51.08c0.49,0.24,2.13,0.36,2.63,0.32c4.56-0.37,11.03-1.91,15.41-2.5c0.61-0.08,1.97-0.1,2.9,0.11"/>
			</g>
			<g id="kvg:097f5-Kaisho-g11" kvg:position="bottom">
				<path style="stroke: #bf095d;" id="kvg:097f5-Kaisho-s13" kvg:type="㇀" d="M 58.337267,72.911276 c 0.708054,0.522572 2.350289,0.413627 3.893151,-0.574141 4.257275,-2.725583 9.500253,-5.560258 18.958176,-10.561457"/>
			</g>
		</g>
	</g>
</g>
</g>
<g id="kvg:StrokeNumbers_097f5-Kaisho" style="font-size:8;fill:#808080" transform="scale(3.0,3.0)">
	<text style="fill: #bf0909;" transform="matrix(1 0 0 1 22.75 12.50)">1</text>
	<text style="fill: #bf5d09;" transform="matrix(1 0 0 1 4.50 30.50)">2</text>
	<text style="fill: #bfb109;" transform="matrix(1 0 0 1 12.75 40.48)">3</text>
	<text style="fill: #79bf09;" transform="matrix(1 0 0 1 32.50 37.40)">4</text>
	<text style="fill: #25bf09;" transform="matrix(1 0 0 1 4.52 49.57)">5</text>
	<text style="fill: #09bf41;" transform="matrix(1 0 0 1 9.50 67.50)">6</text>
	<text style="fill: #09bf95;" transform="matrix(1 0 0 1 19.01 60.54)">7</text>
	<text style="fill: #0995bf;" transform="matrix(1 0 0 1 21.25 74.22)">8</text>
	<text style="fill: #0941bf;" transform="matrix(1 0 0 1 22.25 90.22)">9</text>
	<text style="fill: #2509bf;" transform="matrix(1 0 0 1 52.50 14.50)">10</text>
	<text style="fill: #7909bf;" transform="matrix(1 0 0 1 69.50 25.50)">11</text>
	<text style="fill: #bf09b1;" transform="matrix(1 0 0 1 58.90 48.78)">12</text>
	<text style="fill: #bf095d;" transform="matrix(1 0 0 1 52.30 69.86)">13</text>
</g>
</svg>
