<?xml version="1.0" encoding="UTF-8"?>
<!--
This file has been modified from the original version by the kanji_colorize.py
script (available at http://github.com/cayennes/kanji-colorize) with these
settings:
    mode: spectrum
    saturation: 0.95
    value: 0.75
    image_size: 327
It remains under a Creative Commons-Attribution-Share Alike 3.0 License.

The original SVG has the following copyright:

Copyright (C) 2009/2010/2011 Ulrich Apel.
This work is distributed under the conditions of the Creative Commons
Attribution-Share Alike 3.0 Licence. This means you are free:
* to Share - to copy, distribute and transmit the work
* to Remix - to adapt the work

Under the following conditions:
* Attribution. You must attribute the work by stating your use of KanjiVG in
  your own copyright header and linking to KanjiVG's website
  (http://kanjivg.tagaini.net)
* Share Alike. If you alter, transform, or build upon this work, you may
  distribute the resulting work only under the same or similar license to this
  one.

See http://creativecommons.org/licenses/by-sa/3.0/ for more details.
-->
<!DOCTYPE svg PUBLIC "-//W3C//DTD SVG 1.0//EN" "http://www.w3.org/TR/2001/REC-SVG-20010904/DTD/svg10.dtd" [
<!ATTLIST g
xmlns:kvg CDATA #FIXED "http://kanjivg.tagaini.net"
kvg:element CDATA #IMPLIED
kvg:variant CDATA #IMPLIED
kvg:partial CDATA #IMPLIED
kvg:original CDATA #IMPLIED
kvg:part CDATA #IMPLIED
kvg:number CDATA #IMPLIED
kvg:tradForm CDATA #IMPLIED
kvg:radicalForm CDATA #IMPLIED
kvg:position CDATA #IMPLIED
kvg:radical CDATA #IMPLIED
kvg:phon CDATA #IMPLIED >
<!ATTLIST path
xmlns:kvg CDATA #FIXED "http://kanjivg.tagaini.net"
kvg:type CDATA #IMPLIED >
]>
<svg xmlns="http://www.w3.org/2000/svg" width="327" height = "327" viewBox="0 0 327 327">
<g id="kvg:StrokePaths_09802-Kaisho" style="fill:none;stroke:#000000;stroke-width:3;stroke-linecap:round;stroke-linejoin:round;" transform="scale(3.0,3.0)">
<g id="kvg:09802-Kaisho" kvg:element="頂">
	<g id="kvg:09802-Kaisho-g1" kvg:element="丁" kvg:position="left">
		<g id="kvg:09802-Kaisho-g2" kvg:element="一">
			<path style="stroke: #bf0909;" id="kvg:09802-Kaisho-s1" kvg:type="㇐" d="M10.7,28.88c0.79,0.31,3.73,0.39,4.52,0.31c8.07-0.81,21.78-2.94,28.33-3.59c1.31-0.13,3.1,0.15,3.76,0.3"/>
		</g>
		<g id="kvg:09802-Kaisho-g3" kvg:element="亅">
			<path style="stroke: #bf6c09;" id="kvg:09802-Kaisho-s2" kvg:type="㇚" d="M30.05,29.56c0.08,0.43,1.55,2.26,1.63,5.02c0.36,13.23-0.23,48.34-0.23,52.85c0,10.21-6.64,0.46-7.99-0.67"/>
		</g>
	</g>
	<g id="kvg:09802-Kaisho-g4" kvg:element="頁" kvg:position="right" kvg:radical="general">
		<path style="stroke: #aebf09;" id="kvg:09802-Kaisho-s3" kvg:type="㇐" d="M49.98,19.33c0.96,0.47,2.72,0.61,3.67,0.47c10.59-1.53,29.35-3.41,38.53-4.03c1.59-0.11,2.55,0.22,3.35,0.46"/>
		<path style="stroke: #4bbf09;" id="kvg:09802-Kaisho-s4" kvg:type="㇒" d="M69.99,20.56c0.02,0.29,0.04,0.74-0.04,1.16c-0.49,2.44-3.3,7.78-7.14,11.05"/>
		<g id="kvg:09802-Kaisho-g5" kvg:element="貝">
			<g id="kvg:09802-Kaisho-g6" kvg:element="目" kvg:position="top">
				<path style="stroke: #09bf2a;" id="kvg:09802-Kaisho-s5" kvg:type="㇑" d="M54.39,33.96c0.53,1.04,1.29,2.32,1.29,3.7c0,1.39-0.35,40.17-0.35,40.87"/>
				<path style="stroke: #09bf8d;" id="kvg:09802-Kaisho-s6" kvg:type="㇕a" d="M56.56,35.34c2.98-0.17,26.94-3.81,29.65-4.01c2.26-0.17,4.04,1.93,3.85,3.21c-0.24,1.63-0.38,27.44-0.38,42.71"/>
				<path style="stroke: #098dbf;" id="kvg:09802-Kaisho-s7" kvg:type="㇐a" d="M56.51,48.05c5.14,0,10.39-0.92,15.48-1.5c1.7-0.19,3.42-0.39,5.09-0.58"/>
				<path style="stroke: #092abf;" id="kvg:09802-Kaisho-s8" kvg:type="㇐a" d="M56.76,61.32c5.25-0.51,10.49-1.1,15.73-1.64c1.43-0.15,2.86-0.29,4.26-0.43"/>
				<path style="stroke: #4b09bf;" id="kvg:09802-Kaisho-s9" kvg:type="㇐a" d="M56.03,75.1c8.72-1.1,24.02-2.47,32.69-2.99"/>
			</g>
			<g id="kvg:09802-Kaisho-g7" kvg:position="bottom">
				<path style="stroke: #ae09bf;" id="kvg:09802-Kaisho-s10" kvg:type="㇒" d="M63.39,79.99c0.42,1.31,0.83,1.67,0,2.62C60.89,85.5,53.2,92.59,48.2,96"/>
				<path style="stroke: #bf096c;" id="kvg:09802-Kaisho-s11" kvg:type="㇔" d="M79.27,80.26c6.16,4.31,13.43,12.12,15.11,15.89"/>
			</g>
		</g>
	</g>
</g>
</g>
<g id="kvg:StrokeNumbers_09802-Kaisho" style="font-size:8;fill:#808080" transform="scale(3.0,3.0)">
	<text style="fill: #bf0909;" transform="matrix(1 0 0 1 4.50 30.13)">1</text>
	<text style="fill: #bf6c09;" transform="matrix(1 0 0 1 24.75 39.13)">2</text>
	<text style="fill: #aebf09;" transform="matrix(1 0 0 1 49.50 16.50)">3</text>
	<text style="fill: #4bbf09;" transform="matrix(1 0 0 1 61.50 26.50)">4</text>
	<text style="fill: #09bf2a;" transform="matrix(1 0 0 1 47.25 42.13)">5</text>
	<text style="fill: #09bf8d;" transform="matrix(1 0 0 1 55.50 32.50)">6</text>
	<text style="fill: #098dbf;" transform="matrix(1 0 0 1 60.75 44.50)">7</text>
	<text style="fill: #092abf;" transform="matrix(1 0 0 1 60.75 57.50)">8</text>
	<text style="fill: #4b09bf;" transform="matrix(1 0 0 1 60.75 71.90)">9</text>
	<text style="fill: #ae09bf;" transform="matrix(1 0 0 1 47.25 86.83)">10</text>
	<text style="fill: #bf096c;" transform="matrix(1 0 0 1 72.75 87.13)">11</text>
</g>
</svg>
