<?xml version="1.0" encoding="UTF-8"?>
<!--
This file has been modified from the original version by the kanji_colorize.py
script (available at http://github.com/cayennes/kanji-colorize) with these
settings:
    mode: spectrum
    saturation: 0.95
    value: 0.75
    image_size: 327
It remains under a Creative Commons-Attribution-Share Alike 3.0 License.

The original SVG has the following copyright:

Copyright (C) 2009/2010/2011 Ulrich Apel.
This work is distributed under the conditions of the Creative Commons
Attribution-Share Alike 3.0 Licence. This means you are free:
* to Share - to copy, distribute and transmit the work
* to Remix - to adapt the work

Under the following conditions:
* Attribution. You must attribute the work by stating your use of KanjiVG in
  your own copyright header and linking to KanjiVG's website
  (http://kanjivg.tagaini.net)
* Share Alike. If you alter, transform, or build upon this work, you may
  distribute the resulting work only under the same or similar license to this
  one.

See http://creativecommons.org/licenses/by-sa/3.0/ for more details.
-->
<!DOCTYPE svg PUBLIC "-//W3C//DTD SVG 1.0//EN" "http://www.w3.org/TR/2001/REC-SVG-20010904/DTD/svg10.dtd" [
<!ATTLIST g
xmlns:kvg CDATA #FIXED "http://kanjivg.tagaini.net"
kvg:element CDATA #IMPLIED
kvg:variant CDATA #IMPLIED
kvg:partial CDATA #IMPLIED
kvg:original CDATA #IMPLIED
kvg:part CDATA #IMPLIED
kvg:number CDATA #IMPLIED
kvg:tradForm CDATA #IMPLIED
kvg:radicalForm CDATA #IMPLIED
kvg:position CDATA #IMPLIED
kvg:radical CDATA #IMPLIED
kvg:phon CDATA #IMPLIED >
<!ATTLIST path
xmlns:kvg CDATA #FIXED "http://kanjivg.tagaini.net"
kvg:type CDATA #IMPLIED >
]>
<svg xmlns="http://www.w3.org/2000/svg" width="327" height = "327" viewBox="0 0 327 327">
<g id="kvg:StrokePaths_098f4-Hyougai" style="fill:none;stroke:#000000;stroke-width:3;stroke-linecap:round;stroke-linejoin:round;" transform="scale(3.0,3.0)">
<g id="kvg:098f4-Hyougai" kvg:element="飴">
	<g id="kvg:098f4-Hyougai-g1" kvg:element="飠" kvg:original="食" kvg:partial="true" kvg:position="left" kvg:radical="general">
		<path style="stroke: #bf0909;" id="kvg:098f4-Hyougai-s1" kvg:type="㇒" d="M34.28,12.42c0.1,1.08,0.01,1.89-0.38,2.85C30.66,23.16,22.12,35.12,12.18,43"/>
		<path style="stroke: #bf5d09;" id="kvg:098f4-Hyougai-s2" kvg:type="㇔/㇏" d="M35.88,17.75c7,4,13.5,11.12,15.59,14.74"/>
		<path style="stroke: #bfb109;" id="kvg:098f4-Hyougai-s3" kvg:type="㇑a" d="M34.19,30.61c0.81,0.76,1.12,1.74,1.12,2.76c0,1.76-0.06,3.68-0.06,5.88"/>
		<path style="stroke: #79bf09;" id="kvg:098f4-Hyougai-s4" kvg:type="㇕" d="M23.72,42.46c6.4-0.95,18.51-2.95,19.52-3.09c2.41-0.36,3.13,1.33,2.91,2.98c-0.73,5.47-1.76,17.52-2.29,23.4c-0.22,2.39-0.35,4.01-0.35,4.2"/>
		<path style="stroke: #25bf09;" id="kvg:098f4-Hyougai-s5" kvg:type="㇐a" d="M23.83,55.44c5.55-0.81,13.42-1.81,20.21-2.57"/>
		<path style="stroke: #09bf41;" id="kvg:098f4-Hyougai-s6" kvg:type="㇐a" d="M23.98,69.02c4.31-0.48,11.78-1.55,18.34-2.35"/>
		<path style="stroke: #09bf95;" id="kvg:098f4-Hyougai-s7" kvg:type="㇙" d="M21.63,41.78c0.73,0.73,1.1,1.97,1.1,3.38c0,1.05-0.07,41.59-0.07,48.06c0,3.34,0.39,4.22,3.23,1.94c3.48-2.79,11.78-9.15,16.34-12.46"/>
		<path style="stroke: #0995bf;" id="kvg:098f4-Hyougai-s8" kvg:type="㇏" d="M39.82,75.69c2.58,3.07,6.62,11.25,8.09,17.73"/>
	</g>
	<g id="kvg:098f4-Hyougai-g2" kvg:element="台" kvg:position="right">
		<g id="kvg:098f4-Hyougai-g3" kvg:element="厶" kvg:position="top">
			<path style="stroke: #0941bf;" id="kvg:098f4-Hyougai-s9" kvg:type="㇜" d="M73.38,14.41c0.24,1.5-0.13,2.51-1,4.29c-6.5,13.29-10,20.42-15.89,30.86c-2.04,3.62-1.63,4.69,2.39,3.71c10.09-2.46,19.63-4.4,33.48-7.78"/>
			<path style="stroke: #2509bf;" id="kvg:098f4-Hyougai-s10" kvg:type="㇔" d="M83.49,31c4.68,3.93,12.09,16.14,13.26,22.25"/>
		</g>
		<g id="kvg:098f4-Hyougai-g4" kvg:element="口" kvg:position="bottom">
			<path style="stroke: #7909bf;" id="kvg:098f4-Hyougai-s11" kvg:type="㇑" d="M57.34,67.01c1.1,1.1,1.24,2.53,1.54,3.96c1.05,5.01,2.3,13.59,3.29,20.69c0.23,1.62,0.42,3.17,0.57,4.59"/>
			<path style="stroke: #bf09b1;" id="kvg:098f4-Hyougai-s12" kvg:type="㇕b" d="M59.44,68.58c9.24-1.33,22.06-3.1,29.19-4.15c3.83-0.56,5.56,1.17,4.7,4.97c-1.49,6.59-2.49,12.11-3.9,20.17"/>
			<path style="stroke: #bf095d;" id="kvg:098f4-Hyougai-s13" kvg:type="㇐b" d="M64.05,93.49c7.31-0.57,13.28-1.24,22.47-2.26c1.7-0.19,3.51-0.39,5.47-0.6"/>
		</g>
	</g>
</g>
</g>
<g id="kvg:StrokeNumbers_098f4-Hyougai" style="font-size:8;fill:#808080" transform="scale(3.0,3.0)">
	<text style="fill: #bf0909;" transform="matrix(1 0 0 1 26.50 12.50)">1</text>
	<text style="fill: #bf5d09;" transform="matrix(1 0 0 1 41.50 17.50)">2</text>
	<text style="fill: #bfb109;" transform="matrix(1 0 0 1 32.50 27.50)">3</text>
	<text style="fill: #79bf09;" transform="matrix(1 0 0 1 25.50 39.50)">4</text>
	<text style="fill: #25bf09;" transform="matrix(1 0 0 1 27.50 51.50)">5</text>
	<text style="fill: #09bf41;" transform="matrix(1 0 0 1 27.50 65.50)">6</text>
	<text style="fill: #09bf95;" transform="matrix(1 0 0 1 15.50 50.50)">7</text>
	<text style="fill: #0995bf;" transform="matrix(1 0 0 1 44.50 78.50)">8</text>
	<text style="fill: #0941bf;" transform="matrix(1 0 0 1 64.50 11.03)">9</text>
	<text style="fill: #2509bf;" transform="matrix(1 0 0 1 81.50 27.50)">10</text>
	<text style="fill: #7909bf;" transform="matrix(1 0 0 1 48.50 74.50)">11</text>
	<text style="fill: #bf09b1;" transform="matrix(1 0 0 1 60.50 64.50)">12</text>
	<text style="fill: #bf095d;" transform="matrix(1 0 0 1 65.50 89.50)">13</text>
</g>
</svg>
