<?xml version="1.0" encoding="UTF-8"?>
<!--
This file has been modified from the original version by the kanji_colorize.py
script (available at http://github.com/cayennes/kanji-colorize) with these
settings:
    mode: spectrum
    saturation: 0.95
    value: 0.75
    image_size: 327
It remains under a Creative Commons-Attribution-Share Alike 3.0 License.

The original SVG has the following copyright:

Copyright (C) 2009/2010/2011 Ulrich Apel.
This work is distributed under the conditions of the Creative Commons
Attribution-Share Alike 3.0 Licence. This means you are free:
* to Share - to copy, distribute and transmit the work
* to Remix - to adapt the work

Under the following conditions:
* Attribution. You must attribute the work by stating your use of KanjiVG in
  your own copyright header and linking to KanjiVG's website
  (http://kanjivg.tagaini.net)
* Share Alike. If you alter, transform, or build upon this work, you may
  distribute the resulting work only under the same or similar license to this
  one.

See http://creativecommons.org/licenses/by-sa/3.0/ for more details.
-->
<!DOCTYPE svg PUBLIC "-//W3C//DTD SVG 1.0//EN" "http://www.w3.org/TR/2001/REC-SVG-20010904/DTD/svg10.dtd" [
<!ATTLIST g
xmlns:kvg CDATA #FIXED "http://kanjivg.tagaini.net"
kvg:element CDATA #IMPLIED
kvg:variant CDATA #IMPLIED
kvg:partial CDATA #IMPLIED
kvg:original CDATA #IMPLIED
kvg:part CDATA #IMPLIED
kvg:number CDATA #IMPLIED
kvg:tradForm CDATA #IMPLIED
kvg:radicalForm CDATA #IMPLIED
kvg:position CDATA #IMPLIED
kvg:radical CDATA #IMPLIED
kvg:phon CDATA #IMPLIED >
<!ATTLIST path
xmlns:kvg CDATA #FIXED "http://kanjivg.tagaini.net"
kvg:type CDATA #IMPLIED >
]>
<svg xmlns="http://www.w3.org/2000/svg" width="327" height = "327" viewBox="0 0 327 327">
<g id="kvg:StrokePaths_09913-Kaisho" style="fill:none;stroke:#000000;stroke-width:3;stroke-linecap:round;stroke-linejoin:round;" transform="scale(3.0,3.0)">
<g id="kvg:09913-Kaisho" kvg:element="餓">
	<g id="kvg:09913-Kaisho-g1" kvg:element="飠" kvg:original="食" kvg:partial="true" kvg:position="left" kvg:radical="general">
		<path style="stroke: #bf0909;" id="kvg:09913-Kaisho-s1" kvg:type="㇒" d="M30.79,12c0.06,0.73,0.23,1.95-0.12,2.93C27.79,23.07,19.23,35.99,10.25,43"/>
		<path style="stroke: #bf5209;" id="kvg:09913-Kaisho-s2" kvg:type="㇔/㇏" d="M31.75,16.5c4.75,2.4,10.32,6.93,13,12"/>
		<path style="stroke: #bf9a09;" id="kvg:09913-Kaisho-s3" kvg:type="㇑a" d="M28,30.01c2.25,1.49,4.5,3.74,5.58,7.39"/>
		<path style="stroke: #9abf09;" id="kvg:09913-Kaisho-s4" kvg:type="㇕" d="M20.7,43.76c1.49-0.1,17.41-3.26,18.76-3.45c2.29-0.32,2.98,1.17,2.77,2.63c-0.98,6.8-1.98,15.55-2.94,21.75"/>
		<path style="stroke: #52bf09;" id="kvg:09913-Kaisho-s5" kvg:type="㇐a" d="M20.96,55.03c2.88,0,5.93-0.83,8.75-1.34c0.99-0.18,2-0.36,2.98-0.54"/>
		<path style="stroke: #09bf09;" id="kvg:09913-Kaisho-s6" kvg:type="㇐a" d="M20.87,66.1c4.11-0.43,13.13-2.18,17.71-2.97"/>
		<path style="stroke: #09bf52;" id="kvg:09913-Kaisho-s7" kvg:type="㇙" d="M18.87,42.51c0.85,0.46,1.36,2.07,1.53,2.99c0.17,0.92,0.36,40.94,0.17,43.22c-0.17,2.07-1.53,5.97,0.51,4.37c2.04-1.61,14.18-9.83,18.43-12.33"/>
		<path style="stroke: #09bf9a;" id="kvg:09913-Kaisho-s8" kvg:type="㇔/㇏" d="M35.5,71.5c2.07,2.73,5.32,9.99,6.5,15.75"/>
	</g>
	<g id="kvg:09913-Kaisho-g2" kvg:element="我" kvg:position="right">
		<g id="kvg:09913-Kaisho-g3" kvg:element="丿">
			<path style="stroke: #099abf;" id="kvg:09913-Kaisho-s9" kvg:type="㇒" d="M64.13,18.64c0.04,0.35,0.17,0.96-0.09,1.41C62,23.59,57.19,28.91,48.5,33.5"/>
		</g>
		<g id="kvg:09913-Kaisho-g4" kvg:element="戈" kvg:part="1">
			<g id="kvg:09913-Kaisho-g5" kvg:element="弋" kvg:part="1">
				<path style="stroke: #0952bf;" id="kvg:09913-Kaisho-s10" kvg:type="㇐" d="M49.11,44.39c0.89,0.38,2.52,0.56,3.4,0.38c3.59-0.74,29.29-5.59,38.89-6.11c1.48-0.08,2.36,0.18,3.1,0.37"/>
			</g>
		</g>
		<g id="kvg:09913-Kaisho-g6" kvg:element="亅">
			<path style="stroke: #0909bf;" id="kvg:09913-Kaisho-s11" kvg:type="㇚" d="M57.99,30.33c0.76,0.92,1.43,2.49,1.5,5.52c0.32,14.55-0.19,48.16-0.2,53.12c-0.03,9.28-4.21,1-5.4-0.25"/>
		</g>
		<path style="stroke: #5209bf;" id="kvg:09913-Kaisho-s12" kvg:type="㇀" d="M46.23,70.27c1.68,1.73,3.58,1.47,5.25-0.01c0.99-0.87,13.02-11.57,17.21-15.76"/>
		<g id="kvg:09913-Kaisho-g7" kvg:element="戈" kvg:part="2">
			<path style="stroke: #9a09bf;" id="kvg:09913-Kaisho-s13" kvg:type="㇂" d="M71.82,13.25c1.08,1.84,1.69,2.33,1.75,6.29C74.12,52,82.06,86.75,94.97,96.67c4.45,3.42,3.65,0.79,3.1-7.34"/>
			<g id="kvg:09913-Kaisho-g8" kvg:element="丿">
				<path style="stroke: #bf099a;" id="kvg:09913-Kaisho-s14" kvg:type="㇒" d="M91.11,49.89c0.06,0.71,0.13,1.84-0.12,2.86c-1.46,6.02-9.52,19.91-20.99,28"/>
			</g>
			<g id="kvg:09913-Kaisho-g9" kvg:element="弋" kvg:part="2">
				<g id="kvg:09913-Kaisho-g10" kvg:element="丶">
					<path style="stroke: #bf0952;" id="kvg:09913-Kaisho-s15" kvg:type="㇔" d="M83.86,19c2.52,1.9,6.55,6.24,7.72,9.5"/>
				</g>
			</g>
		</g>
	</g>
</g>
</g>
<g id="kvg:StrokeNumbers_09913-Kaisho" style="font-size:8;fill:#808080" transform="scale(3.0,3.0)">
	<text style="fill: #bf0909;" transform="matrix(1 0 0 1 23.25 15.13)">1</text>
	<text style="fill: #bf5209;" transform="matrix(1 0 0 1 38.50 17.50)">2</text>
	<text style="fill: #bf9a09;" transform="matrix(1 0 0 1 30.50 28.50)">3</text>
	<text style="fill: #9abf09;" transform="matrix(1 0 0 1 22.50 40.63)">4</text>
	<text style="fill: #52bf09;" transform="matrix(1 0 0 1 23.50 52.55)">5</text>
	<text style="fill: #09bf09;" transform="matrix(1 0 0 1 23.50 62.98)">6</text>
	<text style="fill: #09bf52;" transform="matrix(1 0 0 1 12.75 52.50)">7</text>
	<text style="fill: #09bf9a;" transform="matrix(1 0 0 1 30.75 78.13)">8</text>
	<text style="fill: #099abf;" transform="matrix(1 0 0 1 56.25 19.63)">9</text>
	<text style="fill: #0952bf;" transform="matrix(1 0 0 1 46.50 41.50)">10</text>
	<text style="fill: #0909bf;" transform="matrix(1 0 0 1 62.25 33.13)">11</text>
	<text style="fill: #5209bf;" transform="matrix(1 0 0 1 43.50 66.50)">12</text>
	<text style="fill: #9a09bf;" transform="matrix(1 0 0 1 65.50 9.13)">13</text>
	<text style="fill: #bf099a;" transform="matrix(1 0 0 1 80.50 49.63)">14</text>
	<text style="fill: #bf0952;" transform="matrix(1 0 0 1 79.50 16.50)">15</text>
</g>
</svg>
