<?xml version="1.0" encoding="UTF-8"?>
<!--
This file has been modified from the original version by the kanji_colorize.py
script (available at http://github.com/cayennes/kanji-colorize) with these
settings:
    mode: spectrum
    saturation: 0.95
    value: 0.75
    image_size: 327
It remains under a Creative Commons-Attribution-Share Alike 3.0 License.

The original SVG has the following copyright:

Copyright (C) 2009/2010/2011 Ulrich Apel.
This work is distributed under the conditions of the Creative Commons
Attribution-Share Alike 3.0 Licence. This means you are free:
* to Share - to copy, distribute and transmit the work
* to Remix - to adapt the work

Under the following conditions:
* Attribution. You must attribute the work by stating your use of KanjiVG in
  your own copyright header and linking to KanjiVG's website
  (http://kanjivg.tagaini.net)
* Share Alike. If you alter, transform, or build upon this work, you may
  distribute the resulting work only under the same or similar license to this
  one.

See http://creativecommons.org/licenses/by-sa/3.0/ for more details.
-->
<!DOCTYPE svg PUBLIC "-//W3C//DTD SVG 1.0//EN" "http://www.w3.org/TR/2001/REC-SVG-20010904/DTD/svg10.dtd" [
<!ATTLIST g
xmlns:kvg CDATA #FIXED "http://kanjivg.tagaini.net"
kvg:element CDATA #IMPLIED
kvg:variant CDATA #IMPLIED
kvg:partial CDATA #IMPLIED
kvg:original CDATA #IMPLIED
kvg:part CDATA #IMPLIED
kvg:number CDATA #IMPLIED
kvg:tradForm CDATA #IMPLIED
kvg:radicalForm CDATA #IMPLIED
kvg:position CDATA #IMPLIED
kvg:radical CDATA #IMPLIED
kvg:phon CDATA #IMPLIED >
<!ATTLIST path
xmlns:kvg CDATA #FIXED "http://kanjivg.tagaini.net"
kvg:type CDATA #IMPLIED >
]>
<svg xmlns="http://www.w3.org/2000/svg" width="327" height = "327" viewBox="0 0 327 327">
<g id="kvg:StrokePaths_09999-Kaisho" style="fill:none;stroke:#000000;stroke-width:3;stroke-linecap:round;stroke-linejoin:round;" transform="scale(3.0,3.0)">
<g id="kvg:09999-Kaisho" kvg:element="香" kvg:radical="general">
	<g id="kvg:09999-Kaisho-g1" kvg:element="禾" kvg:position="top">
		<g id="kvg:09999-Kaisho-g2" kvg:element="丿" kvg:position="top">
			<path style="stroke: #bf0909;" id="kvg:09999-Kaisho-s1" kvg:type="㇒" d="M64.98,10.73c0.1,0.29,0.21,0.74-0.19,1.15c-2.36,2.42-15.94,7.74-34.51,10.99"/>
		</g>
		<g id="kvg:09999-Kaisho-g3" kvg:element="木" kvg:position="bottom">
			<path style="stroke: #bf8209;" id="kvg:09999-Kaisho-s2" kvg:type="㇐" d="M19.83,37.55c0.66,0.2,3.32,0.74,5.09,0.6c7.96-0.6,40.59-6.16,54.22-7.04c1.76-0.11,3.48,0.24,4.59,0.44"/>
			<path style="stroke: #82bf09;" id="kvg:09999-Kaisho-s3" kvg:type="㇑" d="M51.73,19.81c1.15,0.59,2.08,2.64,2.08,3.85c0,7.59-0.31,22.32-0.31,33.59"/>
			<path style="stroke: #09bf09;" id="kvg:09999-Kaisho-s4" kvg:type="㇒" d="M49.23,35.16C42.29,44.6,28.5,58,15,63.97"/>
			<path style="stroke: #09bf82;" id="kvg:09999-Kaisho-s5" kvg:type="㇏" d="M56.04,34.46c4.79,3.45,26.7,19.78,31.91,23.18c1.77,1.15,3.28,1.64,5.04,1.97"/>
		</g>
	</g>
	<g id="kvg:09999-Kaisho-g4" kvg:element="日" kvg:position="bottom">
		<path style="stroke: #0982bf;" id="kvg:09999-Kaisho-s6" kvg:type="㇑" d="M33.27,65.47c0.39,0.73,1.12,2.11,1.28,3.07c1.2,7.21,2.2,21.21,3.5,29.71"/>
		<path style="stroke: #0909bf;" id="kvg:09999-Kaisho-s7" kvg:type="㇕a" d="M34.69,67.59c9.56-1.59,36.93-4.8,38.92-5.1c1.64-0.24,4.34,1.77,4.11,4.07C77,74,76,84.25,74.71,94.87"/>
		<path style="stroke: #8209bf;" id="kvg:09999-Kaisho-s8" kvg:type="㇐a" d="M36.58,80.77c6.94-1.23,14.04-1.82,21.04-2.53c2.12-0.22,4.21-0.42,6.19-0.61"/>
		<path style="stroke: #bf0982;" id="kvg:09999-Kaisho-s9" kvg:type="㇐a" d="M37.94,94.51c6.06-0.52,28.31-2.42,35.85-2.87"/>
	</g>
</g>
</g>
<g id="kvg:StrokeNumbers_09999-Kaisho" style="font-size:8;fill:#808080" transform="scale(3.0,3.0)">
	<text style="fill: #bf0909;" transform="matrix(1 0 0 1 57.75 9.13)">1</text>
	<text style="fill: #bf8209;" transform="matrix(1 0 0 1 12.50 37.50)">2</text>
	<text style="fill: #82bf09;" transform="matrix(1 0 0 1 45.75 28.50)">3</text>
	<text style="fill: #09bf09;" transform="matrix(1 0 0 1 30.75 46.63)">4</text>
	<text style="fill: #09bf82;" transform="matrix(1 0 0 1 71.25 43.63)">5</text>
	<text style="fill: #0982bf;" transform="matrix(1 0 0 1 27.50 74.50)">6</text>
	<text style="fill: #0909bf;" transform="matrix(1 0 0 1 38.25 63.50)">7</text>
	<text style="fill: #8209bf;" transform="matrix(1 0 0 1 41.25 76.50)">8</text>
	<text style="fill: #bf0982;" transform="matrix(1 0 0 1 41.24 90.50)">9</text>
</g>
</svg>
