<?xml version="1.0" encoding="UTF-8"?>
<!--
This file has been modified from the original version by the kanji_colorize.py
script (available at http://github.com/cayennes/kanji-colorize) with these
settings:
    mode: spectrum
    saturation: 0.95
    value: 0.75
    image_size: 327
It remains under a Creative Commons-Attribution-Share Alike 3.0 License.

The original SVG has the following copyright:

Copyright (C) 2009/2010/2011 Ulrich Apel.
This work is distributed under the conditions of the Creative Commons
Attribution-Share Alike 3.0 Licence. This means you are free:
* to Share - to copy, distribute and transmit the work
* to Remix - to adapt the work

Under the following conditions:
* Attribution. You must attribute the work by stating your use of KanjiVG in
  your own copyright header and linking to KanjiVG's website
  (http://kanjivg.tagaini.net)
* Share Alike. If you alter, transform, or build upon this work, you may
  distribute the resulting work only under the same or similar license to this
  one.

See http://creativecommons.org/licenses/by-sa/3.0/ for more details.
-->
<!DOCTYPE svg PUBLIC "-//W3C//DTD SVG 1.0//EN" "http://www.w3.org/TR/2001/REC-SVG-20010904/DTD/svg10.dtd" [
<!ATTLIST g
xmlns:kvg CDATA #FIXED "http://kanjivg.tagaini.net"
kvg:element CDATA #IMPLIED
kvg:variant CDATA #IMPLIED
kvg:partial CDATA #IMPLIED
kvg:original CDATA #IMPLIED
kvg:part CDATA #IMPLIED
kvg:number CDATA #IMPLIED
kvg:tradForm CDATA #IMPLIED
kvg:radicalForm CDATA #IMPLIED
kvg:position CDATA #IMPLIED
kvg:radical CDATA #IMPLIED
kvg:phon CDATA #IMPLIED >
<!ATTLIST path
xmlns:kvg CDATA #FIXED "http://kanjivg.tagaini.net"
kvg:type CDATA #IMPLIED >
]>
<svg xmlns="http://www.w3.org/2000/svg" width="327" height = "327" viewBox="0 0 327 327">
<g id="kvg:StrokePaths_09a12-Vt6" style="fill:none;stroke:#000000;stroke-width:3;stroke-linecap:round;stroke-linejoin:round;" transform="scale(3.0,3.0)">
<g id="kvg:09a12-Vt6" kvg:element="騒">
	<g id="kvg:09a12-Vt6-g1" kvg:element="馬" kvg:position="left" kvg:radical="general">
		<path style="stroke: #bf0909;" id="kvg:09a12-Vt6-s1" kvg:type="㇑" d="M16.24,18.09c0.51,0.91,0.99,1.82,0.99,3.17c-0.02,7.99-0.07,25.29-0.17,35.37c-0.02,2.32-0.03,2.72-0.81,5.69"/>
		<path style="stroke: #bf4609;" id="kvg:09a12-Vt6-s2" kvg:type="㇐b" d="M17.27,20.74c7.82-0.52,21.9-2.8,24.26-3.15c0.94-0.14,2.53-0.24,3-0.03"/>
		<path style="stroke: #bf8209;" id="kvg:09a12-Vt6-s3" kvg:type="㇐b" d="M17.66,33.93c6.26-0.58,19.25-2.58,21.94-2.97c0.94-0.14,2.53-0.24,3-0.02"/>
		<path style="stroke: #bfbf09;" id="kvg:09a12-Vt6-s4" kvg:type="㇐b" d="M17.76,46.84c6.26-0.58,19.75-2.58,22.44-2.97c0.94-0.14,2.53-0.24,3-0.03"/>
		<path style="stroke: #82bf09;" id="kvg:09a12-Vt6-s5" kvg:type="㇆a" d="M16.99,62.22c6.17-1.4,21.04-4,24.43-4.59c4.33-0.75,4.19,2.78,3.95,6.39c-0.67,10.25-3.17,21.31-5.62,28.26c-1.75,4.96-5.32,0.4-6.21-0.85"/>
		<path style="stroke: #46bf09;" id="kvg:09a12-Vt6-s6" kvg:type="㇑a" d="M29.81,20.29c0.25,0.37,0.96,0.87,0.95,1.47c-0.02,6.11-0.06,27.69-0.25,37.31"/>
		<g id="kvg:09a12-Vt6-g2" kvg:element="灬" kvg:variant="true" kvg:original="火">
			<path style="stroke: #09bf09;" id="kvg:09a12-Vt6-s7" kvg:type="㇔" d="M13.7,75.89c0.25,5.53-0.51,10.39-0.78,11.5"/>
			<path style="stroke: #09bf46;" id="kvg:09a12-Vt6-s8" kvg:type="㇔" d="M21.07,75.02c0.91,1.85,1.68,4.18,1.89,7.48"/>
			<path style="stroke: #09bf82;" id="kvg:09a12-Vt6-s9" kvg:type="㇔" d="M28.23,72.14c0.47,0.91,2.15,3.89,2.35,6.85"/>
			<path style="stroke: #09bfbf;" id="kvg:09a12-Vt6-s10" kvg:type="㇔" d="M33.85,69.52c1.05,1.77,2.77,3.6,3.15,5.94"/>
		</g>
	</g>
	<g id="kvg:09a12-Vt6-g3" kvg:position="right">
		<g id="kvg:09a12-Vt6-g4" kvg:element="又" kvg:position="top">
			<path style="stroke: #0982bf;" id="kvg:09a12-Vt6-s11" kvg:type="㇇" d="M54.94,20.02c1.12,0.24,1.25,0.61,3.48,0.24s19.75-3.52,21.28-3.89c1.53-0.36,2.8,1.41,2.09,2.67C73,34.5,62,44.75,50.15,52.82"/>
			<path style="stroke: #0946bf;" id="kvg:09a12-Vt6-s12" kvg:type="㇏" d="M55.73,27.19c3.71,0.56,21.85,15.61,34.78,21.77c2.01,0.96,3.48,1.6,5.35,1.92"/>
		</g>
		<g id="kvg:09a12-Vt6-g5" kvg:element="虫" kvg:position="bottom">
			<g id="kvg:09a12-Vt6-g6" kvg:element="中">
				<g id="kvg:09a12-Vt6-g7" kvg:element="口">
					<path style="stroke: #0909bf;" id="kvg:09a12-Vt6-s13" kvg:type="㇑" d="M54.37,60.04c0.54,0.38,1.22,1.17,1.32,1.67c0.73,3.64,1.47,8.94,2.5,15.83"/>
					<path style="stroke: #4609bf;" id="kvg:09a12-Vt6-s14" kvg:type="㇕b" d="M56.08,60.85c8.16-0.73,25.42-3,31.32-3.28c2.3-0.11,3.83,0.79,3.08,3.13c-1.23,3.81-1.15,5.26-2.74,11.46"/>
					<path style="stroke: #8209bf;" id="kvg:09a12-Vt6-s15" kvg:type="㇐b" d="M58.48,75.06c6.56-0.73,21.13-2.36,30.31-3.04"/>
				</g>
				<g id="kvg:09a12-Vt6-g8" kvg:element="丨">
					<path style="stroke: #bf09bf;" id="kvg:09a12-Vt6-s16" kvg:type="㇑a" d="M69.17,48.5c1.27,0.49,2.28,2.15,2.28,3.16c0,6.09,0.25,28.09,0.25,38.82"/>
				</g>
			</g>
			<path style="stroke: #bf0982;" id="kvg:09a12-Vt6-s17" kvg:type="㇀" d="M52.94,93.29c0.77,0.61,2.25,1.43,3,1.22c4.56-1.26,28.57-7.16,33.35-8.38"/>
			<path style="stroke: #bf0946;" id="kvg:09a12-Vt6-s18" kvg:type="㇔" d="M83.79,79.93c3.68,2.69,9.51,11.06,10.43,15.24"/>
		</g>
	</g>
</g>
</g>
<g id="kvg:StrokeNumbers_09a12-Vt6" style="font-size:8;fill:#808080" transform="scale(3.0,3.0)">
	<text style="fill: #bf0909;" transform="matrix(1 0 0 1 10.50 28.50)">1</text>
	<text style="fill: #bf4609;" transform="matrix(1 0 0 1 18.50 17.50)">2</text>
	<text style="fill: #bf8209;" transform="matrix(1 0 0 1 20.25 30.05)">3</text>
	<text style="fill: #bfbf09;" transform="matrix(1 0 0 1 20.25 43.50)">4</text>
	<text style="fill: #82bf09;" transform="matrix(1 0 0 1 20.25 57.50)">5</text>
	<text style="fill: #46bf09;" transform="matrix(1 0 0 1 33.50 26.50)">6</text>
	<text style="fill: #09bf09;" transform="matrix(1 0 0 1 9.75 74.50)">7</text>
	<text style="fill: #09bf46;" transform="matrix(1 0 0 1 15.75 72.13)">8</text>
	<text style="fill: #09bf82;" transform="matrix(1 0 0 1 21.75 70.63)">9</text>
	<text style="fill: #09bfbf;" transform="matrix(1 0 0 1 29.25 67.63)">10</text>
	<text style="fill: #0982bf;" transform="matrix(1 0 0 1 52.50 17.50)">11</text>
	<text style="fill: #0946bf;" transform="matrix(1 0 0 1 48.75 34.50)">12</text>
	<text style="fill: #0909bf;" transform="matrix(1 0 0 1 47.25 74.98)">13</text>
	<text style="fill: #4609bf;" transform="matrix(1 0 0 1 53.25 58.63)">14</text>
	<text style="fill: #8209bf;" transform="matrix(1 0 0 1 60.50 71.50)">15</text>
	<text style="fill: #bf09bf;" transform="matrix(1 0 0 1 60.50 53.50)">16</text>
	<text style="fill: #bf0982;" transform="matrix(1 0 0 1 50.50 89.50)">17</text>
	<text style="fill: #bf0946;" transform="matrix(1 0 0 1 74.50 83.50)">18</text>
</g>
</svg>
