<?xml version="1.0" encoding="UTF-8"?>
<!--
This file has been modified from the original version by the kanji_colorize.py
script (available at http://github.com/cayennes/kanji-colorize) with these
settings:
    mode: spectrum
    saturation: 0.95
    value: 0.75
    image_size: 327
It remains under a Creative Commons-Attribution-Share Alike 3.0 License.

The original SVG has the following copyright:

Copyright (C) 2009/2010/2011 Ulrich Apel.
This work is distributed under the conditions of the Creative Commons
Attribution-Share Alike 3.0 Licence. This means you are free:
* to Share - to copy, distribute and transmit the work
* to Remix - to adapt the work

Under the following conditions:
* Attribution. You must attribute the work by stating your use of KanjiVG in
  your own copyright header and linking to KanjiVG's website
  (http://kanjivg.tagaini.net)
* Share Alike. If you alter, transform, or build upon this work, you may
  distribute the resulting work only under the same or similar license to this
  one.

See http://creativecommons.org/licenses/by-sa/3.0/ for more details.
-->
<!DOCTYPE svg PUBLIC "-//W3C//DTD SVG 1.0//EN" "http://www.w3.org/TR/2001/REC-SVG-20010904/DTD/svg10.dtd" [
<!ATTLIST g
xmlns:kvg CDATA #FIXED "http://kanjivg.tagaini.net"
kvg:element CDATA #IMPLIED
kvg:variant CDATA #IMPLIED
kvg:partial CDATA #IMPLIED
kvg:original CDATA #IMPLIED
kvg:part CDATA #IMPLIED
kvg:number CDATA #IMPLIED
kvg:tradForm CDATA #IMPLIED
kvg:radicalForm CDATA #IMPLIED
kvg:position CDATA #IMPLIED
kvg:radical CDATA #IMPLIED
kvg:phon CDATA #IMPLIED >
<!ATTLIST path
xmlns:kvg CDATA #FIXED "http://kanjivg.tagaini.net"
kvg:type CDATA #IMPLIED >
]>
<svg xmlns="http://www.w3.org/2000/svg" width="327" height = "327" viewBox="0 0 327 327">
<g id="kvg:StrokePaths_09bdb-Kaisho" style="fill:none;stroke:#000000;stroke-width:3;stroke-linecap:round;stroke-linejoin:round;" transform="scale(3.0,3.0)">
<g id="kvg:09bdb-Kaisho" kvg:element="鯛">
	<g id="kvg:09bdb-Kaisho-g1" kvg:element="魚" kvg:position="left" kvg:radical="general">
		<g id="kvg:09bdb-Kaisho-g2" kvg:element="𠂊" kvg:variant="true" kvg:original="勹" kvg:position="top">
			<path style="stroke: #bf0909;" id="kvg:09bdb-Kaisho-s1" kvg:type="㇒" d="M27.42,11c0.04,0.62,0.09,1.59-0.08,2.47c-1,5.21-6.74,16.65-14.61,23.65"/>
			<path style="stroke: #bf4209;" id="kvg:09bdb-Kaisho-s2" kvg:type="㇇" d="M25.96,20.63c1.69,0,12.13-2.44,13.9-2.73c1.52-0.25,2.16,1.87,1.23,2.9c-2.85,3.2-6.5,8.66-10.86,16.9"/>
		</g>
		<g id="kvg:09bdb-Kaisho-g3" kvg:position="bottom">
			<g id="kvg:09bdb-Kaisho-g4" kvg:element="田">
				<path style="stroke: #bf7c09;" id="kvg:09bdb-Kaisho-s3" kvg:type="㇑" d="M15.92,38.08c0.2,0.51,1.2,2.37,1.31,3.01c0.9,5.29,2.35,18.72,2.91,28.6"/>
				<path style="stroke: #bfb509;" id="kvg:09bdb-Kaisho-s4" kvg:type="㇕a" d="M17.84,40.41c6.95-1.33,19.81-2.72,25-3.84c1.91-0.41,2.88,1.04,2.78,2.5c-0.36,5.34-1.57,17.85-3.1,27.85"/>
				<path style="stroke: #8fbf09;" id="kvg:09bdb-Kaisho-s5" kvg:type="㇑a" d="M29.94,38.34c0.79,0.66,1.39,2.82,1.41,4.52c0.1,7.55,0.02,18.24,0.02,21.98"/>
				<path style="stroke: #56bf09;" id="kvg:09bdb-Kaisho-s6" kvg:type="㇐a" d="M19.58,52.98c5.49-1.16,11.26-1.41,16.84-1.91c0.6-0.05,1.18-0.11,1.73-0.15"/>
				<path style="stroke: #1cbf09;" id="kvg:09bdb-Kaisho-s7" kvg:type="㇐a" d="M20.5,67.13c5.01-0.57,14.95-1.44,21.86-2.37"/>
			</g>
			<g id="kvg:09bdb-Kaisho-g5" kvg:element="灬" kvg:variant="true" kvg:original="火">
				<path style="stroke: #09bf2f;" id="kvg:09bdb-Kaisho-s8" kvg:type="㇔" d="M16.17,80.21c0,4.81-2.31,11.92-2.91,13.29"/>
				<path style="stroke: #09bf69;" id="kvg:09bdb-Kaisho-s9" kvg:type="㇔" d="M24.97,79.56c0.84,2.22,1.64,8.33,1.85,11.78"/>
				<path style="stroke: #09bfa2;" id="kvg:09bdb-Kaisho-s10" kvg:type="㇔" d="M33.3,77.29c1.29,1.94,3.34,7.98,3.67,11"/>
				<path style="stroke: #09a2bf;" id="kvg:09bdb-Kaisho-s11" kvg:type="㇔" d="M40.49,74.62c1.72,1.74,4.44,7.17,4.86,9.88"/>
			</g>
		</g>
	</g>
	<g id="kvg:09bdb-Kaisho-g6" kvg:element="周" kvg:position="right">
		<g id="kvg:09bdb-Kaisho-g7" kvg:element="冂" kvg:variant="true">
			<path style="stroke: #0969bf;" id="kvg:09bdb-Kaisho-s12" kvg:type="㇒/㇑" d="M53.44,20.57c0.51,1.18,1.17,3.02,1.17,5.16c0,3.3,0.01,6.36,0.01,21.92c0,17.4-2.54,39.35-9.62,47.6"/>
			<path style="stroke: #092fbf;" id="kvg:09bdb-Kaisho-s13" kvg:type="㇆a" d="M54.95,21.96c6.41-0.94,33.64-5.11,34.92-5.21c3.04-0.24,3.71,0,3.71,4.48c0,2.36,0.17,61.77,0.17,67.19c0,8.48-1.75,8.58-7.13,2.84"/>
		</g>
		<g id="kvg:09bdb-Kaisho-g8" kvg:element="吉">
			<g id="kvg:09bdb-Kaisho-g9" kvg:element="士">
				<path style="stroke: #1c09bf;" id="kvg:09bdb-Kaisho-s14" kvg:type="㇐" d="M61.1,36.93c0.88,0.39,2.5,0.33,3.39,0.24c2.87-0.31,15.18-2.95,18.72-3.14c1.48-0.08,2.36,0.07,3.1,0.25"/>
				<path style="stroke: #5609bf;" id="kvg:09bdb-Kaisho-s15" kvg:type="㇑a" d="M72.8,24.89c0.66,0.33,1.05,1.61,1.18,2.34c0.13,0.74,0.01,17.14-0.12,21.8"/>
				<path style="stroke: #8f09bf;" id="kvg:09bdb-Kaisho-s16" kvg:type="㇐" d="M60.39,50.59c0.54,0.21,1.52,0.17,2.06,0.11c7.1-0.76,13.01-2.57,23.29-3.32c0.9-0.07,1.43,0.02,1.88,0.12"/>
			</g>
			<g id="kvg:09bdb-Kaisho-g10" kvg:element="口">
				<path style="stroke: #bf09b5;" id="kvg:09bdb-Kaisho-s17" kvg:type="㇑" d="M62.61,61.43c0.22,0.36,0.44,0.66,0.53,1.11c0.75,3.55,3.14,12.34,3.65,18.72"/>
				<path style="stroke: #bf097c;" id="kvg:09bdb-Kaisho-s18" kvg:type="㇕b" d="M63.95,63.19c5.27-1.44,16.09-2.84,18.95-3.02c1.05-0.06,1.59,1.88,1.41,2.86c-0.78,4.07-1.36,8.54-2.91,14.36"/>
				<path style="stroke: #bf0942;" id="kvg:09bdb-Kaisho-s19" kvg:type="㇐b" d="M67,79.91c3.19-0.55,12.16-2.3,16.41-2.41"/>
			</g>
		</g>
	</g>
</g>
</g>
<g id="kvg:StrokeNumbers_09bdb-Kaisho" style="font-size:8;fill:#808080" transform="scale(3.0,3.0)">
	<text style="fill: #bf0909;" transform="matrix(1 0 0 1 20.25 13.25)">1</text>
	<text style="fill: #bf4209;" transform="matrix(1 0 0 1 33.25 16.25)">2</text>
	<text style="fill: #bf7c09;" transform="matrix(1 0 0 1 10.25 48.25)">3</text>
	<text style="fill: #bfb509;" transform="matrix(1 0 0 1 21.25 36.25)">4</text>
	<text style="fill: #8fbf09;" transform="matrix(1 0 0 1 33.25 46.25)">5</text>
	<text style="fill: #56bf09;" transform="matrix(1 0 0 1 21.25 49.25)">6</text>
	<text style="fill: #1cbf09;" transform="matrix(1 0 0 1 23.25 64.25)">7</text>
	<text style="fill: #09bf2f;" transform="matrix(1 0 0 1 11.25 76.25)">8</text>
	<text style="fill: #09bf69;" transform="matrix(1 0 0 1 18.25 75.90)">9</text>
	<text style="fill: #09bfa2;" transform="matrix(1 0 0 1 23.25 75.25)">10</text>
	<text style="fill: #09a2bf;" transform="matrix(1 0 0 1 33.25 73.25)">11</text>
	<text style="fill: #0969bf;" transform="matrix(1 0 0 1 43.25 28.25)">12</text>
	<text style="fill: #092fbf;" transform="matrix(1 0 0 1 56.25 18.25)">13</text>
	<text style="fill: #1c09bf;" transform="matrix(1 0 0 1 58.25 34.25)">14</text>
	<text style="fill: #5609bf;" transform="matrix(1 0 0 1 76.25 27.25)">15</text>
	<text style="fill: #8f09bf;" transform="matrix(1 0 0 1 58.25 47.25)">16</text>
	<text style="fill: #bf09b5;" transform="matrix(1 0 0 1 56.25 76.25)">17</text>
	<text style="fill: #bf097c;" transform="matrix(1 0 0 1 65.25 59.25)">18</text>
	<text style="fill: #bf0942;" transform="matrix(1 0 0 1 69.25 76.25)">19</text>
</g>
</svg>
