<?xml version="1.0" encoding="UTF-8"?>
<!--
This file has been modified from the original version by the kanji_colorize.py
script (available at http://github.com/cayennes/kanji-colorize) with these
settings:
    mode: spectrum
    saturation: 0.95
    value: 0.75
    image_size: 327
It remains under a Creative Commons-Attribution-Share Alike 3.0 License.

The original SVG has the following copyright:

Copyright (C) 2009/2010/2011 Ulrich Apel.
This work is distributed under the conditions of the Creative Commons
Attribution-Share Alike 3.0 Licence. This means you are free:
* to Share - to copy, distribute and transmit the work
* to Remix - to adapt the work

Under the following conditions:
* Attribution. You must attribute the work by stating your use of KanjiVG in
  your own copyright header and linking to KanjiVG's website
  (http://kanjivg.tagaini.net)
* Share Alike. If you alter, transform, or build upon this work, you may
  distribute the resulting work only under the same or similar license to this
  one.

See http://creativecommons.org/licenses/by-sa/3.0/ for more details.
-->
<!DOCTYPE svg PUBLIC "-//W3C//DTD SVG 1.0//EN" "http://www.w3.org/TR/2001/REC-SVG-20010904/DTD/svg10.dtd" [
<!ATTLIST g
xmlns:kvg CDATA #FIXED "http://kanjivg.tagaini.net"
kvg:element CDATA #IMPLIED
kvg:variant CDATA #IMPLIED
kvg:partial CDATA #IMPLIED
kvg:original CDATA #IMPLIED
kvg:part CDATA #IMPLIED
kvg:number CDATA #IMPLIED
kvg:tradForm CDATA #IMPLIED
kvg:radicalForm CDATA #IMPLIED
kvg:position CDATA #IMPLIED
kvg:radical CDATA #IMPLIED
kvg:phon CDATA #IMPLIED >
<!ATTLIST path
xmlns:kvg CDATA #FIXED "http://kanjivg.tagaini.net"
kvg:type CDATA #IMPLIED >
]>
<svg xmlns="http://www.w3.org/2000/svg" width="327" height = "327" viewBox="0 0 327 327">
<g id="kvg:StrokePaths_09ce5-Kaisho" style="fill:none;stroke:#000000;stroke-width:3;stroke-linecap:round;stroke-linejoin:round;" transform="scale(3.0,3.0)">
<g id="kvg:09ce5-Kaisho" kvg:element="鳥" kvg:radical="general">
	<path style="stroke: #bf0909;" id="kvg:09ce5-Kaisho-s1" kvg:type="㇒" d="M49.72,10.68c0.03,0.26,0.06,0.67-0.06,1.05c-0.7,2.21-4.69,7.06-10.16,10.03"/>
	<path style="stroke: #bf6c09;" id="kvg:09ce5-Kaisho-s2" kvg:type="㇑" d="M33.63,24.07c0.46,0.38,0.82,0.9,0.82,1.55c0,6.64,0.05,32.13-0.23,42.58"/>
	<path style="stroke: #aebf09;" id="kvg:09ce5-Kaisho-s3" kvg:type="㇕a" d="M35.02,25.22c2.13-0.1,28.09-4.23,30.17-4.23c3.07,0,4.57,1.76,4.29,3.49c-0.17,1.06-2.25,10.38-4.23,18.52"/>
	<path style="stroke: #4bbf09;" id="kvg:09ce5-Kaisho-s4" kvg:type="㇐a" d="M35.36,34.69c5.21,0,10.67-1.25,15.81-1.94c1.82-0.24,3.64-0.48,5.37-0.71"/>
	<path style="stroke: #09bf2a;" id="kvg:09ce5-Kaisho-s5" kvg:type="㇐a" d="M35.24,45.28c5.31-0.38,23.37-3.38,29.98-3.7"/>
	<path style="stroke: #09bf8d;" id="kvg:09ce5-Kaisho-s6" kvg:type="㇐b" d="M35.53,56.05c11.22-1.3,37.4-4.84,42.22-5.55c1.68-0.25,4.53-0.53,5.38-0.35"/>
	<path style="stroke: #098dbf;" id="kvg:09ce5-Kaisho-s7" kvg:type="㇆a" d="M34.23,68.4c12.48-2.09,43.35-5.64,50.27-6.4c4.5-0.5,6.81,2.33,6,5.75c-2.25,9.5-5.82,18.96-9.5,25C77.5,98.5,74.75,96,71,93"/>
	<g id="kvg:09ce5-Kaisho-g1" kvg:element="灬" kvg:variant="true" kvg:original="火">
		<path style="stroke: #092abf;" id="kvg:09ce5-Kaisho-s8" kvg:type="㇔" d="M21.06,80.25c0.44,6-0.31,13.25-1.6,17"/>
		<path style="stroke: #4b09bf;" id="kvg:09ce5-Kaisho-s9" kvg:type="㇔" d="M34,78.5c3.14,2.04,6.13,7.63,6.91,10.8"/>
		<path style="stroke: #ae09bf;" id="kvg:09ce5-Kaisho-s10" kvg:type="㇔" d="M49.5,75.75c2.03,1.41,5.24,5.8,5.75,8"/>
		<path style="stroke: #bf096c;" id="kvg:09ce5-Kaisho-s11" kvg:type="㇔" d="M63.25,72.75c2.47,1.54,6.38,6.35,7,8.75"/>
	</g>
</g>
</g>
<g id="kvg:StrokeNumbers_09ce5-Kaisho" style="font-size:8;fill:#808080" transform="scale(3.0,3.0)">
	<text style="fill: #bf0909;" transform="matrix(1 0 0 1 42.50 11.50)">1</text>
	<text style="fill: #bf6c09;" transform="matrix(1 0 0 1 27.50 32.50)">2</text>
	<text style="fill: #aebf09;" transform="matrix(1 0 0 1 51.00 21.00)">3</text>
	<text style="fill: #4bbf09;" transform="matrix(1 0 0 1 38.34 33.00)">4</text>
	<text style="fill: #09bf2a;" transform="matrix(1 0 0 1 38.50 43.50)">5</text>
	<text style="fill: #09bf8d;" transform="matrix(1 0 0 1 38.38 53.50)">6</text>
	<text style="fill: #098dbf;" transform="matrix(1 0 0 1 38.43 64.50)">7</text>
	<text style="fill: #092abf;" transform="matrix(1 0 0 1 14.50 80.50)">8</text>
	<text style="fill: #4b09bf;" transform="matrix(1 0 0 1 27.50 80.50)">9</text>
	<text style="fill: #ae09bf;" transform="matrix(1 0 0 1 39.50 78.50)">10</text>
	<text style="fill: #bf096c;" transform="matrix(1 0 0 1 54.50 75.50)">11</text>
</g>
</svg>
