<?xml version="1.0" encoding="UTF-8"?>
<!--
This file has been modified from the original version by the kanji_colorize.py
script (available at http://github.com/cayennes/kanji-colorize) with these
settings:
    mode: spectrum
    saturation: 0.95
    value: 0.75
    image_size: 327
It remains under a Creative Commons-Attribution-Share Alike 3.0 License.

The original SVG has the following copyright:

Copyright (C) 2009/2010/2011 Ulrich Apel.
This work is distributed under the conditions of the Creative Commons
Attribution-Share Alike 3.0 Licence. This means you are free:
* to Share - to copy, distribute and transmit the work
* to Remix - to adapt the work

Under the following conditions:
* Attribution. You must attribute the work by stating your use of KanjiVG in
  your own copyright header and linking to KanjiVG's website
  (http://kanjivg.tagaini.net)
* Share Alike. If you alter, transform, or build upon this work, you may
  distribute the resulting work only under the same or similar license to this
  one.

See http://creativecommons.org/licenses/by-sa/3.0/ for more details.
-->
<!DOCTYPE svg PUBLIC "-//W3C//DTD SVG 1.0//EN" "http://www.w3.org/TR/2001/REC-SVG-20010904/DTD/svg10.dtd" [
<!ATTLIST g
xmlns:kvg CDATA #FIXED "http://kanjivg.tagaini.net"
kvg:element CDATA #IMPLIED
kvg:variant CDATA #IMPLIED
kvg:partial CDATA #IMPLIED
kvg:original CDATA #IMPLIED
kvg:part CDATA #IMPLIED
kvg:number CDATA #IMPLIED
kvg:tradForm CDATA #IMPLIED
kvg:radicalForm CDATA #IMPLIED
kvg:position CDATA #IMPLIED
kvg:radical CDATA #IMPLIED
kvg:phon CDATA #IMPLIED >
<!ATTLIST path
xmlns:kvg CDATA #FIXED "http://kanjivg.tagaini.net"
kvg:type CDATA #IMPLIED >
]>
<svg xmlns="http://www.w3.org/2000/svg" width="327" height = "327" viewBox="0 0 327 327">
<g id="kvg:StrokePaths_09ce9-Kaisho" style="fill:none;stroke:#000000;stroke-width:3;stroke-linecap:round;stroke-linejoin:round;" transform="scale(3.0,3.0)">
<g id="kvg:09ce9-Kaisho" kvg:element="鳩">
	<g id="kvg:09ce9-Kaisho-g1" kvg:element="九" kvg:position="left">
		<path style="stroke: #bf0909;" id="kvg:09ce9-Kaisho-s1" kvg:type="㇒" d="M27.14,16.12c0.23,1.61,0.61,2.48,0.63,3.6C28.15,59.58,23.07,77.09,10.25,90"/>
		<g id="kvg:09ce9-Kaisho-g2" kvg:element="乙">
			<path style="stroke: #bf5d09;" id="kvg:09ce9-Kaisho-s2" kvg:type="㇈" d="M13.75,39.42c0.55,0.64,2.59,0.21,3.28,0S37.94,33.05,38.56,33c1.37-0.11,2.74-0.19,2.32,2.19c-0.61,3.51-2.21,19.91-3.32,28.47C35.64,78.32,38,79.12,43.73,79.12c5.52,0,7.11-0.48,7.25-8.18"/>
		</g>
	</g>
	<g id="kvg:09ce9-Kaisho-g3" kvg:element="鳥" kvg:position="right" kvg:radical="general">
		<path style="stroke: #bfb109;" id="kvg:09ce9-Kaisho-s3" kvg:type="㇒" d="M72.38,10.93c0.02,0.3,0.04,0.77-0.04,1.19c-0.51,2.51-3.44,8.01-7.45,11.38"/>
		<path style="stroke: #79bf09;" id="kvg:09ce9-Kaisho-s4" kvg:type="㇑" d="M59.29,25.32c0.36,0.38,0.64,0.9,0.64,1.55c0,6.64,0.04,32.13-0.18,42.58"/>
		<path style="stroke: #25bf09;" id="kvg:09ce9-Kaisho-s5" kvg:type="㇕a" d="M60.38,26.47c1.67-0.1,21.98-3.73,23.6-3.73c2.4,0,3.57,1.76,3.36,3.49c-0.13,1.06-1.76,10.88-3.31,19.02"/>
		<path style="stroke: #09bf41;" id="kvg:09ce9-Kaisho-s6" kvg:type="㇐a" d="M60.65,36.44c4.06,0,8.37-1.1,12.37-1.69c1.42-0.21,2.85-0.42,4.2-0.62"/>
		<path style="stroke: #09bf95;" id="kvg:09ce9-Kaisho-s7" kvg:type="㇐a" d="M60.55,47.03c4.16-0.38,18.28-2.88,23.46-3.2"/>
		<path style="stroke: #0995bf;" id="kvg:09ce9-Kaisho-s8" kvg:type="㇐b" d="M60.78,57.8c8.78-1.3,28.26-3.84,32.03-4.55c1.31-0.25,4.04-0.03,4.71,0.15"/>
		<path style="stroke: #0941bf;" id="kvg:09ce9-Kaisho-s9" kvg:type="㇆a" d="M59.77,69.65c9.76-2.09,24.41-3.64,29.82-4.4c3.52-0.5,5.33,2.33,4.69,5.75c-1.76,9.5-3.05,15.96-5.93,22c-2.74,5.75-4.89,3.25-7.82,0.25"/>
		<g id="kvg:09ce9-Kaisho-g4" kvg:element="灬" kvg:variant="true" kvg:original="火">
			<path style="stroke: #2509bf;" id="kvg:09ce9-Kaisho-s10" kvg:type="㇔" d="M54.29,82.5c0.38,4.41-0.28,9.74-1.41,12.5"/>
			<path style="stroke: #7909bf;" id="kvg:09ce9-Kaisho-s11" kvg:type="㇔" d="M60.33,80.75c1.89,1.56,3.69,5.87,4.16,8.3"/>
			<path style="stroke: #bf09b1;" id="kvg:09ce9-Kaisho-s12" kvg:type="㇔" d="M69.21,76.5c1.59,1.41,4.1,5.8,4.5,8"/>
			<path style="stroke: #bf095d;" id="kvg:09ce9-Kaisho-s13" kvg:type="㇔" d="M77.97,72.75c1.93,1.41,4.99,5.8,5.48,8"/>
		</g>
	</g>
</g>
</g>
<g id="kvg:StrokeNumbers_09ce9-Kaisho" style="font-size:8;fill:#808080" transform="scale(3.0,3.0)">
	<text style="fill: #bf0909;" transform="matrix(1 0 0 1 18.25 16.25)">1</text>
	<text style="fill: #bf5d09;" transform="matrix(1 0 0 1 5.50 39.55)">2</text>
	<text style="fill: #bfb109;" transform="matrix(1 0 0 1 63.25 10.15)">3</text>
	<text style="fill: #79bf09;" transform="matrix(1 0 0 1 52.25 32.25)">4</text>
	<text style="fill: #25bf09;" transform="matrix(1 0 0 1 75.25 21.25)">5</text>
	<text style="fill: #09bf41;" transform="matrix(1 0 0 1 65.20 33.25)">6</text>
	<text style="fill: #09bf95;" transform="matrix(1 0 0 1 65.25 43.93)">7</text>
	<text style="fill: #0995bf;" transform="matrix(1 0 0 1 65.21 54.85)">8</text>
	<text style="fill: #0941bf;" transform="matrix(1 0 0 1 65.21 64.78)">9</text>
	<text style="fill: #2509bf;" transform="matrix(1 0 0 1 44.50 89.25)">10</text>
	<text style="fill: #7909bf;" transform="matrix(1 0 0 1 56.25 88.25)">11</text>
	<text style="fill: #bf09b1;" transform="matrix(1 0 0 1 63.50 84.25)">12</text>
	<text style="fill: #bf095d;" transform="matrix(1 0 0 1 73.25 80.25)">13</text>
</g>
</svg>
