<?xml version="1.0" encoding="UTF-8"?>
<!--
This file has been modified from the original version by the kanji_colorize.py
script (available at http://github.com/cayennes/kanji-colorize) with these
settings:
    mode: spectrum
    saturation: 0.95
    value: 0.75
    image_size: 327
It remains under a Creative Commons-Attribution-Share Alike 3.0 License.

The original SVG has the following copyright:

Copyright (C) 2009/2010/2011 Ulrich Apel.
This work is distributed under the conditions of the Creative Commons
Attribution-Share Alike 3.0 Licence. This means you are free:
* to Share - to copy, distribute and transmit the work
* to Remix - to adapt the work

Under the following conditions:
* Attribution. You must attribute the work by stating your use of KanjiVG in
  your own copyright header and linking to KanjiVG's website
  (http://kanjivg.tagaini.net)
* Share Alike. If you alter, transform, or build upon this work, you may
  distribute the resulting work only under the same or similar license to this
  one.

See http://creativecommons.org/licenses/by-sa/3.0/ for more details.
-->
<!DOCTYPE svg PUBLIC "-//W3C//DTD SVG 1.0//EN" "http://www.w3.org/TR/2001/REC-SVG-20010904/DTD/svg10.dtd" [
<!ATTLIST g
xmlns:kvg CDATA #FIXED "http://kanjivg.tagaini.net"
kvg:element CDATA #IMPLIED
kvg:variant CDATA #IMPLIED
kvg:partial CDATA #IMPLIED
kvg:original CDATA #IMPLIED
kvg:part CDATA #IMPLIED
kvg:number CDATA #IMPLIED
kvg:tradForm CDATA #IMPLIED
kvg:radicalForm CDATA #IMPLIED
kvg:position CDATA #IMPLIED
kvg:radical CDATA #IMPLIED
kvg:phon CDATA #IMPLIED >
<!ATTLIST path
xmlns:kvg CDATA #FIXED "http://kanjivg.tagaini.net"
kvg:type CDATA #IMPLIED >
]>
<svg xmlns="http://www.w3.org/2000/svg" width="327" height = "327" viewBox="0 0 327 327">
<g id="kvg:StrokePaths_09d28-Kaisho" style="fill:none;stroke:#000000;stroke-width:3;stroke-linecap:round;stroke-linejoin:round;" transform="scale(3.0,3.0)">
<g id="kvg:09d28-Kaisho" kvg:element="鴨">
	<g id="kvg:09d28-Kaisho-g1" kvg:element="甲" kvg:position="left">
		<g id="kvg:09d28-Kaisho-g2" kvg:element="田" kvg:partial="true">
			<path style="stroke: #bf0909;" id="kvg:09d28-Kaisho-s1" kvg:type="㇑" d="M12.25,22.74c0.23,0.64,0.61,2.05,0.72,2.84c1.14,8.08,2.65,22.16,3.25,34.17"/>
			<path style="stroke: #bf4d09;" id="kvg:09d28-Kaisho-s2" kvg:type="㇕" d="M13.69,24.62c8.73-1.48,22.07-3,28.08-3.64c2.21-0.23,3.53,1.14,3.45,3.85c-0.19,6.43-2.01,28.35-2.88,32.3"/>
			<path style="stroke: #bf9109;" id="kvg:09d28-Kaisho-s3" kvg:type="㇐" d="M14.98,40.43c6.55-0.8,13.11-1.48,19.67-2.17c0.79-0.08,1.56-0.16,2.29-0.24"/>
			<path style="stroke: #a8bf09;" id="kvg:09d28-Kaisho-s4" kvg:type="㇐" d="M16.64,57.21c7.6-1.46,17.82-2.35,26.13-2.97"/>
		</g>
		<g id="kvg:09d28-Kaisho-g3" kvg:element="丨" kvg:radical="nelson">
			<path style="stroke: #64bf09;" id="kvg:09d28-Kaisho-s5" kvg:type="㇑" d="M27.11,23.94c0.89,0.56,1.44,2.03,1.44,3.81c-0.03,8.98,0.3,65.54,0.3,68.47"/>
		</g>
	</g>
	<g id="kvg:09d28-Kaisho-g4" kvg:element="鳥" kvg:position="right" kvg:radical="tradit">
		<path style="stroke: #20bf09;" id="kvg:09d28-Kaisho-s6" kvg:type="㇒" d="M70.03,10.66c0.03,0.3,0.05,0.79-0.05,1.21c-0.61,2.52-4.11,7.93-8.9,11.08"/>
		<path style="stroke: #09bf36;" id="kvg:09d28-Kaisho-s7" kvg:type="㇑" d="M57.8,23.42c0.33,0.43,0.6,1.02,0.6,1.73c0,7.23,0.04,32.01-0.17,43.38"/>
		<path style="stroke: #09bf7b;" id="kvg:09d28-Kaisho-s8" kvg:type="㇕a" d="M58.81,24.75c1.55,0,23-3.17,24.51-3.06c2.24,0.16,3.33,2.15,3.13,4.02c-0.12,1.15-1.64,10.19-3.08,18.96"/>
		<path style="stroke: #09bfbf;" id="kvg:09d28-Kaisho-s9" kvg:type="㇐a" d="M59.06,34.08c4.11,0.29,8.72-0.83,12.78-1.3c1.48-0.17,2.97-0.34,4.38-0.5"/>
		<path style="stroke: #097bbf;" id="kvg:09d28-Kaisho-s10" kvg:type="㇐a" d="M58.97,45.12c3.88-0.14,19.55-1.98,24.38-2"/>
		<path style="stroke: #0936bf;" id="kvg:09d28-Kaisho-s11" kvg:type="㇐b" d="M58.69,56.36c8.18-0.84,30.29-2.36,33.8-2.88c1.22-0.19,3.3-0.35,3.92-0.11"/>
		<path style="stroke: #2009bf;" id="kvg:09d28-Kaisho-s12" kvg:type="㇆a" d="M58.24,68.75c9.1-1.63,26.13-3.42,31.17-3.9c3.28-0.31,4.97,0.89,4.38,4.57c-1.64,10.24-4.08,19.96-6.93,26.25c-2.86,6.33-5.97,1.04-7.3-0.24"/>
		<g id="kvg:09d28-Kaisho-g5" kvg:element="灬" kvg:variant="true" kvg:original="火">
			<path style="stroke: #6409bf;" id="kvg:09d28-Kaisho-s13" kvg:type="㇔" d="M50.27,81.23c0.4,3.71-0.29,8.16-1.46,10.44"/>
			<path style="stroke: #a809bf;" id="kvg:09d28-Kaisho-s14" kvg:type="㇔" d="M59.82,78.49c1.84,1.84,3.58,6.67,4.04,9.37"/>
			<path style="stroke: #bf0991;" id="kvg:09d28-Kaisho-s15" kvg:type="㇔" d="M69.7,76.29c1.34,1.42,3.46,5.68,3.8,7.76"/>
			<path style="stroke: #bf094d;" id="kvg:09d28-Kaisho-s16" kvg:type="㇔" d="M78.16,73.48c1.71,1.35,4.43,5.41,4.86,7.39"/>
		</g>
	</g>
</g>
</g>
<g id="kvg:StrokeNumbers_09d28-Kaisho" style="font-size:8;fill:#808080" transform="scale(3.0,3.0)">
	<text style="fill: #bf0909;" transform="matrix(1 0 0 1 4.50 27.50)">1</text>
	<text style="fill: #bf4d09;" transform="matrix(1 0 0 1 15.50 20.50)">2</text>
	<text style="fill: #bf9109;" transform="matrix(1 0 0 1 18.50 36.40)">3</text>
	<text style="fill: #a8bf09;" transform="matrix(1 0 0 1 19.50 53.50)">4</text>
	<text style="fill: #64bf09;" transform="matrix(1 0 0 1 31.50 30.50)">5</text>
	<text style="fill: #20bf09;" transform="matrix(1 0 0 1 61.25 11.50)">6</text>
	<text style="fill: #09bf36;" transform="matrix(1 0 0 1 50.25 31.50)">7</text>
	<text style="fill: #09bf7b;" transform="matrix(1 0 0 1 75.50 19.10)">8</text>
	<text style="fill: #09bfbf;" transform="matrix(1 0 0 1 63.83 31.03)">9</text>
	<text style="fill: #097bbf;" transform="matrix(1 0 0 1 62.18 42.50)">10</text>
	<text style="fill: #0936bf;" transform="matrix(1 0 0 1 62.44 53.50)">11</text>
	<text style="fill: #2009bf;" transform="matrix(1 0 0 1 62.25 65.50)">12</text>
	<text style="fill: #6409bf;" transform="matrix(1 0 0 1 41.50 79.50)">13</text>
	<text style="fill: #a809bf;" transform="matrix(1 0 0 1 52.50 83.50)">14</text>
	<text style="fill: #bf0991;" transform="matrix(1 0 0 1 62.50 81.50)">15</text>
	<text style="fill: #bf094d;" transform="matrix(1 0 0 1 71.50 79.50)">16</text>
</g>
</svg>
