<?xml version="1.0" encoding="UTF-8"?>
<!--
This file has been modified from the original version by the kanji_colorize.py
script (available at http://github.com/cayennes/kanji-colorize) with these
settings:
    mode: spectrum
    saturation: 0.95
    value: 0.75
    image_size: 327
It remains under a Creative Commons-Attribution-Share Alike 3.0 License.

The original SVG has the following copyright:

Copyright (C) 2009/2010/2011 Ulrich Apel.
This work is distributed under the conditions of the Creative Commons
Attribution-Share Alike 3.0 Licence. This means you are free:
* to Share - to copy, distribute and transmit the work
* to Remix - to adapt the work

Under the following conditions:
* Attribution. You must attribute the work by stating your use of KanjiVG in
  your own copyright header and linking to KanjiVG's website
  (http://kanjivg.tagaini.net)
* Share Alike. If you alter, transform, or build upon this work, you may
  distribute the resulting work only under the same or similar license to this
  one.

See http://creativecommons.org/licenses/by-sa/3.0/ for more details.
-->
<!DOCTYPE svg PUBLIC "-//W3C//DTD SVG 1.0//EN" "http://www.w3.org/TR/2001/REC-SVG-20010904/DTD/svg10.dtd" [
<!ATTLIST g
xmlns:kvg CDATA #FIXED "http://kanjivg.tagaini.net"
kvg:element CDATA #IMPLIED
kvg:variant CDATA #IMPLIED
kvg:partial CDATA #IMPLIED
kvg:original CDATA #IMPLIED
kvg:part CDATA #IMPLIED
kvg:number CDATA #IMPLIED
kvg:tradForm CDATA #IMPLIED
kvg:radicalForm CDATA #IMPLIED
kvg:position CDATA #IMPLIED
kvg:radical CDATA #IMPLIED
kvg:phon CDATA #IMPLIED >
<!ATTLIST path
xmlns:kvg CDATA #FIXED "http://kanjivg.tagaini.net"
kvg:type CDATA #IMPLIED >
]>
<svg xmlns="http://www.w3.org/2000/svg" width="327" height = "327" viewBox="0 0 327 327">
<g id="kvg:StrokePaths_09d8f-Kaisho" style="fill:none;stroke:#000000;stroke-width:3;stroke-linecap:round;stroke-linejoin:round;" transform="scale(3.0,3.0)">
<g id="kvg:09d8f-Kaisho" kvg:element="鶏">
	<g id="kvg:09d8f-Kaisho-g1" kvg:position="left">
		<g id="kvg:09d8f-Kaisho-g2" kvg:element="⺤" kvg:variant="true" kvg:original="爪">
			<path style="stroke: #bf0909;" id="kvg:09d8f-Kaisho-s1" kvg:type="㇒" d="M42.19,12.4c0.08,0.35,0.17,0.9-0.17,1.4c-2,2.96-13.49,9.46-29.21,13.43"/>
			<path style="stroke: #bf4209;" id="kvg:09d8f-Kaisho-s2" kvg:type="㇔" d="M17.69,34c1.88,1.63,4.36,6.71,4.83,9.25"/>
			<path style="stroke: #bf7c09;" id="kvg:09d8f-Kaisho-s3" kvg:type="㇔" d="M30.72,28.64c1.74,1.55,4,6.36,4.44,8.77"/>
			<path style="stroke: #bfb509;" id="kvg:09d8f-Kaisho-s4" kvg:type="㇒" d="M49.3,23.92c0.02,0.41,0.04,1.06-0.04,1.65c-0.45,3.47-3.04,11.08-6.59,15.74"/>
		</g>
		<g id="kvg:09d8f-Kaisho-g3" kvg:element="夫">
			<path style="stroke: #8fbf09;" id="kvg:09d8f-Kaisho-s5" kvg:type="㇐" d="M15.59,53.83c0.6,0.24,1.7,0.25,2.3,0.24c4.85-0.07,21.85-3.32,28.67-3.97c1-0.09,1.6,0.12,2.1,0.24"/>
			<g id="kvg:09d8f-Kaisho-g4" kvg:element="大">
				<path style="stroke: #56bf09;" id="kvg:09d8f-Kaisho-s6" kvg:type="㇐" d="M11.5,69.84c0.62,0.24,1.75,0.29,2.37,0.24c7.39-0.58,29.44-4.83,35-4.75c1.03,0.02,1.65,0.12,2.16,0.24"/>
				<path style="stroke: #1cbf09;" id="kvg:09d8f-Kaisho-s7" kvg:type="㇒" d="M31.8,43.17c0.35,0.79,0.55,1.53,0.49,3.06c-1.04,28.01-6.04,40.01-20.54,49.76"/>
				<path style="stroke: #09bf2f;" id="kvg:09d8f-Kaisho-s8" kvg:type="㇏" d="M31.75,74c5,3.75,9.75,9.25,11.5,16"/>
			</g>
		</g>
	</g>
	<g id="kvg:09d8f-Kaisho-g5" kvg:element="鳥" kvg:position="right" kvg:radical="general">
		<path style="stroke: #09bf69;" id="kvg:09d8f-Kaisho-s9" kvg:type="㇒" d="M71.54,10.16c0.02,0.28,0.04,0.72-0.03,1.11c-0.41,2.32-2.74,7.29-5.93,10.18"/>
		<path style="stroke: #09bfa2;" id="kvg:09d8f-Kaisho-s10" kvg:type="㇑" d="M58.3,21.92c0.33,0.43,0.6,1.02,0.6,1.73c0,7.23,0.04,35.01-0.17,46.38"/>
		<path style="stroke: #09a2bf;" id="kvg:09d8f-Kaisho-s11" kvg:type="㇕a" d="M59.31,23.25c1.55,0,21-3.17,22.51-3.06c2.24,0.16,3.33,2.15,3.13,4.02c-0.12,1.15-1.64,13.19-3.08,21.96"/>
		<path style="stroke: #0969bf;" id="kvg:09d8f-Kaisho-s12" kvg:type="㇐a" d="M59.56,35.58c3.78,0.27,8.06-0.83,11.78-1.3c1.36-0.17,2.72-0.34,4.01-0.5"/>
		<path style="stroke: #092fbf;" id="kvg:09d8f-Kaisho-s13" kvg:type="㇐a" d="M59.47,47.12c3.88-0.14,17.55-2.48,22.38-2.5"/>
		<path style="stroke: #1c09bf;" id="kvg:09d8f-Kaisho-s14" kvg:type="㇐b" d="M59.69,59.36c8.18-0.84,26.29-2.86,29.8-3.38c1.22-0.19,3.3-0.35,3.92-0.11"/>
		<path style="stroke: #5609bf;" id="kvg:09d8f-Kaisho-s15" kvg:type="㇆a" d="M58.74,70.25c9.1-1.63,26.13-3.42,31.17-3.9c3.28-0.31,4.97,0.89,4.38,4.57c-1.64,10.24-4.08,19.96-6.93,26.25c-2.86,6.33-5.97,1.04-7.3-0.24"/>
		<g id="kvg:09d8f-Kaisho-g6" kvg:element="灬" kvg:variant="true" kvg:original="火">
			<path style="stroke: #8f09bf;" id="kvg:09d8f-Kaisho-s16" kvg:type="㇔" d="M51.77,82.73c0.4,3.71-0.29,8.16-1.46,10.44"/>
			<path style="stroke: #bf09b5;" id="kvg:09d8f-Kaisho-s17" kvg:type="㇔" d="M59.82,80.99c1.84,1.84,3.58,6.67,4.04,9.37"/>
			<path style="stroke: #bf097c;" id="kvg:09d8f-Kaisho-s18" kvg:type="㇔" d="M68.7,79.29c1.34,1.42,3.46,5.68,3.8,7.76"/>
			<path style="stroke: #bf0942;" id="kvg:09d8f-Kaisho-s19" kvg:type="㇔" d="M77.16,76.98c1.71,1.35,4.43,5.41,4.86,7.39"/>
		</g>
	</g>
</g>
</g>
<g id="kvg:StrokeNumbers_09d8f-Kaisho" style="font-size:8;fill:#808080" transform="scale(3.0,3.0)">
	<text style="fill: #bf0909;" transform="matrix(1 0 0 1 33.75 12.13)">1</text>
	<text style="fill: #bf4209;" transform="matrix(1 0 0 1 11.25 37.50)">2</text>
	<text style="fill: #bf7c09;" transform="matrix(1 0 0 1 23.50 32.50)">3</text>
	<text style="fill: #bfb509;" transform="matrix(1 0 0 1 41.25 25.63)">4</text>
	<text style="fill: #8fbf09;" transform="matrix(1 0 0 1 9.00 55.63)">5</text>
	<text style="fill: #56bf09;" transform="matrix(1 0 0 1 4.50 70.55)">6</text>
	<text style="fill: #1cbf09;" transform="matrix(1 0 0 1 25.50 50.50)">7</text>
	<text style="fill: #09bf2f;" transform="matrix(1 0 0 1 36.75 76.63)">8</text>
	<text style="fill: #09bf69;" transform="matrix(1 0 0 1 62.50 9.50)">9</text>
	<text style="fill: #09bfa2;" transform="matrix(1 0 0 1 48.50 39.50)">10</text>
	<text style="fill: #09a2bf;" transform="matrix(1 0 0 1 56.25 19.63)">11</text>
	<text style="fill: #0969bf;" transform="matrix(1 0 0 1 63.50 31.50)">12</text>
	<text style="fill: #092fbf;" transform="matrix(1 0 0 1 63.50 43.42)">13</text>
	<text style="fill: #1c09bf;" transform="matrix(1 0 0 1 63.50 55.50)">14</text>
	<text style="fill: #5609bf;" transform="matrix(1 0 0 1 63.50 66.42)">15</text>
	<text style="fill: #8f09bf;" transform="matrix(1 0 0 1 44.50 81.13)">16</text>
	<text style="fill: #bf09b5;" transform="matrix(1 0 0 1 55.50 79.63)">17</text>
	<text style="fill: #bf097c;" transform="matrix(1 0 0 1 65.50 77.50)">18</text>
	<text style="fill: #bf0942;" transform="matrix(1 0 0 1 78.50 75.50)">19</text>
</g>
</svg>
