<?xml version="1.0" encoding="UTF-8"?>
<!--
This file has been modified from the original version by the kanji_colorize.py
script (available at http://github.com/cayennes/kanji-colorize) with these
settings:
    mode: spectrum
    saturation: 0.95
    value: 0.75
    image_size: 327
It remains under a Creative Commons-Attribution-Share Alike 3.0 License.

The original SVG has the following copyright:

Copyright (C) 2009/2010/2011 Ulrich Apel.
This work is distributed under the conditions of the Creative Commons
Attribution-Share Alike 3.0 Licence. This means you are free:
* to Share - to copy, distribute and transmit the work
* to Remix - to adapt the work

Under the following conditions:
* Attribution. You must attribute the work by stating your use of KanjiVG in
  your own copyright header and linking to KanjiVG's website
  (http://kanjivg.tagaini.net)
* Share Alike. If you alter, transform, or build upon this work, you may
  distribute the resulting work only under the same or similar license to this
  one.

See http://creativecommons.org/licenses/by-sa/3.0/ for more details.
-->
<!DOCTYPE svg PUBLIC "-//W3C//DTD SVG 1.0//EN" "http://www.w3.org/TR/2001/REC-SVG-20010904/DTD/svg10.dtd" [
<!ATTLIST g
xmlns:kvg CDATA #FIXED "http://kanjivg.tagaini.net"
kvg:element CDATA #IMPLIED
kvg:variant CDATA #IMPLIED
kvg:partial CDATA #IMPLIED
kvg:original CDATA #IMPLIED
kvg:part CDATA #IMPLIED
kvg:number CDATA #IMPLIED
kvg:tradForm CDATA #IMPLIED
kvg:radicalForm CDATA #IMPLIED
kvg:position CDATA #IMPLIED
kvg:radical CDATA #IMPLIED
kvg:phon CDATA #IMPLIED >
<!ATTLIST path
xmlns:kvg CDATA #FIXED "http://kanjivg.tagaini.net"
kvg:type CDATA #IMPLIED >
]>
<svg xmlns="http://www.w3.org/2000/svg" width="327" height = "327" viewBox="0 0 327 327">
<g id="kvg:StrokePaths_09ebf-Kaisho" style="fill:none;stroke:#000000;stroke-width:3;stroke-linecap:round;stroke-linejoin:round;" transform="scale(3.0,3.0)">
<g id="kvg:09ebf-Kaisho" kvg:element="麿">
	<g id="kvg:09ebf-Kaisho-g1" kvg:element="麻" kvg:position="tare" kvg:radical="general">
		<g id="kvg:09ebf-Kaisho-g2" kvg:element="广" kvg:position="tare">
			<path style="stroke: #bf0909;" id="kvg:09ebf-Kaisho-s1" kvg:type="㇑a" d="M52.05,10.38c1.97,0.77,6.14,5.77,6.53,7.3"/>
			<g id="kvg:09ebf-Kaisho-g3" kvg:element="厂">
				<path style="stroke: #bf4609;" id="kvg:09ebf-Kaisho-s2" kvg:type="㇐" d="M23.38,24.98c1.52,0.54,4.3,0.63,5.82,0.54c15.8-0.91,39.3-3.77,57.11-4.73c2.53-0.14,4.05,0.26,5.31,0.53"/>
				<path style="stroke: #bf8209;" id="kvg:09ebf-Kaisho-s3" kvg:type="㇒" d="M27.24,25.75c0.05,1.58,0.1,4.07-0.09,6.33C26.02,45.44,25,77.75,11.31,92.22"/>
			</g>
		</g>
		<g id="kvg:09ebf-Kaisho-g4" kvg:element="林">
			<g id="kvg:09ebf-Kaisho-g5" kvg:element="木">
				<path style="stroke: #bfbf09;" id="kvg:09ebf-Kaisho-s4" kvg:type="㇐" d="M32.38,36.84c0.49,0.16,2.48,0.64,3.79,0.5c4.6-0.48,11.82-2.16,16.75-2.48c1.31-0.08,2.3-0.1,3.12,0.06"/>
				<path style="stroke: #82bf09;" id="kvg:09ebf-Kaisho-s5" kvg:type="㇑" d="M43.69,29.54c0.56,0.71,1.35,1.91,1.35,2.58c0,4.88,0,16.02-0.2,20.02"/>
				<path style="stroke: #46bf09;" id="kvg:09ebf-Kaisho-s6" kvg:type="㇒" d="M45.21,36.77c-2.23,5.41-8.89,14.48-13.53,17.54"/>
				<path style="stroke: #09bf09;" id="kvg:09ebf-Kaisho-s7" kvg:type="㇔" d="M47.47,39.97c2.67,1.16,5.53,3.49,7.05,5.53"/>
			</g>
			<g id="kvg:09ebf-Kaisho-g6" kvg:element="木">
				<path style="stroke: #09bf46;" id="kvg:09ebf-Kaisho-s8" kvg:type="㇐" d="M62.25,35.22c0.5,0.16,1.58,0.24,2.91,0.16C71.5,35,74.5,34,84.17,32.76c1.32-0.17,2.48-0.16,3.31,0"/>
				<path style="stroke: #09bf82;" id="kvg:09ebf-Kaisho-s9" kvg:type="㇑" d="M72.91,26.86c0.84,0.64,1.35,1.91,1.35,2.58c0,4.81,0.29,14.31,0.29,19.89"/>
				<path style="stroke: #09bfbf;" id="kvg:09ebf-Kaisho-s10" kvg:type="㇒" d="M73.45,34.69c-2.17,5.91-8.9,14.13-13.92,17.16"/>
				<path style="stroke: #0982bf;" id="kvg:09ebf-Kaisho-s11" kvg:type="㇏" d="M75.37,35.98c4.59,4.52,11.93,10.33,15.65,12.11c1.06,0.51,1.65,0.86,2.55,1.03"/>
			</g>
		</g>
	</g>
	<g id="kvg:09ebf-Kaisho-g7" kvg:element="呂">
		<g id="kvg:09ebf-Kaisho-g8" kvg:element="口" kvg:position="top">
			<path style="stroke: #0946bf;" id="kvg:09ebf-Kaisho-s12" kvg:type="㇑" d="M39.5,56.6c0.41,0.27,0.82,0.49,1,0.83c1.4,2.63,2.07,8.84,3.02,13.53"/>
			<path style="stroke: #0909bf;" id="kvg:09ebf-Kaisho-s13" kvg:type="㇕b" d="M42.03,57.53c9.97-0.95,29.85-3.1,34.99-3.4c1.88-0.11,3.01,1.4,2.73,2.19c-1.12,3.27-1.41,5.08-3.81,9.77"/>
			<path style="stroke: #4609bf;" id="kvg:09ebf-Kaisho-s14" kvg:type="㇐b" d="M44.93,69.24c6.04-0.33,25.73-2.41,33.4-2.71"/>
		</g>
		<g id="kvg:09ebf-Kaisho-g9" kvg:position="bottom">
			<g id="kvg:09ebf-Kaisho-g10" kvg:element="丿">
				<path style="stroke: #8209bf;" id="kvg:09ebf-Kaisho-s15" kvg:type="㇒" d="M55.55,70.72c0.45,1.28,0.67,2.16,0.01,3.25c-0.5,0.81-4.06,5.32-4.94,6.4"/>
			</g>
			<g id="kvg:09ebf-Kaisho-g11" kvg:element="口">
				<path style="stroke: #bf09bf;" id="kvg:09ebf-Kaisho-s16" kvg:type="㇑" d="M36.09,80.89c0.52,0.32,1.06,0.59,1.29,0.99c1.81,3.1,2.45,10.84,3.68,16.36"/>
				<path style="stroke: #bf0982;" id="kvg:09ebf-Kaisho-s17" kvg:type="㇕b" d="M39.35,82.03c12.84-0.91,33.71-3.39,40.34-3.63c2.42-0.09,3.87,1.7,3.52,2.62c-1.45,3.8-2.71,8.24-3.84,12"/>
				<path style="stroke: #bf0946;" id="kvg:09ebf-Kaisho-s18" kvg:type="㇐b" d="M41.58,96.96c7.78-0.26,30.34-3.19,40.21-3.39"/>
			</g>
		</g>
	</g>
</g>
</g>
<g id="kvg:StrokeNumbers_09ebf-Kaisho" style="font-size:8;fill:#808080" transform="scale(3.0,3.0)">
	<text style="fill: #bf0909;" transform="matrix(1 0 0 1 46.25 11.25)">1</text>
	<text style="fill: #bf4609;" transform="matrix(1 0 0 1 25.25 22.25)">2</text>
	<text style="fill: #bf8209;" transform="matrix(1 0 0 1 19.25 33.73)">3</text>
	<text style="fill: #bfbf09;" transform="matrix(1 0 0 1 32.25 34.25)">4</text>
	<text style="fill: #82bf09;" transform="matrix(1 0 0 1 48.25 31.25)">5</text>
	<text style="fill: #46bf09;" transform="matrix(1 0 0 1 34.00 45.25)">6</text>
	<text style="fill: #09bf09;" transform="matrix(1 0 0 1 53.25 42.25)">7</text>
	<text style="fill: #09bf46;" transform="matrix(1 0 0 1 61.25 32.25)">8</text>
	<text style="fill: #09bf82;" transform="matrix(1 0 0 1 78.25 29.25)">9</text>
	<text style="fill: #09bfbf;" transform="matrix(1 0 0 1 59.00 42.25)">10</text>
	<text style="fill: #0982bf;" transform="matrix(1 0 0 1 84.25 41.25)">11</text>
	<text style="fill: #0946bf;" transform="matrix(1 0 0 1 31.00 64.25)">12</text>
	<text style="fill: #0909bf;" transform="matrix(1 0 0 1 46.00 54.25)">13</text>
	<text style="fill: #4609bf;" transform="matrix(1 0 0 1 46.00 66.25)">14</text>
	<text style="fill: #8209bf;" transform="matrix(1 0 0 1 45.25 75.83)">15</text>
	<text style="fill: #bf09bf;" transform="matrix(1 0 0 1 28.25 89.25)">16</text>
	<text style="fill: #bf0982;" transform="matrix(1 0 0 1 39.25 80.25)">17</text>
	<text style="fill: #bf0946;" transform="matrix(1 0 0 1 43.25 93.25)">18</text>
</g>
</svg>
