<?xml version="1.0" encoding="UTF-8"?>
<!--
This file has been modified from the original version by the kanji_colorize.py
script (available at http://github.com/cayennes/kanji-colorize) with these
settings:
    mode: spectrum
    saturation: 0.95
    value: 0.75
    image_size: 327
It remains under a Creative Commons-Attribution-Share Alike 3.0 License.

The original SVG has the following copyright:

Copyright (C) 2009/2010/2011 Ulrich Apel.
This work is distributed under the conditions of the Creative Commons
Attribution-Share Alike 3.0 Licence. This means you are free:
* to Share - to copy, distribute and transmit the work
* to Remix - to adapt the work

Under the following conditions:
* Attribution. You must attribute the work by stating your use of KanjiVG in
  your own copyright header and linking to KanjiVG's website
  (http://kanjivg.tagaini.net)
* Share Alike. If you alter, transform, or build upon this work, you may
  distribute the resulting work only under the same or similar license to this
  one.

See http://creativecommons.org/licenses/by-sa/3.0/ for more details.
-->
<!DOCTYPE svg PUBLIC "-//W3C//DTD SVG 1.0//EN" "http://www.w3.org/TR/2001/REC-SVG-20010904/DTD/svg10.dtd" [
<!ATTLIST g
xmlns:kvg CDATA #FIXED "http://kanjivg.tagaini.net"
kvg:element CDATA #IMPLIED
kvg:variant CDATA #IMPLIED
kvg:partial CDATA #IMPLIED
kvg:original CDATA #IMPLIED
kvg:part CDATA #IMPLIED
kvg:number CDATA #IMPLIED
kvg:tradForm CDATA #IMPLIED
kvg:radicalForm CDATA #IMPLIED
kvg:position CDATA #IMPLIED
kvg:radical CDATA #IMPLIED
kvg:phon CDATA #IMPLIED >
<!ATTLIST path
xmlns:kvg CDATA #FIXED "http://kanjivg.tagaini.net"
kvg:type CDATA #IMPLIED >
]>
<svg xmlns="http://www.w3.org/2000/svg" width="327" height = "327" viewBox="0 0 327 327">
<g id="kvg:StrokePaths_09ebb-Kaisho" style="fill:none;stroke:#000000;stroke-width:3;stroke-linecap:round;stroke-linejoin:round;" transform="scale(3.0,3.0)">
<g id="kvg:09ebb-Kaisho" kvg:element="麻" kvg:radical="general">
	<g id="kvg:09ebb-Kaisho-g1" kvg:element="广" kvg:position="tare">
		<path style="stroke: #bf0909;" id="kvg:09ebb-Kaisho-s1" kvg:type="㇔/㇑a" d="M49.3,10.63c2.27,0.9,7.08,6.75,7.53,8.55"/>
		<g id="kvg:09ebb-Kaisho-g2" kvg:element="厂">
			<path style="stroke: #bf6c09;" id="kvg:09ebb-Kaisho-s2" kvg:type="㇐" d="M20.13,26.73c1.52,0.54,4.3,0.63,5.82,0.54c15.8-0.91,34.8-4.52,54.61-4.73c2.53-0.03,4.05,0.26,5.31,0.53"/>
			<path style="stroke: #aebf09;" id="kvg:09ebb-Kaisho-s3" kvg:type="㇒" d="M24.99,29.5c0.04,1.49,0.09,3.86-0.09,6c-1.06,12.65-3.44,43.34-14.85,56.97"/>
		</g>
	</g>
	<g id="kvg:09ebb-Kaisho-g3" kvg:element="林">
		<g id="kvg:09ebb-Kaisho-g4" kvg:element="木">
			<path style="stroke: #4bbf09;" id="kvg:09ebb-Kaisho-s4" kvg:type="㇐" d="M29.39,52.62c0.51,0.21,2.03,0.18,3.38,0c4.73-0.63,12.14-2.18,17.2-2.61c1.35-0.11,2.36-0.13,3.21,0.08"/>
			<path style="stroke: #09bf2a;" id="kvg:09ebb-Kaisho-s5" kvg:type="㇑" d="M39.97,36.43c1.05,0.42,1.68,1.89,1.89,2.74c0.21,0.84-0.21,53.24-0.21,53.58c0,10.5-5.28,2.88-6.65,1.5"/>
			<path style="stroke: #09bf8d;" id="kvg:09ebb-Kaisho-s6" kvg:type="㇒" d="M41.02,54.17C37.5,64.53,27,81.91,19.68,87.78"/>
			<path style="stroke: #098dbf;" id="kvg:09ebb-Kaisho-s7" kvg:type="㇔" d="M45.14,60.68c3.42,1.95,7.08,5.84,9.04,9.25"/>
		</g>
		<g id="kvg:09ebb-Kaisho-g5" kvg:element="木">
			<path style="stroke: #092abf;" id="kvg:09ebb-Kaisho-s8" kvg:type="㇐" d="M58.52,49.17c0.51,0.21,1.62,0.33,2.98,0.21c4.81-0.42,12.69-2.39,22.09-3.45c1.36-0.15,2.55-0.21,3.4,0"/>
			<path style="stroke: #4b09bf;" id="kvg:09ebb-Kaisho-s9" kvg:type="㇑" d="M70.49,32.25c1.05,0.42,1.69,1.89,1.9,2.74c0.21,0.84-0.21,52.07-0.21,57.34c0,11.17-4.43,3.17-5.43,2.17"/>
			<path style="stroke: #ae09bf;" id="kvg:09ebb-Kaisho-s10" kvg:type="㇒" d="M72.58,48.15c-3.14,13.1-12.92,31.32-20.2,38.04"/>
			<path style="stroke: #bf096c;" id="kvg:09ebb-Kaisho-s11" kvg:type="㇏" d="M73.02,50.17c5.81,11.16,15.11,25.47,19.83,29.88c1.34,1.25,2.1,2.12,3.22,2.54"/>
		</g>
	</g>
</g>
</g>
<g id="kvg:StrokeNumbers_09ebb-Kaisho" style="font-size:8;fill:#808080" transform="scale(3.0,3.0)">
	<text style="fill: #bf0909;" transform="matrix(1 0 0 1 43.50 11.50)">1</text>
	<text style="fill: #bf6c09;" transform="matrix(1 0 0 1 24.75 24.13)">2</text>
	<text style="fill: #aebf09;" transform="matrix(1 0 0 1 17.50 36.50)">3</text>
	<text style="fill: #4bbf09;" transform="matrix(1 0 0 1 29.25 49.63)">4</text>
	<text style="fill: #09bf2a;" transform="matrix(1 0 0 1 31.50 37.50)">5</text>
	<text style="fill: #09bf8d;" transform="matrix(1 0 0 1 30.75 63.50)">6</text>
	<text style="fill: #098dbf;" transform="matrix(1 0 0 1 47.50 60.50)">7</text>
	<text style="fill: #092abf;" transform="matrix(1 0 0 1 57.50 46.63)">8</text>
	<text style="fill: #4b09bf;" transform="matrix(1 0 0 1 62.25 33.50)">9</text>
	<text style="fill: #ae09bf;" transform="matrix(1 0 0 1 58.50 60.50)">10</text>
	<text style="fill: #bf096c;" transform="matrix(1 0 0 1 77.50 57.50)">11</text>
</g>
</svg>
