<?xml version="1.0" encoding="UTF-8"?>
<!--
This file has been modified from the original version by the kanji_colorize.py
script (available at http://github.com/cayennes/kanji-colorize) with these
settings:
    mode: spectrum
    saturation: 0.95
    value: 0.75
    image_size: 327
It remains under a Creative Commons-Attribution-Share Alike 3.0 License.

The original SVG has the following copyright:

Copyright (C) 2009/2010/2011 Ulrich Apel.
This work is distributed under the conditions of the Creative Commons
Attribution-Share Alike 3.0 Licence. This means you are free:
* to Share - to copy, distribute and transmit the work
* to Remix - to adapt the work

Under the following conditions:
* Attribution. You must attribute the work by stating your use of KanjiVG in
  your own copyright header and linking to KanjiVG's website
  (http://kanjivg.tagaini.net)
* Share Alike. If you alter, transform, or build upon this work, you may
  distribute the resulting work only under the same or similar license to this
  one.

See http://creativecommons.org/licenses/by-sa/3.0/ for more details.
-->
<!DOCTYPE svg PUBLIC "-//W3C//DTD SVG 1.0//EN" "http://www.w3.org/TR/2001/REC-SVG-20010904/DTD/svg10.dtd" [
<!ATTLIST g
xmlns:kvg CDATA #FIXED "http://kanjivg.tagaini.net"
kvg:element CDATA #IMPLIED
kvg:variant CDATA #IMPLIED
kvg:partial CDATA #IMPLIED
kvg:original CDATA #IMPLIED
kvg:part CDATA #IMPLIED
kvg:number CDATA #IMPLIED
kvg:tradForm CDATA #IMPLIED
kvg:radicalForm CDATA #IMPLIED
kvg:position CDATA #IMPLIED
kvg:radical CDATA #IMPLIED
kvg:phon CDATA #IMPLIED >
<!ATTLIST path
xmlns:kvg CDATA #FIXED "http://kanjivg.tagaini.net"
kvg:type CDATA #IMPLIED >
]>
<svg xmlns="http://www.w3.org/2000/svg" width="327" height = "327" viewBox="0 0 327 327">
<g id="kvg:StrokePaths_09ece-Kaisho" style="fill:none;stroke:#000000;stroke-width:3;stroke-linecap:round;stroke-linejoin:round;" transform="scale(3.0,3.0)">
<g id="kvg:09ece-Kaisho" kvg:element="黎" kvg:position="top">
	<g id="kvg:09ece-Kaisho-g1" kvg:position="left">
		<g id="kvg:09ece-Kaisho-g2" kvg:element="黍" kvg:part="1" kvg:radical="tradit">
			<g id="kvg:09ece-Kaisho-g3" kvg:element="禾" kvg:position="top">
				<g id="kvg:09ece-Kaisho-g4" kvg:element="丿" kvg:position="top">
					<path style="stroke: #bf0909;" id="kvg:09ece-Kaisho-s1" kvg:type="㇒" d="M40.64,10.5c0.05,0.23,0.11,0.59-0.11,0.92c-1.31,1.94-8.8,6.19-19.06,8.79"/>
				</g>
				<g id="kvg:09ece-Kaisho-g5" kvg:element="木" kvg:position="bottom">
					<path style="stroke: #bf5209;" id="kvg:09ece-Kaisho-s2" kvg:type="㇐" d="M13.87,27.22c0.33,0.1,3.66,0.35,4.53,0.29c3.97-0.29,18.85-2.76,25.77-3.43c0.88-0.08,1.98,0.11,2.53,0.21"/>
					<path style="stroke: #bf9a09;" id="kvg:09ece-Kaisho-s3" kvg:type="㇑" d="M32.96,18.06c0.39,0.49,1.13,1.71,1.21,2.69c0.06,0.78-0.58,18.35-0.58,25.04c0,9.71-4.96,1.59-5.83,0.71"/>
					<path style="stroke: #9abf09;" id="kvg:09ece-Kaisho-s4" kvg:type="㇒" d="M33.29,25.75C29.17,32.11,22.02,41.42,13,45.16"/>
					<path style="stroke: #52bf09;" id="kvg:09ece-Kaisho-s5" kvg:type="㇔" d="M37,30.25c4.5,2.5,7,5,8.5,8.5"/>
				</g>
			</g>
			<g id="kvg:09ece-Kaisho-g6" kvg:position="right">
				<g id="kvg:09ece-Kaisho-g7" kvg:element="勹">
					<g id="kvg:09ece-Kaisho-g8" kvg:element="丿">
						<path style="stroke: #09bf09;" id="kvg:09ece-Kaisho-s6" kvg:type="㇒" d="M65.17,8.76c0.04,0.48,0.08,1.23-0.08,1.91c-0.95,4.02-6.39,12.85-13.84,18.26"/>
					</g>
					<path style="stroke: #09bf52;" id="kvg:09ece-Kaisho-s7" kvg:type="㇆" d="M62.7,21.3c0.6,0.36,2.44,0.48,3.4,0.24c0.96-0.24,18.85-3.28,21.25-3.4c2.4-0.12,2.71,1.18,2.52,3.72c-0.37,4.89-2.88,14.85-8.16,21.69c-1.59,2.05-2.92,0.9-4.34-0.6"/>
				</g>
				<g id="kvg:09ece-Kaisho-g9" kvg:element="丿">
					<path style="stroke: #09bf9a;" id="kvg:09ece-Kaisho-s8" kvg:type="㇒" d="M72.02,21.89c0.03,0.47,0.07,1.22-0.07,1.9c-0.83,4-5.61,12.79-12.14,18.17"/>
				</g>
			</g>
		</g>
		<g id="kvg:09ece-Kaisho-g10" kvg:position="bottom">
			<g id="kvg:09ece-Kaisho-g11" kvg:element="黍" kvg:part="2" kvg:radical="tradit">
				<path style="stroke: #099abf;" id="kvg:09ece-Kaisho-s9" kvg:type="㇒" d="M53,41.25c0.11,0.66-0.07,1.89-0.69,2.67C47.27,50.28,35.08,63.09,15,69.5"/>
				<path style="stroke: #0952bf;" id="kvg:09ece-Kaisho-s10" kvg:type="㇏" d="M53.25,44.15c5.2,4.16,27.62,17.76,33.36,20.81c1.95,1.04,4.45,1.48,6.39,1.77"/>
			</g>
			<g id="kvg:09ece-Kaisho-g12" kvg:element="氺" kvg:variant="true" kvg:original="水" kvg:position="bottom" kvg:radical="nelson">
				<path style="stroke: #0909bf;" id="kvg:09ece-Kaisho-s11" kvg:type="㇚" d="M53.84,55.08c0.07,0.38,1.49,1.96,1.49,4.36c0,14.34-0.2,30.41-0.2,34.33c0,8.32-5.7,1.19-6.88,0.2"/>
				<path style="stroke: #5209bf;" id="kvg:09ece-Kaisho-s12" kvg:type="㇔" d="M35.25,65.5c3.35,1.76,8.66,7.26,9.5,10"/>
				<path style="stroke: #9a09bf;" id="kvg:09ece-Kaisho-s13" kvg:type="㇀" d="M22.75,90.67c1.97,1.34,3.61,1.91,5.58,0.76c1.16-0.68,10.5-6.69,15.42-9.94"/>
				<path style="stroke: #bf099a;" id="kvg:09ece-Kaisho-s14" kvg:type="㇒" d="M71.52,63.89c0.03,0.2,0.06,0.51-0.06,0.79c-0.71,1.66-4.81,5.31-10.41,7.54"/>
				<path style="stroke: #bf0952;" id="kvg:09ece-Kaisho-s15" kvg:type="㇔/㇏" d="M63,78c4.25,1.75,15.87,10.21,19.57,16.78"/>
			</g>
		</g>
	</g>
</g>
</g>
<g id="kvg:StrokeNumbers_09ece-Kaisho" style="font-size:8;fill:#808080" transform="scale(3.0,3.0)">
	<text style="fill: #bf0909;" transform="matrix(1 0 0 1 32.25 9.25)">1</text>
	<text style="fill: #bf5209;" transform="matrix(1 0 0 1 7.25 28.25)">2</text>
	<text style="fill: #bf9a09;" transform="matrix(1 0 0 1 37.25 22.25)">3</text>
	<text style="fill: #9abf09;" transform="matrix(1 0 0 1 18.25 36.15)">4</text>
	<text style="fill: #52bf09;" transform="matrix(1 0 0 1 42.25 32.25)">5</text>
	<text style="fill: #09bf09;" transform="matrix(1 0 0 1 57.25 9.25)">6</text>
	<text style="fill: #09bf52;" transform="matrix(1 0 0 1 68.25 18.25)">7</text>
	<text style="fill: #09bf9a;" transform="matrix(1 0 0 1 62.25 31.25)">8</text>
	<text style="fill: #099abf;" transform="matrix(1 0 0 1 41.00 48.25)">9</text>
	<text style="fill: #0952bf;" transform="matrix(1 0 0 1 63.25 48.25)">10</text>
	<text style="fill: #0909bf;" transform="matrix(1 0 0 1 44.25 62.63)">11</text>
	<text style="fill: #5209bf;" transform="matrix(1 0 0 1 28.25 73.25)">12</text>
	<text style="fill: #9a09bf;" transform="matrix(1 0 0 1 13.25 96.25)">13</text>
	<text style="fill: #bf099a;" transform="matrix(1 0 0 1 60.25 63.25)">14</text>
	<text style="fill: #bf0952;" transform="matrix(1 0 0 1 68.25 79.25)">15</text>
</g>
</svg>
