<?xml version="1.0" encoding="UTF-8"?>
<!--
This file has been modified from the original version by the kanji_colorize.py
script (available at http://github.com/cayennes/kanji-colorize) with these
settings:
    mode: spectrum
    saturation: 0.95
    value: 0.75
    image_size: 327
It remains under a Creative Commons-Attribution-Share Alike 3.0 License.

The original SVG has the following copyright:

Copyright (C) 2009/2010/2011 Ulrich Apel.
This work is distributed under the conditions of the Creative Commons
Attribution-Share Alike 3.0 Licence. This means you are free:
* to Share - to copy, distribute and transmit the work
* to Remix - to adapt the work

Under the following conditions:
* Attribution. You must attribute the work by stating your use of KanjiVG in
  your own copyright header and linking to KanjiVG's website
  (http://kanjivg.tagaini.net)
* Share Alike. If you alter, transform, or build upon this work, you may
  distribute the resulting work only under the same or similar license to this
  one.

See http://creativecommons.org/licenses/by-sa/3.0/ for more details.
-->
<!DOCTYPE svg PUBLIC "-//W3C//DTD SVG 1.0//EN" "http://www.w3.org/TR/2001/REC-SVG-20010904/DTD/svg10.dtd" [
<!ATTLIST g
xmlns:kvg CDATA #FIXED "http://kanjivg.tagaini.net"
kvg:element CDATA #IMPLIED
kvg:variant CDATA #IMPLIED
kvg:partial CDATA #IMPLIED
kvg:original CDATA #IMPLIED
kvg:part CDATA #IMPLIED
kvg:number CDATA #IMPLIED
kvg:tradForm CDATA #IMPLIED
kvg:radicalForm CDATA #IMPLIED
kvg:position CDATA #IMPLIED
kvg:radical CDATA #IMPLIED
kvg:phon CDATA #IMPLIED >
<!ATTLIST path
xmlns:kvg CDATA #FIXED "http://kanjivg.tagaini.net"
kvg:type CDATA #IMPLIED >
]>
<svg xmlns="http://www.w3.org/2000/svg" width="327" height = "327" viewBox="0 0 327 327">
<g id="kvg:StrokePaths_09ed9-Kaisho" style="fill:none;stroke:#000000;stroke-width:3;stroke-linecap:round;stroke-linejoin:round;" transform="scale(3.0,3.0)">
<g id="kvg:09ed9-Kaisho" kvg:element="黙">
	<g id="kvg:09ed9-Kaisho-g1" kvg:position="top">
		<g id="kvg:09ed9-Kaisho-g2" kvg:element="黒" kvg:part="1" kvg:variant="true" kvg:original="黑" kvg:tradForm="true">
			<g id="kvg:09ed9-Kaisho-g3" kvg:element="里">
				<path style="stroke: #bf0909;" id="kvg:09ed9-Kaisho-s1" kvg:type="㇑" d="M15.41,16.21c0.26,0.42,0.59,1.64,0.74,2.16c1.19,4.34,3.31,14.78,4.05,22.88"/>
				<path style="stroke: #bf5209;" id="kvg:09ed9-Kaisho-s2" kvg:type="㇕a" d="M16.86,17.66c8.44-0.99,24.05-2.64,30.35-3.48c2.31-0.31,3.49,1.21,3.38,2.79c-0.28,4.01-1.64,14.27-3.35,21.31"/>
				<path style="stroke: #bf9a09;" id="kvg:09ed9-Kaisho-s3" kvg:type="㇐a" d="M18.94,29.26c6.54-0.91,13.11-1.6,19.67-2.35c0.79-0.09,1.55-0.18,2.28-0.26"/>
				<path style="stroke: #9abf09;" id="kvg:09ed9-Kaisho-s4" kvg:type="㇐a" d="M20.34,39.85c6.08-0.42,18.65-3.12,27.04-3.81"/>
				<path style="stroke: #52bf09;" id="kvg:09ed9-Kaisho-s5" kvg:type="㇑a" d="M33.19,16.56c0.5,0.69,0.74,1.09,0.76,1.93c0.23,9.62,0.09,41.11,0.09,44.5"/>
				<path style="stroke: #09bf09;" id="kvg:09ed9-Kaisho-s6" kvg:type="㇐" d="M17.92,50.64c0.58,0.28,3.14,0.31,3.73,0.28c6.04-0.32,16.11-2.17,24.24-3.22c0.96-0.12,1.55,0.13,2.03,0.27"/>
				<path style="stroke: #09bf52;" id="kvg:09ed9-Kaisho-s7" kvg:type="㇀/㇐" d="M15.38,66.79c0.74,0.8,2.1,1.01,2.83,0.8c9.29-2.6,20.29-5.85,31.89-8.81"/>
			</g>
		</g>
		<g id="kvg:09ed9-Kaisho-g4" kvg:element="犬">
			<g id="kvg:09ed9-Kaisho-g5" kvg:element="大">
				<path style="stroke: #09bf9a;" id="kvg:09ed9-Kaisho-s8" kvg:type="㇐" d="M55.65,35.08c0.58,0.31,2.57,0.65,3.7,0.51C66,34.75,78,33,85.22,32.21c1.05-0.11,1.28-0.21,2.77,0.14"/>
				<path style="stroke: #099abf;" id="kvg:09ed9-Kaisho-s9" kvg:type="㇒" d="M69.4,13.5c0.6,0.78,1.03,1.56,1.05,3.12C70.75,38.25,66.75,56,49.32,68.75"/>
				<path style="stroke: #0952bf;" id="kvg:09ed9-Kaisho-s10" kvg:type="㇏" d="M69.66,34.46c5.38,8.68,15.85,23.37,22.72,29.56c1.81,1.63,2.47,1.83,3.3,1.98"/>
			</g>
			<g id="kvg:09ed9-Kaisho-g6" kvg:element="丶">
				<path style="stroke: #0909bf;" id="kvg:09ed9-Kaisho-s11" kvg:type="㇔" d="M79.93,16.35c4.32,2.98,5.5,5.25,6.83,8.04"/>
			</g>
		</g>
	</g>
	<g id="kvg:09ed9-Kaisho-g7" kvg:element="黒" kvg:part="2" kvg:variant="true" kvg:original="黑" kvg:tradForm="true" kvg:position="bottom">
		<g id="kvg:09ed9-Kaisho-g8" kvg:element="灬" kvg:variant="true" kvg:original="火" kvg:radical="nelson">
			<path style="stroke: #5209bf;" id="kvg:09ed9-Kaisho-s12" kvg:type="㇔" d="M20.44,80.75c-1.19,6-6.9,13-8.44,14.5"/>
			<path style="stroke: #9a09bf;" id="kvg:09ed9-Kaisho-s13" kvg:type="㇔" d="M38.25,79.25c1.71,2.87,4.25,10.5,3.76,15.25"/>
			<path style="stroke: #bf099a;" id="kvg:09ed9-Kaisho-s14" kvg:type="㇔" d="M60.75,78.5c2.75,2.56,6.75,9.98,6.75,14.5"/>
			<path style="stroke: #bf0952;" id="kvg:09ed9-Kaisho-s15" kvg:type="㇔" d="M83.46,78.08c3.56,2.93,9.21,12.07,10.1,16.63"/>
		</g>
	</g>
</g>
</g>
<g id="kvg:StrokeNumbers_09ed9-Kaisho" style="font-size:8;fill:#808080" transform="scale(3.0,3.0)">
	<text style="fill: #bf0909;" transform="matrix(1 0 0 1 11.00 25.38)">1</text>
	<text style="fill: #bf5209;" transform="matrix(1 0 0 1 20.00 14.25)">2</text>
	<text style="fill: #bf9a09;" transform="matrix(1 0 0 1 23.00 25.25)">3</text>
	<text style="fill: #9abf09;" transform="matrix(1 0 0 1 23.00 36.25)">4</text>
	<text style="fill: #52bf09;" transform="matrix(1 0 0 1 37.25 23.25)">5</text>
	<text style="fill: #09bf09;" transform="matrix(1 0 0 1 11.00 52.38)">6</text>
	<text style="fill: #09bf52;" transform="matrix(1 0 0 1 6.50 68.80)">7</text>
	<text style="fill: #09bf9a;" transform="matrix(1 0 0 1 55.25 32.25)">8</text>
	<text style="fill: #099abf;" transform="matrix(1 0 0 1 61.25 14.25)">9</text>
	<text style="fill: #0952bf;" transform="matrix(1 0 0 1 78.25 44.25)">10</text>
	<text style="fill: #0909bf;" transform="matrix(1 0 0 1 76.25 13.38)">11</text>
	<text style="fill: #5209bf;" transform="matrix(1 0 0 1 11.25 80.25)">12</text>
	<text style="fill: #9a09bf;" transform="matrix(1 0 0 1 28.25 81.25)">13</text>
	<text style="fill: #bf099a;" transform="matrix(1 0 0 1 50.25 81.25)">14</text>
	<text style="fill: #bf0952;" transform="matrix(1 0 0 1 73.25 80.25)">15</text>
</g>
</svg>
